%TF.GenerationSoftware,KiCad,Pcbnew,6.0.0-d3dd2cf0fa~116~ubuntu21.10.1*%
%TF.CreationDate,2022-01-12T20:54:13-05:00*%
%TF.ProjectId,ardustack-power,61726475-7374-4616-936b-2d706f776572,rev?*%
%TF.SameCoordinates,Original*%
%TF.FileFunction,Copper,L1,Top*%
%TF.FilePolarity,Positive*%
%FSLAX46Y46*%
G04 Gerber Fmt 4.6, Leading zero omitted, Abs format (unit mm)*
G04 Created by KiCad (PCBNEW 6.0.0-d3dd2cf0fa~116~ubuntu21.10.1) date 2022-01-12 20:54:13*
%MOMM*%
%LPD*%
G01*
G04 APERTURE LIST*
%TA.AperFunction,ComponentPad*%
%ADD10O,1.727200X2.032000*%
%TD*%
%TA.AperFunction,ComponentPad*%
%ADD11C,4.064000*%
%TD*%
%TA.AperFunction,ComponentPad*%
%ADD12C,1.200000*%
%TD*%
%TA.AperFunction,ComponentPad*%
%ADD13R,3.500000X3.500000*%
%TD*%
%TA.AperFunction,ComponentPad*%
%ADD14R,1.935000X1.935000*%
%TD*%
%TA.AperFunction,ComponentPad*%
%ADD15C,1.935000*%
%TD*%
%TA.AperFunction,ComponentPad*%
%ADD16C,1.400000*%
%TD*%
%TA.AperFunction,Conductor*%
%ADD17C,0.250000*%
%TD*%
G04 APERTURE END LIST*
D10*
%TO.P,P1,1,Pin_1*%
%TO.N,unconnected-(P1-Pad1)*%
X138938000Y-123825000D03*
%TO.P,P1,2,Pin_2*%
%TO.N,/IOREF*%
X141478000Y-123825000D03*
%TO.P,P1,3,Pin_3*%
%TO.N,/Reset*%
X144018000Y-123825000D03*
%TO.P,P1,4,Pin_4*%
%TO.N,+3V3*%
X146558000Y-123825000D03*
%TO.P,P1,5,Pin_5*%
%TO.N,+5V*%
X149098000Y-123825000D03*
%TO.P,P1,6,Pin_6*%
%TO.N,GND*%
X151638000Y-123825000D03*
%TO.P,P1,7,Pin_7*%
X154178000Y-123825000D03*
%TO.P,P1,8,Pin_8*%
%TO.N,/Vin*%
X156718000Y-123825000D03*
%TD*%
%TO.P,P2,1,Pin_1*%
%TO.N,/A0*%
X161798000Y-123825000D03*
%TO.P,P2,2,Pin_2*%
%TO.N,/A1*%
X164338000Y-123825000D03*
%TO.P,P2,3,Pin_3*%
%TO.N,/A2*%
X166878000Y-123825000D03*
%TO.P,P2,4,Pin_4*%
%TO.N,/A3*%
X169418000Y-123825000D03*
%TO.P,P2,5,Pin_5*%
%TO.N,/A4(SDA)*%
X171958000Y-123825000D03*
%TO.P,P2,6,Pin_6*%
%TO.N,/A5(SCL)*%
X174498000Y-123825000D03*
%TD*%
%TO.P,P3,1,Pin_1*%
%TO.N,unconnected-(P3-Pad1)*%
X129794000Y-75565000D03*
%TO.P,P3,2,Pin_2*%
%TO.N,unconnected-(P3-Pad2)*%
X132334000Y-75565000D03*
%TO.P,P3,3,Pin_3*%
%TO.N,/AREF*%
X134874000Y-75565000D03*
%TO.P,P3,4,Pin_4*%
%TO.N,GND*%
X137414000Y-75565000D03*
%TO.P,P3,5,Pin_5*%
%TO.N,/13(SCK)*%
X139954000Y-75565000D03*
%TO.P,P3,6,Pin_6*%
%TO.N,/12(MISO)*%
X142494000Y-75565000D03*
%TO.P,P3,7,Pin_7*%
%TO.N,/11(\u002A\u002A{slash}MOSI)*%
X145034000Y-75565000D03*
%TO.P,P3,8,Pin_8*%
%TO.N,/10(\u002A\u002A{slash}SS)*%
X147574000Y-75565000D03*
%TO.P,P3,9,Pin_9*%
%TO.N,/9(\u002A\u002A)*%
X150114000Y-75565000D03*
%TO.P,P3,10,Pin_10*%
%TO.N,/8*%
X152654000Y-75565000D03*
%TD*%
%TO.P,P4,1,Pin_1*%
%TO.N,/7*%
X156718000Y-75565000D03*
%TO.P,P4,2,Pin_2*%
%TO.N,/6(\u002A\u002A)*%
X159258000Y-75565000D03*
%TO.P,P4,3,Pin_3*%
%TO.N,/5(\u002A\u002A)*%
X161798000Y-75565000D03*
%TO.P,P4,4,Pin_4*%
%TO.N,/4*%
X164338000Y-75565000D03*
%TO.P,P4,5,Pin_5*%
%TO.N,/3(\u002A\u002A)*%
X166878000Y-75565000D03*
%TO.P,P4,6,Pin_6*%
%TO.N,/2*%
X169418000Y-75565000D03*
%TO.P,P4,7,Pin_7*%
%TO.N,/1(Tx)*%
X171958000Y-75565000D03*
%TO.P,P4,8,Pin_8*%
%TO.N,/0(Rx)*%
X174498000Y-75565000D03*
%TD*%
D11*
%TO.P,P5,1,Pin_1*%
%TO.N,unconnected-(P5-Pad1)*%
X124968000Y-123825000D03*
%TD*%
%TO.P,P6,1,Pin_1*%
%TO.N,unconnected-(P6-Pad1)*%
X177038000Y-118745000D03*
%TD*%
%TO.P,P7,1,Pin_1*%
%TO.N,unconnected-(P7-Pad1)*%
X126238000Y-75565000D03*
%TD*%
%TO.P,P8,1,Pin_1*%
%TO.N,unconnected-(P8-Pad1)*%
X177038000Y-90805000D03*
%TD*%
D12*
%TO.P,C2,1*%
%TO.N,+5V*%
X139750000Y-112000000D03*
%TO.P,C2,2*%
%TO.N,GND*%
X142250000Y-112000000D03*
%TD*%
D13*
%TO.P,J1,1*%
%TO.N,/Vin*%
X124000000Y-112000000D03*
%TO.P,J1,2*%
%TO.N,GND*%
X118000000Y-112000000D03*
%TO.P,J1,3*%
%TO.N,unconnected-(J1-Pad3)*%
X121000000Y-116700000D03*
%TD*%
D14*
%TO.P,IC1,1,INPUT*%
%TO.N,/Vin*%
X133460000Y-105000000D03*
D15*
%TO.P,IC1,2,GROUND*%
%TO.N,GND*%
X136000000Y-105000000D03*
%TO.P,IC1,3,OUTPUT*%
%TO.N,+5V*%
X138540000Y-105000000D03*
%TD*%
D16*
%TO.P,IC2,1,OUTPUT*%
%TO.N,+3V3*%
X147270000Y-104000000D03*
%TO.P,IC2,2,GND*%
%TO.N,GND*%
X146000000Y-105000000D03*
%TO.P,IC2,3,INPUT*%
%TO.N,+5V*%
X144730000Y-104000000D03*
%TD*%
D12*
%TO.P,C1,1*%
%TO.N,/Vin*%
X129750000Y-112000000D03*
%TO.P,C1,2*%
%TO.N,GND*%
X132250000Y-112000000D03*
%TD*%
%TO.P,C3,1*%
%TO.N,+3V3*%
X149750000Y-112000000D03*
%TO.P,C3,2*%
%TO.N,GND*%
X152250000Y-112000000D03*
%TD*%
D17*
%TO.N,+5V*%
X137668000Y-114082000D02*
X139750000Y-112000000D01*
X139750000Y-112000000D02*
X139750000Y-106210000D01*
X147757480Y-125165520D02*
X138445865Y-125165520D01*
X149098000Y-123825000D02*
X147757480Y-125165520D01*
X137668000Y-124387655D02*
X137668000Y-114082000D01*
X144730000Y-104000000D02*
X139540000Y-104000000D01*
X139540000Y-104000000D02*
X138540000Y-105000000D01*
X138445865Y-125165520D02*
X137668000Y-124387655D01*
X139750000Y-106210000D02*
X138540000Y-105000000D01*
%TO.N,/Vin*%
X156718000Y-123825000D02*
X154927960Y-125615040D01*
X129750000Y-117177000D02*
X129750000Y-112000000D01*
X129750000Y-112000000D02*
X129750000Y-108710000D01*
X154927960Y-125615040D02*
X138188040Y-125615040D01*
X129750000Y-108710000D02*
X133460000Y-105000000D01*
X129750000Y-112000000D02*
X124000000Y-112000000D01*
X138188040Y-125615040D02*
X129750000Y-117177000D01*
%TO.N,+3V3*%
X146558000Y-115192000D02*
X146558000Y-123825000D01*
X149750000Y-112000000D02*
X149750000Y-106480000D01*
X149750000Y-112000000D02*
X146558000Y-115192000D01*
X149750000Y-106480000D02*
X147270000Y-104000000D01*
%TD*%
M02*
