%TF.GenerationSoftware,KiCad,Pcbnew,6.0.0-d3dd2cf0fa~116~ubuntu21.10.1*%
%TF.CreationDate,2022-01-12T20:54:14-05:00*%
%TF.ProjectId,ardustack-power,61726475-7374-4616-936b-2d706f776572,rev?*%
%TF.SameCoordinates,Original*%
%TF.FileFunction,Copper,L2,Bot*%
%TF.FilePolarity,Positive*%
%FSLAX46Y46*%
G04 Gerber Fmt 4.6, Leading zero omitted, Abs format (unit mm)*
G04 Created by KiCad (PCBNEW 6.0.0-d3dd2cf0fa~116~ubuntu21.10.1) date 2022-01-12 20:54:14*
%MOMM*%
%LPD*%
G01*
G04 APERTURE LIST*
%TA.AperFunction,ComponentPad*%
%ADD10O,1.727200X2.032000*%
%TD*%
%TA.AperFunction,ComponentPad*%
%ADD11C,4.064000*%
%TD*%
%TA.AperFunction,ComponentPad*%
%ADD12C,1.200000*%
%TD*%
%TA.AperFunction,ComponentPad*%
%ADD13R,3.500000X3.500000*%
%TD*%
%TA.AperFunction,ComponentPad*%
%ADD14R,1.935000X1.935000*%
%TD*%
%TA.AperFunction,ComponentPad*%
%ADD15C,1.935000*%
%TD*%
%TA.AperFunction,ComponentPad*%
%ADD16C,1.400000*%
%TD*%
G04 APERTURE END LIST*
D10*
%TO.P,P1,1,Pin_1*%
%TO.N,unconnected-(P1-Pad1)*%
X138938000Y-123825000D03*
%TO.P,P1,2,Pin_2*%
%TO.N,/IOREF*%
X141478000Y-123825000D03*
%TO.P,P1,3,Pin_3*%
%TO.N,/Reset*%
X144018000Y-123825000D03*
%TO.P,P1,4,Pin_4*%
%TO.N,+3V3*%
X146558000Y-123825000D03*
%TO.P,P1,5,Pin_5*%
%TO.N,+5V*%
X149098000Y-123825000D03*
%TO.P,P1,6,Pin_6*%
%TO.N,GND*%
X151638000Y-123825000D03*
%TO.P,P1,7,Pin_7*%
X154178000Y-123825000D03*
%TO.P,P1,8,Pin_8*%
%TO.N,/Vin*%
X156718000Y-123825000D03*
%TD*%
%TO.P,P2,1,Pin_1*%
%TO.N,/A0*%
X161798000Y-123825000D03*
%TO.P,P2,2,Pin_2*%
%TO.N,/A1*%
X164338000Y-123825000D03*
%TO.P,P2,3,Pin_3*%
%TO.N,/A2*%
X166878000Y-123825000D03*
%TO.P,P2,4,Pin_4*%
%TO.N,/A3*%
X169418000Y-123825000D03*
%TO.P,P2,5,Pin_5*%
%TO.N,/A4(SDA)*%
X171958000Y-123825000D03*
%TO.P,P2,6,Pin_6*%
%TO.N,/A5(SCL)*%
X174498000Y-123825000D03*
%TD*%
%TO.P,P3,1,Pin_1*%
%TO.N,unconnected-(P3-Pad1)*%
X129794000Y-75565000D03*
%TO.P,P3,2,Pin_2*%
%TO.N,unconnected-(P3-Pad2)*%
X132334000Y-75565000D03*
%TO.P,P3,3,Pin_3*%
%TO.N,/AREF*%
X134874000Y-75565000D03*
%TO.P,P3,4,Pin_4*%
%TO.N,GND*%
X137414000Y-75565000D03*
%TO.P,P3,5,Pin_5*%
%TO.N,/13(SCK)*%
X139954000Y-75565000D03*
%TO.P,P3,6,Pin_6*%
%TO.N,/12(MISO)*%
X142494000Y-75565000D03*
%TO.P,P3,7,Pin_7*%
%TO.N,/11(\u002A\u002A{slash}MOSI)*%
X145034000Y-75565000D03*
%TO.P,P3,8,Pin_8*%
%TO.N,/10(\u002A\u002A{slash}SS)*%
X147574000Y-75565000D03*
%TO.P,P3,9,Pin_9*%
%TO.N,/9(\u002A\u002A)*%
X150114000Y-75565000D03*
%TO.P,P3,10,Pin_10*%
%TO.N,/8*%
X152654000Y-75565000D03*
%TD*%
%TO.P,P4,1,Pin_1*%
%TO.N,/7*%
X156718000Y-75565000D03*
%TO.P,P4,2,Pin_2*%
%TO.N,/6(\u002A\u002A)*%
X159258000Y-75565000D03*
%TO.P,P4,3,Pin_3*%
%TO.N,/5(\u002A\u002A)*%
X161798000Y-75565000D03*
%TO.P,P4,4,Pin_4*%
%TO.N,/4*%
X164338000Y-75565000D03*
%TO.P,P4,5,Pin_5*%
%TO.N,/3(\u002A\u002A)*%
X166878000Y-75565000D03*
%TO.P,P4,6,Pin_6*%
%TO.N,/2*%
X169418000Y-75565000D03*
%TO.P,P4,7,Pin_7*%
%TO.N,/1(Tx)*%
X171958000Y-75565000D03*
%TO.P,P4,8,Pin_8*%
%TO.N,/0(Rx)*%
X174498000Y-75565000D03*
%TD*%
D11*
%TO.P,P5,1,Pin_1*%
%TO.N,unconnected-(P5-Pad1)*%
X124968000Y-123825000D03*
%TD*%
%TO.P,P6,1,Pin_1*%
%TO.N,unconnected-(P6-Pad1)*%
X177038000Y-118745000D03*
%TD*%
%TO.P,P7,1,Pin_1*%
%TO.N,unconnected-(P7-Pad1)*%
X126238000Y-75565000D03*
%TD*%
%TO.P,P8,1,Pin_1*%
%TO.N,unconnected-(P8-Pad1)*%
X177038000Y-90805000D03*
%TD*%
D12*
%TO.P,C2,1*%
%TO.N,+5V*%
X139750000Y-112000000D03*
%TO.P,C2,2*%
%TO.N,GND*%
X142250000Y-112000000D03*
%TD*%
D13*
%TO.P,J1,1*%
%TO.N,/Vin*%
X124000000Y-112000000D03*
%TO.P,J1,2*%
%TO.N,GND*%
X118000000Y-112000000D03*
%TO.P,J1,3*%
%TO.N,unconnected-(J1-Pad3)*%
X121000000Y-116700000D03*
%TD*%
D14*
%TO.P,IC1,1,INPUT*%
%TO.N,/Vin*%
X133460000Y-105000000D03*
D15*
%TO.P,IC1,2,GROUND*%
%TO.N,GND*%
X136000000Y-105000000D03*
%TO.P,IC1,3,OUTPUT*%
%TO.N,+5V*%
X138540000Y-105000000D03*
%TD*%
D16*
%TO.P,IC2,1,OUTPUT*%
%TO.N,+3V3*%
X147270000Y-104000000D03*
%TO.P,IC2,2,GND*%
%TO.N,GND*%
X146000000Y-105000000D03*
%TO.P,IC2,3,INPUT*%
%TO.N,+5V*%
X144730000Y-104000000D03*
%TD*%
D12*
%TO.P,C1,1*%
%TO.N,/Vin*%
X129750000Y-112000000D03*
%TO.P,C1,2*%
%TO.N,GND*%
X132250000Y-112000000D03*
%TD*%
%TO.P,C3,1*%
%TO.N,+3V3*%
X149750000Y-112000000D03*
%TO.P,C3,2*%
%TO.N,GND*%
X152250000Y-112000000D03*
%TD*%
%TA.AperFunction,Conductor*%
%TO.N,GND*%
G36*
X124440529Y-73553002D02*
G01*
X124487022Y-73606658D01*
X124497126Y-73676932D01*
X124467632Y-73741512D01*
X124458661Y-73750850D01*
X124382394Y-73822470D01*
X124178629Y-74068779D01*
X124176505Y-74072126D01*
X124176502Y-74072130D01*
X124125981Y-74151738D01*
X124007341Y-74338685D01*
X124005657Y-74342264D01*
X124005653Y-74342271D01*
X123902875Y-74560687D01*
X123871233Y-74627930D01*
X123870007Y-74631702D01*
X123870007Y-74631703D01*
X123868107Y-74637551D01*
X123772449Y-74931954D01*
X123712549Y-75245961D01*
X123692477Y-75565000D01*
X123712549Y-75884039D01*
X123772449Y-76198046D01*
X123773676Y-76201822D01*
X123868201Y-76492737D01*
X123871233Y-76502070D01*
X123872920Y-76505656D01*
X123872922Y-76505660D01*
X124005653Y-76787729D01*
X124005657Y-76787736D01*
X124007341Y-76791315D01*
X124009465Y-76794661D01*
X124009465Y-76794662D01*
X124169914Y-77047488D01*
X124178629Y-77061221D01*
X124382394Y-77307530D01*
X124615423Y-77526359D01*
X124874041Y-77714256D01*
X125154169Y-77868258D01*
X125316083Y-77932364D01*
X125447707Y-77984478D01*
X125447710Y-77984479D01*
X125451390Y-77985936D01*
X125455224Y-77986920D01*
X125455232Y-77986923D01*
X125647153Y-78036200D01*
X125761017Y-78065435D01*
X125764945Y-78065931D01*
X125764949Y-78065932D01*
X125890642Y-78081810D01*
X126078165Y-78105500D01*
X126397835Y-78105500D01*
X126585358Y-78081810D01*
X126711051Y-78065932D01*
X126711055Y-78065931D01*
X126714983Y-78065435D01*
X126828847Y-78036200D01*
X127020768Y-77986923D01*
X127020776Y-77986920D01*
X127024610Y-77985936D01*
X127028290Y-77984479D01*
X127028293Y-77984478D01*
X127159917Y-77932364D01*
X127321831Y-77868258D01*
X127601959Y-77714256D01*
X127860577Y-77526359D01*
X128093606Y-77307530D01*
X128297371Y-77061221D01*
X128306087Y-77047488D01*
X128466535Y-76794662D01*
X128466535Y-76794661D01*
X128468659Y-76791315D01*
X128470343Y-76787736D01*
X128470347Y-76787729D01*
X128540177Y-76639332D01*
X128587280Y-76586211D01*
X128655625Y-76566988D01*
X128723512Y-76587767D01*
X128745355Y-76606008D01*
X128881532Y-76748758D01*
X129068350Y-76887754D01*
X129073102Y-76890170D01*
X129270244Y-76990402D01*
X129275916Y-76993286D01*
X129387106Y-77027811D01*
X129493193Y-77060753D01*
X129493199Y-77060754D01*
X129498296Y-77062337D01*
X129622660Y-77078820D01*
X129723848Y-77092232D01*
X129723852Y-77092232D01*
X129729132Y-77092932D01*
X129734462Y-77092732D01*
X129734463Y-77092732D01*
X129845477Y-77088564D01*
X129961822Y-77084197D01*
X130066005Y-77062337D01*
X130184486Y-77037477D01*
X130184489Y-77037476D01*
X130189713Y-77036380D01*
X130406290Y-76950850D01*
X130605359Y-76830051D01*
X130609855Y-76826150D01*
X130777197Y-76680939D01*
X130777199Y-76680937D01*
X130781230Y-76677439D01*
X130784613Y-76673313D01*
X130784617Y-76673309D01*
X130883776Y-76552374D01*
X130928872Y-76497376D01*
X130954845Y-76451748D01*
X131005927Y-76402442D01*
X131075558Y-76388580D01*
X131141629Y-76414563D01*
X131168867Y-76443713D01*
X131260804Y-76580272D01*
X131264483Y-76584129D01*
X131264485Y-76584131D01*
X131349223Y-76672959D01*
X131421532Y-76748758D01*
X131608350Y-76887754D01*
X131613102Y-76890170D01*
X131810244Y-76990402D01*
X131815916Y-76993286D01*
X131927106Y-77027811D01*
X132033193Y-77060753D01*
X132033199Y-77060754D01*
X132038296Y-77062337D01*
X132162660Y-77078820D01*
X132263848Y-77092232D01*
X132263852Y-77092232D01*
X132269132Y-77092932D01*
X132274462Y-77092732D01*
X132274463Y-77092732D01*
X132385477Y-77088564D01*
X132501822Y-77084197D01*
X132606005Y-77062337D01*
X132724486Y-77037477D01*
X132724489Y-77037476D01*
X132729713Y-77036380D01*
X132946290Y-76950850D01*
X133145359Y-76830051D01*
X133149855Y-76826150D01*
X133317197Y-76680939D01*
X133317199Y-76680937D01*
X133321230Y-76677439D01*
X133324613Y-76673313D01*
X133324617Y-76673309D01*
X133423776Y-76552374D01*
X133468872Y-76497376D01*
X133494845Y-76451748D01*
X133545927Y-76402442D01*
X133615558Y-76388580D01*
X133681629Y-76414563D01*
X133708867Y-76443713D01*
X133800804Y-76580272D01*
X133804483Y-76584129D01*
X133804485Y-76584131D01*
X133889223Y-76672959D01*
X133961532Y-76748758D01*
X134148350Y-76887754D01*
X134153102Y-76890170D01*
X134350244Y-76990402D01*
X134355916Y-76993286D01*
X134467106Y-77027811D01*
X134573193Y-77060753D01*
X134573199Y-77060754D01*
X134578296Y-77062337D01*
X134702660Y-77078820D01*
X134803848Y-77092232D01*
X134803852Y-77092232D01*
X134809132Y-77092932D01*
X134814462Y-77092732D01*
X134814463Y-77092732D01*
X134925477Y-77088564D01*
X135041822Y-77084197D01*
X135146005Y-77062337D01*
X135264486Y-77037477D01*
X135264489Y-77037476D01*
X135269713Y-77036380D01*
X135486290Y-76950850D01*
X135685359Y-76830051D01*
X135689855Y-76826150D01*
X135857197Y-76680939D01*
X135857199Y-76680937D01*
X135861230Y-76677439D01*
X135864613Y-76673313D01*
X135864617Y-76673309D01*
X135963776Y-76552374D01*
X136008872Y-76497376D01*
X136035122Y-76451261D01*
X136086202Y-76401956D01*
X136155832Y-76388094D01*
X136221904Y-76414077D01*
X136249143Y-76443227D01*
X136338215Y-76575530D01*
X136344876Y-76583816D01*
X136498180Y-76744520D01*
X136506148Y-76751569D01*
X136684336Y-76884144D01*
X136693366Y-76889743D01*
X136891347Y-76990402D01*
X136901208Y-76994405D01*
X137113301Y-77060263D01*
X137123696Y-77062548D01*
X137142041Y-77064980D01*
X137156208Y-77062783D01*
X137160000Y-77049599D01*
X137160000Y-77047488D01*
X137668000Y-77047488D01*
X137671973Y-77061019D01*
X137682580Y-77062544D01*
X137804343Y-77036996D01*
X137814539Y-77033936D01*
X138021097Y-76952363D01*
X138030634Y-76947629D01*
X138220503Y-76832414D01*
X138229093Y-76826150D01*
X138396837Y-76680589D01*
X138404257Y-76672959D01*
X138545073Y-76501220D01*
X138551102Y-76492449D01*
X138574533Y-76451285D01*
X138625615Y-76401978D01*
X138695245Y-76388116D01*
X138761316Y-76414099D01*
X138788555Y-76443249D01*
X138880804Y-76580272D01*
X138884483Y-76584129D01*
X138884485Y-76584131D01*
X138969223Y-76672959D01*
X139041532Y-76748758D01*
X139228350Y-76887754D01*
X139233102Y-76890170D01*
X139430244Y-76990402D01*
X139435916Y-76993286D01*
X139547106Y-77027811D01*
X139653193Y-77060753D01*
X139653199Y-77060754D01*
X139658296Y-77062337D01*
X139782660Y-77078820D01*
X139883848Y-77092232D01*
X139883852Y-77092232D01*
X139889132Y-77092932D01*
X139894462Y-77092732D01*
X139894463Y-77092732D01*
X140005477Y-77088564D01*
X140121822Y-77084197D01*
X140226005Y-77062337D01*
X140344486Y-77037477D01*
X140344489Y-77037476D01*
X140349713Y-77036380D01*
X140566290Y-76950850D01*
X140765359Y-76830051D01*
X140769855Y-76826150D01*
X140937197Y-76680939D01*
X140937199Y-76680937D01*
X140941230Y-76677439D01*
X140944613Y-76673313D01*
X140944617Y-76673309D01*
X141043776Y-76552374D01*
X141088872Y-76497376D01*
X141114845Y-76451748D01*
X141165927Y-76402442D01*
X141235558Y-76388580D01*
X141301629Y-76414563D01*
X141328867Y-76443713D01*
X141420804Y-76580272D01*
X141424483Y-76584129D01*
X141424485Y-76584131D01*
X141509223Y-76672959D01*
X141581532Y-76748758D01*
X141768350Y-76887754D01*
X141773102Y-76890170D01*
X141970244Y-76990402D01*
X141975916Y-76993286D01*
X142087106Y-77027811D01*
X142193193Y-77060753D01*
X142193199Y-77060754D01*
X142198296Y-77062337D01*
X142322660Y-77078820D01*
X142423848Y-77092232D01*
X142423852Y-77092232D01*
X142429132Y-77092932D01*
X142434462Y-77092732D01*
X142434463Y-77092732D01*
X142545477Y-77088564D01*
X142661822Y-77084197D01*
X142766005Y-77062337D01*
X142884486Y-77037477D01*
X142884489Y-77037476D01*
X142889713Y-77036380D01*
X143106290Y-76950850D01*
X143305359Y-76830051D01*
X143309855Y-76826150D01*
X143477197Y-76680939D01*
X143477199Y-76680937D01*
X143481230Y-76677439D01*
X143484613Y-76673313D01*
X143484617Y-76673309D01*
X143583776Y-76552374D01*
X143628872Y-76497376D01*
X143654845Y-76451748D01*
X143705927Y-76402442D01*
X143775558Y-76388580D01*
X143841629Y-76414563D01*
X143868867Y-76443713D01*
X143960804Y-76580272D01*
X143964483Y-76584129D01*
X143964485Y-76584131D01*
X144049223Y-76672959D01*
X144121532Y-76748758D01*
X144308350Y-76887754D01*
X144313102Y-76890170D01*
X144510244Y-76990402D01*
X144515916Y-76993286D01*
X144627106Y-77027811D01*
X144733193Y-77060753D01*
X144733199Y-77060754D01*
X144738296Y-77062337D01*
X144862660Y-77078820D01*
X144963848Y-77092232D01*
X144963852Y-77092232D01*
X144969132Y-77092932D01*
X144974462Y-77092732D01*
X144974463Y-77092732D01*
X145085477Y-77088564D01*
X145201822Y-77084197D01*
X145306005Y-77062337D01*
X145424486Y-77037477D01*
X145424489Y-77037476D01*
X145429713Y-77036380D01*
X145646290Y-76950850D01*
X145845359Y-76830051D01*
X145849855Y-76826150D01*
X146017197Y-76680939D01*
X146017199Y-76680937D01*
X146021230Y-76677439D01*
X146024613Y-76673313D01*
X146024617Y-76673309D01*
X146123776Y-76552374D01*
X146168872Y-76497376D01*
X146194845Y-76451748D01*
X146245927Y-76402442D01*
X146315558Y-76388580D01*
X146381629Y-76414563D01*
X146408867Y-76443713D01*
X146500804Y-76580272D01*
X146504483Y-76584129D01*
X146504485Y-76584131D01*
X146589223Y-76672959D01*
X146661532Y-76748758D01*
X146848350Y-76887754D01*
X146853102Y-76890170D01*
X147050244Y-76990402D01*
X147055916Y-76993286D01*
X147167106Y-77027811D01*
X147273193Y-77060753D01*
X147273199Y-77060754D01*
X147278296Y-77062337D01*
X147402660Y-77078820D01*
X147503848Y-77092232D01*
X147503852Y-77092232D01*
X147509132Y-77092932D01*
X147514462Y-77092732D01*
X147514463Y-77092732D01*
X147625477Y-77088564D01*
X147741822Y-77084197D01*
X147846005Y-77062337D01*
X147964486Y-77037477D01*
X147964489Y-77037476D01*
X147969713Y-77036380D01*
X148186290Y-76950850D01*
X148385359Y-76830051D01*
X148389855Y-76826150D01*
X148557197Y-76680939D01*
X148557199Y-76680937D01*
X148561230Y-76677439D01*
X148564613Y-76673313D01*
X148564617Y-76673309D01*
X148663776Y-76552374D01*
X148708872Y-76497376D01*
X148734845Y-76451748D01*
X148785927Y-76402442D01*
X148855558Y-76388580D01*
X148921629Y-76414563D01*
X148948867Y-76443713D01*
X149040804Y-76580272D01*
X149044483Y-76584129D01*
X149044485Y-76584131D01*
X149129223Y-76672959D01*
X149201532Y-76748758D01*
X149388350Y-76887754D01*
X149393102Y-76890170D01*
X149590244Y-76990402D01*
X149595916Y-76993286D01*
X149707106Y-77027811D01*
X149813193Y-77060753D01*
X149813199Y-77060754D01*
X149818296Y-77062337D01*
X149942660Y-77078820D01*
X150043848Y-77092232D01*
X150043852Y-77092232D01*
X150049132Y-77092932D01*
X150054462Y-77092732D01*
X150054463Y-77092732D01*
X150165477Y-77088564D01*
X150281822Y-77084197D01*
X150386005Y-77062337D01*
X150504486Y-77037477D01*
X150504489Y-77037476D01*
X150509713Y-77036380D01*
X150726290Y-76950850D01*
X150925359Y-76830051D01*
X150929855Y-76826150D01*
X151097197Y-76680939D01*
X151097199Y-76680937D01*
X151101230Y-76677439D01*
X151104613Y-76673313D01*
X151104617Y-76673309D01*
X151203776Y-76552374D01*
X151248872Y-76497376D01*
X151274845Y-76451748D01*
X151325927Y-76402442D01*
X151395558Y-76388580D01*
X151461629Y-76414563D01*
X151488867Y-76443713D01*
X151580804Y-76580272D01*
X151584483Y-76584129D01*
X151584485Y-76584131D01*
X151669223Y-76672959D01*
X151741532Y-76748758D01*
X151928350Y-76887754D01*
X151933102Y-76890170D01*
X152130244Y-76990402D01*
X152135916Y-76993286D01*
X152247106Y-77027811D01*
X152353193Y-77060753D01*
X152353199Y-77060754D01*
X152358296Y-77062337D01*
X152482660Y-77078820D01*
X152583848Y-77092232D01*
X152583852Y-77092232D01*
X152589132Y-77092932D01*
X152594462Y-77092732D01*
X152594463Y-77092732D01*
X152705477Y-77088564D01*
X152821822Y-77084197D01*
X152926005Y-77062337D01*
X153044486Y-77037477D01*
X153044489Y-77037476D01*
X153049713Y-77036380D01*
X153266290Y-76950850D01*
X153465359Y-76830051D01*
X153469855Y-76826150D01*
X153637197Y-76680939D01*
X153637199Y-76680937D01*
X153641230Y-76677439D01*
X153644613Y-76673313D01*
X153644617Y-76673309D01*
X153743776Y-76552374D01*
X153788872Y-76497376D01*
X153819696Y-76443227D01*
X153901422Y-76299654D01*
X153904065Y-76295011D01*
X153924239Y-76239435D01*
X153981695Y-76081146D01*
X153981696Y-76081142D01*
X153983515Y-76076131D01*
X154024950Y-75846993D01*
X154026100Y-75822606D01*
X154026100Y-75775868D01*
X155345900Y-75775868D01*
X155360626Y-75949420D01*
X155361964Y-75954577D01*
X155361965Y-75954580D01*
X155394816Y-76081146D01*
X155419125Y-76174806D01*
X155421317Y-76179672D01*
X155421318Y-76179675D01*
X155429594Y-76198046D01*
X155514762Y-76387113D01*
X155644804Y-76580272D01*
X155648483Y-76584129D01*
X155648485Y-76584131D01*
X155733223Y-76672959D01*
X155805532Y-76748758D01*
X155992350Y-76887754D01*
X155997102Y-76890170D01*
X156194244Y-76990402D01*
X156199916Y-76993286D01*
X156311106Y-77027811D01*
X156417193Y-77060753D01*
X156417199Y-77060754D01*
X156422296Y-77062337D01*
X156546660Y-77078820D01*
X156647848Y-77092232D01*
X156647852Y-77092232D01*
X156653132Y-77092932D01*
X156658462Y-77092732D01*
X156658463Y-77092732D01*
X156769477Y-77088564D01*
X156885822Y-77084197D01*
X156990005Y-77062337D01*
X157108486Y-77037477D01*
X157108489Y-77037476D01*
X157113713Y-77036380D01*
X157330290Y-76950850D01*
X157529359Y-76830051D01*
X157533855Y-76826150D01*
X157701197Y-76680939D01*
X157701199Y-76680937D01*
X157705230Y-76677439D01*
X157708613Y-76673313D01*
X157708617Y-76673309D01*
X157807776Y-76552374D01*
X157852872Y-76497376D01*
X157878845Y-76451748D01*
X157929927Y-76402442D01*
X157999558Y-76388580D01*
X158065629Y-76414563D01*
X158092867Y-76443713D01*
X158184804Y-76580272D01*
X158188483Y-76584129D01*
X158188485Y-76584131D01*
X158273223Y-76672959D01*
X158345532Y-76748758D01*
X158532350Y-76887754D01*
X158537102Y-76890170D01*
X158734244Y-76990402D01*
X158739916Y-76993286D01*
X158851106Y-77027811D01*
X158957193Y-77060753D01*
X158957199Y-77060754D01*
X158962296Y-77062337D01*
X159086660Y-77078820D01*
X159187848Y-77092232D01*
X159187852Y-77092232D01*
X159193132Y-77092932D01*
X159198462Y-77092732D01*
X159198463Y-77092732D01*
X159309477Y-77088564D01*
X159425822Y-77084197D01*
X159530005Y-77062337D01*
X159648486Y-77037477D01*
X159648489Y-77037476D01*
X159653713Y-77036380D01*
X159870290Y-76950850D01*
X160069359Y-76830051D01*
X160073855Y-76826150D01*
X160241197Y-76680939D01*
X160241199Y-76680937D01*
X160245230Y-76677439D01*
X160248613Y-76673313D01*
X160248617Y-76673309D01*
X160347776Y-76552374D01*
X160392872Y-76497376D01*
X160418845Y-76451748D01*
X160469927Y-76402442D01*
X160539558Y-76388580D01*
X160605629Y-76414563D01*
X160632867Y-76443713D01*
X160724804Y-76580272D01*
X160728483Y-76584129D01*
X160728485Y-76584131D01*
X160813223Y-76672959D01*
X160885532Y-76748758D01*
X161072350Y-76887754D01*
X161077102Y-76890170D01*
X161274244Y-76990402D01*
X161279916Y-76993286D01*
X161391106Y-77027811D01*
X161497193Y-77060753D01*
X161497199Y-77060754D01*
X161502296Y-77062337D01*
X161626660Y-77078820D01*
X161727848Y-77092232D01*
X161727852Y-77092232D01*
X161733132Y-77092932D01*
X161738462Y-77092732D01*
X161738463Y-77092732D01*
X161849477Y-77088564D01*
X161965822Y-77084197D01*
X162070005Y-77062337D01*
X162188486Y-77037477D01*
X162188489Y-77037476D01*
X162193713Y-77036380D01*
X162410290Y-76950850D01*
X162609359Y-76830051D01*
X162613855Y-76826150D01*
X162781197Y-76680939D01*
X162781199Y-76680937D01*
X162785230Y-76677439D01*
X162788613Y-76673313D01*
X162788617Y-76673309D01*
X162887776Y-76552374D01*
X162932872Y-76497376D01*
X162958845Y-76451748D01*
X163009927Y-76402442D01*
X163079558Y-76388580D01*
X163145629Y-76414563D01*
X163172867Y-76443713D01*
X163264804Y-76580272D01*
X163268483Y-76584129D01*
X163268485Y-76584131D01*
X163353223Y-76672959D01*
X163425532Y-76748758D01*
X163612350Y-76887754D01*
X163617102Y-76890170D01*
X163814244Y-76990402D01*
X163819916Y-76993286D01*
X163931106Y-77027811D01*
X164037193Y-77060753D01*
X164037199Y-77060754D01*
X164042296Y-77062337D01*
X164166660Y-77078820D01*
X164267848Y-77092232D01*
X164267852Y-77092232D01*
X164273132Y-77092932D01*
X164278462Y-77092732D01*
X164278463Y-77092732D01*
X164389477Y-77088564D01*
X164505822Y-77084197D01*
X164610005Y-77062337D01*
X164728486Y-77037477D01*
X164728489Y-77037476D01*
X164733713Y-77036380D01*
X164950290Y-76950850D01*
X165149359Y-76830051D01*
X165153855Y-76826150D01*
X165321197Y-76680939D01*
X165321199Y-76680937D01*
X165325230Y-76677439D01*
X165328613Y-76673313D01*
X165328617Y-76673309D01*
X165427776Y-76552374D01*
X165472872Y-76497376D01*
X165498845Y-76451748D01*
X165549927Y-76402442D01*
X165619558Y-76388580D01*
X165685629Y-76414563D01*
X165712867Y-76443713D01*
X165804804Y-76580272D01*
X165808483Y-76584129D01*
X165808485Y-76584131D01*
X165893223Y-76672959D01*
X165965532Y-76748758D01*
X166152350Y-76887754D01*
X166157102Y-76890170D01*
X166354244Y-76990402D01*
X166359916Y-76993286D01*
X166471106Y-77027811D01*
X166577193Y-77060753D01*
X166577199Y-77060754D01*
X166582296Y-77062337D01*
X166706660Y-77078820D01*
X166807848Y-77092232D01*
X166807852Y-77092232D01*
X166813132Y-77092932D01*
X166818462Y-77092732D01*
X166818463Y-77092732D01*
X166929477Y-77088564D01*
X167045822Y-77084197D01*
X167150005Y-77062337D01*
X167268486Y-77037477D01*
X167268489Y-77037476D01*
X167273713Y-77036380D01*
X167490290Y-76950850D01*
X167689359Y-76830051D01*
X167693855Y-76826150D01*
X167861197Y-76680939D01*
X167861199Y-76680937D01*
X167865230Y-76677439D01*
X167868613Y-76673313D01*
X167868617Y-76673309D01*
X167967776Y-76552374D01*
X168012872Y-76497376D01*
X168038845Y-76451748D01*
X168089927Y-76402442D01*
X168159558Y-76388580D01*
X168225629Y-76414563D01*
X168252867Y-76443713D01*
X168344804Y-76580272D01*
X168348483Y-76584129D01*
X168348485Y-76584131D01*
X168433223Y-76672959D01*
X168505532Y-76748758D01*
X168692350Y-76887754D01*
X168697102Y-76890170D01*
X168894244Y-76990402D01*
X168899916Y-76993286D01*
X169011106Y-77027811D01*
X169117193Y-77060753D01*
X169117199Y-77060754D01*
X169122296Y-77062337D01*
X169246660Y-77078820D01*
X169347848Y-77092232D01*
X169347852Y-77092232D01*
X169353132Y-77092932D01*
X169358462Y-77092732D01*
X169358463Y-77092732D01*
X169469477Y-77088564D01*
X169585822Y-77084197D01*
X169690005Y-77062337D01*
X169808486Y-77037477D01*
X169808489Y-77037476D01*
X169813713Y-77036380D01*
X170030290Y-76950850D01*
X170229359Y-76830051D01*
X170233855Y-76826150D01*
X170401197Y-76680939D01*
X170401199Y-76680937D01*
X170405230Y-76677439D01*
X170408613Y-76673313D01*
X170408617Y-76673309D01*
X170507776Y-76552374D01*
X170552872Y-76497376D01*
X170578845Y-76451748D01*
X170629927Y-76402442D01*
X170699558Y-76388580D01*
X170765629Y-76414563D01*
X170792867Y-76443713D01*
X170884804Y-76580272D01*
X170888483Y-76584129D01*
X170888485Y-76584131D01*
X170973223Y-76672959D01*
X171045532Y-76748758D01*
X171232350Y-76887754D01*
X171237102Y-76890170D01*
X171434244Y-76990402D01*
X171439916Y-76993286D01*
X171551106Y-77027811D01*
X171657193Y-77060753D01*
X171657199Y-77060754D01*
X171662296Y-77062337D01*
X171786660Y-77078820D01*
X171887848Y-77092232D01*
X171887852Y-77092232D01*
X171893132Y-77092932D01*
X171898462Y-77092732D01*
X171898463Y-77092732D01*
X172009477Y-77088564D01*
X172125822Y-77084197D01*
X172230005Y-77062337D01*
X172348486Y-77037477D01*
X172348489Y-77037476D01*
X172353713Y-77036380D01*
X172570290Y-76950850D01*
X172769359Y-76830051D01*
X172773855Y-76826150D01*
X172941197Y-76680939D01*
X172941199Y-76680937D01*
X172945230Y-76677439D01*
X172948613Y-76673313D01*
X172948617Y-76673309D01*
X173047776Y-76552374D01*
X173092872Y-76497376D01*
X173118845Y-76451748D01*
X173169927Y-76402442D01*
X173239558Y-76388580D01*
X173305629Y-76414563D01*
X173332867Y-76443713D01*
X173424804Y-76580272D01*
X173428483Y-76584129D01*
X173428485Y-76584131D01*
X173513223Y-76672959D01*
X173585532Y-76748758D01*
X173772350Y-76887754D01*
X173777102Y-76890170D01*
X173974244Y-76990402D01*
X173979916Y-76993286D01*
X174091106Y-77027811D01*
X174197193Y-77060753D01*
X174197199Y-77060754D01*
X174202296Y-77062337D01*
X174326660Y-77078820D01*
X174427848Y-77092232D01*
X174427852Y-77092232D01*
X174433132Y-77092932D01*
X174438462Y-77092732D01*
X174438463Y-77092732D01*
X174549477Y-77088564D01*
X174665822Y-77084197D01*
X174770005Y-77062337D01*
X174888486Y-77037477D01*
X174888489Y-77037476D01*
X174893713Y-77036380D01*
X175110290Y-76950850D01*
X175309359Y-76830051D01*
X175313855Y-76826150D01*
X175481197Y-76680939D01*
X175481199Y-76680937D01*
X175485230Y-76677439D01*
X175488613Y-76673313D01*
X175488617Y-76673309D01*
X175587776Y-76552374D01*
X175632872Y-76497376D01*
X175663696Y-76443227D01*
X175745422Y-76299654D01*
X175748065Y-76295011D01*
X175768239Y-76239435D01*
X175825695Y-76081146D01*
X175825696Y-76081142D01*
X175827515Y-76076131D01*
X175868950Y-75846993D01*
X175870100Y-75822606D01*
X175870100Y-75354132D01*
X175855374Y-75180580D01*
X175854035Y-75175420D01*
X175798217Y-74960363D01*
X175798216Y-74960359D01*
X175796875Y-74955194D01*
X175788164Y-74935855D01*
X175728317Y-74803001D01*
X175701238Y-74742887D01*
X175571196Y-74549728D01*
X175554861Y-74532604D01*
X175414152Y-74385104D01*
X175410468Y-74381242D01*
X175223650Y-74242246D01*
X175096574Y-74177637D01*
X175020842Y-74139133D01*
X175020841Y-74139133D01*
X175016084Y-74136714D01*
X174877299Y-74093620D01*
X174798807Y-74069247D01*
X174798801Y-74069246D01*
X174793704Y-74067663D01*
X174669340Y-74051180D01*
X174568152Y-74037768D01*
X174568148Y-74037768D01*
X174562868Y-74037068D01*
X174557538Y-74037268D01*
X174557537Y-74037268D01*
X174446523Y-74041436D01*
X174330178Y-74045803D01*
X174247474Y-74063156D01*
X174107514Y-74092523D01*
X174107511Y-74092524D01*
X174102287Y-74093620D01*
X173885710Y-74179150D01*
X173686641Y-74299949D01*
X173682611Y-74303446D01*
X173519570Y-74444925D01*
X173510770Y-74452561D01*
X173507387Y-74456687D01*
X173507383Y-74456691D01*
X173452241Y-74523942D01*
X173363128Y-74632624D01*
X173360490Y-74637259D01*
X173360487Y-74637263D01*
X173337155Y-74678252D01*
X173286073Y-74727558D01*
X173216442Y-74741420D01*
X173150371Y-74715437D01*
X173123133Y-74686287D01*
X173034176Y-74554155D01*
X173031196Y-74549728D01*
X173014861Y-74532604D01*
X172874152Y-74385104D01*
X172870468Y-74381242D01*
X172683650Y-74242246D01*
X172556574Y-74177637D01*
X172480842Y-74139133D01*
X172480841Y-74139133D01*
X172476084Y-74136714D01*
X172337299Y-74093620D01*
X172258807Y-74069247D01*
X172258801Y-74069246D01*
X172253704Y-74067663D01*
X172129340Y-74051180D01*
X172028152Y-74037768D01*
X172028148Y-74037768D01*
X172022868Y-74037068D01*
X172017538Y-74037268D01*
X172017537Y-74037268D01*
X171906523Y-74041436D01*
X171790178Y-74045803D01*
X171707474Y-74063156D01*
X171567514Y-74092523D01*
X171567511Y-74092524D01*
X171562287Y-74093620D01*
X171345710Y-74179150D01*
X171146641Y-74299949D01*
X171142611Y-74303446D01*
X170979570Y-74444925D01*
X170970770Y-74452561D01*
X170967387Y-74456687D01*
X170967383Y-74456691D01*
X170912241Y-74523942D01*
X170823128Y-74632624D01*
X170820490Y-74637259D01*
X170820487Y-74637263D01*
X170797155Y-74678252D01*
X170746073Y-74727558D01*
X170676442Y-74741420D01*
X170610371Y-74715437D01*
X170583133Y-74686287D01*
X170494176Y-74554155D01*
X170491196Y-74549728D01*
X170474861Y-74532604D01*
X170334152Y-74385104D01*
X170330468Y-74381242D01*
X170143650Y-74242246D01*
X170016574Y-74177637D01*
X169940842Y-74139133D01*
X169940841Y-74139133D01*
X169936084Y-74136714D01*
X169797299Y-74093620D01*
X169718807Y-74069247D01*
X169718801Y-74069246D01*
X169713704Y-74067663D01*
X169589340Y-74051180D01*
X169488152Y-74037768D01*
X169488148Y-74037768D01*
X169482868Y-74037068D01*
X169477538Y-74037268D01*
X169477537Y-74037268D01*
X169366523Y-74041436D01*
X169250178Y-74045803D01*
X169167474Y-74063156D01*
X169027514Y-74092523D01*
X169027511Y-74092524D01*
X169022287Y-74093620D01*
X168805710Y-74179150D01*
X168606641Y-74299949D01*
X168602611Y-74303446D01*
X168439570Y-74444925D01*
X168430770Y-74452561D01*
X168427387Y-74456687D01*
X168427383Y-74456691D01*
X168372241Y-74523942D01*
X168283128Y-74632624D01*
X168280490Y-74637259D01*
X168280487Y-74637263D01*
X168257155Y-74678252D01*
X168206073Y-74727558D01*
X168136442Y-74741420D01*
X168070371Y-74715437D01*
X168043133Y-74686287D01*
X167954176Y-74554155D01*
X167951196Y-74549728D01*
X167934861Y-74532604D01*
X167794152Y-74385104D01*
X167790468Y-74381242D01*
X167603650Y-74242246D01*
X167476574Y-74177637D01*
X167400842Y-74139133D01*
X167400841Y-74139133D01*
X167396084Y-74136714D01*
X167257299Y-74093620D01*
X167178807Y-74069247D01*
X167178801Y-74069246D01*
X167173704Y-74067663D01*
X167049340Y-74051180D01*
X166948152Y-74037768D01*
X166948148Y-74037768D01*
X166942868Y-74037068D01*
X166937538Y-74037268D01*
X166937537Y-74037268D01*
X166826523Y-74041436D01*
X166710178Y-74045803D01*
X166627474Y-74063156D01*
X166487514Y-74092523D01*
X166487511Y-74092524D01*
X166482287Y-74093620D01*
X166265710Y-74179150D01*
X166066641Y-74299949D01*
X166062611Y-74303446D01*
X165899570Y-74444925D01*
X165890770Y-74452561D01*
X165887387Y-74456687D01*
X165887383Y-74456691D01*
X165832241Y-74523942D01*
X165743128Y-74632624D01*
X165740490Y-74637259D01*
X165740487Y-74637263D01*
X165717155Y-74678252D01*
X165666073Y-74727558D01*
X165596442Y-74741420D01*
X165530371Y-74715437D01*
X165503133Y-74686287D01*
X165414176Y-74554155D01*
X165411196Y-74549728D01*
X165394861Y-74532604D01*
X165254152Y-74385104D01*
X165250468Y-74381242D01*
X165063650Y-74242246D01*
X164936574Y-74177637D01*
X164860842Y-74139133D01*
X164860841Y-74139133D01*
X164856084Y-74136714D01*
X164717299Y-74093620D01*
X164638807Y-74069247D01*
X164638801Y-74069246D01*
X164633704Y-74067663D01*
X164509340Y-74051180D01*
X164408152Y-74037768D01*
X164408148Y-74037768D01*
X164402868Y-74037068D01*
X164397538Y-74037268D01*
X164397537Y-74037268D01*
X164286523Y-74041436D01*
X164170178Y-74045803D01*
X164087474Y-74063156D01*
X163947514Y-74092523D01*
X163947511Y-74092524D01*
X163942287Y-74093620D01*
X163725710Y-74179150D01*
X163526641Y-74299949D01*
X163522611Y-74303446D01*
X163359570Y-74444925D01*
X163350770Y-74452561D01*
X163347387Y-74456687D01*
X163347383Y-74456691D01*
X163292241Y-74523942D01*
X163203128Y-74632624D01*
X163200490Y-74637259D01*
X163200487Y-74637263D01*
X163177155Y-74678252D01*
X163126073Y-74727558D01*
X163056442Y-74741420D01*
X162990371Y-74715437D01*
X162963133Y-74686287D01*
X162874176Y-74554155D01*
X162871196Y-74549728D01*
X162854861Y-74532604D01*
X162714152Y-74385104D01*
X162710468Y-74381242D01*
X162523650Y-74242246D01*
X162396574Y-74177637D01*
X162320842Y-74139133D01*
X162320841Y-74139133D01*
X162316084Y-74136714D01*
X162177299Y-74093620D01*
X162098807Y-74069247D01*
X162098801Y-74069246D01*
X162093704Y-74067663D01*
X161969340Y-74051180D01*
X161868152Y-74037768D01*
X161868148Y-74037768D01*
X161862868Y-74037068D01*
X161857538Y-74037268D01*
X161857537Y-74037268D01*
X161746523Y-74041436D01*
X161630178Y-74045803D01*
X161547474Y-74063156D01*
X161407514Y-74092523D01*
X161407511Y-74092524D01*
X161402287Y-74093620D01*
X161185710Y-74179150D01*
X160986641Y-74299949D01*
X160982611Y-74303446D01*
X160819570Y-74444925D01*
X160810770Y-74452561D01*
X160807387Y-74456687D01*
X160807383Y-74456691D01*
X160752241Y-74523942D01*
X160663128Y-74632624D01*
X160660490Y-74637259D01*
X160660487Y-74637263D01*
X160637155Y-74678252D01*
X160586073Y-74727558D01*
X160516442Y-74741420D01*
X160450371Y-74715437D01*
X160423133Y-74686287D01*
X160334176Y-74554155D01*
X160331196Y-74549728D01*
X160314861Y-74532604D01*
X160174152Y-74385104D01*
X160170468Y-74381242D01*
X159983650Y-74242246D01*
X159856574Y-74177637D01*
X159780842Y-74139133D01*
X159780841Y-74139133D01*
X159776084Y-74136714D01*
X159637299Y-74093620D01*
X159558807Y-74069247D01*
X159558801Y-74069246D01*
X159553704Y-74067663D01*
X159429340Y-74051180D01*
X159328152Y-74037768D01*
X159328148Y-74037768D01*
X159322868Y-74037068D01*
X159317538Y-74037268D01*
X159317537Y-74037268D01*
X159206523Y-74041436D01*
X159090178Y-74045803D01*
X159007474Y-74063156D01*
X158867514Y-74092523D01*
X158867511Y-74092524D01*
X158862287Y-74093620D01*
X158645710Y-74179150D01*
X158446641Y-74299949D01*
X158442611Y-74303446D01*
X158279570Y-74444925D01*
X158270770Y-74452561D01*
X158267387Y-74456687D01*
X158267383Y-74456691D01*
X158212241Y-74523942D01*
X158123128Y-74632624D01*
X158120490Y-74637259D01*
X158120487Y-74637263D01*
X158097155Y-74678252D01*
X158046073Y-74727558D01*
X157976442Y-74741420D01*
X157910371Y-74715437D01*
X157883133Y-74686287D01*
X157794176Y-74554155D01*
X157791196Y-74549728D01*
X157774861Y-74532604D01*
X157634152Y-74385104D01*
X157630468Y-74381242D01*
X157443650Y-74242246D01*
X157316574Y-74177637D01*
X157240842Y-74139133D01*
X157240841Y-74139133D01*
X157236084Y-74136714D01*
X157097299Y-74093620D01*
X157018807Y-74069247D01*
X157018801Y-74069246D01*
X157013704Y-74067663D01*
X156889340Y-74051180D01*
X156788152Y-74037768D01*
X156788148Y-74037768D01*
X156782868Y-74037068D01*
X156777538Y-74037268D01*
X156777537Y-74037268D01*
X156666523Y-74041436D01*
X156550178Y-74045803D01*
X156467474Y-74063156D01*
X156327514Y-74092523D01*
X156327511Y-74092524D01*
X156322287Y-74093620D01*
X156105710Y-74179150D01*
X155906641Y-74299949D01*
X155902611Y-74303446D01*
X155739570Y-74444925D01*
X155730770Y-74452561D01*
X155727387Y-74456687D01*
X155727383Y-74456691D01*
X155672241Y-74523942D01*
X155583128Y-74632624D01*
X155580490Y-74637259D01*
X155580487Y-74637263D01*
X155517589Y-74747760D01*
X155467935Y-74834989D01*
X155466114Y-74840005D01*
X155466112Y-74840010D01*
X155424302Y-74955194D01*
X155388485Y-75053869D01*
X155347050Y-75283007D01*
X155345900Y-75307394D01*
X155345900Y-75775868D01*
X154026100Y-75775868D01*
X154026100Y-75354132D01*
X154011374Y-75180580D01*
X154010035Y-75175420D01*
X153954217Y-74960363D01*
X153954216Y-74960359D01*
X153952875Y-74955194D01*
X153944164Y-74935855D01*
X153884317Y-74803001D01*
X153857238Y-74742887D01*
X153727196Y-74549728D01*
X153710861Y-74532604D01*
X153570152Y-74385104D01*
X153566468Y-74381242D01*
X153379650Y-74242246D01*
X153252574Y-74177637D01*
X153176842Y-74139133D01*
X153176841Y-74139133D01*
X153172084Y-74136714D01*
X153033299Y-74093620D01*
X152954807Y-74069247D01*
X152954801Y-74069246D01*
X152949704Y-74067663D01*
X152825340Y-74051180D01*
X152724152Y-74037768D01*
X152724148Y-74037768D01*
X152718868Y-74037068D01*
X152713538Y-74037268D01*
X152713537Y-74037268D01*
X152602523Y-74041436D01*
X152486178Y-74045803D01*
X152403474Y-74063156D01*
X152263514Y-74092523D01*
X152263511Y-74092524D01*
X152258287Y-74093620D01*
X152041710Y-74179150D01*
X151842641Y-74299949D01*
X151838611Y-74303446D01*
X151675570Y-74444925D01*
X151666770Y-74452561D01*
X151663387Y-74456687D01*
X151663383Y-74456691D01*
X151608241Y-74523942D01*
X151519128Y-74632624D01*
X151516490Y-74637259D01*
X151516487Y-74637263D01*
X151493155Y-74678252D01*
X151442073Y-74727558D01*
X151372442Y-74741420D01*
X151306371Y-74715437D01*
X151279133Y-74686287D01*
X151190176Y-74554155D01*
X151187196Y-74549728D01*
X151170861Y-74532604D01*
X151030152Y-74385104D01*
X151026468Y-74381242D01*
X150839650Y-74242246D01*
X150712574Y-74177637D01*
X150636842Y-74139133D01*
X150636841Y-74139133D01*
X150632084Y-74136714D01*
X150493299Y-74093620D01*
X150414807Y-74069247D01*
X150414801Y-74069246D01*
X150409704Y-74067663D01*
X150285340Y-74051180D01*
X150184152Y-74037768D01*
X150184148Y-74037768D01*
X150178868Y-74037068D01*
X150173538Y-74037268D01*
X150173537Y-74037268D01*
X150062523Y-74041436D01*
X149946178Y-74045803D01*
X149863474Y-74063156D01*
X149723514Y-74092523D01*
X149723511Y-74092524D01*
X149718287Y-74093620D01*
X149501710Y-74179150D01*
X149302641Y-74299949D01*
X149298611Y-74303446D01*
X149135570Y-74444925D01*
X149126770Y-74452561D01*
X149123387Y-74456687D01*
X149123383Y-74456691D01*
X149068241Y-74523942D01*
X148979128Y-74632624D01*
X148976490Y-74637259D01*
X148976487Y-74637263D01*
X148953155Y-74678252D01*
X148902073Y-74727558D01*
X148832442Y-74741420D01*
X148766371Y-74715437D01*
X148739133Y-74686287D01*
X148650176Y-74554155D01*
X148647196Y-74549728D01*
X148630861Y-74532604D01*
X148490152Y-74385104D01*
X148486468Y-74381242D01*
X148299650Y-74242246D01*
X148172574Y-74177637D01*
X148096842Y-74139133D01*
X148096841Y-74139133D01*
X148092084Y-74136714D01*
X147953299Y-74093620D01*
X147874807Y-74069247D01*
X147874801Y-74069246D01*
X147869704Y-74067663D01*
X147745340Y-74051180D01*
X147644152Y-74037768D01*
X147644148Y-74037768D01*
X147638868Y-74037068D01*
X147633538Y-74037268D01*
X147633537Y-74037268D01*
X147522523Y-74041436D01*
X147406178Y-74045803D01*
X147323474Y-74063156D01*
X147183514Y-74092523D01*
X147183511Y-74092524D01*
X147178287Y-74093620D01*
X146961710Y-74179150D01*
X146762641Y-74299949D01*
X146758611Y-74303446D01*
X146595570Y-74444925D01*
X146586770Y-74452561D01*
X146583387Y-74456687D01*
X146583383Y-74456691D01*
X146528241Y-74523942D01*
X146439128Y-74632624D01*
X146436490Y-74637259D01*
X146436487Y-74637263D01*
X146413155Y-74678252D01*
X146362073Y-74727558D01*
X146292442Y-74741420D01*
X146226371Y-74715437D01*
X146199133Y-74686287D01*
X146110176Y-74554155D01*
X146107196Y-74549728D01*
X146090861Y-74532604D01*
X145950152Y-74385104D01*
X145946468Y-74381242D01*
X145759650Y-74242246D01*
X145632574Y-74177637D01*
X145556842Y-74139133D01*
X145556841Y-74139133D01*
X145552084Y-74136714D01*
X145413299Y-74093620D01*
X145334807Y-74069247D01*
X145334801Y-74069246D01*
X145329704Y-74067663D01*
X145205340Y-74051180D01*
X145104152Y-74037768D01*
X145104148Y-74037768D01*
X145098868Y-74037068D01*
X145093538Y-74037268D01*
X145093537Y-74037268D01*
X144982523Y-74041436D01*
X144866178Y-74045803D01*
X144783474Y-74063156D01*
X144643514Y-74092523D01*
X144643511Y-74092524D01*
X144638287Y-74093620D01*
X144421710Y-74179150D01*
X144222641Y-74299949D01*
X144218611Y-74303446D01*
X144055570Y-74444925D01*
X144046770Y-74452561D01*
X144043387Y-74456687D01*
X144043383Y-74456691D01*
X143988241Y-74523942D01*
X143899128Y-74632624D01*
X143896490Y-74637259D01*
X143896487Y-74637263D01*
X143873155Y-74678252D01*
X143822073Y-74727558D01*
X143752442Y-74741420D01*
X143686371Y-74715437D01*
X143659133Y-74686287D01*
X143570176Y-74554155D01*
X143567196Y-74549728D01*
X143550861Y-74532604D01*
X143410152Y-74385104D01*
X143406468Y-74381242D01*
X143219650Y-74242246D01*
X143092574Y-74177637D01*
X143016842Y-74139133D01*
X143016841Y-74139133D01*
X143012084Y-74136714D01*
X142873299Y-74093620D01*
X142794807Y-74069247D01*
X142794801Y-74069246D01*
X142789704Y-74067663D01*
X142665340Y-74051180D01*
X142564152Y-74037768D01*
X142564148Y-74037768D01*
X142558868Y-74037068D01*
X142553538Y-74037268D01*
X142553537Y-74037268D01*
X142442523Y-74041436D01*
X142326178Y-74045803D01*
X142243474Y-74063156D01*
X142103514Y-74092523D01*
X142103511Y-74092524D01*
X142098287Y-74093620D01*
X141881710Y-74179150D01*
X141682641Y-74299949D01*
X141678611Y-74303446D01*
X141515570Y-74444925D01*
X141506770Y-74452561D01*
X141503387Y-74456687D01*
X141503383Y-74456691D01*
X141448241Y-74523942D01*
X141359128Y-74632624D01*
X141356490Y-74637259D01*
X141356487Y-74637263D01*
X141333155Y-74678252D01*
X141282073Y-74727558D01*
X141212442Y-74741420D01*
X141146371Y-74715437D01*
X141119133Y-74686287D01*
X141030176Y-74554155D01*
X141027196Y-74549728D01*
X141010861Y-74532604D01*
X140870152Y-74385104D01*
X140866468Y-74381242D01*
X140679650Y-74242246D01*
X140552574Y-74177637D01*
X140476842Y-74139133D01*
X140476841Y-74139133D01*
X140472084Y-74136714D01*
X140333299Y-74093620D01*
X140254807Y-74069247D01*
X140254801Y-74069246D01*
X140249704Y-74067663D01*
X140125340Y-74051180D01*
X140024152Y-74037768D01*
X140024148Y-74037768D01*
X140018868Y-74037068D01*
X140013538Y-74037268D01*
X140013537Y-74037268D01*
X139902523Y-74041436D01*
X139786178Y-74045803D01*
X139703474Y-74063156D01*
X139563514Y-74092523D01*
X139563511Y-74092524D01*
X139558287Y-74093620D01*
X139341710Y-74179150D01*
X139142641Y-74299949D01*
X139138611Y-74303446D01*
X138975570Y-74444925D01*
X138966770Y-74452561D01*
X138963387Y-74456687D01*
X138963383Y-74456691D01*
X138908241Y-74523942D01*
X138819128Y-74632624D01*
X138792878Y-74678739D01*
X138741798Y-74728044D01*
X138672168Y-74741906D01*
X138606096Y-74715923D01*
X138578857Y-74686773D01*
X138489785Y-74554470D01*
X138483124Y-74546184D01*
X138329820Y-74385480D01*
X138321852Y-74378431D01*
X138143664Y-74245856D01*
X138134634Y-74240257D01*
X137936653Y-74139598D01*
X137926792Y-74135595D01*
X137714699Y-74069737D01*
X137704304Y-74067452D01*
X137685959Y-74065020D01*
X137671792Y-74067217D01*
X137668000Y-74080401D01*
X137668000Y-77047488D01*
X137160000Y-77047488D01*
X137160000Y-74082512D01*
X137156027Y-74068981D01*
X137145420Y-74067456D01*
X137023657Y-74093004D01*
X137013461Y-74096064D01*
X136806903Y-74177637D01*
X136797366Y-74182371D01*
X136607497Y-74297586D01*
X136598907Y-74303850D01*
X136431163Y-74449411D01*
X136423743Y-74457041D01*
X136282927Y-74628780D01*
X136276898Y-74637551D01*
X136253467Y-74678715D01*
X136202385Y-74728022D01*
X136132755Y-74741884D01*
X136066684Y-74715901D01*
X136039445Y-74686751D01*
X136003005Y-74632624D01*
X135947196Y-74549728D01*
X135930861Y-74532604D01*
X135790152Y-74385104D01*
X135786468Y-74381242D01*
X135599650Y-74242246D01*
X135472574Y-74177637D01*
X135396842Y-74139133D01*
X135396841Y-74139133D01*
X135392084Y-74136714D01*
X135253299Y-74093620D01*
X135174807Y-74069247D01*
X135174801Y-74069246D01*
X135169704Y-74067663D01*
X135045340Y-74051180D01*
X134944152Y-74037768D01*
X134944148Y-74037768D01*
X134938868Y-74037068D01*
X134933538Y-74037268D01*
X134933537Y-74037268D01*
X134822523Y-74041436D01*
X134706178Y-74045803D01*
X134623474Y-74063156D01*
X134483514Y-74092523D01*
X134483511Y-74092524D01*
X134478287Y-74093620D01*
X134261710Y-74179150D01*
X134062641Y-74299949D01*
X134058611Y-74303446D01*
X133895570Y-74444925D01*
X133886770Y-74452561D01*
X133883387Y-74456687D01*
X133883383Y-74456691D01*
X133828241Y-74523942D01*
X133739128Y-74632624D01*
X133736490Y-74637259D01*
X133736487Y-74637263D01*
X133713155Y-74678252D01*
X133662073Y-74727558D01*
X133592442Y-74741420D01*
X133526371Y-74715437D01*
X133499133Y-74686287D01*
X133410176Y-74554155D01*
X133407196Y-74549728D01*
X133390861Y-74532604D01*
X133250152Y-74385104D01*
X133246468Y-74381242D01*
X133059650Y-74242246D01*
X132932574Y-74177637D01*
X132856842Y-74139133D01*
X132856841Y-74139133D01*
X132852084Y-74136714D01*
X132713299Y-74093620D01*
X132634807Y-74069247D01*
X132634801Y-74069246D01*
X132629704Y-74067663D01*
X132505340Y-74051180D01*
X132404152Y-74037768D01*
X132404148Y-74037768D01*
X132398868Y-74037068D01*
X132393538Y-74037268D01*
X132393537Y-74037268D01*
X132282523Y-74041436D01*
X132166178Y-74045803D01*
X132083474Y-74063156D01*
X131943514Y-74092523D01*
X131943511Y-74092524D01*
X131938287Y-74093620D01*
X131721710Y-74179150D01*
X131522641Y-74299949D01*
X131518611Y-74303446D01*
X131355570Y-74444925D01*
X131346770Y-74452561D01*
X131343387Y-74456687D01*
X131343383Y-74456691D01*
X131288241Y-74523942D01*
X131199128Y-74632624D01*
X131196490Y-74637259D01*
X131196487Y-74637263D01*
X131173155Y-74678252D01*
X131122073Y-74727558D01*
X131052442Y-74741420D01*
X130986371Y-74715437D01*
X130959133Y-74686287D01*
X130870176Y-74554155D01*
X130867196Y-74549728D01*
X130850861Y-74532604D01*
X130710152Y-74385104D01*
X130706468Y-74381242D01*
X130519650Y-74242246D01*
X130392574Y-74177637D01*
X130316842Y-74139133D01*
X130316841Y-74139133D01*
X130312084Y-74136714D01*
X130173299Y-74093620D01*
X130094807Y-74069247D01*
X130094801Y-74069246D01*
X130089704Y-74067663D01*
X129965340Y-74051180D01*
X129864152Y-74037768D01*
X129864148Y-74037768D01*
X129858868Y-74037068D01*
X129853538Y-74037268D01*
X129853537Y-74037268D01*
X129742523Y-74041436D01*
X129626178Y-74045803D01*
X129543474Y-74063156D01*
X129403514Y-74092523D01*
X129403511Y-74092524D01*
X129398287Y-74093620D01*
X129181710Y-74179150D01*
X128982641Y-74299949D01*
X128978611Y-74303446D01*
X128815570Y-74444925D01*
X128806770Y-74452561D01*
X128803384Y-74456691D01*
X128803383Y-74456692D01*
X128752489Y-74518761D01*
X128693829Y-74558756D01*
X128622859Y-74560687D01*
X128562111Y-74523942D01*
X128541047Y-74492518D01*
X128470347Y-74342271D01*
X128470343Y-74342264D01*
X128468659Y-74338685D01*
X128350019Y-74151738D01*
X128299498Y-74072130D01*
X128299495Y-74072126D01*
X128297371Y-74068779D01*
X128093606Y-73822470D01*
X128017339Y-73750850D01*
X127981373Y-73689637D01*
X127984212Y-73618697D01*
X128024952Y-73560553D01*
X128090660Y-73533665D01*
X128103592Y-73533000D01*
X175251390Y-73533000D01*
X175319511Y-73553002D01*
X175340485Y-73569905D01*
X176493095Y-74722515D01*
X176527121Y-74784827D01*
X176530000Y-74811610D01*
X176530000Y-85907980D01*
X176528646Y-85920096D01*
X176529130Y-85920135D01*
X176528410Y-85929086D01*
X176526429Y-85937840D01*
X176526985Y-85946799D01*
X176529758Y-85991501D01*
X176530000Y-85999303D01*
X176530000Y-86015477D01*
X176530636Y-86019918D01*
X176530636Y-86019919D01*
X176531480Y-86025813D01*
X176532510Y-86035872D01*
X176535439Y-86083075D01*
X176538485Y-86091513D01*
X176539088Y-86094424D01*
X176543294Y-86111292D01*
X176544132Y-86114159D01*
X176545405Y-86123045D01*
X176549120Y-86131216D01*
X176549121Y-86131219D01*
X176564977Y-86166092D01*
X176568791Y-86175461D01*
X176581801Y-86211501D01*
X176581803Y-86211505D01*
X176584850Y-86219945D01*
X176590146Y-86227194D01*
X176591547Y-86229829D01*
X176600303Y-86244814D01*
X176601918Y-86247339D01*
X176605633Y-86255510D01*
X176611491Y-86262309D01*
X176611492Y-86262310D01*
X176636502Y-86291335D01*
X176642791Y-86299256D01*
X176647927Y-86306286D01*
X176650805Y-86310225D01*
X176661757Y-86321177D01*
X176668115Y-86328025D01*
X176694756Y-86358944D01*
X176694761Y-86358948D01*
X176700619Y-86365747D01*
X176708153Y-86370630D01*
X176714428Y-86376104D01*
X176726248Y-86385668D01*
X179033095Y-88692515D01*
X179067121Y-88754827D01*
X179070000Y-88781610D01*
X179070000Y-88936946D01*
X179049998Y-89005067D01*
X178996342Y-89051560D01*
X178926068Y-89061664D01*
X178857747Y-89028796D01*
X178832478Y-89005067D01*
X178660577Y-88843641D01*
X178401959Y-88655744D01*
X178398487Y-88653835D01*
X178125293Y-88503645D01*
X178125290Y-88503643D01*
X178121831Y-88501742D01*
X177902556Y-88414925D01*
X177828293Y-88385522D01*
X177828290Y-88385521D01*
X177824610Y-88384064D01*
X177820776Y-88383080D01*
X177820768Y-88383077D01*
X177603522Y-88327298D01*
X177514983Y-88304565D01*
X177511055Y-88304069D01*
X177511051Y-88304068D01*
X177385358Y-88288190D01*
X177197835Y-88264500D01*
X176878165Y-88264500D01*
X176690642Y-88288190D01*
X176564949Y-88304068D01*
X176564945Y-88304069D01*
X176561017Y-88304565D01*
X176472478Y-88327298D01*
X176255232Y-88383077D01*
X176255224Y-88383080D01*
X176251390Y-88384064D01*
X176247710Y-88385521D01*
X176247707Y-88385522D01*
X176173444Y-88414925D01*
X175954169Y-88501742D01*
X175950710Y-88503643D01*
X175950707Y-88503645D01*
X175677513Y-88653835D01*
X175674041Y-88655744D01*
X175415423Y-88843641D01*
X175182394Y-89062470D01*
X174978629Y-89308779D01*
X174807341Y-89578685D01*
X174805657Y-89582264D01*
X174805653Y-89582271D01*
X174672922Y-89864340D01*
X174671233Y-89867930D01*
X174572449Y-90171954D01*
X174512549Y-90485961D01*
X174492477Y-90805000D01*
X174512549Y-91124039D01*
X174572449Y-91438046D01*
X174671233Y-91742070D01*
X174672920Y-91745656D01*
X174672922Y-91745660D01*
X174805653Y-92027729D01*
X174805657Y-92027736D01*
X174807341Y-92031315D01*
X174978629Y-92301221D01*
X175182394Y-92547530D01*
X175415423Y-92766359D01*
X175674041Y-92954256D01*
X175954169Y-93108258D01*
X176116083Y-93172364D01*
X176247707Y-93224478D01*
X176247710Y-93224479D01*
X176251390Y-93225936D01*
X176255224Y-93226920D01*
X176255232Y-93226923D01*
X176447153Y-93276200D01*
X176561017Y-93305435D01*
X176564945Y-93305931D01*
X176564949Y-93305932D01*
X176690642Y-93321810D01*
X176878165Y-93345500D01*
X177197835Y-93345500D01*
X177385358Y-93321810D01*
X177511051Y-93305932D01*
X177511055Y-93305931D01*
X177514983Y-93305435D01*
X177628847Y-93276200D01*
X177820768Y-93226923D01*
X177820776Y-93226920D01*
X177824610Y-93225936D01*
X177828290Y-93224479D01*
X177828293Y-93224478D01*
X177959917Y-93172364D01*
X178121831Y-93108258D01*
X178401959Y-92954256D01*
X178660577Y-92766359D01*
X178857747Y-92581204D01*
X178921097Y-92549153D01*
X178991719Y-92556440D01*
X179047190Y-92600751D01*
X179070000Y-92673054D01*
X179070000Y-116876946D01*
X179049998Y-116945067D01*
X178996342Y-116991560D01*
X178926068Y-117001664D01*
X178857747Y-116968796D01*
X178832478Y-116945067D01*
X178660577Y-116783641D01*
X178401959Y-116595744D01*
X178121831Y-116441742D01*
X177959917Y-116377636D01*
X177828293Y-116325522D01*
X177828290Y-116325521D01*
X177824610Y-116324064D01*
X177820776Y-116323080D01*
X177820768Y-116323077D01*
X177628847Y-116273800D01*
X177514983Y-116244565D01*
X177511055Y-116244069D01*
X177511051Y-116244068D01*
X177385358Y-116228190D01*
X177197835Y-116204500D01*
X176878165Y-116204500D01*
X176690642Y-116228190D01*
X176564949Y-116244068D01*
X176564945Y-116244069D01*
X176561017Y-116244565D01*
X176447153Y-116273800D01*
X176255232Y-116323077D01*
X176255224Y-116323080D01*
X176251390Y-116324064D01*
X176247710Y-116325521D01*
X176247707Y-116325522D01*
X176116083Y-116377636D01*
X175954169Y-116441742D01*
X175674041Y-116595744D01*
X175415423Y-116783641D01*
X175182394Y-117002470D01*
X174978629Y-117248779D01*
X174807341Y-117518685D01*
X174805657Y-117522264D01*
X174805653Y-117522271D01*
X174672922Y-117804340D01*
X174671233Y-117807930D01*
X174572449Y-118111954D01*
X174512549Y-118425961D01*
X174492477Y-118745000D01*
X174512549Y-119064039D01*
X174572449Y-119378046D01*
X174671233Y-119682070D01*
X174672920Y-119685656D01*
X174672922Y-119685660D01*
X174805653Y-119967729D01*
X174805657Y-119967736D01*
X174807341Y-119971315D01*
X174978629Y-120241221D01*
X175182394Y-120487530D01*
X175415423Y-120706359D01*
X175674041Y-120894256D01*
X175954169Y-121048258D01*
X176020651Y-121074580D01*
X176247707Y-121164478D01*
X176247710Y-121164479D01*
X176251390Y-121165936D01*
X176255224Y-121166920D01*
X176255232Y-121166923D01*
X176447153Y-121216200D01*
X176561017Y-121245435D01*
X176564945Y-121245931D01*
X176564949Y-121245932D01*
X176690642Y-121261810D01*
X176878165Y-121285500D01*
X177197835Y-121285500D01*
X177385358Y-121261810D01*
X177511051Y-121245932D01*
X177511055Y-121245931D01*
X177514983Y-121245435D01*
X177628847Y-121216200D01*
X177820768Y-121166923D01*
X177820776Y-121166920D01*
X177824610Y-121165936D01*
X177828290Y-121164479D01*
X177828293Y-121164478D01*
X178055349Y-121074580D01*
X178121831Y-121048258D01*
X178401959Y-120894256D01*
X178660577Y-120706359D01*
X178857747Y-120521204D01*
X178921097Y-120489153D01*
X178991719Y-120496440D01*
X179047190Y-120540751D01*
X179070000Y-120613054D01*
X179070000Y-121022390D01*
X179049998Y-121090511D01*
X179033095Y-121111485D01*
X176729010Y-123415570D01*
X176719481Y-123423183D01*
X176719796Y-123423553D01*
X176712961Y-123429370D01*
X176705369Y-123434160D01*
X176699428Y-123440887D01*
X176669766Y-123474473D01*
X176664419Y-123480161D01*
X176652997Y-123491583D01*
X176650311Y-123495167D01*
X176650309Y-123495169D01*
X176646732Y-123499942D01*
X176640361Y-123507768D01*
X176609044Y-123543228D01*
X176605228Y-123551357D01*
X176603588Y-123553853D01*
X176594652Y-123568723D01*
X176593210Y-123571357D01*
X176587828Y-123578538D01*
X176573487Y-123616792D01*
X176571232Y-123622808D01*
X176567304Y-123632129D01*
X176551016Y-123666820D01*
X176551014Y-123666827D01*
X176547201Y-123674948D01*
X176545820Y-123683815D01*
X176544942Y-123686689D01*
X176540544Y-123703452D01*
X176539898Y-123706390D01*
X176536748Y-123714792D01*
X176536083Y-123723742D01*
X176533243Y-123761960D01*
X176532091Y-123771996D01*
X176530000Y-123785423D01*
X176530000Y-123800915D01*
X176529654Y-123810253D01*
X176525964Y-123859907D01*
X176527839Y-123868689D01*
X176528406Y-123877003D01*
X176530000Y-123892110D01*
X176530000Y-125731000D01*
X176509998Y-125799121D01*
X176456342Y-125845614D01*
X176404000Y-125857000D01*
X126833592Y-125857000D01*
X126765471Y-125836998D01*
X126718978Y-125783342D01*
X126708874Y-125713068D01*
X126738368Y-125648488D01*
X126747339Y-125639150D01*
X126820715Y-125570245D01*
X126820716Y-125570244D01*
X126823606Y-125567530D01*
X127027371Y-125321221D01*
X127036087Y-125307488D01*
X127196535Y-125054662D01*
X127196535Y-125054661D01*
X127198659Y-125051315D01*
X127200343Y-125047736D01*
X127200347Y-125047729D01*
X127333078Y-124765660D01*
X127333080Y-124765656D01*
X127334767Y-124762070D01*
X127337800Y-124752737D01*
X127432324Y-124461822D01*
X127433551Y-124458046D01*
X127493451Y-124144039D01*
X127500256Y-124035868D01*
X137565900Y-124035868D01*
X137580626Y-124209420D01*
X137581964Y-124214577D01*
X137581965Y-124214580D01*
X137614816Y-124341146D01*
X137639125Y-124434806D01*
X137641317Y-124439672D01*
X137641318Y-124439675D01*
X137649594Y-124458046D01*
X137734762Y-124647113D01*
X137864804Y-124840272D01*
X138025532Y-125008758D01*
X138212350Y-125147754D01*
X138217102Y-125150170D01*
X138414244Y-125250402D01*
X138419916Y-125253286D01*
X138531106Y-125287811D01*
X138637193Y-125320753D01*
X138637199Y-125320754D01*
X138642296Y-125322337D01*
X138766660Y-125338820D01*
X138867848Y-125352232D01*
X138867852Y-125352232D01*
X138873132Y-125352932D01*
X138878462Y-125352732D01*
X138878463Y-125352732D01*
X138989477Y-125348564D01*
X139105822Y-125344197D01*
X139210005Y-125322337D01*
X139328486Y-125297477D01*
X139328489Y-125297476D01*
X139333713Y-125296380D01*
X139550290Y-125210850D01*
X139749359Y-125090051D01*
X139753855Y-125086150D01*
X139921197Y-124940939D01*
X139921199Y-124940937D01*
X139925230Y-124937439D01*
X139928613Y-124933313D01*
X139928617Y-124933309D01*
X140027776Y-124812374D01*
X140072872Y-124757376D01*
X140075672Y-124752458D01*
X140098845Y-124711748D01*
X140149927Y-124662442D01*
X140219558Y-124648580D01*
X140285629Y-124674563D01*
X140312867Y-124703713D01*
X140404804Y-124840272D01*
X140565532Y-125008758D01*
X140752350Y-125147754D01*
X140757102Y-125150170D01*
X140954244Y-125250402D01*
X140959916Y-125253286D01*
X141071106Y-125287811D01*
X141177193Y-125320753D01*
X141177199Y-125320754D01*
X141182296Y-125322337D01*
X141306660Y-125338820D01*
X141407848Y-125352232D01*
X141407852Y-125352232D01*
X141413132Y-125352932D01*
X141418462Y-125352732D01*
X141418463Y-125352732D01*
X141529477Y-125348564D01*
X141645822Y-125344197D01*
X141750005Y-125322337D01*
X141868486Y-125297477D01*
X141868489Y-125297476D01*
X141873713Y-125296380D01*
X142090290Y-125210850D01*
X142289359Y-125090051D01*
X142293855Y-125086150D01*
X142461197Y-124940939D01*
X142461199Y-124940937D01*
X142465230Y-124937439D01*
X142468613Y-124933313D01*
X142468617Y-124933309D01*
X142567776Y-124812374D01*
X142612872Y-124757376D01*
X142615672Y-124752458D01*
X142638845Y-124711748D01*
X142689927Y-124662442D01*
X142759558Y-124648580D01*
X142825629Y-124674563D01*
X142852867Y-124703713D01*
X142944804Y-124840272D01*
X143105532Y-125008758D01*
X143292350Y-125147754D01*
X143297102Y-125150170D01*
X143494244Y-125250402D01*
X143499916Y-125253286D01*
X143611106Y-125287811D01*
X143717193Y-125320753D01*
X143717199Y-125320754D01*
X143722296Y-125322337D01*
X143846660Y-125338820D01*
X143947848Y-125352232D01*
X143947852Y-125352232D01*
X143953132Y-125352932D01*
X143958462Y-125352732D01*
X143958463Y-125352732D01*
X144069477Y-125348564D01*
X144185822Y-125344197D01*
X144290005Y-125322337D01*
X144408486Y-125297477D01*
X144408489Y-125297476D01*
X144413713Y-125296380D01*
X144630290Y-125210850D01*
X144829359Y-125090051D01*
X144833855Y-125086150D01*
X145001197Y-124940939D01*
X145001199Y-124940937D01*
X145005230Y-124937439D01*
X145008613Y-124933313D01*
X145008617Y-124933309D01*
X145107776Y-124812374D01*
X145152872Y-124757376D01*
X145155672Y-124752458D01*
X145178845Y-124711748D01*
X145229927Y-124662442D01*
X145299558Y-124648580D01*
X145365629Y-124674563D01*
X145392867Y-124703713D01*
X145484804Y-124840272D01*
X145645532Y-125008758D01*
X145832350Y-125147754D01*
X145837102Y-125150170D01*
X146034244Y-125250402D01*
X146039916Y-125253286D01*
X146151106Y-125287811D01*
X146257193Y-125320753D01*
X146257199Y-125320754D01*
X146262296Y-125322337D01*
X146386660Y-125338820D01*
X146487848Y-125352232D01*
X146487852Y-125352232D01*
X146493132Y-125352932D01*
X146498462Y-125352732D01*
X146498463Y-125352732D01*
X146609477Y-125348564D01*
X146725822Y-125344197D01*
X146830005Y-125322337D01*
X146948486Y-125297477D01*
X146948489Y-125297476D01*
X146953713Y-125296380D01*
X147170290Y-125210850D01*
X147369359Y-125090051D01*
X147373855Y-125086150D01*
X147541197Y-124940939D01*
X147541199Y-124940937D01*
X147545230Y-124937439D01*
X147548613Y-124933313D01*
X147548617Y-124933309D01*
X147647776Y-124812374D01*
X147692872Y-124757376D01*
X147695672Y-124752458D01*
X147718845Y-124711748D01*
X147769927Y-124662442D01*
X147839558Y-124648580D01*
X147905629Y-124674563D01*
X147932867Y-124703713D01*
X148024804Y-124840272D01*
X148185532Y-125008758D01*
X148372350Y-125147754D01*
X148377102Y-125150170D01*
X148574244Y-125250402D01*
X148579916Y-125253286D01*
X148691106Y-125287811D01*
X148797193Y-125320753D01*
X148797199Y-125320754D01*
X148802296Y-125322337D01*
X148926660Y-125338820D01*
X149027848Y-125352232D01*
X149027852Y-125352232D01*
X149033132Y-125352932D01*
X149038462Y-125352732D01*
X149038463Y-125352732D01*
X149149477Y-125348564D01*
X149265822Y-125344197D01*
X149370005Y-125322337D01*
X149488486Y-125297477D01*
X149488489Y-125297476D01*
X149493713Y-125296380D01*
X149710290Y-125210850D01*
X149909359Y-125090051D01*
X149913855Y-125086150D01*
X150081197Y-124940939D01*
X150081199Y-124940937D01*
X150085230Y-124937439D01*
X150088613Y-124933313D01*
X150088617Y-124933309D01*
X150187776Y-124812374D01*
X150232872Y-124757376D01*
X150259122Y-124711261D01*
X150310202Y-124661956D01*
X150379832Y-124648094D01*
X150445904Y-124674077D01*
X150473143Y-124703227D01*
X150562215Y-124835530D01*
X150568876Y-124843816D01*
X150722180Y-125004520D01*
X150730148Y-125011569D01*
X150908336Y-125144144D01*
X150917366Y-125149743D01*
X151115347Y-125250402D01*
X151125208Y-125254405D01*
X151337301Y-125320263D01*
X151347696Y-125322548D01*
X151366041Y-125324980D01*
X151380208Y-125322783D01*
X151384000Y-125309599D01*
X151384000Y-125307488D01*
X151892000Y-125307488D01*
X151895973Y-125321019D01*
X151906580Y-125322544D01*
X152028343Y-125296996D01*
X152038539Y-125293936D01*
X152245097Y-125212363D01*
X152254634Y-125207629D01*
X152444503Y-125092414D01*
X152453093Y-125086150D01*
X152620837Y-124940589D01*
X152628257Y-124932959D01*
X152769073Y-124761220D01*
X152775095Y-124752458D01*
X152798810Y-124710798D01*
X152849893Y-124661492D01*
X152919524Y-124647631D01*
X152985594Y-124673615D01*
X153012832Y-124702764D01*
X153102215Y-124835531D01*
X153108876Y-124843816D01*
X153262180Y-125004520D01*
X153270148Y-125011569D01*
X153448336Y-125144144D01*
X153457366Y-125149743D01*
X153655347Y-125250402D01*
X153665208Y-125254405D01*
X153877301Y-125320263D01*
X153887696Y-125322548D01*
X153906041Y-125324980D01*
X153920208Y-125322783D01*
X153924000Y-125309599D01*
X153924000Y-125307488D01*
X154432000Y-125307488D01*
X154435973Y-125321019D01*
X154446580Y-125322544D01*
X154568343Y-125296996D01*
X154578539Y-125293936D01*
X154785097Y-125212363D01*
X154794634Y-125207629D01*
X154984503Y-125092414D01*
X154993093Y-125086150D01*
X155160837Y-124940589D01*
X155168257Y-124932959D01*
X155309073Y-124761220D01*
X155315102Y-124752449D01*
X155338533Y-124711285D01*
X155389615Y-124661978D01*
X155459245Y-124648116D01*
X155525316Y-124674099D01*
X155552555Y-124703249D01*
X155644804Y-124840272D01*
X155805532Y-125008758D01*
X155992350Y-125147754D01*
X155997102Y-125150170D01*
X156194244Y-125250402D01*
X156199916Y-125253286D01*
X156311106Y-125287811D01*
X156417193Y-125320753D01*
X156417199Y-125320754D01*
X156422296Y-125322337D01*
X156546660Y-125338820D01*
X156647848Y-125352232D01*
X156647852Y-125352232D01*
X156653132Y-125352932D01*
X156658462Y-125352732D01*
X156658463Y-125352732D01*
X156769477Y-125348564D01*
X156885822Y-125344197D01*
X156990005Y-125322337D01*
X157108486Y-125297477D01*
X157108489Y-125297476D01*
X157113713Y-125296380D01*
X157330290Y-125210850D01*
X157529359Y-125090051D01*
X157533855Y-125086150D01*
X157701197Y-124940939D01*
X157701199Y-124940937D01*
X157705230Y-124937439D01*
X157708613Y-124933313D01*
X157708617Y-124933309D01*
X157807776Y-124812374D01*
X157852872Y-124757376D01*
X157855672Y-124752458D01*
X157965422Y-124559654D01*
X157968065Y-124555011D01*
X157988239Y-124499435D01*
X158045695Y-124341146D01*
X158045696Y-124341142D01*
X158047515Y-124336131D01*
X158088950Y-124106993D01*
X158089632Y-124092548D01*
X158090030Y-124084095D01*
X158090030Y-124084086D01*
X158090100Y-124082606D01*
X158090100Y-124035868D01*
X160425900Y-124035868D01*
X160440626Y-124209420D01*
X160441964Y-124214577D01*
X160441965Y-124214580D01*
X160474816Y-124341146D01*
X160499125Y-124434806D01*
X160501317Y-124439672D01*
X160501318Y-124439675D01*
X160509594Y-124458046D01*
X160594762Y-124647113D01*
X160724804Y-124840272D01*
X160885532Y-125008758D01*
X161072350Y-125147754D01*
X161077102Y-125150170D01*
X161274244Y-125250402D01*
X161279916Y-125253286D01*
X161391106Y-125287811D01*
X161497193Y-125320753D01*
X161497199Y-125320754D01*
X161502296Y-125322337D01*
X161626660Y-125338820D01*
X161727848Y-125352232D01*
X161727852Y-125352232D01*
X161733132Y-125352932D01*
X161738462Y-125352732D01*
X161738463Y-125352732D01*
X161849477Y-125348564D01*
X161965822Y-125344197D01*
X162070005Y-125322337D01*
X162188486Y-125297477D01*
X162188489Y-125297476D01*
X162193713Y-125296380D01*
X162410290Y-125210850D01*
X162609359Y-125090051D01*
X162613855Y-125086150D01*
X162781197Y-124940939D01*
X162781199Y-124940937D01*
X162785230Y-124937439D01*
X162788613Y-124933313D01*
X162788617Y-124933309D01*
X162887776Y-124812374D01*
X162932872Y-124757376D01*
X162935672Y-124752458D01*
X162958845Y-124711748D01*
X163009927Y-124662442D01*
X163079558Y-124648580D01*
X163145629Y-124674563D01*
X163172867Y-124703713D01*
X163264804Y-124840272D01*
X163425532Y-125008758D01*
X163612350Y-125147754D01*
X163617102Y-125150170D01*
X163814244Y-125250402D01*
X163819916Y-125253286D01*
X163931106Y-125287811D01*
X164037193Y-125320753D01*
X164037199Y-125320754D01*
X164042296Y-125322337D01*
X164166660Y-125338820D01*
X164267848Y-125352232D01*
X164267852Y-125352232D01*
X164273132Y-125352932D01*
X164278462Y-125352732D01*
X164278463Y-125352732D01*
X164389477Y-125348564D01*
X164505822Y-125344197D01*
X164610005Y-125322337D01*
X164728486Y-125297477D01*
X164728489Y-125297476D01*
X164733713Y-125296380D01*
X164950290Y-125210850D01*
X165149359Y-125090051D01*
X165153855Y-125086150D01*
X165321197Y-124940939D01*
X165321199Y-124940937D01*
X165325230Y-124937439D01*
X165328613Y-124933313D01*
X165328617Y-124933309D01*
X165427776Y-124812374D01*
X165472872Y-124757376D01*
X165475672Y-124752458D01*
X165498845Y-124711748D01*
X165549927Y-124662442D01*
X165619558Y-124648580D01*
X165685629Y-124674563D01*
X165712867Y-124703713D01*
X165804804Y-124840272D01*
X165965532Y-125008758D01*
X166152350Y-125147754D01*
X166157102Y-125150170D01*
X166354244Y-125250402D01*
X166359916Y-125253286D01*
X166471106Y-125287811D01*
X166577193Y-125320753D01*
X166577199Y-125320754D01*
X166582296Y-125322337D01*
X166706660Y-125338820D01*
X166807848Y-125352232D01*
X166807852Y-125352232D01*
X166813132Y-125352932D01*
X166818462Y-125352732D01*
X166818463Y-125352732D01*
X166929477Y-125348564D01*
X167045822Y-125344197D01*
X167150005Y-125322337D01*
X167268486Y-125297477D01*
X167268489Y-125297476D01*
X167273713Y-125296380D01*
X167490290Y-125210850D01*
X167689359Y-125090051D01*
X167693855Y-125086150D01*
X167861197Y-124940939D01*
X167861199Y-124940937D01*
X167865230Y-124937439D01*
X167868613Y-124933313D01*
X167868617Y-124933309D01*
X167967776Y-124812374D01*
X168012872Y-124757376D01*
X168015672Y-124752458D01*
X168038845Y-124711748D01*
X168089927Y-124662442D01*
X168159558Y-124648580D01*
X168225629Y-124674563D01*
X168252867Y-124703713D01*
X168344804Y-124840272D01*
X168505532Y-125008758D01*
X168692350Y-125147754D01*
X168697102Y-125150170D01*
X168894244Y-125250402D01*
X168899916Y-125253286D01*
X169011106Y-125287811D01*
X169117193Y-125320753D01*
X169117199Y-125320754D01*
X169122296Y-125322337D01*
X169246660Y-125338820D01*
X169347848Y-125352232D01*
X169347852Y-125352232D01*
X169353132Y-125352932D01*
X169358462Y-125352732D01*
X169358463Y-125352732D01*
X169469477Y-125348564D01*
X169585822Y-125344197D01*
X169690005Y-125322337D01*
X169808486Y-125297477D01*
X169808489Y-125297476D01*
X169813713Y-125296380D01*
X170030290Y-125210850D01*
X170229359Y-125090051D01*
X170233855Y-125086150D01*
X170401197Y-124940939D01*
X170401199Y-124940937D01*
X170405230Y-124937439D01*
X170408613Y-124933313D01*
X170408617Y-124933309D01*
X170507776Y-124812374D01*
X170552872Y-124757376D01*
X170555672Y-124752458D01*
X170578845Y-124711748D01*
X170629927Y-124662442D01*
X170699558Y-124648580D01*
X170765629Y-124674563D01*
X170792867Y-124703713D01*
X170884804Y-124840272D01*
X171045532Y-125008758D01*
X171232350Y-125147754D01*
X171237102Y-125150170D01*
X171434244Y-125250402D01*
X171439916Y-125253286D01*
X171551106Y-125287811D01*
X171657193Y-125320753D01*
X171657199Y-125320754D01*
X171662296Y-125322337D01*
X171786660Y-125338820D01*
X171887848Y-125352232D01*
X171887852Y-125352232D01*
X171893132Y-125352932D01*
X171898462Y-125352732D01*
X171898463Y-125352732D01*
X172009477Y-125348564D01*
X172125822Y-125344197D01*
X172230005Y-125322337D01*
X172348486Y-125297477D01*
X172348489Y-125297476D01*
X172353713Y-125296380D01*
X172570290Y-125210850D01*
X172769359Y-125090051D01*
X172773855Y-125086150D01*
X172941197Y-124940939D01*
X172941199Y-124940937D01*
X172945230Y-124937439D01*
X172948613Y-124933313D01*
X172948617Y-124933309D01*
X173047776Y-124812374D01*
X173092872Y-124757376D01*
X173095672Y-124752458D01*
X173118845Y-124711748D01*
X173169927Y-124662442D01*
X173239558Y-124648580D01*
X173305629Y-124674563D01*
X173332867Y-124703713D01*
X173424804Y-124840272D01*
X173585532Y-125008758D01*
X173772350Y-125147754D01*
X173777102Y-125150170D01*
X173974244Y-125250402D01*
X173979916Y-125253286D01*
X174091106Y-125287811D01*
X174197193Y-125320753D01*
X174197199Y-125320754D01*
X174202296Y-125322337D01*
X174326660Y-125338820D01*
X174427848Y-125352232D01*
X174427852Y-125352232D01*
X174433132Y-125352932D01*
X174438462Y-125352732D01*
X174438463Y-125352732D01*
X174549477Y-125348564D01*
X174665822Y-125344197D01*
X174770005Y-125322337D01*
X174888486Y-125297477D01*
X174888489Y-125297476D01*
X174893713Y-125296380D01*
X175110290Y-125210850D01*
X175309359Y-125090051D01*
X175313855Y-125086150D01*
X175481197Y-124940939D01*
X175481199Y-124940937D01*
X175485230Y-124937439D01*
X175488613Y-124933313D01*
X175488617Y-124933309D01*
X175587776Y-124812374D01*
X175632872Y-124757376D01*
X175635672Y-124752458D01*
X175745422Y-124559654D01*
X175748065Y-124555011D01*
X175768239Y-124499435D01*
X175825695Y-124341146D01*
X175825696Y-124341142D01*
X175827515Y-124336131D01*
X175868950Y-124106993D01*
X175869632Y-124092548D01*
X175870030Y-124084095D01*
X175870030Y-124084086D01*
X175870100Y-124082606D01*
X175870100Y-123614132D01*
X175859702Y-123491583D01*
X175855825Y-123445891D01*
X175855824Y-123445887D01*
X175855374Y-123440580D01*
X175853708Y-123434160D01*
X175798217Y-123220363D01*
X175798216Y-123220359D01*
X175796875Y-123215194D01*
X175788164Y-123195855D01*
X175703433Y-123007760D01*
X175701238Y-123002887D01*
X175571196Y-122809728D01*
X175410468Y-122641242D01*
X175223650Y-122502246D01*
X175096574Y-122437637D01*
X175020842Y-122399133D01*
X175020841Y-122399133D01*
X175016084Y-122396714D01*
X174877299Y-122353620D01*
X174798807Y-122329247D01*
X174798801Y-122329246D01*
X174793704Y-122327663D01*
X174669340Y-122311180D01*
X174568152Y-122297768D01*
X174568148Y-122297768D01*
X174562868Y-122297068D01*
X174557538Y-122297268D01*
X174557537Y-122297268D01*
X174446523Y-122301435D01*
X174330178Y-122305803D01*
X174247474Y-122323156D01*
X174107514Y-122352523D01*
X174107511Y-122352524D01*
X174102287Y-122353620D01*
X173885710Y-122439150D01*
X173686641Y-122559949D01*
X173682611Y-122563446D01*
X173588075Y-122645480D01*
X173510770Y-122712561D01*
X173507387Y-122716687D01*
X173507383Y-122716691D01*
X173434262Y-122805869D01*
X173363128Y-122892624D01*
X173360490Y-122897259D01*
X173360487Y-122897263D01*
X173337155Y-122938252D01*
X173286073Y-122987558D01*
X173216442Y-123001420D01*
X173150371Y-122975437D01*
X173123133Y-122946287D01*
X173034388Y-122814470D01*
X173031196Y-122809728D01*
X172870468Y-122641242D01*
X172683650Y-122502246D01*
X172556574Y-122437637D01*
X172480842Y-122399133D01*
X172480841Y-122399133D01*
X172476084Y-122396714D01*
X172337299Y-122353620D01*
X172258807Y-122329247D01*
X172258801Y-122329246D01*
X172253704Y-122327663D01*
X172129340Y-122311180D01*
X172028152Y-122297768D01*
X172028148Y-122297768D01*
X172022868Y-122297068D01*
X172017538Y-122297268D01*
X172017537Y-122297268D01*
X171906523Y-122301435D01*
X171790178Y-122305803D01*
X171707474Y-122323156D01*
X171567514Y-122352523D01*
X171567511Y-122352524D01*
X171562287Y-122353620D01*
X171345710Y-122439150D01*
X171146641Y-122559949D01*
X171142611Y-122563446D01*
X171048075Y-122645480D01*
X170970770Y-122712561D01*
X170967387Y-122716687D01*
X170967383Y-122716691D01*
X170894262Y-122805869D01*
X170823128Y-122892624D01*
X170820490Y-122897259D01*
X170820487Y-122897263D01*
X170797155Y-122938252D01*
X170746073Y-122987558D01*
X170676442Y-123001420D01*
X170610371Y-122975437D01*
X170583133Y-122946287D01*
X170494388Y-122814470D01*
X170491196Y-122809728D01*
X170330468Y-122641242D01*
X170143650Y-122502246D01*
X170016574Y-122437637D01*
X169940842Y-122399133D01*
X169940841Y-122399133D01*
X169936084Y-122396714D01*
X169797299Y-122353620D01*
X169718807Y-122329247D01*
X169718801Y-122329246D01*
X169713704Y-122327663D01*
X169589340Y-122311180D01*
X169488152Y-122297768D01*
X169488148Y-122297768D01*
X169482868Y-122297068D01*
X169477538Y-122297268D01*
X169477537Y-122297268D01*
X169366523Y-122301435D01*
X169250178Y-122305803D01*
X169167474Y-122323156D01*
X169027514Y-122352523D01*
X169027511Y-122352524D01*
X169022287Y-122353620D01*
X168805710Y-122439150D01*
X168606641Y-122559949D01*
X168602611Y-122563446D01*
X168508075Y-122645480D01*
X168430770Y-122712561D01*
X168427387Y-122716687D01*
X168427383Y-122716691D01*
X168354262Y-122805869D01*
X168283128Y-122892624D01*
X168280490Y-122897259D01*
X168280487Y-122897263D01*
X168257155Y-122938252D01*
X168206073Y-122987558D01*
X168136442Y-123001420D01*
X168070371Y-122975437D01*
X168043133Y-122946287D01*
X167954388Y-122814470D01*
X167951196Y-122809728D01*
X167790468Y-122641242D01*
X167603650Y-122502246D01*
X167476574Y-122437637D01*
X167400842Y-122399133D01*
X167400841Y-122399133D01*
X167396084Y-122396714D01*
X167257299Y-122353620D01*
X167178807Y-122329247D01*
X167178801Y-122329246D01*
X167173704Y-122327663D01*
X167049340Y-122311180D01*
X166948152Y-122297768D01*
X166948148Y-122297768D01*
X166942868Y-122297068D01*
X166937538Y-122297268D01*
X166937537Y-122297268D01*
X166826523Y-122301435D01*
X166710178Y-122305803D01*
X166627474Y-122323156D01*
X166487514Y-122352523D01*
X166487511Y-122352524D01*
X166482287Y-122353620D01*
X166265710Y-122439150D01*
X166066641Y-122559949D01*
X166062611Y-122563446D01*
X165968075Y-122645480D01*
X165890770Y-122712561D01*
X165887387Y-122716687D01*
X165887383Y-122716691D01*
X165814262Y-122805869D01*
X165743128Y-122892624D01*
X165740490Y-122897259D01*
X165740487Y-122897263D01*
X165717155Y-122938252D01*
X165666073Y-122987558D01*
X165596442Y-123001420D01*
X165530371Y-122975437D01*
X165503133Y-122946287D01*
X165414388Y-122814470D01*
X165411196Y-122809728D01*
X165250468Y-122641242D01*
X165063650Y-122502246D01*
X164936574Y-122437637D01*
X164860842Y-122399133D01*
X164860841Y-122399133D01*
X164856084Y-122396714D01*
X164717299Y-122353620D01*
X164638807Y-122329247D01*
X164638801Y-122329246D01*
X164633704Y-122327663D01*
X164509340Y-122311180D01*
X164408152Y-122297768D01*
X164408148Y-122297768D01*
X164402868Y-122297068D01*
X164397538Y-122297268D01*
X164397537Y-122297268D01*
X164286523Y-122301435D01*
X164170178Y-122305803D01*
X164087474Y-122323156D01*
X163947514Y-122352523D01*
X163947511Y-122352524D01*
X163942287Y-122353620D01*
X163725710Y-122439150D01*
X163526641Y-122559949D01*
X163522611Y-122563446D01*
X163428075Y-122645480D01*
X163350770Y-122712561D01*
X163347387Y-122716687D01*
X163347383Y-122716691D01*
X163274262Y-122805869D01*
X163203128Y-122892624D01*
X163200490Y-122897259D01*
X163200487Y-122897263D01*
X163177155Y-122938252D01*
X163126073Y-122987558D01*
X163056442Y-123001420D01*
X162990371Y-122975437D01*
X162963133Y-122946287D01*
X162874388Y-122814470D01*
X162871196Y-122809728D01*
X162710468Y-122641242D01*
X162523650Y-122502246D01*
X162396574Y-122437637D01*
X162320842Y-122399133D01*
X162320841Y-122399133D01*
X162316084Y-122396714D01*
X162177299Y-122353620D01*
X162098807Y-122329247D01*
X162098801Y-122329246D01*
X162093704Y-122327663D01*
X161969340Y-122311180D01*
X161868152Y-122297768D01*
X161868148Y-122297768D01*
X161862868Y-122297068D01*
X161857538Y-122297268D01*
X161857537Y-122297268D01*
X161746523Y-122301435D01*
X161630178Y-122305803D01*
X161547474Y-122323156D01*
X161407514Y-122352523D01*
X161407511Y-122352524D01*
X161402287Y-122353620D01*
X161185710Y-122439150D01*
X160986641Y-122559949D01*
X160982611Y-122563446D01*
X160888075Y-122645480D01*
X160810770Y-122712561D01*
X160807387Y-122716687D01*
X160807383Y-122716691D01*
X160734262Y-122805869D01*
X160663128Y-122892624D01*
X160660490Y-122897259D01*
X160660487Y-122897263D01*
X160597589Y-123007760D01*
X160547935Y-123094989D01*
X160546114Y-123100005D01*
X160546112Y-123100010D01*
X160504302Y-123215194D01*
X160468485Y-123313869D01*
X160427050Y-123543007D01*
X160426855Y-123547146D01*
X160426854Y-123547153D01*
X160425970Y-123565905D01*
X160425900Y-123567394D01*
X160425900Y-124035868D01*
X158090100Y-124035868D01*
X158090100Y-123614132D01*
X158079702Y-123491583D01*
X158075825Y-123445891D01*
X158075824Y-123445887D01*
X158075374Y-123440580D01*
X158073708Y-123434160D01*
X158018217Y-123220363D01*
X158018216Y-123220359D01*
X158016875Y-123215194D01*
X158008164Y-123195855D01*
X157923433Y-123007760D01*
X157921238Y-123002887D01*
X157791196Y-122809728D01*
X157630468Y-122641242D01*
X157443650Y-122502246D01*
X157316574Y-122437637D01*
X157240842Y-122399133D01*
X157240841Y-122399133D01*
X157236084Y-122396714D01*
X157097299Y-122353620D01*
X157018807Y-122329247D01*
X157018801Y-122329246D01*
X157013704Y-122327663D01*
X156889340Y-122311180D01*
X156788152Y-122297768D01*
X156788148Y-122297768D01*
X156782868Y-122297068D01*
X156777538Y-122297268D01*
X156777537Y-122297268D01*
X156666523Y-122301435D01*
X156550178Y-122305803D01*
X156467474Y-122323156D01*
X156327514Y-122352523D01*
X156327511Y-122352524D01*
X156322287Y-122353620D01*
X156105710Y-122439150D01*
X155906641Y-122559949D01*
X155902611Y-122563446D01*
X155808075Y-122645480D01*
X155730770Y-122712561D01*
X155727387Y-122716687D01*
X155727383Y-122716691D01*
X155654262Y-122805869D01*
X155583128Y-122892624D01*
X155556878Y-122938739D01*
X155505798Y-122988044D01*
X155436168Y-123001906D01*
X155370096Y-122975923D01*
X155342857Y-122946773D01*
X155253785Y-122814470D01*
X155247124Y-122806184D01*
X155093820Y-122645480D01*
X155085852Y-122638431D01*
X154907664Y-122505856D01*
X154898634Y-122500257D01*
X154700653Y-122399598D01*
X154690792Y-122395595D01*
X154478699Y-122329737D01*
X154468304Y-122327452D01*
X154449959Y-122325020D01*
X154435792Y-122327217D01*
X154432000Y-122340401D01*
X154432000Y-125307488D01*
X153924000Y-125307488D01*
X153924000Y-124097115D01*
X153919525Y-124081876D01*
X153918135Y-124080671D01*
X153910452Y-124079000D01*
X151910115Y-124079000D01*
X151894876Y-124083475D01*
X151893671Y-124084865D01*
X151892000Y-124092548D01*
X151892000Y-125307488D01*
X151384000Y-125307488D01*
X151384000Y-123552885D01*
X151892000Y-123552885D01*
X151896475Y-123568124D01*
X151897865Y-123569329D01*
X151905548Y-123571000D01*
X153905885Y-123571000D01*
X153921124Y-123566525D01*
X153922329Y-123565135D01*
X153924000Y-123557452D01*
X153924000Y-122342512D01*
X153920027Y-122328981D01*
X153909420Y-122327456D01*
X153787657Y-122353004D01*
X153777461Y-122356064D01*
X153570903Y-122437637D01*
X153561366Y-122442371D01*
X153371497Y-122557586D01*
X153362907Y-122563850D01*
X153195163Y-122709411D01*
X153187743Y-122717041D01*
X153046927Y-122888780D01*
X153040905Y-122897542D01*
X153017190Y-122939202D01*
X152966107Y-122988508D01*
X152896476Y-123002369D01*
X152830406Y-122976385D01*
X152803168Y-122947236D01*
X152713785Y-122814469D01*
X152707124Y-122806184D01*
X152553820Y-122645480D01*
X152545852Y-122638431D01*
X152367664Y-122505856D01*
X152358634Y-122500257D01*
X152160653Y-122399598D01*
X152150792Y-122395595D01*
X151938699Y-122329737D01*
X151928304Y-122327452D01*
X151909959Y-122325020D01*
X151895792Y-122327217D01*
X151892000Y-122340401D01*
X151892000Y-123552885D01*
X151384000Y-123552885D01*
X151384000Y-122342512D01*
X151380027Y-122328981D01*
X151369420Y-122327456D01*
X151247657Y-122353004D01*
X151237461Y-122356064D01*
X151030903Y-122437637D01*
X151021366Y-122442371D01*
X150831497Y-122557586D01*
X150822907Y-122563850D01*
X150655163Y-122709411D01*
X150647743Y-122717041D01*
X150506927Y-122888780D01*
X150500898Y-122897551D01*
X150477467Y-122938715D01*
X150426385Y-122988022D01*
X150356755Y-123001884D01*
X150290684Y-122975901D01*
X150263445Y-122946751D01*
X150227005Y-122892624D01*
X150171196Y-122809728D01*
X150010468Y-122641242D01*
X149823650Y-122502246D01*
X149696574Y-122437637D01*
X149620842Y-122399133D01*
X149620841Y-122399133D01*
X149616084Y-122396714D01*
X149477299Y-122353620D01*
X149398807Y-122329247D01*
X149398801Y-122329246D01*
X149393704Y-122327663D01*
X149269340Y-122311180D01*
X149168152Y-122297768D01*
X149168148Y-122297768D01*
X149162868Y-122297068D01*
X149157538Y-122297268D01*
X149157537Y-122297268D01*
X149046523Y-122301435D01*
X148930178Y-122305803D01*
X148847474Y-122323156D01*
X148707514Y-122352523D01*
X148707511Y-122352524D01*
X148702287Y-122353620D01*
X148485710Y-122439150D01*
X148286641Y-122559949D01*
X148282611Y-122563446D01*
X148188075Y-122645480D01*
X148110770Y-122712561D01*
X148107387Y-122716687D01*
X148107383Y-122716691D01*
X148034262Y-122805869D01*
X147963128Y-122892624D01*
X147960490Y-122897259D01*
X147960487Y-122897263D01*
X147937155Y-122938252D01*
X147886073Y-122987558D01*
X147816442Y-123001420D01*
X147750371Y-122975437D01*
X147723133Y-122946287D01*
X147634388Y-122814470D01*
X147631196Y-122809728D01*
X147470468Y-122641242D01*
X147283650Y-122502246D01*
X147156574Y-122437637D01*
X147080842Y-122399133D01*
X147080841Y-122399133D01*
X147076084Y-122396714D01*
X146937299Y-122353620D01*
X146858807Y-122329247D01*
X146858801Y-122329246D01*
X146853704Y-122327663D01*
X146729340Y-122311180D01*
X146628152Y-122297768D01*
X146628148Y-122297768D01*
X146622868Y-122297068D01*
X146617538Y-122297268D01*
X146617537Y-122297268D01*
X146506523Y-122301435D01*
X146390178Y-122305803D01*
X146307474Y-122323156D01*
X146167514Y-122352523D01*
X146167511Y-122352524D01*
X146162287Y-122353620D01*
X145945710Y-122439150D01*
X145746641Y-122559949D01*
X145742611Y-122563446D01*
X145648075Y-122645480D01*
X145570770Y-122712561D01*
X145567387Y-122716687D01*
X145567383Y-122716691D01*
X145494262Y-122805869D01*
X145423128Y-122892624D01*
X145420490Y-122897259D01*
X145420487Y-122897263D01*
X145397155Y-122938252D01*
X145346073Y-122987558D01*
X145276442Y-123001420D01*
X145210371Y-122975437D01*
X145183133Y-122946287D01*
X145094388Y-122814470D01*
X145091196Y-122809728D01*
X144930468Y-122641242D01*
X144743650Y-122502246D01*
X144616574Y-122437637D01*
X144540842Y-122399133D01*
X144540841Y-122399133D01*
X144536084Y-122396714D01*
X144397299Y-122353620D01*
X144318807Y-122329247D01*
X144318801Y-122329246D01*
X144313704Y-122327663D01*
X144189340Y-122311180D01*
X144088152Y-122297768D01*
X144088148Y-122297768D01*
X144082868Y-122297068D01*
X144077538Y-122297268D01*
X144077537Y-122297268D01*
X143966523Y-122301435D01*
X143850178Y-122305803D01*
X143767474Y-122323156D01*
X143627514Y-122352523D01*
X143627511Y-122352524D01*
X143622287Y-122353620D01*
X143405710Y-122439150D01*
X143206641Y-122559949D01*
X143202611Y-122563446D01*
X143108075Y-122645480D01*
X143030770Y-122712561D01*
X143027387Y-122716687D01*
X143027383Y-122716691D01*
X142954262Y-122805869D01*
X142883128Y-122892624D01*
X142880490Y-122897259D01*
X142880487Y-122897263D01*
X142857155Y-122938252D01*
X142806073Y-122987558D01*
X142736442Y-123001420D01*
X142670371Y-122975437D01*
X142643133Y-122946287D01*
X142554388Y-122814470D01*
X142551196Y-122809728D01*
X142390468Y-122641242D01*
X142203650Y-122502246D01*
X142076574Y-122437637D01*
X142000842Y-122399133D01*
X142000841Y-122399133D01*
X141996084Y-122396714D01*
X141857299Y-122353620D01*
X141778807Y-122329247D01*
X141778801Y-122329246D01*
X141773704Y-122327663D01*
X141649340Y-122311180D01*
X141548152Y-122297768D01*
X141548148Y-122297768D01*
X141542868Y-122297068D01*
X141537538Y-122297268D01*
X141537537Y-122297268D01*
X141426523Y-122301435D01*
X141310178Y-122305803D01*
X141227474Y-122323156D01*
X141087514Y-122352523D01*
X141087511Y-122352524D01*
X141082287Y-122353620D01*
X140865710Y-122439150D01*
X140666641Y-122559949D01*
X140662611Y-122563446D01*
X140568075Y-122645480D01*
X140490770Y-122712561D01*
X140487387Y-122716687D01*
X140487383Y-122716691D01*
X140414262Y-122805869D01*
X140343128Y-122892624D01*
X140340490Y-122897259D01*
X140340487Y-122897263D01*
X140317155Y-122938252D01*
X140266073Y-122987558D01*
X140196442Y-123001420D01*
X140130371Y-122975437D01*
X140103133Y-122946287D01*
X140014388Y-122814470D01*
X140011196Y-122809728D01*
X139850468Y-122641242D01*
X139663650Y-122502246D01*
X139536574Y-122437637D01*
X139460842Y-122399133D01*
X139460841Y-122399133D01*
X139456084Y-122396714D01*
X139317299Y-122353620D01*
X139238807Y-122329247D01*
X139238801Y-122329246D01*
X139233704Y-122327663D01*
X139109340Y-122311180D01*
X139008152Y-122297768D01*
X139008148Y-122297768D01*
X139002868Y-122297068D01*
X138997538Y-122297268D01*
X138997537Y-122297268D01*
X138886523Y-122301435D01*
X138770178Y-122305803D01*
X138687474Y-122323156D01*
X138547514Y-122352523D01*
X138547511Y-122352524D01*
X138542287Y-122353620D01*
X138325710Y-122439150D01*
X138126641Y-122559949D01*
X138122611Y-122563446D01*
X138028075Y-122645480D01*
X137950770Y-122712561D01*
X137947387Y-122716687D01*
X137947383Y-122716691D01*
X137874262Y-122805869D01*
X137803128Y-122892624D01*
X137800490Y-122897259D01*
X137800487Y-122897263D01*
X137737589Y-123007760D01*
X137687935Y-123094989D01*
X137686114Y-123100005D01*
X137686112Y-123100010D01*
X137644302Y-123215194D01*
X137608485Y-123313869D01*
X137567050Y-123543007D01*
X137566855Y-123547146D01*
X137566854Y-123547153D01*
X137565970Y-123565905D01*
X137565900Y-123567394D01*
X137565900Y-124035868D01*
X127500256Y-124035868D01*
X127513523Y-123825000D01*
X127493451Y-123505961D01*
X127433551Y-123191954D01*
X127337890Y-122897542D01*
X127335993Y-122891703D01*
X127335993Y-122891702D01*
X127334767Y-122887930D01*
X127333078Y-122884340D01*
X127200347Y-122602271D01*
X127200343Y-122602264D01*
X127198659Y-122598685D01*
X127096170Y-122437188D01*
X127029498Y-122332130D01*
X127029495Y-122332126D01*
X127027371Y-122328779D01*
X126823606Y-122082470D01*
X126590577Y-121863641D01*
X126331959Y-121675744D01*
X126328487Y-121673835D01*
X126055293Y-121523645D01*
X126055290Y-121523643D01*
X126051831Y-121521742D01*
X125832877Y-121435052D01*
X125758293Y-121405522D01*
X125758290Y-121405521D01*
X125754610Y-121404064D01*
X125750776Y-121403080D01*
X125750768Y-121403077D01*
X125558847Y-121353800D01*
X125444983Y-121324565D01*
X125441055Y-121324069D01*
X125441051Y-121324068D01*
X125285344Y-121304398D01*
X125127835Y-121284500D01*
X124808165Y-121284500D01*
X124650656Y-121304398D01*
X124494949Y-121324068D01*
X124494945Y-121324069D01*
X124491017Y-121324565D01*
X124377153Y-121353800D01*
X124185232Y-121403077D01*
X124185224Y-121403080D01*
X124181390Y-121404064D01*
X124177710Y-121405521D01*
X124177707Y-121405522D01*
X124103123Y-121435052D01*
X123884169Y-121521742D01*
X123880710Y-121523643D01*
X123880707Y-121523645D01*
X123607513Y-121673835D01*
X123604041Y-121675744D01*
X123345423Y-121863641D01*
X123112394Y-122082470D01*
X122908629Y-122328779D01*
X122906505Y-122332126D01*
X122906502Y-122332130D01*
X122839830Y-122437188D01*
X122737341Y-122598685D01*
X122735657Y-122602264D01*
X122735653Y-122602271D01*
X122602922Y-122884340D01*
X122601233Y-122887930D01*
X122600007Y-122891702D01*
X122600007Y-122891703D01*
X122598110Y-122897542D01*
X122502449Y-123191954D01*
X122442549Y-123505961D01*
X122422477Y-123825000D01*
X122442549Y-124144039D01*
X122502449Y-124458046D01*
X122503676Y-124461822D01*
X122598201Y-124752737D01*
X122601233Y-124762070D01*
X122602920Y-124765656D01*
X122602922Y-124765660D01*
X122735653Y-125047729D01*
X122735657Y-125047736D01*
X122737341Y-125051315D01*
X122739465Y-125054661D01*
X122739465Y-125054662D01*
X122899914Y-125307488D01*
X122908629Y-125321221D01*
X123112394Y-125567530D01*
X123115284Y-125570244D01*
X123115285Y-125570245D01*
X123188661Y-125639150D01*
X123224627Y-125700363D01*
X123221788Y-125771303D01*
X123181048Y-125829447D01*
X123115340Y-125856335D01*
X123102408Y-125857000D01*
X111632000Y-125857000D01*
X111563879Y-125836998D01*
X111517386Y-125783342D01*
X111506000Y-125731000D01*
X111506000Y-113794669D01*
X115742001Y-113794669D01*
X115742371Y-113801490D01*
X115747895Y-113852352D01*
X115751521Y-113867604D01*
X115796676Y-113988054D01*
X115805214Y-114003649D01*
X115881715Y-114105724D01*
X115894276Y-114118285D01*
X115996351Y-114194786D01*
X116011946Y-114203324D01*
X116132394Y-114248478D01*
X116147649Y-114252105D01*
X116198514Y-114257631D01*
X116205328Y-114258000D01*
X117727885Y-114258000D01*
X117743124Y-114253525D01*
X117744329Y-114252135D01*
X117746000Y-114244452D01*
X117746000Y-114239884D01*
X118254000Y-114239884D01*
X118258475Y-114255123D01*
X118259865Y-114256328D01*
X118267548Y-114257999D01*
X118954323Y-114257999D01*
X119022444Y-114278001D01*
X119068937Y-114331657D01*
X119079041Y-114401931D01*
X119049547Y-114466511D01*
X119014834Y-114494518D01*
X119011699Y-114496235D01*
X119003295Y-114499385D01*
X118886739Y-114586739D01*
X118799385Y-114703295D01*
X118748255Y-114839684D01*
X118741500Y-114901866D01*
X118741500Y-118498134D01*
X118748255Y-118560316D01*
X118799385Y-118696705D01*
X118886739Y-118813261D01*
X119003295Y-118900615D01*
X119139684Y-118951745D01*
X119201866Y-118958500D01*
X122798134Y-118958500D01*
X122860316Y-118951745D01*
X122996705Y-118900615D01*
X123113261Y-118813261D01*
X123200615Y-118696705D01*
X123251745Y-118560316D01*
X123258500Y-118498134D01*
X123258500Y-114901866D01*
X123251745Y-114839684D01*
X123200615Y-114703295D01*
X123113261Y-114586739D01*
X122996705Y-114499385D01*
X122988304Y-114496236D01*
X122986082Y-114495019D01*
X122935936Y-114444760D01*
X122920923Y-114375369D01*
X122945809Y-114308877D01*
X123002693Y-114266395D01*
X123046592Y-114258500D01*
X125798134Y-114258500D01*
X125860316Y-114251745D01*
X125996705Y-114200615D01*
X126113261Y-114113261D01*
X126200615Y-113996705D01*
X126251745Y-113860316D01*
X126258500Y-113798134D01*
X126258500Y-111970859D01*
X128637132Y-111970859D01*
X128650457Y-112174151D01*
X128700605Y-112371610D01*
X128785898Y-112556624D01*
X128903479Y-112722997D01*
X129049410Y-112865157D01*
X129054206Y-112868362D01*
X129054209Y-112868364D01*
X129179227Y-112951898D01*
X129218803Y-112978342D01*
X129224106Y-112980620D01*
X129224109Y-112980622D01*
X129400680Y-113056483D01*
X129405987Y-113058763D01*
X129478817Y-113075243D01*
X129599055Y-113102450D01*
X129599060Y-113102451D01*
X129604692Y-113103725D01*
X129610463Y-113103952D01*
X129610465Y-113103952D01*
X129673470Y-113106427D01*
X129808263Y-113111723D01*
X130009883Y-113082490D01*
X130015347Y-113080635D01*
X130015352Y-113080634D01*
X130197327Y-113018862D01*
X130197332Y-113018860D01*
X130202799Y-113017004D01*
X130208653Y-113013726D01*
X130319054Y-112951898D01*
X130337989Y-112941294D01*
X131673066Y-112941294D01*
X131682948Y-112953783D01*
X131714239Y-112974691D01*
X131724349Y-112980181D01*
X131900835Y-113056005D01*
X131911778Y-113059560D01*
X132099120Y-113101952D01*
X132110530Y-113103454D01*
X132302469Y-113110995D01*
X132313951Y-113110393D01*
X132504045Y-113082832D01*
X132515240Y-113080144D01*
X132697131Y-113018400D01*
X132707628Y-113013726D01*
X132818032Y-112951898D01*
X132827895Y-112941821D01*
X132824940Y-112934151D01*
X132262811Y-112372021D01*
X132248868Y-112364408D01*
X132247034Y-112364539D01*
X132240420Y-112368790D01*
X131679259Y-112929952D01*
X131673066Y-112941294D01*
X130337989Y-112941294D01*
X130380551Y-112917458D01*
X130537186Y-112787186D01*
X130667458Y-112630551D01*
X130767004Y-112452799D01*
X130768860Y-112447332D01*
X130768862Y-112447327D01*
X130830634Y-112265352D01*
X130830635Y-112265347D01*
X130832490Y-112259883D01*
X130861723Y-112058263D01*
X130863249Y-112000000D01*
X130861102Y-111976638D01*
X131138012Y-111976638D01*
X131150575Y-112168304D01*
X131152376Y-112179674D01*
X131199657Y-112365843D01*
X131203498Y-112376690D01*
X131283916Y-112551130D01*
X131289664Y-112561086D01*
X131295788Y-112569751D01*
X131306377Y-112578140D01*
X131319676Y-112571113D01*
X131877979Y-112012811D01*
X131884356Y-112001132D01*
X132614408Y-112001132D01*
X132614539Y-112002966D01*
X132618790Y-112009580D01*
X133180239Y-112571028D01*
X133192614Y-112577785D01*
X133199194Y-112572859D01*
X133263726Y-112457628D01*
X133268400Y-112447131D01*
X133330144Y-112265240D01*
X133332832Y-112254045D01*
X133360689Y-112061911D01*
X133361319Y-112054528D01*
X133362650Y-112003704D01*
X133362407Y-111996305D01*
X133360069Y-111970859D01*
X138637132Y-111970859D01*
X138650457Y-112174151D01*
X138700605Y-112371610D01*
X138785898Y-112556624D01*
X138903479Y-112722997D01*
X139049410Y-112865157D01*
X139054206Y-112868362D01*
X139054209Y-112868364D01*
X139179227Y-112951898D01*
X139218803Y-112978342D01*
X139224106Y-112980620D01*
X139224109Y-112980622D01*
X139400680Y-113056483D01*
X139405987Y-113058763D01*
X139478817Y-113075243D01*
X139599055Y-113102450D01*
X139599060Y-113102451D01*
X139604692Y-113103725D01*
X139610463Y-113103952D01*
X139610465Y-113103952D01*
X139673470Y-113106427D01*
X139808263Y-113111723D01*
X140009883Y-113082490D01*
X140015347Y-113080635D01*
X140015352Y-113080634D01*
X140197327Y-113018862D01*
X140197332Y-113018860D01*
X140202799Y-113017004D01*
X140208653Y-113013726D01*
X140319054Y-112951898D01*
X140337989Y-112941294D01*
X141673066Y-112941294D01*
X141682948Y-112953783D01*
X141714239Y-112974691D01*
X141724349Y-112980181D01*
X141900835Y-113056005D01*
X141911778Y-113059560D01*
X142099120Y-113101952D01*
X142110530Y-113103454D01*
X142302469Y-113110995D01*
X142313951Y-113110393D01*
X142504045Y-113082832D01*
X142515240Y-113080144D01*
X142697131Y-113018400D01*
X142707628Y-113013726D01*
X142818032Y-112951898D01*
X142827895Y-112941821D01*
X142824940Y-112934151D01*
X142262811Y-112372021D01*
X142248868Y-112364408D01*
X142247034Y-112364539D01*
X142240420Y-112368790D01*
X141679259Y-112929952D01*
X141673066Y-112941294D01*
X140337989Y-112941294D01*
X140380551Y-112917458D01*
X140537186Y-112787186D01*
X140667458Y-112630551D01*
X140767004Y-112452799D01*
X140768860Y-112447332D01*
X140768862Y-112447327D01*
X140830634Y-112265352D01*
X140830635Y-112265347D01*
X140832490Y-112259883D01*
X140861723Y-112058263D01*
X140863249Y-112000000D01*
X140861102Y-111976638D01*
X141138012Y-111976638D01*
X141150575Y-112168304D01*
X141152376Y-112179674D01*
X141199657Y-112365843D01*
X141203498Y-112376690D01*
X141283916Y-112551130D01*
X141289664Y-112561086D01*
X141295788Y-112569751D01*
X141306377Y-112578140D01*
X141319676Y-112571113D01*
X141877979Y-112012811D01*
X141884356Y-112001132D01*
X142614408Y-112001132D01*
X142614539Y-112002966D01*
X142618790Y-112009580D01*
X143180239Y-112571028D01*
X143192614Y-112577785D01*
X143199194Y-112572859D01*
X143263726Y-112457628D01*
X143268400Y-112447131D01*
X143330144Y-112265240D01*
X143332832Y-112254045D01*
X143360689Y-112061911D01*
X143361319Y-112054528D01*
X143362650Y-112003704D01*
X143362407Y-111996305D01*
X143360069Y-111970859D01*
X148637132Y-111970859D01*
X148650457Y-112174151D01*
X148700605Y-112371610D01*
X148785898Y-112556624D01*
X148903479Y-112722997D01*
X149049410Y-112865157D01*
X149054206Y-112868362D01*
X149054209Y-112868364D01*
X149179227Y-112951898D01*
X149218803Y-112978342D01*
X149224106Y-112980620D01*
X149224109Y-112980622D01*
X149400680Y-113056483D01*
X149405987Y-113058763D01*
X149478817Y-113075243D01*
X149599055Y-113102450D01*
X149599060Y-113102451D01*
X149604692Y-113103725D01*
X149610463Y-113103952D01*
X149610465Y-113103952D01*
X149673470Y-113106427D01*
X149808263Y-113111723D01*
X150009883Y-113082490D01*
X150015347Y-113080635D01*
X150015352Y-113080634D01*
X150197327Y-113018862D01*
X150197332Y-113018860D01*
X150202799Y-113017004D01*
X150208653Y-113013726D01*
X150319054Y-112951898D01*
X150337989Y-112941294D01*
X151673066Y-112941294D01*
X151682948Y-112953783D01*
X151714239Y-112974691D01*
X151724349Y-112980181D01*
X151900835Y-113056005D01*
X151911778Y-113059560D01*
X152099120Y-113101952D01*
X152110530Y-113103454D01*
X152302469Y-113110995D01*
X152313951Y-113110393D01*
X152504045Y-113082832D01*
X152515240Y-113080144D01*
X152697131Y-113018400D01*
X152707628Y-113013726D01*
X152818032Y-112951898D01*
X152827895Y-112941821D01*
X152824940Y-112934151D01*
X152262811Y-112372021D01*
X152248868Y-112364408D01*
X152247034Y-112364539D01*
X152240420Y-112368790D01*
X151679259Y-112929952D01*
X151673066Y-112941294D01*
X150337989Y-112941294D01*
X150380551Y-112917458D01*
X150537186Y-112787186D01*
X150667458Y-112630551D01*
X150767004Y-112452799D01*
X150768860Y-112447332D01*
X150768862Y-112447327D01*
X150830634Y-112265352D01*
X150830635Y-112265347D01*
X150832490Y-112259883D01*
X150861723Y-112058263D01*
X150863249Y-112000000D01*
X150861102Y-111976638D01*
X151138012Y-111976638D01*
X151150575Y-112168304D01*
X151152376Y-112179674D01*
X151199657Y-112365843D01*
X151203498Y-112376690D01*
X151283916Y-112551130D01*
X151289664Y-112561086D01*
X151295788Y-112569751D01*
X151306377Y-112578140D01*
X151319676Y-112571113D01*
X151877979Y-112012811D01*
X151884356Y-112001132D01*
X152614408Y-112001132D01*
X152614539Y-112002966D01*
X152618790Y-112009580D01*
X153180239Y-112571028D01*
X153192614Y-112577785D01*
X153199194Y-112572859D01*
X153263726Y-112457628D01*
X153268400Y-112447131D01*
X153330144Y-112265240D01*
X153332832Y-112254045D01*
X153360689Y-112061911D01*
X153361319Y-112054528D01*
X153362650Y-112003704D01*
X153362407Y-111996305D01*
X153344643Y-111802975D01*
X153342545Y-111791654D01*
X153290408Y-111606791D01*
X153286283Y-111596044D01*
X153202163Y-111425465D01*
X153194869Y-111419990D01*
X153182449Y-111426762D01*
X152622021Y-111987189D01*
X152614408Y-112001132D01*
X151884356Y-112001132D01*
X151885592Y-111998868D01*
X151885461Y-111997034D01*
X151881210Y-111990420D01*
X151318538Y-111427749D01*
X151306163Y-111420992D01*
X151300197Y-111425458D01*
X151224645Y-111569058D01*
X151220242Y-111579691D01*
X151163281Y-111763132D01*
X151160891Y-111774376D01*
X151138313Y-111965137D01*
X151138012Y-111976638D01*
X150861102Y-111976638D01*
X150851860Y-111876049D01*
X150845137Y-111802880D01*
X150845136Y-111802877D01*
X150844608Y-111797126D01*
X150830189Y-111746000D01*
X150790875Y-111606606D01*
X150790874Y-111606604D01*
X150789307Y-111601047D01*
X150778776Y-111579691D01*
X150701756Y-111423510D01*
X150699201Y-111418329D01*
X150680796Y-111393681D01*
X150580758Y-111259715D01*
X150580758Y-111259714D01*
X150577305Y-111255091D01*
X150427703Y-111116800D01*
X150335580Y-111058675D01*
X151672788Y-111058675D01*
X151676275Y-111067064D01*
X152237189Y-111627979D01*
X152251132Y-111635592D01*
X152252966Y-111635461D01*
X152259580Y-111631210D01*
X152820285Y-111070504D01*
X152827042Y-111058129D01*
X152821012Y-111050073D01*
X152760061Y-111011616D01*
X152749813Y-111006395D01*
X152571401Y-110935216D01*
X152560373Y-110931949D01*
X152371982Y-110894476D01*
X152360535Y-110893273D01*
X152168477Y-110890759D01*
X152156997Y-110891662D01*
X151967697Y-110924190D01*
X151956577Y-110927170D01*
X151776365Y-110993653D01*
X151765991Y-110998601D01*
X151682385Y-111048342D01*
X151672788Y-111058675D01*
X150335580Y-111058675D01*
X150321947Y-111050073D01*
X150260288Y-111011169D01*
X150260283Y-111011167D01*
X150255404Y-111008088D01*
X150066180Y-110932595D01*
X149891663Y-110897881D01*
X149872032Y-110893976D01*
X149872031Y-110893976D01*
X149866366Y-110892849D01*
X149860592Y-110892773D01*
X149860588Y-110892773D01*
X149757452Y-110891424D01*
X149662655Y-110890183D01*
X149656958Y-110891162D01*
X149656957Y-110891162D01*
X149637671Y-110894476D01*
X149461870Y-110924684D01*
X149270734Y-110995198D01*
X149265773Y-110998150D01*
X149265772Y-110998150D01*
X149149939Y-111067064D01*
X149095649Y-111099363D01*
X148942478Y-111233690D01*
X148938911Y-111238215D01*
X148938906Y-111238220D01*
X148852331Y-111348040D01*
X148816351Y-111393681D01*
X148813662Y-111398792D01*
X148813660Y-111398795D01*
X148798946Y-111426762D01*
X148721492Y-111573978D01*
X148661078Y-111768543D01*
X148637132Y-111970859D01*
X143360069Y-111970859D01*
X143344643Y-111802975D01*
X143342545Y-111791654D01*
X143290408Y-111606791D01*
X143286283Y-111596044D01*
X143202163Y-111425465D01*
X143194869Y-111419990D01*
X143182449Y-111426762D01*
X142622021Y-111987189D01*
X142614408Y-112001132D01*
X141884356Y-112001132D01*
X141885592Y-111998868D01*
X141885461Y-111997034D01*
X141881210Y-111990420D01*
X141318538Y-111427749D01*
X141306163Y-111420992D01*
X141300197Y-111425458D01*
X141224645Y-111569058D01*
X141220242Y-111579691D01*
X141163281Y-111763132D01*
X141160891Y-111774376D01*
X141138313Y-111965137D01*
X141138012Y-111976638D01*
X140861102Y-111976638D01*
X140851860Y-111876049D01*
X140845137Y-111802880D01*
X140845136Y-111802877D01*
X140844608Y-111797126D01*
X140830189Y-111746000D01*
X140790875Y-111606606D01*
X140790874Y-111606604D01*
X140789307Y-111601047D01*
X140778776Y-111579691D01*
X140701756Y-111423510D01*
X140699201Y-111418329D01*
X140680796Y-111393681D01*
X140580758Y-111259715D01*
X140580758Y-111259714D01*
X140577305Y-111255091D01*
X140427703Y-111116800D01*
X140335580Y-111058675D01*
X141672788Y-111058675D01*
X141676275Y-111067064D01*
X142237189Y-111627979D01*
X142251132Y-111635592D01*
X142252966Y-111635461D01*
X142259580Y-111631210D01*
X142820285Y-111070504D01*
X142827042Y-111058129D01*
X142821012Y-111050073D01*
X142760061Y-111011616D01*
X142749813Y-111006395D01*
X142571401Y-110935216D01*
X142560373Y-110931949D01*
X142371982Y-110894476D01*
X142360535Y-110893273D01*
X142168477Y-110890759D01*
X142156997Y-110891662D01*
X141967697Y-110924190D01*
X141956577Y-110927170D01*
X141776365Y-110993653D01*
X141765991Y-110998601D01*
X141682385Y-111048342D01*
X141672788Y-111058675D01*
X140335580Y-111058675D01*
X140321947Y-111050073D01*
X140260288Y-111011169D01*
X140260283Y-111011167D01*
X140255404Y-111008088D01*
X140066180Y-110932595D01*
X139891663Y-110897881D01*
X139872032Y-110893976D01*
X139872031Y-110893976D01*
X139866366Y-110892849D01*
X139860592Y-110892773D01*
X139860588Y-110892773D01*
X139757452Y-110891424D01*
X139662655Y-110890183D01*
X139656958Y-110891162D01*
X139656957Y-110891162D01*
X139637671Y-110894476D01*
X139461870Y-110924684D01*
X139270734Y-110995198D01*
X139265773Y-110998150D01*
X139265772Y-110998150D01*
X139149939Y-111067064D01*
X139095649Y-111099363D01*
X138942478Y-111233690D01*
X138938911Y-111238215D01*
X138938906Y-111238220D01*
X138852331Y-111348040D01*
X138816351Y-111393681D01*
X138813662Y-111398792D01*
X138813660Y-111398795D01*
X138798946Y-111426762D01*
X138721492Y-111573978D01*
X138661078Y-111768543D01*
X138637132Y-111970859D01*
X133360069Y-111970859D01*
X133344643Y-111802975D01*
X133342545Y-111791654D01*
X133290408Y-111606791D01*
X133286283Y-111596044D01*
X133202163Y-111425465D01*
X133194869Y-111419990D01*
X133182449Y-111426762D01*
X132622021Y-111987189D01*
X132614408Y-112001132D01*
X131884356Y-112001132D01*
X131885592Y-111998868D01*
X131885461Y-111997034D01*
X131881210Y-111990420D01*
X131318538Y-111427749D01*
X131306163Y-111420992D01*
X131300197Y-111425458D01*
X131224645Y-111569058D01*
X131220242Y-111579691D01*
X131163281Y-111763132D01*
X131160891Y-111774376D01*
X131138313Y-111965137D01*
X131138012Y-111976638D01*
X130861102Y-111976638D01*
X130851860Y-111876049D01*
X130845137Y-111802880D01*
X130845136Y-111802877D01*
X130844608Y-111797126D01*
X130830189Y-111746000D01*
X130790875Y-111606606D01*
X130790874Y-111606604D01*
X130789307Y-111601047D01*
X130778776Y-111579691D01*
X130701756Y-111423510D01*
X130699201Y-111418329D01*
X130680796Y-111393681D01*
X130580758Y-111259715D01*
X130580758Y-111259714D01*
X130577305Y-111255091D01*
X130427703Y-111116800D01*
X130335580Y-111058675D01*
X131672788Y-111058675D01*
X131676275Y-111067064D01*
X132237189Y-111627979D01*
X132251132Y-111635592D01*
X132252966Y-111635461D01*
X132259580Y-111631210D01*
X132820285Y-111070504D01*
X132827042Y-111058129D01*
X132821012Y-111050073D01*
X132760061Y-111011616D01*
X132749813Y-111006395D01*
X132571401Y-110935216D01*
X132560373Y-110931949D01*
X132371982Y-110894476D01*
X132360535Y-110893273D01*
X132168477Y-110890759D01*
X132156997Y-110891662D01*
X131967697Y-110924190D01*
X131956577Y-110927170D01*
X131776365Y-110993653D01*
X131765991Y-110998601D01*
X131682385Y-111048342D01*
X131672788Y-111058675D01*
X130335580Y-111058675D01*
X130321947Y-111050073D01*
X130260288Y-111011169D01*
X130260283Y-111011167D01*
X130255404Y-111008088D01*
X130066180Y-110932595D01*
X129891663Y-110897881D01*
X129872032Y-110893976D01*
X129872031Y-110893976D01*
X129866366Y-110892849D01*
X129860592Y-110892773D01*
X129860588Y-110892773D01*
X129757452Y-110891424D01*
X129662655Y-110890183D01*
X129656958Y-110891162D01*
X129656957Y-110891162D01*
X129637671Y-110894476D01*
X129461870Y-110924684D01*
X129270734Y-110995198D01*
X129265773Y-110998150D01*
X129265772Y-110998150D01*
X129149939Y-111067064D01*
X129095649Y-111099363D01*
X128942478Y-111233690D01*
X128938911Y-111238215D01*
X128938906Y-111238220D01*
X128852331Y-111348040D01*
X128816351Y-111393681D01*
X128813662Y-111398792D01*
X128813660Y-111398795D01*
X128798946Y-111426762D01*
X128721492Y-111573978D01*
X128661078Y-111768543D01*
X128637132Y-111970859D01*
X126258500Y-111970859D01*
X126258500Y-110201866D01*
X126251745Y-110139684D01*
X126200615Y-110003295D01*
X126113261Y-109886739D01*
X125996705Y-109799385D01*
X125860316Y-109748255D01*
X125798134Y-109741500D01*
X122201866Y-109741500D01*
X122139684Y-109748255D01*
X122003295Y-109799385D01*
X121886739Y-109886739D01*
X121799385Y-110003295D01*
X121748255Y-110139684D01*
X121741500Y-110201866D01*
X121741500Y-113798134D01*
X121748255Y-113860316D01*
X121799385Y-113996705D01*
X121886739Y-114113261D01*
X122003295Y-114200615D01*
X122011696Y-114203764D01*
X122013918Y-114204981D01*
X122064064Y-114255240D01*
X122079077Y-114324631D01*
X122054191Y-114391123D01*
X121997307Y-114433605D01*
X121953408Y-114441500D01*
X120045539Y-114441500D01*
X119977418Y-114421498D01*
X119930925Y-114367842D01*
X119920821Y-114297568D01*
X119950315Y-114232988D01*
X119985030Y-114204980D01*
X120003646Y-114194788D01*
X120105724Y-114118285D01*
X120118285Y-114105724D01*
X120194786Y-114003649D01*
X120203324Y-113988054D01*
X120248478Y-113867606D01*
X120252105Y-113852351D01*
X120257631Y-113801486D01*
X120258000Y-113794672D01*
X120258000Y-112272115D01*
X120253525Y-112256876D01*
X120252135Y-112255671D01*
X120244452Y-112254000D01*
X118272115Y-112254000D01*
X118256876Y-112258475D01*
X118255671Y-112259865D01*
X118254000Y-112267548D01*
X118254000Y-114239884D01*
X117746000Y-114239884D01*
X117746000Y-112272115D01*
X117741525Y-112256876D01*
X117740135Y-112255671D01*
X117732452Y-112254000D01*
X115760116Y-112254000D01*
X115744877Y-112258475D01*
X115743672Y-112259865D01*
X115742001Y-112267548D01*
X115742001Y-113794669D01*
X111506000Y-113794669D01*
X111506000Y-111727885D01*
X115742000Y-111727885D01*
X115746475Y-111743124D01*
X115747865Y-111744329D01*
X115755548Y-111746000D01*
X117727885Y-111746000D01*
X117743124Y-111741525D01*
X117744329Y-111740135D01*
X117746000Y-111732452D01*
X117746000Y-111727885D01*
X118254000Y-111727885D01*
X118258475Y-111743124D01*
X118259865Y-111744329D01*
X118267548Y-111746000D01*
X120239884Y-111746000D01*
X120255123Y-111741525D01*
X120256328Y-111740135D01*
X120257999Y-111732452D01*
X120257999Y-110205331D01*
X120257629Y-110198510D01*
X120252105Y-110147648D01*
X120248479Y-110132396D01*
X120203324Y-110011946D01*
X120194786Y-109996351D01*
X120118285Y-109894276D01*
X120105724Y-109881715D01*
X120003649Y-109805214D01*
X119988054Y-109796676D01*
X119867606Y-109751522D01*
X119852351Y-109747895D01*
X119801486Y-109742369D01*
X119794672Y-109742000D01*
X118272115Y-109742000D01*
X118256876Y-109746475D01*
X118255671Y-109747865D01*
X118254000Y-109755548D01*
X118254000Y-111727885D01*
X117746000Y-111727885D01*
X117746000Y-109760116D01*
X117741525Y-109744877D01*
X117740135Y-109743672D01*
X117732452Y-109742001D01*
X116205331Y-109742001D01*
X116198510Y-109742371D01*
X116147648Y-109747895D01*
X116132396Y-109751521D01*
X116011946Y-109796676D01*
X115996351Y-109805214D01*
X115894276Y-109881715D01*
X115881715Y-109894276D01*
X115805214Y-109996351D01*
X115796676Y-110011946D01*
X115751522Y-110132394D01*
X115747895Y-110147649D01*
X115742369Y-110198514D01*
X115742000Y-110205328D01*
X115742000Y-111727885D01*
X111506000Y-111727885D01*
X111506000Y-106015634D01*
X131984000Y-106015634D01*
X131990755Y-106077816D01*
X132041885Y-106214205D01*
X132129239Y-106330761D01*
X132245795Y-106418115D01*
X132382184Y-106469245D01*
X132444366Y-106476000D01*
X134475634Y-106476000D01*
X134537816Y-106469245D01*
X134674205Y-106418115D01*
X134790761Y-106330761D01*
X134878115Y-106214205D01*
X134881267Y-106205797D01*
X134885577Y-106197925D01*
X134886861Y-106198628D01*
X134923705Y-106149585D01*
X134990268Y-106124889D01*
X135059616Y-106140099D01*
X135079526Y-106153639D01*
X135146806Y-106209496D01*
X135155254Y-106215411D01*
X135355811Y-106332607D01*
X135365098Y-106337057D01*
X135582107Y-106419925D01*
X135592005Y-106422801D01*
X135819635Y-106469112D01*
X135829863Y-106470331D01*
X136061998Y-106478844D01*
X136072284Y-106478377D01*
X136302694Y-106448860D01*
X136312780Y-106446717D01*
X136535278Y-106379964D01*
X136544855Y-106376211D01*
X136753474Y-106274010D01*
X136762313Y-106268741D01*
X136833493Y-106217969D01*
X136841893Y-106207270D01*
X136834904Y-106194114D01*
X135729885Y-105089095D01*
X135695859Y-105026783D01*
X135697694Y-105001132D01*
X136364408Y-105001132D01*
X136364539Y-105002965D01*
X136368790Y-105009580D01*
X137194670Y-105835460D01*
X137208614Y-105843074D01*
X137236942Y-105841048D01*
X137244898Y-105837992D01*
X137314417Y-105852405D01*
X137350348Y-105881076D01*
X137503757Y-106058176D01*
X137507732Y-106061476D01*
X137507736Y-106061480D01*
X137527413Y-106077816D01*
X137690499Y-106213213D01*
X137782900Y-106267207D01*
X137895594Y-106333060D01*
X137895597Y-106333062D01*
X137900056Y-106335667D01*
X138126798Y-106422252D01*
X138131864Y-106423283D01*
X138131865Y-106423283D01*
X138187345Y-106434571D01*
X138364637Y-106470641D01*
X138497287Y-106475505D01*
X138602021Y-106479345D01*
X138602025Y-106479345D01*
X138607185Y-106479534D01*
X138612305Y-106478878D01*
X138612307Y-106478878D01*
X138688541Y-106469112D01*
X138847929Y-106448694D01*
X138852878Y-106447209D01*
X138852884Y-106447208D01*
X138988726Y-106406454D01*
X139080404Y-106378949D01*
X139298366Y-106272170D01*
X139495961Y-106131227D01*
X139613336Y-106014261D01*
X145350294Y-106014261D01*
X145359590Y-106026276D01*
X145389189Y-106047001D01*
X145398677Y-106052479D01*
X145580277Y-106137159D01*
X145590571Y-106140907D01*
X145784122Y-106192769D01*
X145794909Y-106194671D01*
X145994525Y-106212135D01*
X146005475Y-106212135D01*
X146205091Y-106194671D01*
X146215878Y-106192769D01*
X146409429Y-106140907D01*
X146419723Y-106137159D01*
X146601323Y-106052479D01*
X146610811Y-106047001D01*
X146641248Y-106025689D01*
X146649623Y-106015212D01*
X146642554Y-106001764D01*
X146012812Y-105372022D01*
X145998868Y-105364408D01*
X145997035Y-105364539D01*
X145990420Y-105368790D01*
X145356724Y-106002486D01*
X145350294Y-106014261D01*
X139613336Y-106014261D01*
X139667883Y-105959904D01*
X139809515Y-105762802D01*
X139917054Y-105545214D01*
X139970656Y-105368790D01*
X139986107Y-105317936D01*
X139986108Y-105317930D01*
X139987611Y-105312984D01*
X140010203Y-105141379D01*
X140018854Y-105075670D01*
X140018854Y-105075666D01*
X140019291Y-105072349D01*
X140021059Y-105000000D01*
X140001172Y-104758105D01*
X139942043Y-104522705D01*
X139845262Y-104300124D01*
X139713428Y-104096339D01*
X139625767Y-104000000D01*
X143516884Y-104000000D01*
X143535314Y-104210655D01*
X143590044Y-104414910D01*
X143592366Y-104419891D01*
X143592367Y-104419892D01*
X143640310Y-104522705D01*
X143679411Y-104606558D01*
X143800699Y-104779776D01*
X143950224Y-104929301D01*
X144123442Y-105050589D01*
X144128420Y-105052910D01*
X144128423Y-105052912D01*
X144170106Y-105072349D01*
X144315090Y-105139956D01*
X144320398Y-105141378D01*
X144320400Y-105141379D01*
X144514030Y-105193262D01*
X144514032Y-105193262D01*
X144519345Y-105194686D01*
X144524821Y-105195165D01*
X144524826Y-105195166D01*
X144650081Y-105206124D01*
X144720437Y-105212279D01*
X144786555Y-105238142D01*
X144828194Y-105295646D01*
X144831162Y-105305189D01*
X144859092Y-105409426D01*
X144862841Y-105419723D01*
X144947521Y-105601323D01*
X144952999Y-105610811D01*
X144974311Y-105641248D01*
X144984788Y-105649623D01*
X144998236Y-105642554D01*
X145910905Y-104729885D01*
X145973217Y-104695859D01*
X146044032Y-104700924D01*
X146089095Y-104729885D01*
X147002486Y-105643276D01*
X147014261Y-105649706D01*
X147026276Y-105640410D01*
X147047001Y-105610811D01*
X147052479Y-105601323D01*
X147137159Y-105419723D01*
X147140908Y-105409426D01*
X147168838Y-105305189D01*
X147205790Y-105244566D01*
X147269651Y-105213545D01*
X147279558Y-105212280D01*
X147349919Y-105206124D01*
X147475174Y-105195166D01*
X147475179Y-105195165D01*
X147480655Y-105194686D01*
X147485968Y-105193262D01*
X147485970Y-105193262D01*
X147679600Y-105141379D01*
X147679602Y-105141378D01*
X147684910Y-105139956D01*
X147829894Y-105072349D01*
X147871577Y-105052912D01*
X147871580Y-105052910D01*
X147876558Y-105050589D01*
X148049776Y-104929301D01*
X148199301Y-104779776D01*
X148320589Y-104606558D01*
X148359691Y-104522705D01*
X148407633Y-104419892D01*
X148407634Y-104419891D01*
X148409956Y-104414910D01*
X148464686Y-104210655D01*
X148483116Y-104000000D01*
X148464686Y-103789345D01*
X148458537Y-103766395D01*
X148411379Y-103590400D01*
X148411378Y-103590398D01*
X148409956Y-103585090D01*
X148384619Y-103530755D01*
X148322912Y-103398423D01*
X148322910Y-103398420D01*
X148320589Y-103393442D01*
X148199301Y-103220224D01*
X148049776Y-103070699D01*
X147876558Y-102949411D01*
X147871580Y-102947090D01*
X147871577Y-102947088D01*
X147689892Y-102862367D01*
X147689891Y-102862366D01*
X147684910Y-102860044D01*
X147679602Y-102858622D01*
X147679600Y-102858621D01*
X147485970Y-102806738D01*
X147485968Y-102806738D01*
X147480655Y-102805314D01*
X147270000Y-102786884D01*
X147059345Y-102805314D01*
X147054032Y-102806738D01*
X147054030Y-102806738D01*
X146860400Y-102858621D01*
X146860398Y-102858622D01*
X146855090Y-102860044D01*
X146850109Y-102862366D01*
X146850108Y-102862367D01*
X146668423Y-102947088D01*
X146668420Y-102947090D01*
X146663442Y-102949411D01*
X146490224Y-103070699D01*
X146340699Y-103220224D01*
X146219411Y-103393442D01*
X146217090Y-103398420D01*
X146217088Y-103398423D01*
X146155381Y-103530755D01*
X146130044Y-103585090D01*
X146128622Y-103590398D01*
X146128621Y-103590400D01*
X146121707Y-103616204D01*
X146084755Y-103676827D01*
X146020894Y-103707848D01*
X145950400Y-103699420D01*
X145895653Y-103654217D01*
X145878293Y-103616204D01*
X145871379Y-103590400D01*
X145871378Y-103590398D01*
X145869956Y-103585090D01*
X145844619Y-103530755D01*
X145782912Y-103398423D01*
X145782910Y-103398420D01*
X145780589Y-103393442D01*
X145659301Y-103220224D01*
X145509776Y-103070699D01*
X145336558Y-102949411D01*
X145331580Y-102947090D01*
X145331577Y-102947088D01*
X145149892Y-102862367D01*
X145149891Y-102862366D01*
X145144910Y-102860044D01*
X145139602Y-102858622D01*
X145139600Y-102858621D01*
X144945970Y-102806738D01*
X144945968Y-102806738D01*
X144940655Y-102805314D01*
X144730000Y-102786884D01*
X144519345Y-102805314D01*
X144514032Y-102806738D01*
X144514030Y-102806738D01*
X144320400Y-102858621D01*
X144320398Y-102858622D01*
X144315090Y-102860044D01*
X144310109Y-102862366D01*
X144310108Y-102862367D01*
X144128423Y-102947088D01*
X144128420Y-102947090D01*
X144123442Y-102949411D01*
X143950224Y-103070699D01*
X143800699Y-103220224D01*
X143679411Y-103393442D01*
X143677090Y-103398420D01*
X143677088Y-103398423D01*
X143615381Y-103530755D01*
X143590044Y-103585090D01*
X143588622Y-103590398D01*
X143588621Y-103590400D01*
X143541463Y-103766395D01*
X143535314Y-103789345D01*
X143516884Y-104000000D01*
X139625767Y-104000000D01*
X139553558Y-103920644D01*
X139553556Y-103920642D01*
X139550080Y-103916822D01*
X139546029Y-103913623D01*
X139546025Y-103913619D01*
X139377106Y-103780216D01*
X139359606Y-103766395D01*
X139253549Y-103707848D01*
X139151651Y-103651597D01*
X139151649Y-103651596D01*
X139147120Y-103649096D01*
X138966371Y-103585090D01*
X138923202Y-103569803D01*
X138923199Y-103569802D01*
X138918330Y-103568078D01*
X138913241Y-103567171D01*
X138913239Y-103567171D01*
X138684468Y-103526420D01*
X138684464Y-103526420D01*
X138679380Y-103525514D01*
X138599592Y-103524539D01*
X138441857Y-103522612D01*
X138441855Y-103522612D01*
X138436687Y-103522549D01*
X138196768Y-103559262D01*
X137966067Y-103634666D01*
X137750779Y-103746738D01*
X137746646Y-103749841D01*
X137746643Y-103749843D01*
X137560821Y-103889362D01*
X137556686Y-103892467D01*
X137389001Y-104067939D01*
X137362373Y-104106975D01*
X137307462Y-104151977D01*
X137240730Y-104160741D01*
X137208974Y-104156273D01*
X137197788Y-104161422D01*
X136372022Y-104987188D01*
X136364408Y-105001132D01*
X135697694Y-105001132D01*
X135700924Y-104955968D01*
X135729885Y-104910905D01*
X136837050Y-103803740D01*
X136844071Y-103790883D01*
X136836299Y-103780216D01*
X136823386Y-103770018D01*
X136814797Y-103764312D01*
X136611448Y-103652057D01*
X136602036Y-103647827D01*
X136383077Y-103570289D01*
X136373106Y-103567655D01*
X136144422Y-103526920D01*
X136134170Y-103525951D01*
X135901892Y-103523113D01*
X135891608Y-103523833D01*
X135661996Y-103558968D01*
X135651969Y-103561357D01*
X135431179Y-103633522D01*
X135421670Y-103637519D01*
X135215635Y-103744774D01*
X135206910Y-103750268D01*
X135074507Y-103849679D01*
X135008022Y-103874585D01*
X134938626Y-103859593D01*
X134888353Y-103809462D01*
X134881814Y-103795201D01*
X134881266Y-103794200D01*
X134878115Y-103785795D01*
X134790761Y-103669239D01*
X134674205Y-103581885D01*
X134537816Y-103530755D01*
X134475634Y-103524000D01*
X132444366Y-103524000D01*
X132382184Y-103530755D01*
X132245795Y-103581885D01*
X132129239Y-103669239D01*
X132041885Y-103785795D01*
X131990755Y-103922184D01*
X131984000Y-103984366D01*
X131984000Y-106015634D01*
X111506000Y-106015634D01*
X111506000Y-73659000D01*
X111526002Y-73590879D01*
X111579658Y-73544386D01*
X111632000Y-73533000D01*
X124372408Y-73533000D01*
X124440529Y-73553002D01*
G37*
%TD.AperFunction*%
%TD*%
M02*
