%TF.GenerationSoftware,KiCad,Pcbnew,6.0.0-d3dd2cf0fa~116~ubuntu21.10.1*%
%TF.CreationDate,2022-01-12T20:54:15-05:00*%
%TF.ProjectId,ardustack-power,61726475-7374-4616-936b-2d706f776572,rev?*%
%TF.SameCoordinates,Original*%
%TF.FileFunction,Legend,Top*%
%TF.FilePolarity,Positive*%
%FSLAX46Y46*%
G04 Gerber Fmt 4.6, Leading zero omitted, Abs format (unit mm)*
G04 Created by KiCad (PCBNEW 6.0.0-d3dd2cf0fa~116~ubuntu21.10.1) date 2022-01-12 20:54:15*
%MOMM*%
%LPD*%
G01*
G04 APERTURE LIST*
%ADD10C,0.150000*%
%ADD11C,0.254000*%
%ADD12C,0.100000*%
%ADD13O,1.727200X2.032000*%
%ADD14C,4.064000*%
G04 APERTURE END LIST*
D10*
X145867333Y-81552380D02*
X145819714Y-81600000D01*
X145676857Y-81695238D01*
X145581619Y-81742857D01*
X145438761Y-81790476D01*
X145200666Y-81838095D01*
X145010190Y-81838095D01*
X144772095Y-81790476D01*
X144629238Y-81742857D01*
X144534000Y-81695238D01*
X144391142Y-81600000D01*
X144343523Y-81552380D01*
X145486380Y-81171428D02*
X144486380Y-81171428D01*
X145200666Y-80838095D01*
X144486380Y-80504761D01*
X145486380Y-80504761D01*
X144486380Y-79838095D02*
X144486380Y-79647619D01*
X144534000Y-79552380D01*
X144629238Y-79457142D01*
X144819714Y-79409523D01*
X145153047Y-79409523D01*
X145343523Y-79457142D01*
X145438761Y-79552380D01*
X145486380Y-79647619D01*
X145486380Y-79838095D01*
X145438761Y-79933333D01*
X145343523Y-80028571D01*
X145153047Y-80076190D01*
X144819714Y-80076190D01*
X144629238Y-80028571D01*
X144534000Y-79933333D01*
X144486380Y-79838095D01*
X145438761Y-79028571D02*
X145486380Y-78885714D01*
X145486380Y-78647619D01*
X145438761Y-78552380D01*
X145391142Y-78504761D01*
X145295904Y-78457142D01*
X145200666Y-78457142D01*
X145105428Y-78504761D01*
X145057809Y-78552380D01*
X145010190Y-78647619D01*
X144962571Y-78838095D01*
X144914952Y-78933333D01*
X144867333Y-78980952D01*
X144772095Y-79028571D01*
X144676857Y-79028571D01*
X144581619Y-78980952D01*
X144534000Y-78933333D01*
X144486380Y-78838095D01*
X144486380Y-78600000D01*
X144534000Y-78457142D01*
X145486380Y-78028571D02*
X144486380Y-78028571D01*
X145867333Y-77647619D02*
X145819714Y-77600000D01*
X145676857Y-77504761D01*
X145581619Y-77457142D01*
X145438761Y-77409523D01*
X145200666Y-77361904D01*
X145010190Y-77361904D01*
X144772095Y-77409523D01*
X144629238Y-77457142D01*
X144534000Y-77504761D01*
X144391142Y-77600000D01*
X144343523Y-77647619D01*
X162631333Y-120547619D02*
X162583714Y-120595238D01*
X162440857Y-120690476D01*
X162345619Y-120738095D01*
X162202761Y-120785714D01*
X161964666Y-120833333D01*
X161774190Y-120833333D01*
X161536095Y-120785714D01*
X161393238Y-120738095D01*
X161298000Y-120690476D01*
X161155142Y-120595238D01*
X161107523Y-120547619D01*
X161964666Y-120214285D02*
X161964666Y-119738095D01*
X162250380Y-120309523D02*
X161250380Y-119976190D01*
X162250380Y-119642857D01*
X161250380Y-119119047D02*
X161250380Y-119023809D01*
X161298000Y-118928571D01*
X161345619Y-118880952D01*
X161440857Y-118833333D01*
X161631333Y-118785714D01*
X161869428Y-118785714D01*
X162059904Y-118833333D01*
X162155142Y-118880952D01*
X162202761Y-118928571D01*
X162250380Y-119023809D01*
X162250380Y-119119047D01*
X162202761Y-119214285D01*
X162155142Y-119261904D01*
X162059904Y-119309523D01*
X161869428Y-119357142D01*
X161631333Y-119357142D01*
X161440857Y-119309523D01*
X161345619Y-119261904D01*
X161298000Y-119214285D01*
X161250380Y-119119047D01*
X162631333Y-118452380D02*
X162583714Y-118404761D01*
X162440857Y-118309523D01*
X162345619Y-118261904D01*
X162202761Y-118214285D01*
X161964666Y-118166666D01*
X161774190Y-118166666D01*
X161536095Y-118214285D01*
X161393238Y-118261904D01*
X161298000Y-118309523D01*
X161155142Y-118404761D01*
X161107523Y-118452380D01*
X149169428Y-120785714D02*
X149169428Y-120023809D01*
X149550380Y-120404761D02*
X148788476Y-120404761D01*
X148550380Y-119071428D02*
X148550380Y-119547619D01*
X149026571Y-119595238D01*
X148978952Y-119547619D01*
X148931333Y-119452380D01*
X148931333Y-119214285D01*
X148978952Y-119119047D01*
X149026571Y-119071428D01*
X149121809Y-119023809D01*
X149359904Y-119023809D01*
X149455142Y-119071428D01*
X149502761Y-119119047D01*
X149550380Y-119214285D01*
X149550380Y-119452380D01*
X149502761Y-119547619D01*
X149455142Y-119595238D01*
X148550380Y-118738095D02*
X149550380Y-118404761D01*
X148550380Y-118071428D01*
X140787333Y-81219047D02*
X140739714Y-81266666D01*
X140596857Y-81361904D01*
X140501619Y-81409523D01*
X140358761Y-81457142D01*
X140120666Y-81504761D01*
X139930190Y-81504761D01*
X139692095Y-81457142D01*
X139549238Y-81409523D01*
X139454000Y-81361904D01*
X139311142Y-81266666D01*
X139263523Y-81219047D01*
X140358761Y-80885714D02*
X140406380Y-80742857D01*
X140406380Y-80504761D01*
X140358761Y-80409523D01*
X140311142Y-80361904D01*
X140215904Y-80314285D01*
X140120666Y-80314285D01*
X140025428Y-80361904D01*
X139977809Y-80409523D01*
X139930190Y-80504761D01*
X139882571Y-80695238D01*
X139834952Y-80790476D01*
X139787333Y-80838095D01*
X139692095Y-80885714D01*
X139596857Y-80885714D01*
X139501619Y-80838095D01*
X139454000Y-80790476D01*
X139406380Y-80695238D01*
X139406380Y-80457142D01*
X139454000Y-80314285D01*
X140311142Y-79314285D02*
X140358761Y-79361904D01*
X140406380Y-79504761D01*
X140406380Y-79600000D01*
X140358761Y-79742857D01*
X140263523Y-79838095D01*
X140168285Y-79885714D01*
X139977809Y-79933333D01*
X139834952Y-79933333D01*
X139644476Y-79885714D01*
X139549238Y-79838095D01*
X139454000Y-79742857D01*
X139406380Y-79600000D01*
X139406380Y-79504761D01*
X139454000Y-79361904D01*
X139501619Y-79314285D01*
X140406380Y-78885714D02*
X139406380Y-78885714D01*
X140406380Y-78314285D02*
X139834952Y-78742857D01*
X139406380Y-78314285D02*
X139977809Y-78885714D01*
X140787333Y-77980952D02*
X140739714Y-77933333D01*
X140596857Y-77838095D01*
X140501619Y-77790476D01*
X140358761Y-77742857D01*
X140120666Y-77695238D01*
X139930190Y-77695238D01*
X139692095Y-77742857D01*
X139549238Y-77790476D01*
X139454000Y-77838095D01*
X139311142Y-77933333D01*
X139263523Y-77980952D01*
X144851333Y-121690476D02*
X144803714Y-121738095D01*
X144660857Y-121833333D01*
X144565619Y-121880952D01*
X144422761Y-121928571D01*
X144184666Y-121976190D01*
X143994190Y-121976190D01*
X143756095Y-121928571D01*
X143613238Y-121880952D01*
X143518000Y-121833333D01*
X143375142Y-121738095D01*
X143327523Y-121690476D01*
X144470380Y-120738095D02*
X143994190Y-121071428D01*
X144470380Y-121309523D02*
X143470380Y-121309523D01*
X143470380Y-120928571D01*
X143518000Y-120833333D01*
X143565619Y-120785714D01*
X143660857Y-120738095D01*
X143803714Y-120738095D01*
X143898952Y-120785714D01*
X143946571Y-120833333D01*
X143994190Y-120928571D01*
X143994190Y-121309523D01*
X144422761Y-119928571D02*
X144470380Y-120023809D01*
X144470380Y-120214285D01*
X144422761Y-120309523D01*
X144327523Y-120357142D01*
X143946571Y-120357142D01*
X143851333Y-120309523D01*
X143803714Y-120214285D01*
X143803714Y-120023809D01*
X143851333Y-119928571D01*
X143946571Y-119880952D01*
X144041809Y-119880952D01*
X144137047Y-120357142D01*
X144422761Y-119500000D02*
X144470380Y-119404761D01*
X144470380Y-119214285D01*
X144422761Y-119119047D01*
X144327523Y-119071428D01*
X144279904Y-119071428D01*
X144184666Y-119119047D01*
X144137047Y-119214285D01*
X144137047Y-119357142D01*
X144089428Y-119452380D01*
X143994190Y-119500000D01*
X143946571Y-119500000D01*
X143851333Y-119452380D01*
X143803714Y-119357142D01*
X143803714Y-119214285D01*
X143851333Y-119119047D01*
X144422761Y-118261904D02*
X144470380Y-118357142D01*
X144470380Y-118547619D01*
X144422761Y-118642857D01*
X144327523Y-118690476D01*
X143946571Y-118690476D01*
X143851333Y-118642857D01*
X143803714Y-118547619D01*
X143803714Y-118357142D01*
X143851333Y-118261904D01*
X143946571Y-118214285D01*
X144041809Y-118214285D01*
X144137047Y-118690476D01*
X143803714Y-117928571D02*
X143803714Y-117547619D01*
X143470380Y-117785714D02*
X144327523Y-117785714D01*
X144422761Y-117738095D01*
X144470380Y-117642857D01*
X144470380Y-117547619D01*
X144851333Y-117309523D02*
X144803714Y-117261904D01*
X144660857Y-117166666D01*
X144565619Y-117119047D01*
X144422761Y-117071428D01*
X144184666Y-117023809D01*
X143994190Y-117023809D01*
X143756095Y-117071428D01*
X143613238Y-117119047D01*
X143518000Y-117166666D01*
X143375142Y-117261904D01*
X143327523Y-117309523D01*
X135707333Y-81552380D02*
X135659714Y-81600000D01*
X135516857Y-81695238D01*
X135421619Y-81742857D01*
X135278761Y-81790476D01*
X135040666Y-81838095D01*
X134850190Y-81838095D01*
X134612095Y-81790476D01*
X134469238Y-81742857D01*
X134374000Y-81695238D01*
X134231142Y-81600000D01*
X134183523Y-81552380D01*
X135040666Y-81219047D02*
X135040666Y-80742857D01*
X135326380Y-81314285D02*
X134326380Y-80980952D01*
X135326380Y-80647619D01*
X135326380Y-79742857D02*
X134850190Y-80076190D01*
X135326380Y-80314285D02*
X134326380Y-80314285D01*
X134326380Y-79933333D01*
X134374000Y-79838095D01*
X134421619Y-79790476D01*
X134516857Y-79742857D01*
X134659714Y-79742857D01*
X134754952Y-79790476D01*
X134802571Y-79838095D01*
X134850190Y-79933333D01*
X134850190Y-80314285D01*
X134802571Y-79314285D02*
X134802571Y-78980952D01*
X135326380Y-78838095D02*
X135326380Y-79314285D01*
X134326380Y-79314285D01*
X134326380Y-78838095D01*
X134802571Y-78076190D02*
X134802571Y-78409523D01*
X135326380Y-78409523D02*
X134326380Y-78409523D01*
X134326380Y-77933333D01*
X135707333Y-77647619D02*
X135659714Y-77600000D01*
X135516857Y-77504761D01*
X135421619Y-77457142D01*
X135278761Y-77409523D01*
X135040666Y-77361904D01*
X134850190Y-77361904D01*
X134612095Y-77409523D01*
X134469238Y-77457142D01*
X134374000Y-77504761D01*
X134231142Y-77600000D01*
X134183523Y-77647619D01*
X162631333Y-80219047D02*
X162583714Y-80266666D01*
X162440857Y-80361904D01*
X162345619Y-80409523D01*
X162202761Y-80457142D01*
X161964666Y-80504761D01*
X161774190Y-80504761D01*
X161536095Y-80457142D01*
X161393238Y-80409523D01*
X161298000Y-80361904D01*
X161155142Y-80266666D01*
X161107523Y-80219047D01*
X161250380Y-79361904D02*
X161250380Y-79838095D01*
X161726571Y-79885714D01*
X161678952Y-79838095D01*
X161631333Y-79742857D01*
X161631333Y-79504761D01*
X161678952Y-79409523D01*
X161726571Y-79361904D01*
X161821809Y-79314285D01*
X162059904Y-79314285D01*
X162155142Y-79361904D01*
X162202761Y-79409523D01*
X162250380Y-79504761D01*
X162250380Y-79742857D01*
X162202761Y-79838095D01*
X162155142Y-79885714D01*
X162631333Y-78980952D02*
X162583714Y-78933333D01*
X162440857Y-78838095D01*
X162345619Y-78790476D01*
X162202761Y-78742857D01*
X161964666Y-78695238D01*
X161774190Y-78695238D01*
X161536095Y-78742857D01*
X161393238Y-78790476D01*
X161298000Y-78838095D01*
X161155142Y-78933333D01*
X161107523Y-78980952D01*
X160091333Y-80219047D02*
X160043714Y-80266666D01*
X159900857Y-80361904D01*
X159805619Y-80409523D01*
X159662761Y-80457142D01*
X159424666Y-80504761D01*
X159234190Y-80504761D01*
X158996095Y-80457142D01*
X158853238Y-80409523D01*
X158758000Y-80361904D01*
X158615142Y-80266666D01*
X158567523Y-80219047D01*
X158710380Y-79409523D02*
X158710380Y-79600000D01*
X158758000Y-79695238D01*
X158805619Y-79742857D01*
X158948476Y-79838095D01*
X159138952Y-79885714D01*
X159519904Y-79885714D01*
X159615142Y-79838095D01*
X159662761Y-79790476D01*
X159710380Y-79695238D01*
X159710380Y-79504761D01*
X159662761Y-79409523D01*
X159615142Y-79361904D01*
X159519904Y-79314285D01*
X159281809Y-79314285D01*
X159186571Y-79361904D01*
X159138952Y-79409523D01*
X159091333Y-79504761D01*
X159091333Y-79695238D01*
X159138952Y-79790476D01*
X159186571Y-79838095D01*
X159281809Y-79885714D01*
X160091333Y-78980952D02*
X160043714Y-78933333D01*
X159900857Y-78838095D01*
X159805619Y-78790476D01*
X159662761Y-78742857D01*
X159424666Y-78695238D01*
X159234190Y-78695238D01*
X158996095Y-78742857D01*
X158853238Y-78790476D01*
X158758000Y-78838095D01*
X158615142Y-78933333D01*
X158567523Y-78980952D01*
X175331333Y-80647619D02*
X175283714Y-80695238D01*
X175140857Y-80790476D01*
X175045619Y-80838095D01*
X174902761Y-80885714D01*
X174664666Y-80933333D01*
X174474190Y-80933333D01*
X174236095Y-80885714D01*
X174093238Y-80838095D01*
X173998000Y-80790476D01*
X173855142Y-80695238D01*
X173807523Y-80647619D01*
X174950380Y-79695238D02*
X174474190Y-80028571D01*
X174950380Y-80266666D02*
X173950380Y-80266666D01*
X173950380Y-79885714D01*
X173998000Y-79790476D01*
X174045619Y-79742857D01*
X174140857Y-79695238D01*
X174283714Y-79695238D01*
X174378952Y-79742857D01*
X174426571Y-79790476D01*
X174474190Y-79885714D01*
X174474190Y-80266666D01*
X174950380Y-79361904D02*
X174283714Y-78838095D01*
X174283714Y-79361904D02*
X174950380Y-78838095D01*
X175331333Y-78552380D02*
X175283714Y-78504761D01*
X175140857Y-78409523D01*
X175045619Y-78361904D01*
X174902761Y-78314285D01*
X174664666Y-78266666D01*
X174474190Y-78266666D01*
X174236095Y-78314285D01*
X174093238Y-78361904D01*
X173998000Y-78409523D01*
X173855142Y-78504761D01*
X173807523Y-78552380D01*
X150947333Y-80219047D02*
X150899714Y-80266666D01*
X150756857Y-80361904D01*
X150661619Y-80409523D01*
X150518761Y-80457142D01*
X150280666Y-80504761D01*
X150090190Y-80504761D01*
X149852095Y-80457142D01*
X149709238Y-80409523D01*
X149614000Y-80361904D01*
X149471142Y-80266666D01*
X149423523Y-80219047D01*
X150566380Y-79790476D02*
X150566380Y-79600000D01*
X150518761Y-79504761D01*
X150471142Y-79457142D01*
X150328285Y-79361904D01*
X150137809Y-79314285D01*
X149756857Y-79314285D01*
X149661619Y-79361904D01*
X149614000Y-79409523D01*
X149566380Y-79504761D01*
X149566380Y-79695238D01*
X149614000Y-79790476D01*
X149661619Y-79838095D01*
X149756857Y-79885714D01*
X149994952Y-79885714D01*
X150090190Y-79838095D01*
X150137809Y-79790476D01*
X150185428Y-79695238D01*
X150185428Y-79504761D01*
X150137809Y-79409523D01*
X150090190Y-79361904D01*
X149994952Y-79314285D01*
X150947333Y-78980952D02*
X150899714Y-78933333D01*
X150756857Y-78838095D01*
X150661619Y-78790476D01*
X150518761Y-78742857D01*
X150280666Y-78695238D01*
X150090190Y-78695238D01*
X149852095Y-78742857D01*
X149709238Y-78790476D01*
X149614000Y-78838095D01*
X149471142Y-78933333D01*
X149423523Y-78980952D01*
X148407333Y-80695238D02*
X148359714Y-80742857D01*
X148216857Y-80838095D01*
X148121619Y-80885714D01*
X147978761Y-80933333D01*
X147740666Y-80980952D01*
X147550190Y-80980952D01*
X147312095Y-80933333D01*
X147169238Y-80885714D01*
X147074000Y-80838095D01*
X146931142Y-80742857D01*
X146883523Y-80695238D01*
X147978761Y-80361904D02*
X148026380Y-80219047D01*
X148026380Y-79980952D01*
X147978761Y-79885714D01*
X147931142Y-79838095D01*
X147835904Y-79790476D01*
X147740666Y-79790476D01*
X147645428Y-79838095D01*
X147597809Y-79885714D01*
X147550190Y-79980952D01*
X147502571Y-80171428D01*
X147454952Y-80266666D01*
X147407333Y-80314285D01*
X147312095Y-80361904D01*
X147216857Y-80361904D01*
X147121619Y-80314285D01*
X147074000Y-80266666D01*
X147026380Y-80171428D01*
X147026380Y-79933333D01*
X147074000Y-79790476D01*
X147978761Y-79409523D02*
X148026380Y-79266666D01*
X148026380Y-79028571D01*
X147978761Y-78933333D01*
X147931142Y-78885714D01*
X147835904Y-78838095D01*
X147740666Y-78838095D01*
X147645428Y-78885714D01*
X147597809Y-78933333D01*
X147550190Y-79028571D01*
X147502571Y-79219047D01*
X147454952Y-79314285D01*
X147407333Y-79361904D01*
X147312095Y-79409523D01*
X147216857Y-79409523D01*
X147121619Y-79361904D01*
X147074000Y-79314285D01*
X147026380Y-79219047D01*
X147026380Y-78980952D01*
X147074000Y-78838095D01*
X148407333Y-78504761D02*
X148359714Y-78457142D01*
X148216857Y-78361904D01*
X148121619Y-78314285D01*
X147978761Y-78266666D01*
X147740666Y-78219047D01*
X147550190Y-78219047D01*
X147312095Y-78266666D01*
X147169238Y-78314285D01*
X147074000Y-78361904D01*
X146931142Y-78457142D01*
X146883523Y-78504761D01*
X143327333Y-81552380D02*
X143279714Y-81600000D01*
X143136857Y-81695238D01*
X143041619Y-81742857D01*
X142898761Y-81790476D01*
X142660666Y-81838095D01*
X142470190Y-81838095D01*
X142232095Y-81790476D01*
X142089238Y-81742857D01*
X141994000Y-81695238D01*
X141851142Y-81600000D01*
X141803523Y-81552380D01*
X142946380Y-81171428D02*
X141946380Y-81171428D01*
X142660666Y-80838095D01*
X141946380Y-80504761D01*
X142946380Y-80504761D01*
X142946380Y-80028571D02*
X141946380Y-80028571D01*
X142898761Y-79600000D02*
X142946380Y-79457142D01*
X142946380Y-79219047D01*
X142898761Y-79123809D01*
X142851142Y-79076190D01*
X142755904Y-79028571D01*
X142660666Y-79028571D01*
X142565428Y-79076190D01*
X142517809Y-79123809D01*
X142470190Y-79219047D01*
X142422571Y-79409523D01*
X142374952Y-79504761D01*
X142327333Y-79552380D01*
X142232095Y-79600000D01*
X142136857Y-79600000D01*
X142041619Y-79552380D01*
X141994000Y-79504761D01*
X141946380Y-79409523D01*
X141946380Y-79171428D01*
X141994000Y-79028571D01*
X141946380Y-78409523D02*
X141946380Y-78219047D01*
X141994000Y-78123809D01*
X142089238Y-78028571D01*
X142279714Y-77980952D01*
X142613047Y-77980952D01*
X142803523Y-78028571D01*
X142898761Y-78123809D01*
X142946380Y-78219047D01*
X142946380Y-78409523D01*
X142898761Y-78504761D01*
X142803523Y-78600000D01*
X142613047Y-78647619D01*
X142279714Y-78647619D01*
X142089238Y-78600000D01*
X141994000Y-78504761D01*
X141946380Y-78409523D01*
X143327333Y-77647619D02*
X143279714Y-77600000D01*
X143136857Y-77504761D01*
X143041619Y-77457142D01*
X142898761Y-77409523D01*
X142660666Y-77361904D01*
X142470190Y-77361904D01*
X142232095Y-77409523D01*
X142089238Y-77457142D01*
X141994000Y-77504761D01*
X141851142Y-77600000D01*
X141803523Y-77647619D01*
X142311333Y-121785714D02*
X142263714Y-121833333D01*
X142120857Y-121928571D01*
X142025619Y-121976190D01*
X141882761Y-122023809D01*
X141644666Y-122071428D01*
X141454190Y-122071428D01*
X141216095Y-122023809D01*
X141073238Y-121976190D01*
X140978000Y-121928571D01*
X140835142Y-121833333D01*
X140787523Y-121785714D01*
X141930380Y-121404761D02*
X140930380Y-121404761D01*
X140930380Y-120738095D02*
X140930380Y-120547619D01*
X140978000Y-120452380D01*
X141073238Y-120357142D01*
X141263714Y-120309523D01*
X141597047Y-120309523D01*
X141787523Y-120357142D01*
X141882761Y-120452380D01*
X141930380Y-120547619D01*
X141930380Y-120738095D01*
X141882761Y-120833333D01*
X141787523Y-120928571D01*
X141597047Y-120976190D01*
X141263714Y-120976190D01*
X141073238Y-120928571D01*
X140978000Y-120833333D01*
X140930380Y-120738095D01*
X141930380Y-119309523D02*
X141454190Y-119642857D01*
X141930380Y-119880952D02*
X140930380Y-119880952D01*
X140930380Y-119500000D01*
X140978000Y-119404761D01*
X141025619Y-119357142D01*
X141120857Y-119309523D01*
X141263714Y-119309523D01*
X141358952Y-119357142D01*
X141406571Y-119404761D01*
X141454190Y-119500000D01*
X141454190Y-119880952D01*
X141406571Y-118880952D02*
X141406571Y-118547619D01*
X141930380Y-118404761D02*
X141930380Y-118880952D01*
X140930380Y-118880952D01*
X140930380Y-118404761D01*
X141406571Y-117642857D02*
X141406571Y-117976190D01*
X141930380Y-117976190D02*
X140930380Y-117976190D01*
X140930380Y-117500000D01*
X142311333Y-117214285D02*
X142263714Y-117166666D01*
X142120857Y-117071428D01*
X142025619Y-117023809D01*
X141882761Y-116976190D01*
X141644666Y-116928571D01*
X141454190Y-116928571D01*
X141216095Y-116976190D01*
X141073238Y-117023809D01*
X140978000Y-117071428D01*
X140835142Y-117166666D01*
X140787523Y-117214285D01*
X167711333Y-80219047D02*
X167663714Y-80266666D01*
X167520857Y-80361904D01*
X167425619Y-80409523D01*
X167282761Y-80457142D01*
X167044666Y-80504761D01*
X166854190Y-80504761D01*
X166616095Y-80457142D01*
X166473238Y-80409523D01*
X166378000Y-80361904D01*
X166235142Y-80266666D01*
X166187523Y-80219047D01*
X166330380Y-79933333D02*
X166330380Y-79314285D01*
X166711333Y-79647619D01*
X166711333Y-79504761D01*
X166758952Y-79409523D01*
X166806571Y-79361904D01*
X166901809Y-79314285D01*
X167139904Y-79314285D01*
X167235142Y-79361904D01*
X167282761Y-79409523D01*
X167330380Y-79504761D01*
X167330380Y-79790476D01*
X167282761Y-79885714D01*
X167235142Y-79933333D01*
X167711333Y-78980952D02*
X167663714Y-78933333D01*
X167520857Y-78838095D01*
X167425619Y-78790476D01*
X167282761Y-78742857D01*
X167044666Y-78695238D01*
X166854190Y-78695238D01*
X166616095Y-78742857D01*
X166473238Y-78790476D01*
X166378000Y-78838095D01*
X166235142Y-78933333D01*
X166187523Y-78980952D01*
X132786380Y-80385714D02*
X131786380Y-80385714D01*
X132786380Y-79814285D01*
X131786380Y-79814285D01*
X132691142Y-78766666D02*
X132738761Y-78814285D01*
X132786380Y-78957142D01*
X132786380Y-79052380D01*
X132738761Y-79195238D01*
X132643523Y-79290476D01*
X132548285Y-79338095D01*
X132357809Y-79385714D01*
X132214952Y-79385714D01*
X132024476Y-79338095D01*
X131929238Y-79290476D01*
X131834000Y-79195238D01*
X131786380Y-79052380D01*
X131786380Y-78957142D01*
X131834000Y-78814285D01*
X131881619Y-78766666D01*
X139390380Y-120285714D02*
X138390380Y-120285714D01*
X139390380Y-119714285D01*
X138390380Y-119714285D01*
X139295142Y-118666666D02*
X139342761Y-118714285D01*
X139390380Y-118857142D01*
X139390380Y-118952380D01*
X139342761Y-119095238D01*
X139247523Y-119190476D01*
X139152285Y-119238095D01*
X138961809Y-119285714D01*
X138818952Y-119285714D01*
X138628476Y-119238095D01*
X138533238Y-119190476D01*
X138438000Y-119095238D01*
X138390380Y-118952380D01*
X138390380Y-118857142D01*
X138438000Y-118714285D01*
X138485619Y-118666666D01*
X146629428Y-121261904D02*
X146629428Y-120500000D01*
X147010380Y-120880952D02*
X146248476Y-120880952D01*
X146010380Y-120119047D02*
X146010380Y-119500000D01*
X146391333Y-119833333D01*
X146391333Y-119690476D01*
X146438952Y-119595238D01*
X146486571Y-119547619D01*
X146581809Y-119500000D01*
X146819904Y-119500000D01*
X146915142Y-119547619D01*
X146962761Y-119595238D01*
X147010380Y-119690476D01*
X147010380Y-119976190D01*
X146962761Y-120071428D01*
X146915142Y-120119047D01*
X146010380Y-119214285D02*
X147010380Y-118880952D01*
X146010380Y-118547619D01*
X146010380Y-118309523D02*
X146010380Y-117690476D01*
X146391333Y-118023809D01*
X146391333Y-117880952D01*
X146438952Y-117785714D01*
X146486571Y-117738095D01*
X146581809Y-117690476D01*
X146819904Y-117690476D01*
X146915142Y-117738095D01*
X146962761Y-117785714D01*
X147010380Y-117880952D01*
X147010380Y-118166666D01*
X146962761Y-118261904D01*
X146915142Y-118309523D01*
X153678000Y-120261904D02*
X153630380Y-120357142D01*
X153630380Y-120500000D01*
X153678000Y-120642857D01*
X153773238Y-120738095D01*
X153868476Y-120785714D01*
X154058952Y-120833333D01*
X154201809Y-120833333D01*
X154392285Y-120785714D01*
X154487523Y-120738095D01*
X154582761Y-120642857D01*
X154630380Y-120500000D01*
X154630380Y-120404761D01*
X154582761Y-120261904D01*
X154535142Y-120214285D01*
X154201809Y-120214285D01*
X154201809Y-120404761D01*
X154630380Y-119785714D02*
X153630380Y-119785714D01*
X154630380Y-119214285D01*
X153630380Y-119214285D01*
X154630380Y-118738095D02*
X153630380Y-118738095D01*
X153630380Y-118500000D01*
X153678000Y-118357142D01*
X153773238Y-118261904D01*
X153868476Y-118214285D01*
X154058952Y-118166666D01*
X154201809Y-118166666D01*
X154392285Y-118214285D01*
X154487523Y-118261904D01*
X154582761Y-118357142D01*
X154630380Y-118500000D01*
X154630380Y-118738095D01*
X165171333Y-80219047D02*
X165123714Y-80266666D01*
X164980857Y-80361904D01*
X164885619Y-80409523D01*
X164742761Y-80457142D01*
X164504666Y-80504761D01*
X164314190Y-80504761D01*
X164076095Y-80457142D01*
X163933238Y-80409523D01*
X163838000Y-80361904D01*
X163695142Y-80266666D01*
X163647523Y-80219047D01*
X164123714Y-79409523D02*
X164790380Y-79409523D01*
X163742761Y-79647619D02*
X164457047Y-79885714D01*
X164457047Y-79266666D01*
X165171333Y-78980952D02*
X165123714Y-78933333D01*
X164980857Y-78838095D01*
X164885619Y-78790476D01*
X164742761Y-78742857D01*
X164504666Y-78695238D01*
X164314190Y-78695238D01*
X164076095Y-78742857D01*
X163933238Y-78790476D01*
X163838000Y-78838095D01*
X163695142Y-78933333D01*
X163647523Y-78980952D01*
X136914000Y-80361904D02*
X136866380Y-80457142D01*
X136866380Y-80600000D01*
X136914000Y-80742857D01*
X137009238Y-80838095D01*
X137104476Y-80885714D01*
X137294952Y-80933333D01*
X137437809Y-80933333D01*
X137628285Y-80885714D01*
X137723523Y-80838095D01*
X137818761Y-80742857D01*
X137866380Y-80600000D01*
X137866380Y-80504761D01*
X137818761Y-80361904D01*
X137771142Y-80314285D01*
X137437809Y-80314285D01*
X137437809Y-80504761D01*
X137866380Y-79885714D02*
X136866380Y-79885714D01*
X137866380Y-79314285D01*
X136866380Y-79314285D01*
X137866380Y-78838095D02*
X136866380Y-78838095D01*
X136866380Y-78600000D01*
X136914000Y-78457142D01*
X137009238Y-78361904D01*
X137104476Y-78314285D01*
X137294952Y-78266666D01*
X137437809Y-78266666D01*
X137628285Y-78314285D01*
X137723523Y-78361904D01*
X137818761Y-78457142D01*
X137866380Y-78600000D01*
X137866380Y-78838095D01*
X172791333Y-121047619D02*
X172743714Y-121095238D01*
X172600857Y-121190476D01*
X172505619Y-121238095D01*
X172362761Y-121285714D01*
X172124666Y-121333333D01*
X171934190Y-121333333D01*
X171696095Y-121285714D01*
X171553238Y-121238095D01*
X171458000Y-121190476D01*
X171315142Y-121095238D01*
X171267523Y-121047619D01*
X172362761Y-120714285D02*
X172410380Y-120571428D01*
X172410380Y-120333333D01*
X172362761Y-120238095D01*
X172315142Y-120190476D01*
X172219904Y-120142857D01*
X172124666Y-120142857D01*
X172029428Y-120190476D01*
X171981809Y-120238095D01*
X171934190Y-120333333D01*
X171886571Y-120523809D01*
X171838952Y-120619047D01*
X171791333Y-120666666D01*
X171696095Y-120714285D01*
X171600857Y-120714285D01*
X171505619Y-120666666D01*
X171458000Y-120619047D01*
X171410380Y-120523809D01*
X171410380Y-120285714D01*
X171458000Y-120142857D01*
X172410380Y-119714285D02*
X171410380Y-119714285D01*
X171410380Y-119476190D01*
X171458000Y-119333333D01*
X171553238Y-119238095D01*
X171648476Y-119190476D01*
X171838952Y-119142857D01*
X171981809Y-119142857D01*
X172172285Y-119190476D01*
X172267523Y-119238095D01*
X172362761Y-119333333D01*
X172410380Y-119476190D01*
X172410380Y-119714285D01*
X172124666Y-118761904D02*
X172124666Y-118285714D01*
X172410380Y-118857142D02*
X171410380Y-118523809D01*
X172410380Y-118190476D01*
X172791333Y-117952380D02*
X172743714Y-117904761D01*
X172600857Y-117809523D01*
X172505619Y-117761904D01*
X172362761Y-117714285D01*
X172124666Y-117666666D01*
X171934190Y-117666666D01*
X171696095Y-117714285D01*
X171553238Y-117761904D01*
X171458000Y-117809523D01*
X171315142Y-117904761D01*
X171267523Y-117952380D01*
X167711333Y-120547619D02*
X167663714Y-120595238D01*
X167520857Y-120690476D01*
X167425619Y-120738095D01*
X167282761Y-120785714D01*
X167044666Y-120833333D01*
X166854190Y-120833333D01*
X166616095Y-120785714D01*
X166473238Y-120738095D01*
X166378000Y-120690476D01*
X166235142Y-120595238D01*
X166187523Y-120547619D01*
X167044666Y-120214285D02*
X167044666Y-119738095D01*
X167330380Y-120309523D02*
X166330380Y-119976190D01*
X167330380Y-119642857D01*
X166425619Y-119357142D02*
X166378000Y-119309523D01*
X166330380Y-119214285D01*
X166330380Y-118976190D01*
X166378000Y-118880952D01*
X166425619Y-118833333D01*
X166520857Y-118785714D01*
X166616095Y-118785714D01*
X166758952Y-118833333D01*
X167330380Y-119404761D01*
X167330380Y-118785714D01*
X167711333Y-118452380D02*
X167663714Y-118404761D01*
X167520857Y-118309523D01*
X167425619Y-118261904D01*
X167282761Y-118214285D01*
X167044666Y-118166666D01*
X166854190Y-118166666D01*
X166616095Y-118214285D01*
X166473238Y-118261904D01*
X166378000Y-118309523D01*
X166235142Y-118404761D01*
X166187523Y-118452380D01*
X170251333Y-120547619D02*
X170203714Y-120595238D01*
X170060857Y-120690476D01*
X169965619Y-120738095D01*
X169822761Y-120785714D01*
X169584666Y-120833333D01*
X169394190Y-120833333D01*
X169156095Y-120785714D01*
X169013238Y-120738095D01*
X168918000Y-120690476D01*
X168775142Y-120595238D01*
X168727523Y-120547619D01*
X169584666Y-120214285D02*
X169584666Y-119738095D01*
X169870380Y-120309523D02*
X168870380Y-119976190D01*
X169870380Y-119642857D01*
X168870380Y-119404761D02*
X168870380Y-118785714D01*
X169251333Y-119119047D01*
X169251333Y-118976190D01*
X169298952Y-118880952D01*
X169346571Y-118833333D01*
X169441809Y-118785714D01*
X169679904Y-118785714D01*
X169775142Y-118833333D01*
X169822761Y-118880952D01*
X169870380Y-118976190D01*
X169870380Y-119261904D01*
X169822761Y-119357142D01*
X169775142Y-119404761D01*
X170251333Y-118452380D02*
X170203714Y-118404761D01*
X170060857Y-118309523D01*
X169965619Y-118261904D01*
X169822761Y-118214285D01*
X169584666Y-118166666D01*
X169394190Y-118166666D01*
X169156095Y-118214285D01*
X169013238Y-118261904D01*
X168918000Y-118309523D01*
X168775142Y-118404761D01*
X168727523Y-118452380D01*
X153487333Y-80219047D02*
X153439714Y-80266666D01*
X153296857Y-80361904D01*
X153201619Y-80409523D01*
X153058761Y-80457142D01*
X152820666Y-80504761D01*
X152630190Y-80504761D01*
X152392095Y-80457142D01*
X152249238Y-80409523D01*
X152154000Y-80361904D01*
X152011142Y-80266666D01*
X151963523Y-80219047D01*
X152534952Y-79695238D02*
X152487333Y-79790476D01*
X152439714Y-79838095D01*
X152344476Y-79885714D01*
X152296857Y-79885714D01*
X152201619Y-79838095D01*
X152154000Y-79790476D01*
X152106380Y-79695238D01*
X152106380Y-79504761D01*
X152154000Y-79409523D01*
X152201619Y-79361904D01*
X152296857Y-79314285D01*
X152344476Y-79314285D01*
X152439714Y-79361904D01*
X152487333Y-79409523D01*
X152534952Y-79504761D01*
X152534952Y-79695238D01*
X152582571Y-79790476D01*
X152630190Y-79838095D01*
X152725428Y-79885714D01*
X152915904Y-79885714D01*
X153011142Y-79838095D01*
X153058761Y-79790476D01*
X153106380Y-79695238D01*
X153106380Y-79504761D01*
X153058761Y-79409523D01*
X153011142Y-79361904D01*
X152915904Y-79314285D01*
X152725428Y-79314285D01*
X152630190Y-79361904D01*
X152582571Y-79409523D01*
X152534952Y-79504761D01*
X153487333Y-78980952D02*
X153439714Y-78933333D01*
X153296857Y-78838095D01*
X153201619Y-78790476D01*
X153058761Y-78742857D01*
X152820666Y-78695238D01*
X152630190Y-78695238D01*
X152392095Y-78742857D01*
X152249238Y-78790476D01*
X152154000Y-78838095D01*
X152011142Y-78933333D01*
X151963523Y-78980952D01*
X174931333Y-121023809D02*
X174883714Y-121071428D01*
X174740857Y-121166666D01*
X174645619Y-121214285D01*
X174502761Y-121261904D01*
X174264666Y-121309523D01*
X174074190Y-121309523D01*
X173836095Y-121261904D01*
X173693238Y-121214285D01*
X173598000Y-121166666D01*
X173455142Y-121071428D01*
X173407523Y-121023809D01*
X174502761Y-120690476D02*
X174550380Y-120547619D01*
X174550380Y-120309523D01*
X174502761Y-120214285D01*
X174455142Y-120166666D01*
X174359904Y-120119047D01*
X174264666Y-120119047D01*
X174169428Y-120166666D01*
X174121809Y-120214285D01*
X174074190Y-120309523D01*
X174026571Y-120500000D01*
X173978952Y-120595238D01*
X173931333Y-120642857D01*
X173836095Y-120690476D01*
X173740857Y-120690476D01*
X173645619Y-120642857D01*
X173598000Y-120595238D01*
X173550380Y-120500000D01*
X173550380Y-120261904D01*
X173598000Y-120119047D01*
X174455142Y-119119047D02*
X174502761Y-119166666D01*
X174550380Y-119309523D01*
X174550380Y-119404761D01*
X174502761Y-119547619D01*
X174407523Y-119642857D01*
X174312285Y-119690476D01*
X174121809Y-119738095D01*
X173978952Y-119738095D01*
X173788476Y-119690476D01*
X173693238Y-119642857D01*
X173598000Y-119547619D01*
X173550380Y-119404761D01*
X173550380Y-119309523D01*
X173598000Y-119166666D01*
X173645619Y-119119047D01*
X174550380Y-118214285D02*
X174550380Y-118690476D01*
X173550380Y-118690476D01*
X174931333Y-117976190D02*
X174883714Y-117928571D01*
X174740857Y-117833333D01*
X174645619Y-117785714D01*
X174502761Y-117738095D01*
X174264666Y-117690476D01*
X174074190Y-117690476D01*
X173836095Y-117738095D01*
X173693238Y-117785714D01*
X173598000Y-117833333D01*
X173455142Y-117928571D01*
X173407523Y-117976190D01*
X130246380Y-80385714D02*
X129246380Y-80385714D01*
X130246380Y-79814285D01*
X129246380Y-79814285D01*
X130151142Y-78766666D02*
X130198761Y-78814285D01*
X130246380Y-78957142D01*
X130246380Y-79052380D01*
X130198761Y-79195238D01*
X130103523Y-79290476D01*
X130008285Y-79338095D01*
X129817809Y-79385714D01*
X129674952Y-79385714D01*
X129484476Y-79338095D01*
X129389238Y-79290476D01*
X129294000Y-79195238D01*
X129246380Y-79052380D01*
X129246380Y-78957142D01*
X129294000Y-78814285D01*
X129341619Y-78766666D01*
X165171333Y-120547619D02*
X165123714Y-120595238D01*
X164980857Y-120690476D01*
X164885619Y-120738095D01*
X164742761Y-120785714D01*
X164504666Y-120833333D01*
X164314190Y-120833333D01*
X164076095Y-120785714D01*
X163933238Y-120738095D01*
X163838000Y-120690476D01*
X163695142Y-120595238D01*
X163647523Y-120547619D01*
X164504666Y-120214285D02*
X164504666Y-119738095D01*
X164790380Y-120309523D02*
X163790380Y-119976190D01*
X164790380Y-119642857D01*
X164790380Y-118785714D02*
X164790380Y-119357142D01*
X164790380Y-119071428D02*
X163790380Y-119071428D01*
X163933238Y-119166666D01*
X164028476Y-119261904D01*
X164076095Y-119357142D01*
X165171333Y-118452380D02*
X165123714Y-118404761D01*
X164980857Y-118309523D01*
X164885619Y-118261904D01*
X164742761Y-118214285D01*
X164504666Y-118166666D01*
X164314190Y-118166666D01*
X164076095Y-118214285D01*
X163933238Y-118261904D01*
X163838000Y-118309523D01*
X163695142Y-118404761D01*
X163647523Y-118452380D01*
X151138000Y-120261904D02*
X151090380Y-120357142D01*
X151090380Y-120500000D01*
X151138000Y-120642857D01*
X151233238Y-120738095D01*
X151328476Y-120785714D01*
X151518952Y-120833333D01*
X151661809Y-120833333D01*
X151852285Y-120785714D01*
X151947523Y-120738095D01*
X152042761Y-120642857D01*
X152090380Y-120500000D01*
X152090380Y-120404761D01*
X152042761Y-120261904D01*
X151995142Y-120214285D01*
X151661809Y-120214285D01*
X151661809Y-120404761D01*
X152090380Y-119785714D02*
X151090380Y-119785714D01*
X152090380Y-119214285D01*
X151090380Y-119214285D01*
X152090380Y-118738095D02*
X151090380Y-118738095D01*
X151090380Y-118500000D01*
X151138000Y-118357142D01*
X151233238Y-118261904D01*
X151328476Y-118214285D01*
X151518952Y-118166666D01*
X151661809Y-118166666D01*
X151852285Y-118214285D01*
X151947523Y-118261904D01*
X152042761Y-118357142D01*
X152090380Y-118500000D01*
X152090380Y-118738095D01*
X157551333Y-80219047D02*
X157503714Y-80266666D01*
X157360857Y-80361904D01*
X157265619Y-80409523D01*
X157122761Y-80457142D01*
X156884666Y-80504761D01*
X156694190Y-80504761D01*
X156456095Y-80457142D01*
X156313238Y-80409523D01*
X156218000Y-80361904D01*
X156075142Y-80266666D01*
X156027523Y-80219047D01*
X156170380Y-79933333D02*
X156170380Y-79266666D01*
X157170380Y-79695238D01*
X157551333Y-78980952D02*
X157503714Y-78933333D01*
X157360857Y-78838095D01*
X157265619Y-78790476D01*
X157122761Y-78742857D01*
X156884666Y-78695238D01*
X156694190Y-78695238D01*
X156456095Y-78742857D01*
X156313238Y-78790476D01*
X156218000Y-78838095D01*
X156075142Y-78933333D01*
X156027523Y-78980952D01*
X172791333Y-80528571D02*
X172743714Y-80576190D01*
X172600857Y-80671428D01*
X172505619Y-80719047D01*
X172362761Y-80766666D01*
X172124666Y-80814285D01*
X171934190Y-80814285D01*
X171696095Y-80766666D01*
X171553238Y-80719047D01*
X171458000Y-80671428D01*
X171315142Y-80576190D01*
X171267523Y-80528571D01*
X171410380Y-80290476D02*
X171410380Y-79719047D01*
X172410380Y-80004761D02*
X171410380Y-80004761D01*
X172410380Y-79480952D02*
X171743714Y-78957142D01*
X171743714Y-79480952D02*
X172410380Y-78957142D01*
X172791333Y-78671428D02*
X172743714Y-78623809D01*
X172600857Y-78528571D01*
X172505619Y-78480952D01*
X172362761Y-78433333D01*
X172124666Y-78385714D01*
X171934190Y-78385714D01*
X171696095Y-78433333D01*
X171553238Y-78480952D01*
X171458000Y-78528571D01*
X171315142Y-78623809D01*
X171267523Y-78671428D01*
X156170380Y-120523809D02*
X157170380Y-120190476D01*
X156170380Y-119857142D01*
X157170380Y-119523809D02*
X156503714Y-119523809D01*
X156170380Y-119523809D02*
X156218000Y-119571428D01*
X156265619Y-119523809D01*
X156218000Y-119476190D01*
X156170380Y-119523809D01*
X156265619Y-119523809D01*
X156503714Y-119047619D02*
X157170380Y-119047619D01*
X156598952Y-119047619D02*
X156551333Y-119000000D01*
X156503714Y-118904761D01*
X156503714Y-118761904D01*
X156551333Y-118666666D01*
X156646571Y-118619047D01*
X157170380Y-118619047D01*
X170251333Y-80219047D02*
X170203714Y-80266666D01*
X170060857Y-80361904D01*
X169965619Y-80409523D01*
X169822761Y-80457142D01*
X169584666Y-80504761D01*
X169394190Y-80504761D01*
X169156095Y-80457142D01*
X169013238Y-80409523D01*
X168918000Y-80361904D01*
X168775142Y-80266666D01*
X168727523Y-80219047D01*
X168965619Y-79885714D02*
X168918000Y-79838095D01*
X168870380Y-79742857D01*
X168870380Y-79504761D01*
X168918000Y-79409523D01*
X168965619Y-79361904D01*
X169060857Y-79314285D01*
X169156095Y-79314285D01*
X169298952Y-79361904D01*
X169870380Y-79933333D01*
X169870380Y-79314285D01*
X170251333Y-78980952D02*
X170203714Y-78933333D01*
X170060857Y-78838095D01*
X169965619Y-78790476D01*
X169822761Y-78742857D01*
X169584666Y-78695238D01*
X169394190Y-78695238D01*
X169156095Y-78742857D01*
X169013238Y-78790476D01*
X168918000Y-78838095D01*
X168775142Y-78933333D01*
X168727523Y-78980952D01*
D11*
%TO.C,C2*%
X140788333Y-114953571D02*
X140727857Y-115014047D01*
X140546428Y-115074523D01*
X140425476Y-115074523D01*
X140244047Y-115014047D01*
X140123095Y-114893095D01*
X140062619Y-114772142D01*
X140002142Y-114530238D01*
X140002142Y-114348809D01*
X140062619Y-114106904D01*
X140123095Y-113985952D01*
X140244047Y-113865000D01*
X140425476Y-113804523D01*
X140546428Y-113804523D01*
X140727857Y-113865000D01*
X140788333Y-113925476D01*
X141272142Y-113925476D02*
X141332619Y-113865000D01*
X141453571Y-113804523D01*
X141755952Y-113804523D01*
X141876904Y-113865000D01*
X141937380Y-113925476D01*
X141997857Y-114046428D01*
X141997857Y-114167380D01*
X141937380Y-114348809D01*
X141211666Y-115074523D01*
X141997857Y-115074523D01*
%TO.C,J1*%
X115076666Y-117304523D02*
X115076666Y-118211666D01*
X115016190Y-118393095D01*
X114895238Y-118514047D01*
X114713809Y-118574523D01*
X114592857Y-118574523D01*
X116346666Y-118574523D02*
X115620952Y-118574523D01*
X115983809Y-118574523D02*
X115983809Y-117304523D01*
X115862857Y-117485952D01*
X115741904Y-117606904D01*
X115620952Y-117667380D01*
%TO.C,IC1*%
X134760238Y-108374523D02*
X134760238Y-107104523D01*
X136090714Y-108253571D02*
X136030238Y-108314047D01*
X135848809Y-108374523D01*
X135727857Y-108374523D01*
X135546428Y-108314047D01*
X135425476Y-108193095D01*
X135365000Y-108072142D01*
X135304523Y-107830238D01*
X135304523Y-107648809D01*
X135365000Y-107406904D01*
X135425476Y-107285952D01*
X135546428Y-107165000D01*
X135727857Y-107104523D01*
X135848809Y-107104523D01*
X136030238Y-107165000D01*
X136090714Y-107225476D01*
X137300238Y-108374523D02*
X136574523Y-108374523D01*
X136937380Y-108374523D02*
X136937380Y-107104523D01*
X136816428Y-107285952D01*
X136695476Y-107406904D01*
X136574523Y-107467380D01*
%TO.C,IC2*%
X144760238Y-108374523D02*
X144760238Y-107104523D01*
X146090714Y-108253571D02*
X146030238Y-108314047D01*
X145848809Y-108374523D01*
X145727857Y-108374523D01*
X145546428Y-108314047D01*
X145425476Y-108193095D01*
X145365000Y-108072142D01*
X145304523Y-107830238D01*
X145304523Y-107648809D01*
X145365000Y-107406904D01*
X145425476Y-107285952D01*
X145546428Y-107165000D01*
X145727857Y-107104523D01*
X145848809Y-107104523D01*
X146030238Y-107165000D01*
X146090714Y-107225476D01*
X146574523Y-107225476D02*
X146635000Y-107165000D01*
X146755952Y-107104523D01*
X147058333Y-107104523D01*
X147179285Y-107165000D01*
X147239761Y-107225476D01*
X147300238Y-107346428D01*
X147300238Y-107467380D01*
X147239761Y-107648809D01*
X146514047Y-108374523D01*
X147300238Y-108374523D01*
%TO.C,C1*%
X130788333Y-114953571D02*
X130727857Y-115014047D01*
X130546428Y-115074523D01*
X130425476Y-115074523D01*
X130244047Y-115014047D01*
X130123095Y-114893095D01*
X130062619Y-114772142D01*
X130002142Y-114530238D01*
X130002142Y-114348809D01*
X130062619Y-114106904D01*
X130123095Y-113985952D01*
X130244047Y-113865000D01*
X130425476Y-113804523D01*
X130546428Y-113804523D01*
X130727857Y-113865000D01*
X130788333Y-113925476D01*
X131997857Y-115074523D02*
X131272142Y-115074523D01*
X131635000Y-115074523D02*
X131635000Y-113804523D01*
X131514047Y-113985952D01*
X131393095Y-114106904D01*
X131272142Y-114167380D01*
%TO.C,C3*%
X150788333Y-114953571D02*
X150727857Y-115014047D01*
X150546428Y-115074523D01*
X150425476Y-115074523D01*
X150244047Y-115014047D01*
X150123095Y-114893095D01*
X150062619Y-114772142D01*
X150002142Y-114530238D01*
X150002142Y-114348809D01*
X150062619Y-114106904D01*
X150123095Y-113985952D01*
X150244047Y-113865000D01*
X150425476Y-113804523D01*
X150546428Y-113804523D01*
X150727857Y-113865000D01*
X150788333Y-113925476D01*
X151211666Y-113804523D02*
X151997857Y-113804523D01*
X151574523Y-114288333D01*
X151755952Y-114288333D01*
X151876904Y-114348809D01*
X151937380Y-114409285D01*
X151997857Y-114530238D01*
X151997857Y-114832619D01*
X151937380Y-114953571D01*
X151876904Y-115014047D01*
X151755952Y-115074523D01*
X151393095Y-115074523D01*
X151272142Y-115014047D01*
X151211666Y-114953571D01*
D12*
%TO.C,IC2*%
X143600000Y-104000000D02*
X144285000Y-102650000D01*
X148977000Y-103995000D02*
X148977000Y-103995000D01*
X149079000Y-103995000D02*
X149079000Y-103995000D01*
X147715000Y-102650000D02*
X148400000Y-104000000D01*
X144285000Y-102650000D02*
X147715000Y-102650000D01*
X148977000Y-103995000D02*
G75*
G03*
X149079000Y-103995000I51000J0D01*
G01*
X149079000Y-103995000D02*
G75*
G03*
X148977000Y-103995000I-51000J0D01*
G01*
%TD*%
D13*
%TO.C,P1*%
X138938000Y-123825000D03*
X141478000Y-123825000D03*
X144018000Y-123825000D03*
X146558000Y-123825000D03*
X149098000Y-123825000D03*
X151638000Y-123825000D03*
X154178000Y-123825000D03*
X156718000Y-123825000D03*
%TD*%
%TO.C,P2*%
X161798000Y-123825000D03*
X164338000Y-123825000D03*
X166878000Y-123825000D03*
X169418000Y-123825000D03*
X171958000Y-123825000D03*
X174498000Y-123825000D03*
%TD*%
%TO.C,P3*%
X129794000Y-75565000D03*
X132334000Y-75565000D03*
X134874000Y-75565000D03*
X137414000Y-75565000D03*
X139954000Y-75565000D03*
X142494000Y-75565000D03*
X145034000Y-75565000D03*
X147574000Y-75565000D03*
X150114000Y-75565000D03*
X152654000Y-75565000D03*
%TD*%
%TO.C,P4*%
X156718000Y-75565000D03*
X159258000Y-75565000D03*
X161798000Y-75565000D03*
X164338000Y-75565000D03*
X166878000Y-75565000D03*
X169418000Y-75565000D03*
X171958000Y-75565000D03*
X174498000Y-75565000D03*
%TD*%
D14*
%TO.C,P5*%
X124968000Y-123825000D03*
%TD*%
%TO.C,P6*%
X177038000Y-118745000D03*
%TD*%
%TO.C,P7*%
X126238000Y-75565000D03*
%TD*%
%TO.C,P8*%
X177038000Y-90805000D03*
%TD*%
M02*
