%TF.GenerationSoftware,KiCad,Pcbnew,6.0.0-d3dd2cf0fa~116~ubuntu21.10.1*%
%TF.CreationDate,2022-01-02T16:32:20-05:00*%
%TF.ProjectId,ardustack-power,61726475-7374-4616-936b-2d706f776572,rev?*%
%TF.SameCoordinates,Original*%
%TF.FileFunction,Legend,Top*%
%TF.FilePolarity,Positive*%
%FSLAX46Y46*%
G04 Gerber Fmt 4.6, Leading zero omitted, Abs format (unit mm)*
G04 Created by KiCad (PCBNEW 6.0.0-d3dd2cf0fa~116~ubuntu21.10.1) date 2022-01-02 16:32:20*
%MOMM*%
%LPD*%
G01*
G04 APERTURE LIST*
%ADD10C,0.150000*%
%ADD11C,0.254000*%
%ADD12C,0.100000*%
%ADD13O,1.727200X2.032000*%
%ADD14C,4.064000*%
G04 APERTURE END LIST*
D10*
X148550380Y-120475476D02*
X148550380Y-120951666D01*
X149026571Y-120999285D01*
X148978952Y-120951666D01*
X148931333Y-120856428D01*
X148931333Y-120618333D01*
X148978952Y-120523095D01*
X149026571Y-120475476D01*
X149121809Y-120427857D01*
X149359904Y-120427857D01*
X149455142Y-120475476D01*
X149502761Y-120523095D01*
X149550380Y-120618333D01*
X149550380Y-120856428D01*
X149502761Y-120951666D01*
X149455142Y-120999285D01*
X148550380Y-120142142D02*
X149550380Y-119808809D01*
X148550380Y-119475476D01*
X146010380Y-121523095D02*
X146010380Y-120904047D01*
X146391333Y-121237380D01*
X146391333Y-121094523D01*
X146438952Y-120999285D01*
X146486571Y-120951666D01*
X146581809Y-120904047D01*
X146819904Y-120904047D01*
X146915142Y-120951666D01*
X146962761Y-120999285D01*
X147010380Y-121094523D01*
X147010380Y-121380238D01*
X146962761Y-121475476D01*
X146915142Y-121523095D01*
X146010380Y-120618333D02*
X147010380Y-120285000D01*
X146010380Y-119951666D01*
X146010380Y-119713571D02*
X146010380Y-119094523D01*
X146391333Y-119427857D01*
X146391333Y-119285000D01*
X146438952Y-119189761D01*
X146486571Y-119142142D01*
X146581809Y-119094523D01*
X146819904Y-119094523D01*
X146915142Y-119142142D01*
X146962761Y-119189761D01*
X147010380Y-119285000D01*
X147010380Y-119570714D01*
X146962761Y-119665952D01*
X146915142Y-119713571D01*
D11*
%TO.C,C2*%
X140788333Y-109953571D02*
X140727857Y-110014047D01*
X140546428Y-110074523D01*
X140425476Y-110074523D01*
X140244047Y-110014047D01*
X140123095Y-109893095D01*
X140062619Y-109772142D01*
X140002142Y-109530238D01*
X140002142Y-109348809D01*
X140062619Y-109106904D01*
X140123095Y-108985952D01*
X140244047Y-108865000D01*
X140425476Y-108804523D01*
X140546428Y-108804523D01*
X140727857Y-108865000D01*
X140788333Y-108925476D01*
X141272142Y-108925476D02*
X141332619Y-108865000D01*
X141453571Y-108804523D01*
X141755952Y-108804523D01*
X141876904Y-108865000D01*
X141937380Y-108925476D01*
X141997857Y-109046428D01*
X141997857Y-109167380D01*
X141937380Y-109348809D01*
X141211666Y-110074523D01*
X141997857Y-110074523D01*
D10*
%TO.C,J1*%
X115216666Y-116202380D02*
X115216666Y-116916666D01*
X115169047Y-117059523D01*
X115073809Y-117154761D01*
X114930952Y-117202380D01*
X114835714Y-117202380D01*
X116216666Y-117202380D02*
X115645238Y-117202380D01*
X115930952Y-117202380D02*
X115930952Y-116202380D01*
X115835714Y-116345238D01*
X115740476Y-116440476D01*
X115645238Y-116488095D01*
D11*
%TO.C,IC1*%
X134760238Y-102074523D02*
X134760238Y-100804523D01*
X136090714Y-101953571D02*
X136030238Y-102014047D01*
X135848809Y-102074523D01*
X135727857Y-102074523D01*
X135546428Y-102014047D01*
X135425476Y-101893095D01*
X135365000Y-101772142D01*
X135304523Y-101530238D01*
X135304523Y-101348809D01*
X135365000Y-101106904D01*
X135425476Y-100985952D01*
X135546428Y-100865000D01*
X135727857Y-100804523D01*
X135848809Y-100804523D01*
X136030238Y-100865000D01*
X136090714Y-100925476D01*
X137300238Y-102074523D02*
X136574523Y-102074523D01*
X136937380Y-102074523D02*
X136937380Y-100804523D01*
X136816428Y-100985952D01*
X136695476Y-101106904D01*
X136574523Y-101167380D01*
%TO.C,IC2*%
X144760238Y-102099523D02*
X144760238Y-100829523D01*
X146090714Y-101978571D02*
X146030238Y-102039047D01*
X145848809Y-102099523D01*
X145727857Y-102099523D01*
X145546428Y-102039047D01*
X145425476Y-101918095D01*
X145365000Y-101797142D01*
X145304523Y-101555238D01*
X145304523Y-101373809D01*
X145365000Y-101131904D01*
X145425476Y-101010952D01*
X145546428Y-100890000D01*
X145727857Y-100829523D01*
X145848809Y-100829523D01*
X146030238Y-100890000D01*
X146090714Y-100950476D01*
X146574523Y-100950476D02*
X146635000Y-100890000D01*
X146755952Y-100829523D01*
X147058333Y-100829523D01*
X147179285Y-100890000D01*
X147239761Y-100950476D01*
X147300238Y-101071428D01*
X147300238Y-101192380D01*
X147239761Y-101373809D01*
X146514047Y-102099523D01*
X147300238Y-102099523D01*
%TO.C,C1*%
X130788333Y-109953571D02*
X130727857Y-110014047D01*
X130546428Y-110074523D01*
X130425476Y-110074523D01*
X130244047Y-110014047D01*
X130123095Y-109893095D01*
X130062619Y-109772142D01*
X130002142Y-109530238D01*
X130002142Y-109348809D01*
X130062619Y-109106904D01*
X130123095Y-108985952D01*
X130244047Y-108865000D01*
X130425476Y-108804523D01*
X130546428Y-108804523D01*
X130727857Y-108865000D01*
X130788333Y-108925476D01*
X131997857Y-110074523D02*
X131272142Y-110074523D01*
X131635000Y-110074523D02*
X131635000Y-108804523D01*
X131514047Y-108985952D01*
X131393095Y-109106904D01*
X131272142Y-109167380D01*
%TO.C,C3*%
X150788333Y-109953571D02*
X150727857Y-110014047D01*
X150546428Y-110074523D01*
X150425476Y-110074523D01*
X150244047Y-110014047D01*
X150123095Y-109893095D01*
X150062619Y-109772142D01*
X150002142Y-109530238D01*
X150002142Y-109348809D01*
X150062619Y-109106904D01*
X150123095Y-108985952D01*
X150244047Y-108865000D01*
X150425476Y-108804523D01*
X150546428Y-108804523D01*
X150727857Y-108865000D01*
X150788333Y-108925476D01*
X151211666Y-108804523D02*
X151997857Y-108804523D01*
X151574523Y-109288333D01*
X151755952Y-109288333D01*
X151876904Y-109348809D01*
X151937380Y-109409285D01*
X151997857Y-109530238D01*
X151997857Y-109832619D01*
X151937380Y-109953571D01*
X151876904Y-110014047D01*
X151755952Y-110074523D01*
X151393095Y-110074523D01*
X151272142Y-110014047D01*
X151211666Y-109953571D01*
D12*
%TO.C,IC2*%
X147715000Y-103650000D02*
X148400000Y-105000000D01*
X143600000Y-105000000D02*
X144285000Y-103650000D01*
X149079000Y-104995000D02*
X149079000Y-104995000D01*
X144285000Y-103650000D02*
X147715000Y-103650000D01*
X148977000Y-104995000D02*
X148977000Y-104995000D01*
X148977000Y-104995000D02*
G75*
G03*
X149079000Y-104995000I51000J0D01*
G01*
X149079000Y-104995000D02*
G75*
G03*
X148977000Y-104995000I-51000J0D01*
G01*
%TD*%
D13*
%TO.C,P1*%
X138938000Y-123825000D03*
X141478000Y-123825000D03*
X144018000Y-123825000D03*
X146558000Y-123825000D03*
X149098000Y-123825000D03*
X151638000Y-123825000D03*
X154178000Y-123825000D03*
X156718000Y-123825000D03*
%TD*%
%TO.C,P2*%
X161798000Y-123825000D03*
X164338000Y-123825000D03*
X166878000Y-123825000D03*
X169418000Y-123825000D03*
X171958000Y-123825000D03*
X174498000Y-123825000D03*
%TD*%
%TO.C,P3*%
X129794000Y-75565000D03*
X132334000Y-75565000D03*
X134874000Y-75565000D03*
X137414000Y-75565000D03*
X139954000Y-75565000D03*
X142494000Y-75565000D03*
X145034000Y-75565000D03*
X147574000Y-75565000D03*
X150114000Y-75565000D03*
X152654000Y-75565000D03*
%TD*%
%TO.C,P4*%
X156718000Y-75565000D03*
X159258000Y-75565000D03*
X161798000Y-75565000D03*
X164338000Y-75565000D03*
X166878000Y-75565000D03*
X169418000Y-75565000D03*
X171958000Y-75565000D03*
X174498000Y-75565000D03*
%TD*%
D14*
%TO.C,P5*%
X124968000Y-123825000D03*
%TD*%
%TO.C,P6*%
X177038000Y-118745000D03*
%TD*%
%TO.C,P7*%
X126238000Y-75565000D03*
%TD*%
%TO.C,P8*%
X177038000Y-90805000D03*
%TD*%
M02*
