M48
; DRILL file {KiCad 6.0.0-d3dd2cf0fa~116~ubuntu21.10.1} date Wed 12 Jan 2022 08:55:02 PM EST
; FORMAT={-:-/ absolute / inch / decimal}
; #@! TF.CreationDate,2022-01-12T20:55:02-05:00
; #@! TF.GenerationSoftware,Kicad,Pcbnew,6.0.0-d3dd2cf0fa~116~ubuntu21.10.1
; #@! TF.FileFunction,MixedPlating,1,2
FMAT,2
INCH
; #@! TA.AperFunction,Plated,PTH,ComponentDrill
T1C0.0276
; #@! TA.AperFunction,Plated,PTH,ComponentDrill
T2C0.0354
; #@! TA.AperFunction,Plated,PTH,ComponentDrill
T3C0.0394
; #@! TA.AperFunction,Plated,PTH,ComponentDrill
T4C0.0400
; #@! TA.AperFunction,Plated,PTH,ComponentDrill
T5C0.0508
; #@! TA.AperFunction,Plated,PTH,ComponentDrill
T6C0.1200
%
G90
G05
T1
X5.1083Y-4.4094
X5.2067Y-4.4094
X5.502Y-4.4094
X5.6004Y-4.4094
X5.8957Y-4.4094
X5.9941Y-4.4094
T2
X5.698Y-4.0945
X5.748Y-4.1339
X5.798Y-4.0945
T4
X5.11Y-2.975
X5.21Y-2.975
X5.31Y-2.975
X5.41Y-2.975
X5.47Y-4.875
X5.51Y-2.975
X5.57Y-4.875
X5.61Y-2.975
X5.67Y-4.875
X5.71Y-2.975
X5.77Y-4.875
X5.81Y-2.975
X5.87Y-4.875
X5.91Y-2.975
X5.97Y-4.875
X6.01Y-2.975
X6.07Y-4.875
X6.17Y-2.975
X6.17Y-4.875
X6.27Y-2.975
X6.37Y-2.975
X6.37Y-4.875
X6.47Y-2.975
X6.47Y-4.875
X6.57Y-2.975
X6.57Y-4.875
X6.67Y-2.975
X6.67Y-4.875
X6.77Y-2.975
X6.77Y-4.875
X6.87Y-2.975
X6.87Y-4.875
T5
X5.2543Y-4.1339
X5.3543Y-4.1339
X5.4543Y-4.1339
T6
X4.92Y-4.875
X4.97Y-2.975
X6.97Y-3.575
X6.97Y-4.675
T3
G00X4.6457Y-4.3701
M15
G01X4.6457Y-4.4488
M16
G05
G00X4.7244Y-4.5945
M15
G01X4.8031Y-4.5945
M16
G05
G00X4.8819Y-4.3701
M15
G01X4.8819Y-4.4488
M16
G05
T0
M30
