M48
; DRILL file {KiCad 6.0.0-d3dd2cf0fa~116~ubuntu21.10.1} date Wed 12 Jan 2022 08:56:36 PM EST
; FORMAT={-:-/ absolute / inch / decimal}
; #@! TF.CreationDate,2022-01-12T20:56:36-05:00
; #@! TF.GenerationSoftware,Kicad,Pcbnew,6.0.0-d3dd2cf0fa~116~ubuntu21.10.1
; #@! TF.FileFunction,MixedPlating,1,2
FMAT,2
INCH
; #@! TA.AperFunction,Plated,PTH,ComponentDrill
T1C0.0259
; #@! TA.AperFunction,Plated,PTH,ComponentDrill
T2C0.0276
; #@! TA.AperFunction,Plated,PTH,ComponentDrill
T3C0.0295
; #@! TA.AperFunction,Plated,PTH,ComponentDrill
T4C0.0315
; #@! TA.AperFunction,Plated,PTH,ComponentDrill
T5C0.0400
; #@! TA.AperFunction,Plated,PTH,ComponentDrill
T6C0.1200
%
G90
G05
T1
X5.8232Y-3.5315
X6.0154Y-3.5315
T2
X5.472Y-4.0626
X5.472Y-4.3626
X5.572Y-4.0626
X5.572Y-4.3626
X5.672Y-4.0626
X5.672Y-4.3626
X5.772Y-4.0626
X5.772Y-4.3626
X5.872Y-4.0626
X5.872Y-4.3626
X5.972Y-4.0626
X5.972Y-4.3626
X5.972Y-4.5953
X6.0705Y-4.5953
X6.072Y-4.0626
X6.072Y-4.3626
X6.172Y-4.0626
X6.172Y-4.3626
X6.272Y-4.0626
X6.272Y-4.3626
X6.372Y-4.0626
X6.372Y-4.3626
X6.472Y-4.0626
X6.472Y-4.3626
X6.572Y-4.0626
X6.572Y-4.3626
X6.672Y-4.0626
X6.672Y-4.3626
X6.772Y-4.0626
X6.772Y-4.3626
T3
X5.7382Y-3.8346
X5.8366Y-3.8346
X6.002Y-3.8346
X6.1004Y-3.8346
T4
X6.472Y-3.2087
X6.472Y-3.8346
X6.772Y-3.2087
X6.772Y-3.8346
T5
X5.11Y-2.975
X5.21Y-2.975
X5.31Y-2.975
X5.41Y-2.975
X5.47Y-4.875
X5.51Y-2.975
X5.57Y-4.875
X5.61Y-2.975
X5.67Y-4.875
X5.71Y-2.975
X5.77Y-4.875
X5.81Y-2.975
X5.87Y-4.875
X5.91Y-2.975
X5.97Y-4.875
X6.01Y-2.975
X6.07Y-4.875
X6.17Y-2.975
X6.17Y-4.875
X6.27Y-2.975
X6.37Y-2.975
X6.37Y-4.875
X6.47Y-2.975
X6.47Y-4.875
X6.57Y-2.975
X6.57Y-4.875
X6.67Y-2.975
X6.67Y-4.875
X6.77Y-2.975
X6.77Y-4.875
X6.87Y-2.975
X6.87Y-4.875
T6
X4.92Y-4.875
X4.97Y-2.975
X6.97Y-3.575
X6.97Y-4.675
T0
M30
