%TF.GenerationSoftware,KiCad,Pcbnew,6.0.0-d3dd2cf0fa~116~ubuntu21.10.1*%
%TF.CreationDate,2022-01-12T20:56:25-05:00*%
%TF.ProjectId,ardustack-mcu,61726475-7374-4616-936b-2d6d63752e6b,rev?*%
%TF.SameCoordinates,Original*%
%TF.FileFunction,Copper,L2,Bot*%
%TF.FilePolarity,Positive*%
%FSLAX46Y46*%
G04 Gerber Fmt 4.6, Leading zero omitted, Abs format (unit mm)*
G04 Created by KiCad (PCBNEW 6.0.0-d3dd2cf0fa~116~ubuntu21.10.1) date 2022-01-12 20:56:25*
%MOMM*%
%LPD*%
G01*
G04 APERTURE LIST*
%TA.AperFunction,ComponentPad*%
%ADD10O,1.727200X2.032000*%
%TD*%
%TA.AperFunction,ComponentPad*%
%ADD11C,4.064000*%
%TD*%
%TA.AperFunction,ComponentPad*%
%ADD12C,1.200000*%
%TD*%
%TA.AperFunction,ComponentPad*%
%ADD13R,1.100000X1.100000*%
%TD*%
%TA.AperFunction,ComponentPad*%
%ADD14C,1.100000*%
%TD*%
%TA.AperFunction,ComponentPad*%
%ADD15C,1.205000*%
%TD*%
G04 APERTURE END LIST*
D10*
%TO.P,P1,1,Pin_1*%
%TO.N,unconnected-(P1-Pad1)*%
X138938000Y-123825000D03*
%TO.P,P1,2,Pin_2*%
%TO.N,+5V*%
X141478000Y-123825000D03*
%TO.P,P1,3,Pin_3*%
%TO.N,/Reset*%
X144018000Y-123825000D03*
%TO.P,P1,4,Pin_4*%
%TO.N,+3V3*%
X146558000Y-123825000D03*
%TO.P,P1,5,Pin_5*%
%TO.N,+5V*%
X149098000Y-123825000D03*
%TO.P,P1,6,Pin_6*%
%TO.N,GND*%
X151638000Y-123825000D03*
%TO.P,P1,7,Pin_7*%
X154178000Y-123825000D03*
%TO.P,P1,8,Pin_8*%
%TO.N,/Vin*%
X156718000Y-123825000D03*
%TD*%
%TO.P,P2,1,Pin_1*%
%TO.N,/A0*%
X161798000Y-123825000D03*
%TO.P,P2,2,Pin_2*%
%TO.N,/A1*%
X164338000Y-123825000D03*
%TO.P,P2,3,Pin_3*%
%TO.N,/A2*%
X166878000Y-123825000D03*
%TO.P,P2,4,Pin_4*%
%TO.N,/A3*%
X169418000Y-123825000D03*
%TO.P,P2,5,Pin_5*%
%TO.N,/A4(SDA)*%
X171958000Y-123825000D03*
%TO.P,P2,6,Pin_6*%
%TO.N,/A5(SCL)*%
X174498000Y-123825000D03*
%TD*%
%TO.P,P3,1,Pin_1*%
%TO.N,unconnected-(P3-Pad1)*%
X129794000Y-75565000D03*
%TO.P,P3,2,Pin_2*%
%TO.N,unconnected-(P3-Pad2)*%
X132334000Y-75565000D03*
%TO.P,P3,3,Pin_3*%
%TO.N,/AREF*%
X134874000Y-75565000D03*
%TO.P,P3,4,Pin_4*%
%TO.N,GND*%
X137414000Y-75565000D03*
%TO.P,P3,5,Pin_5*%
%TO.N,/13(SCK)*%
X139954000Y-75565000D03*
%TO.P,P3,6,Pin_6*%
%TO.N,/12(MISO)*%
X142494000Y-75565000D03*
%TO.P,P3,7,Pin_7*%
%TO.N,/11(\u002A\u002A{slash}MOSI)*%
X145034000Y-75565000D03*
%TO.P,P3,8,Pin_8*%
%TO.N,/10(\u002A\u002A{slash}SS)*%
X147574000Y-75565000D03*
%TO.P,P3,9,Pin_9*%
%TO.N,/9(\u002A\u002A)*%
X150114000Y-75565000D03*
%TO.P,P3,10,Pin_10*%
%TO.N,/8*%
X152654000Y-75565000D03*
%TD*%
%TO.P,P4,1,Pin_1*%
%TO.N,/7*%
X156718000Y-75565000D03*
%TO.P,P4,2,Pin_2*%
%TO.N,/6(\u002A\u002A)*%
X159258000Y-75565000D03*
%TO.P,P4,3,Pin_3*%
%TO.N,/5(\u002A\u002A)*%
X161798000Y-75565000D03*
%TO.P,P4,4,Pin_4*%
%TO.N,/4*%
X164338000Y-75565000D03*
%TO.P,P4,5,Pin_5*%
%TO.N,/3(\u002A\u002A)*%
X166878000Y-75565000D03*
%TO.P,P4,6,Pin_6*%
%TO.N,/2*%
X169418000Y-75565000D03*
%TO.P,P4,7,Pin_7*%
%TO.N,/1(Tx)*%
X171958000Y-75565000D03*
%TO.P,P4,8,Pin_8*%
%TO.N,/0(Rx)*%
X174498000Y-75565000D03*
%TD*%
D11*
%TO.P,P5,1,Pin_1*%
%TO.N,unconnected-(P5-Pad1)*%
X124968000Y-123825000D03*
%TD*%
%TO.P,P6,1,Pin_1*%
%TO.N,unconnected-(P6-Pad1)*%
X177038000Y-118745000D03*
%TD*%
%TO.P,P7,1,Pin_1*%
%TO.N,unconnected-(P7-Pad1)*%
X126238000Y-75565000D03*
%TD*%
%TO.P,P8,1,Pin_1*%
%TO.N,unconnected-(P8-Pad1)*%
X177038000Y-90805000D03*
%TD*%
D12*
%TO.P,R1,1*%
%TO.N,Net-(J1-Pad2)*%
X172010000Y-97400000D03*
%TO.P,R1,2*%
%TO.N,/0(Rx)*%
X172010000Y-81500000D03*
%TD*%
%TO.P,R2,1*%
%TO.N,Net-(J1-Pad3)*%
X164390000Y-97400000D03*
%TO.P,R2,2*%
%TO.N,/1(Tx)*%
X164390000Y-81500000D03*
%TD*%
D13*
%TO.P,J1,1,1*%
%TO.N,/Reset*%
X172010000Y-103190000D03*
D14*
%TO.P,J1,2,2*%
%TO.N,Net-(J1-Pad2)*%
X169470000Y-103190000D03*
%TO.P,J1,3,3*%
%TO.N,Net-(J1-Pad3)*%
X166930000Y-103190000D03*
%TO.P,J1,4,4*%
%TO.N,/2*%
X164390000Y-103190000D03*
%TO.P,J1,5,5*%
%TO.N,/3(\u002A\u002A)*%
X161850000Y-103190000D03*
%TO.P,J1,6,6*%
%TO.N,/4*%
X159310000Y-103190000D03*
%TO.P,J1,7,7*%
%TO.N,+5V*%
X156770000Y-103190000D03*
%TO.P,J1,8,8*%
%TO.N,GND*%
X154230000Y-103190000D03*
%TO.P,J1,9,9*%
%TO.N,/CLK1*%
X151690000Y-103190000D03*
%TO.P,J1,10,10*%
%TO.N,/CLK2*%
X149150000Y-103190000D03*
%TO.P,J1,11,11*%
%TO.N,/5(\u002A\u002A)*%
X146610000Y-103190000D03*
%TO.P,J1,12,12*%
%TO.N,/6(\u002A\u002A)*%
X144070000Y-103190000D03*
%TO.P,J1,13,13*%
%TO.N,/7*%
X141530000Y-103190000D03*
%TO.P,J1,14,14*%
%TO.N,/8*%
X138990000Y-103190000D03*
%TO.P,J1,15,15*%
%TO.N,/9(\u002A\u002A)*%
X138990000Y-110810000D03*
%TO.P,J1,16,16*%
%TO.N,/10(\u002A\u002A{slash}SS)*%
X141530000Y-110810000D03*
%TO.P,J1,17,17*%
%TO.N,/11(\u002A\u002A{slash}MOSI)*%
X144070000Y-110810000D03*
%TO.P,J1,18,18*%
%TO.N,/12(MISO)*%
X146610000Y-110810000D03*
%TO.P,J1,19,19*%
%TO.N,/13(SCK)*%
X149150000Y-110810000D03*
%TO.P,J1,20,20*%
%TO.N,+5V*%
X151690000Y-110810000D03*
%TO.P,J1,21,21*%
%TO.N,/AREF*%
X154230000Y-110810000D03*
%TO.P,J1,22,22*%
%TO.N,GND*%
X156770000Y-110810000D03*
%TO.P,J1,23,23*%
%TO.N,/A0*%
X159310000Y-110810000D03*
%TO.P,J1,24,24*%
%TO.N,/A1*%
X161850000Y-110810000D03*
%TO.P,J1,25,25*%
%TO.N,/A2*%
X164390000Y-110810000D03*
%TO.P,J1,26,26*%
%TO.N,/A3*%
X166930000Y-110810000D03*
%TO.P,J1,27,27*%
%TO.N,/A4(SDA)*%
X169470000Y-110810000D03*
%TO.P,J1,28,28*%
%TO.N,/A5(SCL)*%
X172010000Y-110810000D03*
%TD*%
D12*
%TO.P,C3,1*%
%TO.N,/CLK2*%
X148250000Y-97400000D03*
%TO.P,C3,2*%
%TO.N,GND*%
X145750000Y-97400000D03*
%TD*%
%TO.P,C2,1*%
%TO.N,/CLK1*%
X152450000Y-97400000D03*
%TO.P,C2,2*%
%TO.N,GND*%
X154950000Y-97400000D03*
%TD*%
D15*
%TO.P,Y1,1,X1*%
%TO.N,/CLK1*%
X152790000Y-89700000D03*
%TO.P,Y1,2,X2*%
%TO.N,/CLK2*%
X147910000Y-89700000D03*
%TD*%
D12*
%TO.P,C1,1*%
%TO.N,+5V*%
X151690000Y-116720000D03*
%TO.P,C1,2*%
%TO.N,GND*%
X154190000Y-116720000D03*
%TD*%
%TA.AperFunction,Conductor*%
%TO.N,GND*%
G36*
X124440529Y-73553002D02*
G01*
X124487022Y-73606658D01*
X124497126Y-73676932D01*
X124467632Y-73741512D01*
X124458661Y-73750850D01*
X124382394Y-73822470D01*
X124178629Y-74068779D01*
X124176505Y-74072126D01*
X124176502Y-74072130D01*
X124125981Y-74151738D01*
X124007341Y-74338685D01*
X124005657Y-74342264D01*
X124005653Y-74342271D01*
X123902875Y-74560687D01*
X123871233Y-74627930D01*
X123870007Y-74631702D01*
X123870007Y-74631703D01*
X123868107Y-74637551D01*
X123772449Y-74931954D01*
X123712549Y-75245961D01*
X123692477Y-75565000D01*
X123712549Y-75884039D01*
X123772449Y-76198046D01*
X123773676Y-76201822D01*
X123868201Y-76492737D01*
X123871233Y-76502070D01*
X123872920Y-76505656D01*
X123872922Y-76505660D01*
X124005653Y-76787729D01*
X124005657Y-76787736D01*
X124007341Y-76791315D01*
X124009465Y-76794661D01*
X124009465Y-76794662D01*
X124169914Y-77047488D01*
X124178629Y-77061221D01*
X124382394Y-77307530D01*
X124615423Y-77526359D01*
X124874041Y-77714256D01*
X125154169Y-77868258D01*
X125316083Y-77932364D01*
X125447707Y-77984478D01*
X125447710Y-77984479D01*
X125451390Y-77985936D01*
X125455224Y-77986920D01*
X125455232Y-77986923D01*
X125647153Y-78036200D01*
X125761017Y-78065435D01*
X125764945Y-78065931D01*
X125764949Y-78065932D01*
X125890642Y-78081810D01*
X126078165Y-78105500D01*
X126397835Y-78105500D01*
X126585358Y-78081810D01*
X126711051Y-78065932D01*
X126711055Y-78065931D01*
X126714983Y-78065435D01*
X126828847Y-78036200D01*
X127020768Y-77986923D01*
X127020776Y-77986920D01*
X127024610Y-77985936D01*
X127028290Y-77984479D01*
X127028293Y-77984478D01*
X127159917Y-77932364D01*
X127321831Y-77868258D01*
X127601959Y-77714256D01*
X127860577Y-77526359D01*
X128093606Y-77307530D01*
X128297371Y-77061221D01*
X128306087Y-77047488D01*
X128466535Y-76794662D01*
X128466535Y-76794661D01*
X128468659Y-76791315D01*
X128470343Y-76787736D01*
X128470347Y-76787729D01*
X128540177Y-76639332D01*
X128587280Y-76586211D01*
X128655625Y-76566988D01*
X128723512Y-76587767D01*
X128745355Y-76606008D01*
X128881532Y-76748758D01*
X129068350Y-76887754D01*
X129073102Y-76890170D01*
X129270244Y-76990402D01*
X129275916Y-76993286D01*
X129387106Y-77027811D01*
X129493193Y-77060753D01*
X129493199Y-77060754D01*
X129498296Y-77062337D01*
X129622660Y-77078820D01*
X129723848Y-77092232D01*
X129723852Y-77092232D01*
X129729132Y-77092932D01*
X129734462Y-77092732D01*
X129734463Y-77092732D01*
X129845477Y-77088564D01*
X129961822Y-77084197D01*
X130066005Y-77062337D01*
X130184486Y-77037477D01*
X130184489Y-77037476D01*
X130189713Y-77036380D01*
X130406290Y-76950850D01*
X130605359Y-76830051D01*
X130609855Y-76826150D01*
X130777197Y-76680939D01*
X130777199Y-76680937D01*
X130781230Y-76677439D01*
X130784613Y-76673313D01*
X130784617Y-76673309D01*
X130883776Y-76552374D01*
X130928872Y-76497376D01*
X130954845Y-76451748D01*
X131005927Y-76402442D01*
X131075558Y-76388580D01*
X131141629Y-76414563D01*
X131168867Y-76443713D01*
X131260804Y-76580272D01*
X131264483Y-76584129D01*
X131264485Y-76584131D01*
X131349223Y-76672959D01*
X131421532Y-76748758D01*
X131608350Y-76887754D01*
X131613102Y-76890170D01*
X131810244Y-76990402D01*
X131815916Y-76993286D01*
X131927106Y-77027811D01*
X132033193Y-77060753D01*
X132033199Y-77060754D01*
X132038296Y-77062337D01*
X132162660Y-77078820D01*
X132263848Y-77092232D01*
X132263852Y-77092232D01*
X132269132Y-77092932D01*
X132274462Y-77092732D01*
X132274463Y-77092732D01*
X132385477Y-77088564D01*
X132501822Y-77084197D01*
X132606005Y-77062337D01*
X132724486Y-77037477D01*
X132724489Y-77037476D01*
X132729713Y-77036380D01*
X132946290Y-76950850D01*
X133145359Y-76830051D01*
X133149855Y-76826150D01*
X133317197Y-76680939D01*
X133317199Y-76680937D01*
X133321230Y-76677439D01*
X133324613Y-76673313D01*
X133324617Y-76673309D01*
X133423776Y-76552374D01*
X133468872Y-76497376D01*
X133494845Y-76451748D01*
X133545927Y-76402442D01*
X133615558Y-76388580D01*
X133681629Y-76414563D01*
X133708867Y-76443713D01*
X133800804Y-76580272D01*
X133804483Y-76584129D01*
X133804485Y-76584131D01*
X133889223Y-76672959D01*
X133961532Y-76748758D01*
X134148350Y-76887754D01*
X134153102Y-76890170D01*
X134350244Y-76990402D01*
X134355916Y-76993286D01*
X134467106Y-77027811D01*
X134573193Y-77060753D01*
X134573199Y-77060754D01*
X134578296Y-77062337D01*
X134702660Y-77078820D01*
X134803848Y-77092232D01*
X134803852Y-77092232D01*
X134809132Y-77092932D01*
X134814462Y-77092732D01*
X134814463Y-77092732D01*
X134925477Y-77088564D01*
X135041822Y-77084197D01*
X135146005Y-77062337D01*
X135264486Y-77037477D01*
X135264489Y-77037476D01*
X135269713Y-77036380D01*
X135486290Y-76950850D01*
X135685359Y-76830051D01*
X135689855Y-76826150D01*
X135857197Y-76680939D01*
X135857199Y-76680937D01*
X135861230Y-76677439D01*
X135864613Y-76673313D01*
X135864617Y-76673309D01*
X135963776Y-76552374D01*
X136008872Y-76497376D01*
X136035122Y-76451261D01*
X136086202Y-76401956D01*
X136155832Y-76388094D01*
X136221904Y-76414077D01*
X136249143Y-76443227D01*
X136338215Y-76575530D01*
X136344876Y-76583816D01*
X136498180Y-76744520D01*
X136506148Y-76751569D01*
X136684336Y-76884144D01*
X136693366Y-76889743D01*
X136891347Y-76990402D01*
X136901208Y-76994405D01*
X137113301Y-77060263D01*
X137123696Y-77062548D01*
X137142041Y-77064980D01*
X137156208Y-77062783D01*
X137160000Y-77049599D01*
X137160000Y-77047488D01*
X137668000Y-77047488D01*
X137671973Y-77061019D01*
X137682580Y-77062544D01*
X137804343Y-77036996D01*
X137814539Y-77033936D01*
X138021097Y-76952363D01*
X138030634Y-76947629D01*
X138220503Y-76832414D01*
X138229093Y-76826150D01*
X138396837Y-76680589D01*
X138404257Y-76672959D01*
X138545073Y-76501220D01*
X138551102Y-76492449D01*
X138574533Y-76451285D01*
X138625615Y-76401978D01*
X138695245Y-76388116D01*
X138761316Y-76414099D01*
X138788555Y-76443249D01*
X138880804Y-76580272D01*
X138884483Y-76584129D01*
X138884485Y-76584131D01*
X138969223Y-76672959D01*
X139041532Y-76748758D01*
X139228350Y-76887754D01*
X139233102Y-76890170D01*
X139430244Y-76990402D01*
X139435916Y-76993286D01*
X139547106Y-77027811D01*
X139653193Y-77060753D01*
X139653199Y-77060754D01*
X139658296Y-77062337D01*
X139782660Y-77078820D01*
X139883848Y-77092232D01*
X139883852Y-77092232D01*
X139889132Y-77092932D01*
X139894462Y-77092732D01*
X139894463Y-77092732D01*
X140005477Y-77088564D01*
X140121822Y-77084197D01*
X140226005Y-77062337D01*
X140344486Y-77037477D01*
X140344489Y-77037476D01*
X140349713Y-77036380D01*
X140566290Y-76950850D01*
X140765359Y-76830051D01*
X140769855Y-76826150D01*
X140937197Y-76680939D01*
X140937199Y-76680937D01*
X140941230Y-76677439D01*
X140944613Y-76673313D01*
X140944617Y-76673309D01*
X141043776Y-76552374D01*
X141088872Y-76497376D01*
X141114845Y-76451748D01*
X141165927Y-76402442D01*
X141235558Y-76388580D01*
X141301629Y-76414563D01*
X141328867Y-76443713D01*
X141420804Y-76580272D01*
X141424483Y-76584129D01*
X141424485Y-76584131D01*
X141509223Y-76672959D01*
X141581532Y-76748758D01*
X141768350Y-76887754D01*
X141773102Y-76890170D01*
X141970244Y-76990402D01*
X141975916Y-76993286D01*
X142087106Y-77027811D01*
X142193193Y-77060753D01*
X142193199Y-77060754D01*
X142198296Y-77062337D01*
X142322660Y-77078820D01*
X142423848Y-77092232D01*
X142423852Y-77092232D01*
X142429132Y-77092932D01*
X142434462Y-77092732D01*
X142434463Y-77092732D01*
X142545477Y-77088564D01*
X142661822Y-77084197D01*
X142766005Y-77062337D01*
X142884486Y-77037477D01*
X142884489Y-77037476D01*
X142889713Y-77036380D01*
X143106290Y-76950850D01*
X143305359Y-76830051D01*
X143309855Y-76826150D01*
X143477197Y-76680939D01*
X143477199Y-76680937D01*
X143481230Y-76677439D01*
X143484613Y-76673313D01*
X143484617Y-76673309D01*
X143583776Y-76552374D01*
X143628872Y-76497376D01*
X143654845Y-76451748D01*
X143705927Y-76402442D01*
X143775558Y-76388580D01*
X143841629Y-76414563D01*
X143868867Y-76443713D01*
X143960804Y-76580272D01*
X143964483Y-76584129D01*
X143964485Y-76584131D01*
X144049223Y-76672959D01*
X144121532Y-76748758D01*
X144308350Y-76887754D01*
X144313102Y-76890170D01*
X144510244Y-76990402D01*
X144515916Y-76993286D01*
X144627106Y-77027811D01*
X144733193Y-77060753D01*
X144733199Y-77060754D01*
X144738296Y-77062337D01*
X144862660Y-77078820D01*
X144963848Y-77092232D01*
X144963852Y-77092232D01*
X144969132Y-77092932D01*
X144974462Y-77092732D01*
X144974463Y-77092732D01*
X145085477Y-77088564D01*
X145201822Y-77084197D01*
X145306005Y-77062337D01*
X145424486Y-77037477D01*
X145424489Y-77037476D01*
X145429713Y-77036380D01*
X145646290Y-76950850D01*
X145845359Y-76830051D01*
X145849855Y-76826150D01*
X146017197Y-76680939D01*
X146017199Y-76680937D01*
X146021230Y-76677439D01*
X146024613Y-76673313D01*
X146024617Y-76673309D01*
X146123776Y-76552374D01*
X146168872Y-76497376D01*
X146194845Y-76451748D01*
X146245927Y-76402442D01*
X146315558Y-76388580D01*
X146381629Y-76414563D01*
X146408867Y-76443713D01*
X146500804Y-76580272D01*
X146504483Y-76584129D01*
X146504485Y-76584131D01*
X146589223Y-76672959D01*
X146661532Y-76748758D01*
X146848350Y-76887754D01*
X146853102Y-76890170D01*
X147050244Y-76990402D01*
X147055916Y-76993286D01*
X147167106Y-77027811D01*
X147273193Y-77060753D01*
X147273199Y-77060754D01*
X147278296Y-77062337D01*
X147402660Y-77078820D01*
X147503848Y-77092232D01*
X147503852Y-77092232D01*
X147509132Y-77092932D01*
X147514462Y-77092732D01*
X147514463Y-77092732D01*
X147625477Y-77088564D01*
X147741822Y-77084197D01*
X147846005Y-77062337D01*
X147964486Y-77037477D01*
X147964489Y-77037476D01*
X147969713Y-77036380D01*
X148186290Y-76950850D01*
X148385359Y-76830051D01*
X148389855Y-76826150D01*
X148557197Y-76680939D01*
X148557199Y-76680937D01*
X148561230Y-76677439D01*
X148564613Y-76673313D01*
X148564617Y-76673309D01*
X148663776Y-76552374D01*
X148708872Y-76497376D01*
X148734845Y-76451748D01*
X148785927Y-76402442D01*
X148855558Y-76388580D01*
X148921629Y-76414563D01*
X148948867Y-76443713D01*
X149040804Y-76580272D01*
X149044483Y-76584129D01*
X149044485Y-76584131D01*
X149129223Y-76672959D01*
X149201532Y-76748758D01*
X149388350Y-76887754D01*
X149393102Y-76890170D01*
X149590244Y-76990402D01*
X149595916Y-76993286D01*
X149707106Y-77027811D01*
X149813193Y-77060753D01*
X149813199Y-77060754D01*
X149818296Y-77062337D01*
X149942660Y-77078820D01*
X150043848Y-77092232D01*
X150043852Y-77092232D01*
X150049132Y-77092932D01*
X150054462Y-77092732D01*
X150054463Y-77092732D01*
X150165477Y-77088564D01*
X150281822Y-77084197D01*
X150386005Y-77062337D01*
X150504486Y-77037477D01*
X150504489Y-77037476D01*
X150509713Y-77036380D01*
X150726290Y-76950850D01*
X150925359Y-76830051D01*
X150929855Y-76826150D01*
X151097197Y-76680939D01*
X151097199Y-76680937D01*
X151101230Y-76677439D01*
X151104613Y-76673313D01*
X151104617Y-76673309D01*
X151203776Y-76552374D01*
X151248872Y-76497376D01*
X151274845Y-76451748D01*
X151325927Y-76402442D01*
X151395558Y-76388580D01*
X151461629Y-76414563D01*
X151488867Y-76443713D01*
X151580804Y-76580272D01*
X151584483Y-76584129D01*
X151584485Y-76584131D01*
X151669223Y-76672959D01*
X151741532Y-76748758D01*
X151928350Y-76887754D01*
X151933102Y-76890170D01*
X152130244Y-76990402D01*
X152135916Y-76993286D01*
X152247106Y-77027811D01*
X152353193Y-77060753D01*
X152353199Y-77060754D01*
X152358296Y-77062337D01*
X152482660Y-77078820D01*
X152583848Y-77092232D01*
X152583852Y-77092232D01*
X152589132Y-77092932D01*
X152594462Y-77092732D01*
X152594463Y-77092732D01*
X152705477Y-77088564D01*
X152821822Y-77084197D01*
X152926005Y-77062337D01*
X153044486Y-77037477D01*
X153044489Y-77037476D01*
X153049713Y-77036380D01*
X153266290Y-76950850D01*
X153465359Y-76830051D01*
X153469855Y-76826150D01*
X153637197Y-76680939D01*
X153637199Y-76680937D01*
X153641230Y-76677439D01*
X153644613Y-76673313D01*
X153644617Y-76673309D01*
X153743776Y-76552374D01*
X153788872Y-76497376D01*
X153819696Y-76443227D01*
X153901422Y-76299654D01*
X153904065Y-76295011D01*
X153924239Y-76239435D01*
X153981695Y-76081146D01*
X153981696Y-76081142D01*
X153983515Y-76076131D01*
X154024950Y-75846993D01*
X154026100Y-75822606D01*
X154026100Y-75775868D01*
X155345900Y-75775868D01*
X155360626Y-75949420D01*
X155361964Y-75954577D01*
X155361965Y-75954580D01*
X155394816Y-76081146D01*
X155419125Y-76174806D01*
X155421317Y-76179672D01*
X155421318Y-76179675D01*
X155429594Y-76198046D01*
X155514762Y-76387113D01*
X155644804Y-76580272D01*
X155648483Y-76584129D01*
X155648485Y-76584131D01*
X155733223Y-76672959D01*
X155805532Y-76748758D01*
X155992350Y-76887754D01*
X155997102Y-76890170D01*
X156194244Y-76990402D01*
X156199916Y-76993286D01*
X156311106Y-77027811D01*
X156417193Y-77060753D01*
X156417199Y-77060754D01*
X156422296Y-77062337D01*
X156546660Y-77078820D01*
X156647848Y-77092232D01*
X156647852Y-77092232D01*
X156653132Y-77092932D01*
X156658462Y-77092732D01*
X156658463Y-77092732D01*
X156769477Y-77088564D01*
X156885822Y-77084197D01*
X156990005Y-77062337D01*
X157108486Y-77037477D01*
X157108489Y-77037476D01*
X157113713Y-77036380D01*
X157330290Y-76950850D01*
X157529359Y-76830051D01*
X157533855Y-76826150D01*
X157701197Y-76680939D01*
X157701199Y-76680937D01*
X157705230Y-76677439D01*
X157708613Y-76673313D01*
X157708617Y-76673309D01*
X157807776Y-76552374D01*
X157852872Y-76497376D01*
X157878845Y-76451748D01*
X157929927Y-76402442D01*
X157999558Y-76388580D01*
X158065629Y-76414563D01*
X158092867Y-76443713D01*
X158184804Y-76580272D01*
X158188483Y-76584129D01*
X158188485Y-76584131D01*
X158273223Y-76672959D01*
X158345532Y-76748758D01*
X158532350Y-76887754D01*
X158537102Y-76890170D01*
X158734244Y-76990402D01*
X158739916Y-76993286D01*
X158851106Y-77027811D01*
X158957193Y-77060753D01*
X158957199Y-77060754D01*
X158962296Y-77062337D01*
X159086660Y-77078820D01*
X159187848Y-77092232D01*
X159187852Y-77092232D01*
X159193132Y-77092932D01*
X159198462Y-77092732D01*
X159198463Y-77092732D01*
X159309477Y-77088564D01*
X159425822Y-77084197D01*
X159530005Y-77062337D01*
X159648486Y-77037477D01*
X159648489Y-77037476D01*
X159653713Y-77036380D01*
X159870290Y-76950850D01*
X160069359Y-76830051D01*
X160073855Y-76826150D01*
X160241197Y-76680939D01*
X160241199Y-76680937D01*
X160245230Y-76677439D01*
X160248613Y-76673313D01*
X160248617Y-76673309D01*
X160347776Y-76552374D01*
X160392872Y-76497376D01*
X160418845Y-76451748D01*
X160469927Y-76402442D01*
X160539558Y-76388580D01*
X160605629Y-76414563D01*
X160632867Y-76443713D01*
X160724804Y-76580272D01*
X160728483Y-76584129D01*
X160728485Y-76584131D01*
X160813223Y-76672959D01*
X160885532Y-76748758D01*
X161072350Y-76887754D01*
X161077102Y-76890170D01*
X161274244Y-76990402D01*
X161279916Y-76993286D01*
X161391106Y-77027811D01*
X161497193Y-77060753D01*
X161497199Y-77060754D01*
X161502296Y-77062337D01*
X161626660Y-77078820D01*
X161727848Y-77092232D01*
X161727852Y-77092232D01*
X161733132Y-77092932D01*
X161738462Y-77092732D01*
X161738463Y-77092732D01*
X161849477Y-77088564D01*
X161965822Y-77084197D01*
X162070005Y-77062337D01*
X162188486Y-77037477D01*
X162188489Y-77037476D01*
X162193713Y-77036380D01*
X162410290Y-76950850D01*
X162609359Y-76830051D01*
X162613855Y-76826150D01*
X162781197Y-76680939D01*
X162781199Y-76680937D01*
X162785230Y-76677439D01*
X162788613Y-76673313D01*
X162788617Y-76673309D01*
X162887776Y-76552374D01*
X162932872Y-76497376D01*
X162958845Y-76451748D01*
X163009927Y-76402442D01*
X163079558Y-76388580D01*
X163145629Y-76414563D01*
X163172867Y-76443713D01*
X163264804Y-76580272D01*
X163268483Y-76584129D01*
X163268485Y-76584131D01*
X163353223Y-76672959D01*
X163425532Y-76748758D01*
X163612350Y-76887754D01*
X163617102Y-76890170D01*
X163814244Y-76990402D01*
X163819916Y-76993286D01*
X163931106Y-77027811D01*
X164037193Y-77060753D01*
X164037199Y-77060754D01*
X164042296Y-77062337D01*
X164166660Y-77078820D01*
X164267848Y-77092232D01*
X164267852Y-77092232D01*
X164273132Y-77092932D01*
X164278462Y-77092732D01*
X164278463Y-77092732D01*
X164389477Y-77088564D01*
X164505822Y-77084197D01*
X164610005Y-77062337D01*
X164728486Y-77037477D01*
X164728489Y-77037476D01*
X164733713Y-77036380D01*
X164950290Y-76950850D01*
X165149359Y-76830051D01*
X165153855Y-76826150D01*
X165321197Y-76680939D01*
X165321199Y-76680937D01*
X165325230Y-76677439D01*
X165328613Y-76673313D01*
X165328617Y-76673309D01*
X165427776Y-76552374D01*
X165472872Y-76497376D01*
X165498845Y-76451748D01*
X165549927Y-76402442D01*
X165619558Y-76388580D01*
X165685629Y-76414563D01*
X165712867Y-76443713D01*
X165804804Y-76580272D01*
X165808483Y-76584129D01*
X165808485Y-76584131D01*
X165893223Y-76672959D01*
X165965532Y-76748758D01*
X166152350Y-76887754D01*
X166157102Y-76890170D01*
X166354244Y-76990402D01*
X166359916Y-76993286D01*
X166471106Y-77027811D01*
X166577193Y-77060753D01*
X166577199Y-77060754D01*
X166582296Y-77062337D01*
X166706660Y-77078820D01*
X166807848Y-77092232D01*
X166807852Y-77092232D01*
X166813132Y-77092932D01*
X166818462Y-77092732D01*
X166818463Y-77092732D01*
X166929477Y-77088564D01*
X167045822Y-77084197D01*
X167150005Y-77062337D01*
X167268486Y-77037477D01*
X167268489Y-77037476D01*
X167273713Y-77036380D01*
X167490290Y-76950850D01*
X167689359Y-76830051D01*
X167693855Y-76826150D01*
X167861197Y-76680939D01*
X167861199Y-76680937D01*
X167865230Y-76677439D01*
X167868613Y-76673313D01*
X167868617Y-76673309D01*
X167967776Y-76552374D01*
X168012872Y-76497376D01*
X168038845Y-76451748D01*
X168089927Y-76402442D01*
X168159558Y-76388580D01*
X168225629Y-76414563D01*
X168252867Y-76443713D01*
X168344804Y-76580272D01*
X168348483Y-76584129D01*
X168348485Y-76584131D01*
X168433223Y-76672959D01*
X168505532Y-76748758D01*
X168692350Y-76887754D01*
X168697102Y-76890170D01*
X168894244Y-76990402D01*
X168899916Y-76993286D01*
X169011106Y-77027811D01*
X169117193Y-77060753D01*
X169117199Y-77060754D01*
X169122296Y-77062337D01*
X169246660Y-77078820D01*
X169347848Y-77092232D01*
X169347852Y-77092232D01*
X169353132Y-77092932D01*
X169358462Y-77092732D01*
X169358463Y-77092732D01*
X169469477Y-77088564D01*
X169585822Y-77084197D01*
X169690005Y-77062337D01*
X169808486Y-77037477D01*
X169808489Y-77037476D01*
X169813713Y-77036380D01*
X170030290Y-76950850D01*
X170229359Y-76830051D01*
X170233855Y-76826150D01*
X170401197Y-76680939D01*
X170401199Y-76680937D01*
X170405230Y-76677439D01*
X170408613Y-76673313D01*
X170408617Y-76673309D01*
X170507776Y-76552374D01*
X170552872Y-76497376D01*
X170578845Y-76451748D01*
X170629927Y-76402442D01*
X170699558Y-76388580D01*
X170765629Y-76414563D01*
X170792867Y-76443713D01*
X170884804Y-76580272D01*
X170888483Y-76584129D01*
X170888485Y-76584131D01*
X170973223Y-76672959D01*
X171045532Y-76748758D01*
X171232350Y-76887754D01*
X171237102Y-76890170D01*
X171434244Y-76990402D01*
X171439916Y-76993286D01*
X171551106Y-77027811D01*
X171657193Y-77060753D01*
X171657199Y-77060754D01*
X171662296Y-77062337D01*
X171786660Y-77078820D01*
X171887848Y-77092232D01*
X171887852Y-77092232D01*
X171893132Y-77092932D01*
X171898462Y-77092732D01*
X171898463Y-77092732D01*
X172009477Y-77088564D01*
X172125822Y-77084197D01*
X172230005Y-77062337D01*
X172348486Y-77037477D01*
X172348489Y-77037476D01*
X172353713Y-77036380D01*
X172570290Y-76950850D01*
X172769359Y-76830051D01*
X172773855Y-76826150D01*
X172941197Y-76680939D01*
X172941199Y-76680937D01*
X172945230Y-76677439D01*
X172948613Y-76673313D01*
X172948617Y-76673309D01*
X173047776Y-76552374D01*
X173092872Y-76497376D01*
X173118845Y-76451748D01*
X173169927Y-76402442D01*
X173239558Y-76388580D01*
X173305629Y-76414563D01*
X173332867Y-76443713D01*
X173424804Y-76580272D01*
X173428483Y-76584129D01*
X173428485Y-76584131D01*
X173513223Y-76672959D01*
X173585532Y-76748758D01*
X173772350Y-76887754D01*
X173777102Y-76890170D01*
X173974244Y-76990402D01*
X173979916Y-76993286D01*
X174091106Y-77027811D01*
X174197193Y-77060753D01*
X174197199Y-77060754D01*
X174202296Y-77062337D01*
X174326660Y-77078820D01*
X174427848Y-77092232D01*
X174427852Y-77092232D01*
X174433132Y-77092932D01*
X174438462Y-77092732D01*
X174438463Y-77092732D01*
X174549477Y-77088564D01*
X174665822Y-77084197D01*
X174770005Y-77062337D01*
X174888486Y-77037477D01*
X174888489Y-77037476D01*
X174893713Y-77036380D01*
X175110290Y-76950850D01*
X175309359Y-76830051D01*
X175313855Y-76826150D01*
X175481197Y-76680939D01*
X175481199Y-76680937D01*
X175485230Y-76677439D01*
X175488613Y-76673313D01*
X175488617Y-76673309D01*
X175587776Y-76552374D01*
X175632872Y-76497376D01*
X175663696Y-76443227D01*
X175745422Y-76299654D01*
X175748065Y-76295011D01*
X175768239Y-76239435D01*
X175825695Y-76081146D01*
X175825696Y-76081142D01*
X175827515Y-76076131D01*
X175868950Y-75846993D01*
X175870100Y-75822606D01*
X175870100Y-75354132D01*
X175855374Y-75180580D01*
X175854035Y-75175420D01*
X175798217Y-74960363D01*
X175798216Y-74960359D01*
X175796875Y-74955194D01*
X175788164Y-74935855D01*
X175728317Y-74803001D01*
X175701238Y-74742887D01*
X175571196Y-74549728D01*
X175554861Y-74532604D01*
X175414152Y-74385104D01*
X175410468Y-74381242D01*
X175223650Y-74242246D01*
X175096574Y-74177637D01*
X175020842Y-74139133D01*
X175020841Y-74139133D01*
X175016084Y-74136714D01*
X174877299Y-74093620D01*
X174798807Y-74069247D01*
X174798801Y-74069246D01*
X174793704Y-74067663D01*
X174669340Y-74051180D01*
X174568152Y-74037768D01*
X174568148Y-74037768D01*
X174562868Y-74037068D01*
X174557538Y-74037268D01*
X174557537Y-74037268D01*
X174446523Y-74041436D01*
X174330178Y-74045803D01*
X174247474Y-74063156D01*
X174107514Y-74092523D01*
X174107511Y-74092524D01*
X174102287Y-74093620D01*
X173885710Y-74179150D01*
X173686641Y-74299949D01*
X173682611Y-74303446D01*
X173519570Y-74444925D01*
X173510770Y-74452561D01*
X173507387Y-74456687D01*
X173507383Y-74456691D01*
X173452241Y-74523942D01*
X173363128Y-74632624D01*
X173360490Y-74637259D01*
X173360487Y-74637263D01*
X173337155Y-74678252D01*
X173286073Y-74727558D01*
X173216442Y-74741420D01*
X173150371Y-74715437D01*
X173123133Y-74686287D01*
X173034176Y-74554155D01*
X173031196Y-74549728D01*
X173014861Y-74532604D01*
X172874152Y-74385104D01*
X172870468Y-74381242D01*
X172683650Y-74242246D01*
X172556574Y-74177637D01*
X172480842Y-74139133D01*
X172480841Y-74139133D01*
X172476084Y-74136714D01*
X172337299Y-74093620D01*
X172258807Y-74069247D01*
X172258801Y-74069246D01*
X172253704Y-74067663D01*
X172129340Y-74051180D01*
X172028152Y-74037768D01*
X172028148Y-74037768D01*
X172022868Y-74037068D01*
X172017538Y-74037268D01*
X172017537Y-74037268D01*
X171906523Y-74041436D01*
X171790178Y-74045803D01*
X171707474Y-74063156D01*
X171567514Y-74092523D01*
X171567511Y-74092524D01*
X171562287Y-74093620D01*
X171345710Y-74179150D01*
X171146641Y-74299949D01*
X171142611Y-74303446D01*
X170979570Y-74444925D01*
X170970770Y-74452561D01*
X170967387Y-74456687D01*
X170967383Y-74456691D01*
X170912241Y-74523942D01*
X170823128Y-74632624D01*
X170820490Y-74637259D01*
X170820487Y-74637263D01*
X170797155Y-74678252D01*
X170746073Y-74727558D01*
X170676442Y-74741420D01*
X170610371Y-74715437D01*
X170583133Y-74686287D01*
X170494176Y-74554155D01*
X170491196Y-74549728D01*
X170474861Y-74532604D01*
X170334152Y-74385104D01*
X170330468Y-74381242D01*
X170143650Y-74242246D01*
X170016574Y-74177637D01*
X169940842Y-74139133D01*
X169940841Y-74139133D01*
X169936084Y-74136714D01*
X169797299Y-74093620D01*
X169718807Y-74069247D01*
X169718801Y-74069246D01*
X169713704Y-74067663D01*
X169589340Y-74051180D01*
X169488152Y-74037768D01*
X169488148Y-74037768D01*
X169482868Y-74037068D01*
X169477538Y-74037268D01*
X169477537Y-74037268D01*
X169366523Y-74041436D01*
X169250178Y-74045803D01*
X169167474Y-74063156D01*
X169027514Y-74092523D01*
X169027511Y-74092524D01*
X169022287Y-74093620D01*
X168805710Y-74179150D01*
X168606641Y-74299949D01*
X168602611Y-74303446D01*
X168439570Y-74444925D01*
X168430770Y-74452561D01*
X168427387Y-74456687D01*
X168427383Y-74456691D01*
X168372241Y-74523942D01*
X168283128Y-74632624D01*
X168280490Y-74637259D01*
X168280487Y-74637263D01*
X168257155Y-74678252D01*
X168206073Y-74727558D01*
X168136442Y-74741420D01*
X168070371Y-74715437D01*
X168043133Y-74686287D01*
X167954176Y-74554155D01*
X167951196Y-74549728D01*
X167934861Y-74532604D01*
X167794152Y-74385104D01*
X167790468Y-74381242D01*
X167603650Y-74242246D01*
X167476574Y-74177637D01*
X167400842Y-74139133D01*
X167400841Y-74139133D01*
X167396084Y-74136714D01*
X167257299Y-74093620D01*
X167178807Y-74069247D01*
X167178801Y-74069246D01*
X167173704Y-74067663D01*
X167049340Y-74051180D01*
X166948152Y-74037768D01*
X166948148Y-74037768D01*
X166942868Y-74037068D01*
X166937538Y-74037268D01*
X166937537Y-74037268D01*
X166826523Y-74041436D01*
X166710178Y-74045803D01*
X166627474Y-74063156D01*
X166487514Y-74092523D01*
X166487511Y-74092524D01*
X166482287Y-74093620D01*
X166265710Y-74179150D01*
X166066641Y-74299949D01*
X166062611Y-74303446D01*
X165899570Y-74444925D01*
X165890770Y-74452561D01*
X165887387Y-74456687D01*
X165887383Y-74456691D01*
X165832241Y-74523942D01*
X165743128Y-74632624D01*
X165740490Y-74637259D01*
X165740487Y-74637263D01*
X165717155Y-74678252D01*
X165666073Y-74727558D01*
X165596442Y-74741420D01*
X165530371Y-74715437D01*
X165503133Y-74686287D01*
X165414176Y-74554155D01*
X165411196Y-74549728D01*
X165394861Y-74532604D01*
X165254152Y-74385104D01*
X165250468Y-74381242D01*
X165063650Y-74242246D01*
X164936574Y-74177637D01*
X164860842Y-74139133D01*
X164860841Y-74139133D01*
X164856084Y-74136714D01*
X164717299Y-74093620D01*
X164638807Y-74069247D01*
X164638801Y-74069246D01*
X164633704Y-74067663D01*
X164509340Y-74051180D01*
X164408152Y-74037768D01*
X164408148Y-74037768D01*
X164402868Y-74037068D01*
X164397538Y-74037268D01*
X164397537Y-74037268D01*
X164286523Y-74041436D01*
X164170178Y-74045803D01*
X164087474Y-74063156D01*
X163947514Y-74092523D01*
X163947511Y-74092524D01*
X163942287Y-74093620D01*
X163725710Y-74179150D01*
X163526641Y-74299949D01*
X163522611Y-74303446D01*
X163359570Y-74444925D01*
X163350770Y-74452561D01*
X163347387Y-74456687D01*
X163347383Y-74456691D01*
X163292241Y-74523942D01*
X163203128Y-74632624D01*
X163200490Y-74637259D01*
X163200487Y-74637263D01*
X163177155Y-74678252D01*
X163126073Y-74727558D01*
X163056442Y-74741420D01*
X162990371Y-74715437D01*
X162963133Y-74686287D01*
X162874176Y-74554155D01*
X162871196Y-74549728D01*
X162854861Y-74532604D01*
X162714152Y-74385104D01*
X162710468Y-74381242D01*
X162523650Y-74242246D01*
X162396574Y-74177637D01*
X162320842Y-74139133D01*
X162320841Y-74139133D01*
X162316084Y-74136714D01*
X162177299Y-74093620D01*
X162098807Y-74069247D01*
X162098801Y-74069246D01*
X162093704Y-74067663D01*
X161969340Y-74051180D01*
X161868152Y-74037768D01*
X161868148Y-74037768D01*
X161862868Y-74037068D01*
X161857538Y-74037268D01*
X161857537Y-74037268D01*
X161746523Y-74041436D01*
X161630178Y-74045803D01*
X161547474Y-74063156D01*
X161407514Y-74092523D01*
X161407511Y-74092524D01*
X161402287Y-74093620D01*
X161185710Y-74179150D01*
X160986641Y-74299949D01*
X160982611Y-74303446D01*
X160819570Y-74444925D01*
X160810770Y-74452561D01*
X160807387Y-74456687D01*
X160807383Y-74456691D01*
X160752241Y-74523942D01*
X160663128Y-74632624D01*
X160660490Y-74637259D01*
X160660487Y-74637263D01*
X160637155Y-74678252D01*
X160586073Y-74727558D01*
X160516442Y-74741420D01*
X160450371Y-74715437D01*
X160423133Y-74686287D01*
X160334176Y-74554155D01*
X160331196Y-74549728D01*
X160314861Y-74532604D01*
X160174152Y-74385104D01*
X160170468Y-74381242D01*
X159983650Y-74242246D01*
X159856574Y-74177637D01*
X159780842Y-74139133D01*
X159780841Y-74139133D01*
X159776084Y-74136714D01*
X159637299Y-74093620D01*
X159558807Y-74069247D01*
X159558801Y-74069246D01*
X159553704Y-74067663D01*
X159429340Y-74051180D01*
X159328152Y-74037768D01*
X159328148Y-74037768D01*
X159322868Y-74037068D01*
X159317538Y-74037268D01*
X159317537Y-74037268D01*
X159206523Y-74041436D01*
X159090178Y-74045803D01*
X159007474Y-74063156D01*
X158867514Y-74092523D01*
X158867511Y-74092524D01*
X158862287Y-74093620D01*
X158645710Y-74179150D01*
X158446641Y-74299949D01*
X158442611Y-74303446D01*
X158279570Y-74444925D01*
X158270770Y-74452561D01*
X158267387Y-74456687D01*
X158267383Y-74456691D01*
X158212241Y-74523942D01*
X158123128Y-74632624D01*
X158120490Y-74637259D01*
X158120487Y-74637263D01*
X158097155Y-74678252D01*
X158046073Y-74727558D01*
X157976442Y-74741420D01*
X157910371Y-74715437D01*
X157883133Y-74686287D01*
X157794176Y-74554155D01*
X157791196Y-74549728D01*
X157774861Y-74532604D01*
X157634152Y-74385104D01*
X157630468Y-74381242D01*
X157443650Y-74242246D01*
X157316574Y-74177637D01*
X157240842Y-74139133D01*
X157240841Y-74139133D01*
X157236084Y-74136714D01*
X157097299Y-74093620D01*
X157018807Y-74069247D01*
X157018801Y-74069246D01*
X157013704Y-74067663D01*
X156889340Y-74051180D01*
X156788152Y-74037768D01*
X156788148Y-74037768D01*
X156782868Y-74037068D01*
X156777538Y-74037268D01*
X156777537Y-74037268D01*
X156666523Y-74041436D01*
X156550178Y-74045803D01*
X156467474Y-74063156D01*
X156327514Y-74092523D01*
X156327511Y-74092524D01*
X156322287Y-74093620D01*
X156105710Y-74179150D01*
X155906641Y-74299949D01*
X155902611Y-74303446D01*
X155739570Y-74444925D01*
X155730770Y-74452561D01*
X155727387Y-74456687D01*
X155727383Y-74456691D01*
X155672241Y-74523942D01*
X155583128Y-74632624D01*
X155580490Y-74637259D01*
X155580487Y-74637263D01*
X155517589Y-74747760D01*
X155467935Y-74834989D01*
X155466114Y-74840005D01*
X155466112Y-74840010D01*
X155424302Y-74955194D01*
X155388485Y-75053869D01*
X155347050Y-75283007D01*
X155345900Y-75307394D01*
X155345900Y-75775868D01*
X154026100Y-75775868D01*
X154026100Y-75354132D01*
X154011374Y-75180580D01*
X154010035Y-75175420D01*
X153954217Y-74960363D01*
X153954216Y-74960359D01*
X153952875Y-74955194D01*
X153944164Y-74935855D01*
X153884317Y-74803001D01*
X153857238Y-74742887D01*
X153727196Y-74549728D01*
X153710861Y-74532604D01*
X153570152Y-74385104D01*
X153566468Y-74381242D01*
X153379650Y-74242246D01*
X153252574Y-74177637D01*
X153176842Y-74139133D01*
X153176841Y-74139133D01*
X153172084Y-74136714D01*
X153033299Y-74093620D01*
X152954807Y-74069247D01*
X152954801Y-74069246D01*
X152949704Y-74067663D01*
X152825340Y-74051180D01*
X152724152Y-74037768D01*
X152724148Y-74037768D01*
X152718868Y-74037068D01*
X152713538Y-74037268D01*
X152713537Y-74037268D01*
X152602523Y-74041436D01*
X152486178Y-74045803D01*
X152403474Y-74063156D01*
X152263514Y-74092523D01*
X152263511Y-74092524D01*
X152258287Y-74093620D01*
X152041710Y-74179150D01*
X151842641Y-74299949D01*
X151838611Y-74303446D01*
X151675570Y-74444925D01*
X151666770Y-74452561D01*
X151663387Y-74456687D01*
X151663383Y-74456691D01*
X151608241Y-74523942D01*
X151519128Y-74632624D01*
X151516490Y-74637259D01*
X151516487Y-74637263D01*
X151493155Y-74678252D01*
X151442073Y-74727558D01*
X151372442Y-74741420D01*
X151306371Y-74715437D01*
X151279133Y-74686287D01*
X151190176Y-74554155D01*
X151187196Y-74549728D01*
X151170861Y-74532604D01*
X151030152Y-74385104D01*
X151026468Y-74381242D01*
X150839650Y-74242246D01*
X150712574Y-74177637D01*
X150636842Y-74139133D01*
X150636841Y-74139133D01*
X150632084Y-74136714D01*
X150493299Y-74093620D01*
X150414807Y-74069247D01*
X150414801Y-74069246D01*
X150409704Y-74067663D01*
X150285340Y-74051180D01*
X150184152Y-74037768D01*
X150184148Y-74037768D01*
X150178868Y-74037068D01*
X150173538Y-74037268D01*
X150173537Y-74037268D01*
X150062523Y-74041436D01*
X149946178Y-74045803D01*
X149863474Y-74063156D01*
X149723514Y-74092523D01*
X149723511Y-74092524D01*
X149718287Y-74093620D01*
X149501710Y-74179150D01*
X149302641Y-74299949D01*
X149298611Y-74303446D01*
X149135570Y-74444925D01*
X149126770Y-74452561D01*
X149123387Y-74456687D01*
X149123383Y-74456691D01*
X149068241Y-74523942D01*
X148979128Y-74632624D01*
X148976490Y-74637259D01*
X148976487Y-74637263D01*
X148953155Y-74678252D01*
X148902073Y-74727558D01*
X148832442Y-74741420D01*
X148766371Y-74715437D01*
X148739133Y-74686287D01*
X148650176Y-74554155D01*
X148647196Y-74549728D01*
X148630861Y-74532604D01*
X148490152Y-74385104D01*
X148486468Y-74381242D01*
X148299650Y-74242246D01*
X148172574Y-74177637D01*
X148096842Y-74139133D01*
X148096841Y-74139133D01*
X148092084Y-74136714D01*
X147953299Y-74093620D01*
X147874807Y-74069247D01*
X147874801Y-74069246D01*
X147869704Y-74067663D01*
X147745340Y-74051180D01*
X147644152Y-74037768D01*
X147644148Y-74037768D01*
X147638868Y-74037068D01*
X147633538Y-74037268D01*
X147633537Y-74037268D01*
X147522523Y-74041436D01*
X147406178Y-74045803D01*
X147323474Y-74063156D01*
X147183514Y-74092523D01*
X147183511Y-74092524D01*
X147178287Y-74093620D01*
X146961710Y-74179150D01*
X146762641Y-74299949D01*
X146758611Y-74303446D01*
X146595570Y-74444925D01*
X146586770Y-74452561D01*
X146583387Y-74456687D01*
X146583383Y-74456691D01*
X146528241Y-74523942D01*
X146439128Y-74632624D01*
X146436490Y-74637259D01*
X146436487Y-74637263D01*
X146413155Y-74678252D01*
X146362073Y-74727558D01*
X146292442Y-74741420D01*
X146226371Y-74715437D01*
X146199133Y-74686287D01*
X146110176Y-74554155D01*
X146107196Y-74549728D01*
X146090861Y-74532604D01*
X145950152Y-74385104D01*
X145946468Y-74381242D01*
X145759650Y-74242246D01*
X145632574Y-74177637D01*
X145556842Y-74139133D01*
X145556841Y-74139133D01*
X145552084Y-74136714D01*
X145413299Y-74093620D01*
X145334807Y-74069247D01*
X145334801Y-74069246D01*
X145329704Y-74067663D01*
X145205340Y-74051180D01*
X145104152Y-74037768D01*
X145104148Y-74037768D01*
X145098868Y-74037068D01*
X145093538Y-74037268D01*
X145093537Y-74037268D01*
X144982523Y-74041436D01*
X144866178Y-74045803D01*
X144783474Y-74063156D01*
X144643514Y-74092523D01*
X144643511Y-74092524D01*
X144638287Y-74093620D01*
X144421710Y-74179150D01*
X144222641Y-74299949D01*
X144218611Y-74303446D01*
X144055570Y-74444925D01*
X144046770Y-74452561D01*
X144043387Y-74456687D01*
X144043383Y-74456691D01*
X143988241Y-74523942D01*
X143899128Y-74632624D01*
X143896490Y-74637259D01*
X143896487Y-74637263D01*
X143873155Y-74678252D01*
X143822073Y-74727558D01*
X143752442Y-74741420D01*
X143686371Y-74715437D01*
X143659133Y-74686287D01*
X143570176Y-74554155D01*
X143567196Y-74549728D01*
X143550861Y-74532604D01*
X143410152Y-74385104D01*
X143406468Y-74381242D01*
X143219650Y-74242246D01*
X143092574Y-74177637D01*
X143016842Y-74139133D01*
X143016841Y-74139133D01*
X143012084Y-74136714D01*
X142873299Y-74093620D01*
X142794807Y-74069247D01*
X142794801Y-74069246D01*
X142789704Y-74067663D01*
X142665340Y-74051180D01*
X142564152Y-74037768D01*
X142564148Y-74037768D01*
X142558868Y-74037068D01*
X142553538Y-74037268D01*
X142553537Y-74037268D01*
X142442523Y-74041436D01*
X142326178Y-74045803D01*
X142243474Y-74063156D01*
X142103514Y-74092523D01*
X142103511Y-74092524D01*
X142098287Y-74093620D01*
X141881710Y-74179150D01*
X141682641Y-74299949D01*
X141678611Y-74303446D01*
X141515570Y-74444925D01*
X141506770Y-74452561D01*
X141503387Y-74456687D01*
X141503383Y-74456691D01*
X141448241Y-74523942D01*
X141359128Y-74632624D01*
X141356490Y-74637259D01*
X141356487Y-74637263D01*
X141333155Y-74678252D01*
X141282073Y-74727558D01*
X141212442Y-74741420D01*
X141146371Y-74715437D01*
X141119133Y-74686287D01*
X141030176Y-74554155D01*
X141027196Y-74549728D01*
X141010861Y-74532604D01*
X140870152Y-74385104D01*
X140866468Y-74381242D01*
X140679650Y-74242246D01*
X140552574Y-74177637D01*
X140476842Y-74139133D01*
X140476841Y-74139133D01*
X140472084Y-74136714D01*
X140333299Y-74093620D01*
X140254807Y-74069247D01*
X140254801Y-74069246D01*
X140249704Y-74067663D01*
X140125340Y-74051180D01*
X140024152Y-74037768D01*
X140024148Y-74037768D01*
X140018868Y-74037068D01*
X140013538Y-74037268D01*
X140013537Y-74037268D01*
X139902523Y-74041436D01*
X139786178Y-74045803D01*
X139703474Y-74063156D01*
X139563514Y-74092523D01*
X139563511Y-74092524D01*
X139558287Y-74093620D01*
X139341710Y-74179150D01*
X139142641Y-74299949D01*
X139138611Y-74303446D01*
X138975570Y-74444925D01*
X138966770Y-74452561D01*
X138963387Y-74456687D01*
X138963383Y-74456691D01*
X138908241Y-74523942D01*
X138819128Y-74632624D01*
X138792878Y-74678739D01*
X138741798Y-74728044D01*
X138672168Y-74741906D01*
X138606096Y-74715923D01*
X138578857Y-74686773D01*
X138489785Y-74554470D01*
X138483124Y-74546184D01*
X138329820Y-74385480D01*
X138321852Y-74378431D01*
X138143664Y-74245856D01*
X138134634Y-74240257D01*
X137936653Y-74139598D01*
X137926792Y-74135595D01*
X137714699Y-74069737D01*
X137704304Y-74067452D01*
X137685959Y-74065020D01*
X137671792Y-74067217D01*
X137668000Y-74080401D01*
X137668000Y-77047488D01*
X137160000Y-77047488D01*
X137160000Y-74082512D01*
X137156027Y-74068981D01*
X137145420Y-74067456D01*
X137023657Y-74093004D01*
X137013461Y-74096064D01*
X136806903Y-74177637D01*
X136797366Y-74182371D01*
X136607497Y-74297586D01*
X136598907Y-74303850D01*
X136431163Y-74449411D01*
X136423743Y-74457041D01*
X136282927Y-74628780D01*
X136276898Y-74637551D01*
X136253467Y-74678715D01*
X136202385Y-74728022D01*
X136132755Y-74741884D01*
X136066684Y-74715901D01*
X136039445Y-74686751D01*
X136003005Y-74632624D01*
X135947196Y-74549728D01*
X135930861Y-74532604D01*
X135790152Y-74385104D01*
X135786468Y-74381242D01*
X135599650Y-74242246D01*
X135472574Y-74177637D01*
X135396842Y-74139133D01*
X135396841Y-74139133D01*
X135392084Y-74136714D01*
X135253299Y-74093620D01*
X135174807Y-74069247D01*
X135174801Y-74069246D01*
X135169704Y-74067663D01*
X135045340Y-74051180D01*
X134944152Y-74037768D01*
X134944148Y-74037768D01*
X134938868Y-74037068D01*
X134933538Y-74037268D01*
X134933537Y-74037268D01*
X134822523Y-74041436D01*
X134706178Y-74045803D01*
X134623474Y-74063156D01*
X134483514Y-74092523D01*
X134483511Y-74092524D01*
X134478287Y-74093620D01*
X134261710Y-74179150D01*
X134062641Y-74299949D01*
X134058611Y-74303446D01*
X133895570Y-74444925D01*
X133886770Y-74452561D01*
X133883387Y-74456687D01*
X133883383Y-74456691D01*
X133828241Y-74523942D01*
X133739128Y-74632624D01*
X133736490Y-74637259D01*
X133736487Y-74637263D01*
X133713155Y-74678252D01*
X133662073Y-74727558D01*
X133592442Y-74741420D01*
X133526371Y-74715437D01*
X133499133Y-74686287D01*
X133410176Y-74554155D01*
X133407196Y-74549728D01*
X133390861Y-74532604D01*
X133250152Y-74385104D01*
X133246468Y-74381242D01*
X133059650Y-74242246D01*
X132932574Y-74177637D01*
X132856842Y-74139133D01*
X132856841Y-74139133D01*
X132852084Y-74136714D01*
X132713299Y-74093620D01*
X132634807Y-74069247D01*
X132634801Y-74069246D01*
X132629704Y-74067663D01*
X132505340Y-74051180D01*
X132404152Y-74037768D01*
X132404148Y-74037768D01*
X132398868Y-74037068D01*
X132393538Y-74037268D01*
X132393537Y-74037268D01*
X132282523Y-74041436D01*
X132166178Y-74045803D01*
X132083474Y-74063156D01*
X131943514Y-74092523D01*
X131943511Y-74092524D01*
X131938287Y-74093620D01*
X131721710Y-74179150D01*
X131522641Y-74299949D01*
X131518611Y-74303446D01*
X131355570Y-74444925D01*
X131346770Y-74452561D01*
X131343387Y-74456687D01*
X131343383Y-74456691D01*
X131288241Y-74523942D01*
X131199128Y-74632624D01*
X131196490Y-74637259D01*
X131196487Y-74637263D01*
X131173155Y-74678252D01*
X131122073Y-74727558D01*
X131052442Y-74741420D01*
X130986371Y-74715437D01*
X130959133Y-74686287D01*
X130870176Y-74554155D01*
X130867196Y-74549728D01*
X130850861Y-74532604D01*
X130710152Y-74385104D01*
X130706468Y-74381242D01*
X130519650Y-74242246D01*
X130392574Y-74177637D01*
X130316842Y-74139133D01*
X130316841Y-74139133D01*
X130312084Y-74136714D01*
X130173299Y-74093620D01*
X130094807Y-74069247D01*
X130094801Y-74069246D01*
X130089704Y-74067663D01*
X129965340Y-74051180D01*
X129864152Y-74037768D01*
X129864148Y-74037768D01*
X129858868Y-74037068D01*
X129853538Y-74037268D01*
X129853537Y-74037268D01*
X129742523Y-74041436D01*
X129626178Y-74045803D01*
X129543474Y-74063156D01*
X129403514Y-74092523D01*
X129403511Y-74092524D01*
X129398287Y-74093620D01*
X129181710Y-74179150D01*
X128982641Y-74299949D01*
X128978611Y-74303446D01*
X128815570Y-74444925D01*
X128806770Y-74452561D01*
X128803384Y-74456691D01*
X128803383Y-74456692D01*
X128752489Y-74518761D01*
X128693829Y-74558756D01*
X128622859Y-74560687D01*
X128562111Y-74523942D01*
X128541047Y-74492518D01*
X128470347Y-74342271D01*
X128470343Y-74342264D01*
X128468659Y-74338685D01*
X128350019Y-74151738D01*
X128299498Y-74072130D01*
X128299495Y-74072126D01*
X128297371Y-74068779D01*
X128093606Y-73822470D01*
X128017339Y-73750850D01*
X127981373Y-73689637D01*
X127984212Y-73618697D01*
X128024952Y-73560553D01*
X128090660Y-73533665D01*
X128103592Y-73533000D01*
X175251390Y-73533000D01*
X175319511Y-73553002D01*
X175340485Y-73569905D01*
X176493095Y-74722515D01*
X176527121Y-74784827D01*
X176530000Y-74811610D01*
X176530000Y-85907980D01*
X176528646Y-85920096D01*
X176529130Y-85920135D01*
X176528410Y-85929086D01*
X176526429Y-85937840D01*
X176526985Y-85946799D01*
X176529758Y-85991501D01*
X176530000Y-85999303D01*
X176530000Y-86015477D01*
X176530636Y-86019918D01*
X176530636Y-86019919D01*
X176531480Y-86025813D01*
X176532510Y-86035872D01*
X176535439Y-86083075D01*
X176538485Y-86091513D01*
X176539088Y-86094424D01*
X176543294Y-86111292D01*
X176544132Y-86114159D01*
X176545405Y-86123045D01*
X176549120Y-86131216D01*
X176549121Y-86131219D01*
X176564977Y-86166092D01*
X176568791Y-86175461D01*
X176581801Y-86211501D01*
X176581803Y-86211505D01*
X176584850Y-86219945D01*
X176590146Y-86227194D01*
X176591547Y-86229829D01*
X176600303Y-86244814D01*
X176601918Y-86247339D01*
X176605633Y-86255510D01*
X176611491Y-86262309D01*
X176611492Y-86262310D01*
X176636502Y-86291335D01*
X176642791Y-86299256D01*
X176647927Y-86306286D01*
X176650805Y-86310225D01*
X176661757Y-86321177D01*
X176668115Y-86328025D01*
X176694756Y-86358944D01*
X176694761Y-86358948D01*
X176700619Y-86365747D01*
X176708153Y-86370630D01*
X176714428Y-86376104D01*
X176726248Y-86385668D01*
X179033095Y-88692515D01*
X179067121Y-88754827D01*
X179070000Y-88781610D01*
X179070000Y-88936946D01*
X179049998Y-89005067D01*
X178996342Y-89051560D01*
X178926068Y-89061664D01*
X178857747Y-89028796D01*
X178832478Y-89005067D01*
X178660577Y-88843641D01*
X178616649Y-88811725D01*
X178457207Y-88695884D01*
X178401959Y-88655744D01*
X178398487Y-88653835D01*
X178125293Y-88503645D01*
X178125290Y-88503643D01*
X178121831Y-88501742D01*
X177902556Y-88414925D01*
X177828293Y-88385522D01*
X177828290Y-88385521D01*
X177824610Y-88384064D01*
X177820776Y-88383080D01*
X177820768Y-88383077D01*
X177603522Y-88327298D01*
X177514983Y-88304565D01*
X177511055Y-88304069D01*
X177511051Y-88304068D01*
X177385358Y-88288190D01*
X177197835Y-88264500D01*
X176878165Y-88264500D01*
X176690642Y-88288190D01*
X176564949Y-88304068D01*
X176564945Y-88304069D01*
X176561017Y-88304565D01*
X176472478Y-88327298D01*
X176255232Y-88383077D01*
X176255224Y-88383080D01*
X176251390Y-88384064D01*
X176247710Y-88385521D01*
X176247707Y-88385522D01*
X176173444Y-88414925D01*
X175954169Y-88501742D01*
X175950710Y-88503643D01*
X175950707Y-88503645D01*
X175677513Y-88653835D01*
X175674041Y-88655744D01*
X175618793Y-88695884D01*
X175459352Y-88811725D01*
X175415423Y-88843641D01*
X175182394Y-89062470D01*
X174978629Y-89308779D01*
X174976505Y-89312126D01*
X174976502Y-89312130D01*
X174859390Y-89496669D01*
X174807341Y-89578685D01*
X174805657Y-89582264D01*
X174805653Y-89582271D01*
X174672922Y-89864340D01*
X174671233Y-89867930D01*
X174572449Y-90171954D01*
X174512549Y-90485961D01*
X174492477Y-90805000D01*
X174512549Y-91124039D01*
X174572449Y-91438046D01*
X174671233Y-91742070D01*
X174672920Y-91745656D01*
X174672922Y-91745660D01*
X174805653Y-92027729D01*
X174805657Y-92027736D01*
X174807341Y-92031315D01*
X174978629Y-92301221D01*
X175182394Y-92547530D01*
X175415423Y-92766359D01*
X175674041Y-92954256D01*
X175954169Y-93108258D01*
X176116083Y-93172364D01*
X176247707Y-93224478D01*
X176247710Y-93224479D01*
X176251390Y-93225936D01*
X176255224Y-93226920D01*
X176255232Y-93226923D01*
X176447153Y-93276200D01*
X176561017Y-93305435D01*
X176564945Y-93305931D01*
X176564949Y-93305932D01*
X176690642Y-93321810D01*
X176878165Y-93345500D01*
X177197835Y-93345500D01*
X177385358Y-93321810D01*
X177511051Y-93305932D01*
X177511055Y-93305931D01*
X177514983Y-93305435D01*
X177628847Y-93276200D01*
X177820768Y-93226923D01*
X177820776Y-93226920D01*
X177824610Y-93225936D01*
X177828290Y-93224479D01*
X177828293Y-93224478D01*
X177959917Y-93172364D01*
X178121831Y-93108258D01*
X178401959Y-92954256D01*
X178660577Y-92766359D01*
X178857747Y-92581204D01*
X178921097Y-92549153D01*
X178991719Y-92556440D01*
X179047190Y-92600751D01*
X179070000Y-92673054D01*
X179070000Y-116876946D01*
X179049998Y-116945067D01*
X178996342Y-116991560D01*
X178926068Y-117001664D01*
X178857747Y-116968796D01*
X178832478Y-116945067D01*
X178660577Y-116783641D01*
X178401959Y-116595744D01*
X178269593Y-116522975D01*
X178125293Y-116443645D01*
X178125290Y-116443643D01*
X178121831Y-116441742D01*
X177893173Y-116351210D01*
X177828293Y-116325522D01*
X177828290Y-116325521D01*
X177824610Y-116324064D01*
X177820776Y-116323080D01*
X177820768Y-116323077D01*
X177628847Y-116273800D01*
X177514983Y-116244565D01*
X177511055Y-116244069D01*
X177511051Y-116244068D01*
X177385358Y-116228190D01*
X177197835Y-116204500D01*
X176878165Y-116204500D01*
X176690642Y-116228190D01*
X176564949Y-116244068D01*
X176564945Y-116244069D01*
X176561017Y-116244565D01*
X176447153Y-116273800D01*
X176255232Y-116323077D01*
X176255224Y-116323080D01*
X176251390Y-116324064D01*
X176247710Y-116325521D01*
X176247707Y-116325522D01*
X176182827Y-116351210D01*
X175954169Y-116441742D01*
X175950710Y-116443643D01*
X175950707Y-116443645D01*
X175806407Y-116522975D01*
X175674041Y-116595744D01*
X175415423Y-116783641D01*
X175243522Y-116945067D01*
X175212664Y-116974045D01*
X175182394Y-117002470D01*
X175179870Y-117005521D01*
X175179869Y-117005522D01*
X175110984Y-117088790D01*
X174978629Y-117248779D01*
X174976505Y-117252126D01*
X174976502Y-117252130D01*
X174812296Y-117510877D01*
X174807341Y-117518685D01*
X174805657Y-117522264D01*
X174805653Y-117522271D01*
X174674666Y-117800634D01*
X174671233Y-117807930D01*
X174572449Y-118111954D01*
X174512549Y-118425961D01*
X174492477Y-118745000D01*
X174512549Y-119064039D01*
X174572449Y-119378046D01*
X174671233Y-119682070D01*
X174672920Y-119685656D01*
X174672922Y-119685660D01*
X174805653Y-119967729D01*
X174805657Y-119967736D01*
X174807341Y-119971315D01*
X174978629Y-120241221D01*
X175182394Y-120487530D01*
X175415423Y-120706359D01*
X175674041Y-120894256D01*
X175954169Y-121048258D01*
X176020651Y-121074580D01*
X176247707Y-121164478D01*
X176247710Y-121164479D01*
X176251390Y-121165936D01*
X176255224Y-121166920D01*
X176255232Y-121166923D01*
X176447153Y-121216200D01*
X176561017Y-121245435D01*
X176564945Y-121245931D01*
X176564949Y-121245932D01*
X176690642Y-121261810D01*
X176878165Y-121285500D01*
X177197835Y-121285500D01*
X177385358Y-121261810D01*
X177511051Y-121245932D01*
X177511055Y-121245931D01*
X177514983Y-121245435D01*
X177628847Y-121216200D01*
X177820768Y-121166923D01*
X177820776Y-121166920D01*
X177824610Y-121165936D01*
X177828290Y-121164479D01*
X177828293Y-121164478D01*
X178055349Y-121074580D01*
X178121831Y-121048258D01*
X178401959Y-120894256D01*
X178660577Y-120706359D01*
X178857747Y-120521204D01*
X178921097Y-120489153D01*
X178991719Y-120496440D01*
X179047190Y-120540751D01*
X179070000Y-120613054D01*
X179070000Y-121022390D01*
X179049998Y-121090511D01*
X179033095Y-121111485D01*
X176729010Y-123415570D01*
X176719481Y-123423183D01*
X176719796Y-123423553D01*
X176712961Y-123429370D01*
X176705369Y-123434160D01*
X176699428Y-123440887D01*
X176669766Y-123474473D01*
X176664419Y-123480161D01*
X176652997Y-123491583D01*
X176650311Y-123495167D01*
X176650309Y-123495169D01*
X176646732Y-123499942D01*
X176640361Y-123507768D01*
X176609044Y-123543228D01*
X176605228Y-123551357D01*
X176603588Y-123553853D01*
X176594652Y-123568723D01*
X176593210Y-123571357D01*
X176587828Y-123578538D01*
X176573487Y-123616792D01*
X176571232Y-123622808D01*
X176567304Y-123632129D01*
X176551016Y-123666820D01*
X176551014Y-123666827D01*
X176547201Y-123674948D01*
X176545820Y-123683815D01*
X176544942Y-123686689D01*
X176540544Y-123703452D01*
X176539898Y-123706390D01*
X176536748Y-123714792D01*
X176536083Y-123723742D01*
X176533243Y-123761960D01*
X176532091Y-123771996D01*
X176530000Y-123785423D01*
X176530000Y-123800915D01*
X176529654Y-123810253D01*
X176525964Y-123859907D01*
X176527839Y-123868689D01*
X176528406Y-123877003D01*
X176530000Y-123892110D01*
X176530000Y-125731000D01*
X176509998Y-125799121D01*
X176456342Y-125845614D01*
X176404000Y-125857000D01*
X126833592Y-125857000D01*
X126765471Y-125836998D01*
X126718978Y-125783342D01*
X126708874Y-125713068D01*
X126738368Y-125648488D01*
X126747339Y-125639150D01*
X126820715Y-125570245D01*
X126820716Y-125570244D01*
X126823606Y-125567530D01*
X127027371Y-125321221D01*
X127036087Y-125307488D01*
X127196535Y-125054662D01*
X127196535Y-125054661D01*
X127198659Y-125051315D01*
X127200343Y-125047736D01*
X127200347Y-125047729D01*
X127333078Y-124765660D01*
X127333080Y-124765656D01*
X127334767Y-124762070D01*
X127337800Y-124752737D01*
X127432324Y-124461822D01*
X127433551Y-124458046D01*
X127493451Y-124144039D01*
X127500256Y-124035868D01*
X137565900Y-124035868D01*
X137580626Y-124209420D01*
X137581964Y-124214577D01*
X137581965Y-124214580D01*
X137614816Y-124341146D01*
X137639125Y-124434806D01*
X137641317Y-124439672D01*
X137641318Y-124439675D01*
X137649594Y-124458046D01*
X137734762Y-124647113D01*
X137864804Y-124840272D01*
X138025532Y-125008758D01*
X138212350Y-125147754D01*
X138217102Y-125150170D01*
X138414244Y-125250402D01*
X138419916Y-125253286D01*
X138531106Y-125287811D01*
X138637193Y-125320753D01*
X138637199Y-125320754D01*
X138642296Y-125322337D01*
X138766660Y-125338820D01*
X138867848Y-125352232D01*
X138867852Y-125352232D01*
X138873132Y-125352932D01*
X138878462Y-125352732D01*
X138878463Y-125352732D01*
X138989477Y-125348564D01*
X139105822Y-125344197D01*
X139210005Y-125322337D01*
X139328486Y-125297477D01*
X139328489Y-125297476D01*
X139333713Y-125296380D01*
X139550290Y-125210850D01*
X139749359Y-125090051D01*
X139753855Y-125086150D01*
X139921197Y-124940939D01*
X139921199Y-124940937D01*
X139925230Y-124937439D01*
X139928613Y-124933313D01*
X139928617Y-124933309D01*
X140027776Y-124812374D01*
X140072872Y-124757376D01*
X140075672Y-124752458D01*
X140098845Y-124711748D01*
X140149927Y-124662442D01*
X140219558Y-124648580D01*
X140285629Y-124674563D01*
X140312867Y-124703713D01*
X140404804Y-124840272D01*
X140565532Y-125008758D01*
X140752350Y-125147754D01*
X140757102Y-125150170D01*
X140954244Y-125250402D01*
X140959916Y-125253286D01*
X141071106Y-125287811D01*
X141177193Y-125320753D01*
X141177199Y-125320754D01*
X141182296Y-125322337D01*
X141306660Y-125338820D01*
X141407848Y-125352232D01*
X141407852Y-125352232D01*
X141413132Y-125352932D01*
X141418462Y-125352732D01*
X141418463Y-125352732D01*
X141529477Y-125348564D01*
X141645822Y-125344197D01*
X141750005Y-125322337D01*
X141868486Y-125297477D01*
X141868489Y-125297476D01*
X141873713Y-125296380D01*
X142090290Y-125210850D01*
X142289359Y-125090051D01*
X142293855Y-125086150D01*
X142461197Y-124940939D01*
X142461199Y-124940937D01*
X142465230Y-124937439D01*
X142468613Y-124933313D01*
X142468617Y-124933309D01*
X142567776Y-124812374D01*
X142612872Y-124757376D01*
X142615672Y-124752458D01*
X142638845Y-124711748D01*
X142689927Y-124662442D01*
X142759558Y-124648580D01*
X142825629Y-124674563D01*
X142852867Y-124703713D01*
X142944804Y-124840272D01*
X143105532Y-125008758D01*
X143292350Y-125147754D01*
X143297102Y-125150170D01*
X143494244Y-125250402D01*
X143499916Y-125253286D01*
X143611106Y-125287811D01*
X143717193Y-125320753D01*
X143717199Y-125320754D01*
X143722296Y-125322337D01*
X143846660Y-125338820D01*
X143947848Y-125352232D01*
X143947852Y-125352232D01*
X143953132Y-125352932D01*
X143958462Y-125352732D01*
X143958463Y-125352732D01*
X144069477Y-125348564D01*
X144185822Y-125344197D01*
X144290005Y-125322337D01*
X144408486Y-125297477D01*
X144408489Y-125297476D01*
X144413713Y-125296380D01*
X144630290Y-125210850D01*
X144829359Y-125090051D01*
X144833855Y-125086150D01*
X145001197Y-124940939D01*
X145001199Y-124940937D01*
X145005230Y-124937439D01*
X145008613Y-124933313D01*
X145008617Y-124933309D01*
X145107776Y-124812374D01*
X145152872Y-124757376D01*
X145155672Y-124752458D01*
X145178845Y-124711748D01*
X145229927Y-124662442D01*
X145299558Y-124648580D01*
X145365629Y-124674563D01*
X145392867Y-124703713D01*
X145484804Y-124840272D01*
X145645532Y-125008758D01*
X145832350Y-125147754D01*
X145837102Y-125150170D01*
X146034244Y-125250402D01*
X146039916Y-125253286D01*
X146151106Y-125287811D01*
X146257193Y-125320753D01*
X146257199Y-125320754D01*
X146262296Y-125322337D01*
X146386660Y-125338820D01*
X146487848Y-125352232D01*
X146487852Y-125352232D01*
X146493132Y-125352932D01*
X146498462Y-125352732D01*
X146498463Y-125352732D01*
X146609477Y-125348564D01*
X146725822Y-125344197D01*
X146830005Y-125322337D01*
X146948486Y-125297477D01*
X146948489Y-125297476D01*
X146953713Y-125296380D01*
X147170290Y-125210850D01*
X147369359Y-125090051D01*
X147373855Y-125086150D01*
X147541197Y-124940939D01*
X147541199Y-124940937D01*
X147545230Y-124937439D01*
X147548613Y-124933313D01*
X147548617Y-124933309D01*
X147647776Y-124812374D01*
X147692872Y-124757376D01*
X147695672Y-124752458D01*
X147718845Y-124711748D01*
X147769927Y-124662442D01*
X147839558Y-124648580D01*
X147905629Y-124674563D01*
X147932867Y-124703713D01*
X148024804Y-124840272D01*
X148185532Y-125008758D01*
X148372350Y-125147754D01*
X148377102Y-125150170D01*
X148574244Y-125250402D01*
X148579916Y-125253286D01*
X148691106Y-125287811D01*
X148797193Y-125320753D01*
X148797199Y-125320754D01*
X148802296Y-125322337D01*
X148926660Y-125338820D01*
X149027848Y-125352232D01*
X149027852Y-125352232D01*
X149033132Y-125352932D01*
X149038462Y-125352732D01*
X149038463Y-125352732D01*
X149149477Y-125348564D01*
X149265822Y-125344197D01*
X149370005Y-125322337D01*
X149488486Y-125297477D01*
X149488489Y-125297476D01*
X149493713Y-125296380D01*
X149710290Y-125210850D01*
X149909359Y-125090051D01*
X149913855Y-125086150D01*
X150081197Y-124940939D01*
X150081199Y-124940937D01*
X150085230Y-124937439D01*
X150088613Y-124933313D01*
X150088617Y-124933309D01*
X150187776Y-124812374D01*
X150232872Y-124757376D01*
X150259122Y-124711261D01*
X150310202Y-124661956D01*
X150379832Y-124648094D01*
X150445904Y-124674077D01*
X150473143Y-124703227D01*
X150562215Y-124835530D01*
X150568876Y-124843816D01*
X150722180Y-125004520D01*
X150730148Y-125011569D01*
X150908336Y-125144144D01*
X150917366Y-125149743D01*
X151115347Y-125250402D01*
X151125208Y-125254405D01*
X151337301Y-125320263D01*
X151347696Y-125322548D01*
X151366041Y-125324980D01*
X151380208Y-125322783D01*
X151384000Y-125309599D01*
X151384000Y-125307488D01*
X151892000Y-125307488D01*
X151895973Y-125321019D01*
X151906580Y-125322544D01*
X152028343Y-125296996D01*
X152038539Y-125293936D01*
X152245097Y-125212363D01*
X152254634Y-125207629D01*
X152444503Y-125092414D01*
X152453093Y-125086150D01*
X152620837Y-124940589D01*
X152628257Y-124932959D01*
X152769073Y-124761220D01*
X152775095Y-124752458D01*
X152798810Y-124710798D01*
X152849893Y-124661492D01*
X152919524Y-124647631D01*
X152985594Y-124673615D01*
X153012832Y-124702764D01*
X153102215Y-124835531D01*
X153108876Y-124843816D01*
X153262180Y-125004520D01*
X153270148Y-125011569D01*
X153448336Y-125144144D01*
X153457366Y-125149743D01*
X153655347Y-125250402D01*
X153665208Y-125254405D01*
X153877301Y-125320263D01*
X153887696Y-125322548D01*
X153906041Y-125324980D01*
X153920208Y-125322783D01*
X153924000Y-125309599D01*
X153924000Y-125307488D01*
X154432000Y-125307488D01*
X154435973Y-125321019D01*
X154446580Y-125322544D01*
X154568343Y-125296996D01*
X154578539Y-125293936D01*
X154785097Y-125212363D01*
X154794634Y-125207629D01*
X154984503Y-125092414D01*
X154993093Y-125086150D01*
X155160837Y-124940589D01*
X155168257Y-124932959D01*
X155309073Y-124761220D01*
X155315102Y-124752449D01*
X155338533Y-124711285D01*
X155389615Y-124661978D01*
X155459245Y-124648116D01*
X155525316Y-124674099D01*
X155552555Y-124703249D01*
X155644804Y-124840272D01*
X155805532Y-125008758D01*
X155992350Y-125147754D01*
X155997102Y-125150170D01*
X156194244Y-125250402D01*
X156199916Y-125253286D01*
X156311106Y-125287811D01*
X156417193Y-125320753D01*
X156417199Y-125320754D01*
X156422296Y-125322337D01*
X156546660Y-125338820D01*
X156647848Y-125352232D01*
X156647852Y-125352232D01*
X156653132Y-125352932D01*
X156658462Y-125352732D01*
X156658463Y-125352732D01*
X156769477Y-125348564D01*
X156885822Y-125344197D01*
X156990005Y-125322337D01*
X157108486Y-125297477D01*
X157108489Y-125297476D01*
X157113713Y-125296380D01*
X157330290Y-125210850D01*
X157529359Y-125090051D01*
X157533855Y-125086150D01*
X157701197Y-124940939D01*
X157701199Y-124940937D01*
X157705230Y-124937439D01*
X157708613Y-124933313D01*
X157708617Y-124933309D01*
X157807776Y-124812374D01*
X157852872Y-124757376D01*
X157855672Y-124752458D01*
X157965422Y-124559654D01*
X157968065Y-124555011D01*
X157988239Y-124499435D01*
X158045695Y-124341146D01*
X158045696Y-124341142D01*
X158047515Y-124336131D01*
X158088950Y-124106993D01*
X158089632Y-124092548D01*
X158090030Y-124084095D01*
X158090030Y-124084086D01*
X158090100Y-124082606D01*
X158090100Y-124035868D01*
X160425900Y-124035868D01*
X160440626Y-124209420D01*
X160441964Y-124214577D01*
X160441965Y-124214580D01*
X160474816Y-124341146D01*
X160499125Y-124434806D01*
X160501317Y-124439672D01*
X160501318Y-124439675D01*
X160509594Y-124458046D01*
X160594762Y-124647113D01*
X160724804Y-124840272D01*
X160885532Y-125008758D01*
X161072350Y-125147754D01*
X161077102Y-125150170D01*
X161274244Y-125250402D01*
X161279916Y-125253286D01*
X161391106Y-125287811D01*
X161497193Y-125320753D01*
X161497199Y-125320754D01*
X161502296Y-125322337D01*
X161626660Y-125338820D01*
X161727848Y-125352232D01*
X161727852Y-125352232D01*
X161733132Y-125352932D01*
X161738462Y-125352732D01*
X161738463Y-125352732D01*
X161849477Y-125348564D01*
X161965822Y-125344197D01*
X162070005Y-125322337D01*
X162188486Y-125297477D01*
X162188489Y-125297476D01*
X162193713Y-125296380D01*
X162410290Y-125210850D01*
X162609359Y-125090051D01*
X162613855Y-125086150D01*
X162781197Y-124940939D01*
X162781199Y-124940937D01*
X162785230Y-124937439D01*
X162788613Y-124933313D01*
X162788617Y-124933309D01*
X162887776Y-124812374D01*
X162932872Y-124757376D01*
X162935672Y-124752458D01*
X162958845Y-124711748D01*
X163009927Y-124662442D01*
X163079558Y-124648580D01*
X163145629Y-124674563D01*
X163172867Y-124703713D01*
X163264804Y-124840272D01*
X163425532Y-125008758D01*
X163612350Y-125147754D01*
X163617102Y-125150170D01*
X163814244Y-125250402D01*
X163819916Y-125253286D01*
X163931106Y-125287811D01*
X164037193Y-125320753D01*
X164037199Y-125320754D01*
X164042296Y-125322337D01*
X164166660Y-125338820D01*
X164267848Y-125352232D01*
X164267852Y-125352232D01*
X164273132Y-125352932D01*
X164278462Y-125352732D01*
X164278463Y-125352732D01*
X164389477Y-125348564D01*
X164505822Y-125344197D01*
X164610005Y-125322337D01*
X164728486Y-125297477D01*
X164728489Y-125297476D01*
X164733713Y-125296380D01*
X164950290Y-125210850D01*
X165149359Y-125090051D01*
X165153855Y-125086150D01*
X165321197Y-124940939D01*
X165321199Y-124940937D01*
X165325230Y-124937439D01*
X165328613Y-124933313D01*
X165328617Y-124933309D01*
X165427776Y-124812374D01*
X165472872Y-124757376D01*
X165475672Y-124752458D01*
X165498845Y-124711748D01*
X165549927Y-124662442D01*
X165619558Y-124648580D01*
X165685629Y-124674563D01*
X165712867Y-124703713D01*
X165804804Y-124840272D01*
X165965532Y-125008758D01*
X166152350Y-125147754D01*
X166157102Y-125150170D01*
X166354244Y-125250402D01*
X166359916Y-125253286D01*
X166471106Y-125287811D01*
X166577193Y-125320753D01*
X166577199Y-125320754D01*
X166582296Y-125322337D01*
X166706660Y-125338820D01*
X166807848Y-125352232D01*
X166807852Y-125352232D01*
X166813132Y-125352932D01*
X166818462Y-125352732D01*
X166818463Y-125352732D01*
X166929477Y-125348564D01*
X167045822Y-125344197D01*
X167150005Y-125322337D01*
X167268486Y-125297477D01*
X167268489Y-125297476D01*
X167273713Y-125296380D01*
X167490290Y-125210850D01*
X167689359Y-125090051D01*
X167693855Y-125086150D01*
X167861197Y-124940939D01*
X167861199Y-124940937D01*
X167865230Y-124937439D01*
X167868613Y-124933313D01*
X167868617Y-124933309D01*
X167967776Y-124812374D01*
X168012872Y-124757376D01*
X168015672Y-124752458D01*
X168038845Y-124711748D01*
X168089927Y-124662442D01*
X168159558Y-124648580D01*
X168225629Y-124674563D01*
X168252867Y-124703713D01*
X168344804Y-124840272D01*
X168505532Y-125008758D01*
X168692350Y-125147754D01*
X168697102Y-125150170D01*
X168894244Y-125250402D01*
X168899916Y-125253286D01*
X169011106Y-125287811D01*
X169117193Y-125320753D01*
X169117199Y-125320754D01*
X169122296Y-125322337D01*
X169246660Y-125338820D01*
X169347848Y-125352232D01*
X169347852Y-125352232D01*
X169353132Y-125352932D01*
X169358462Y-125352732D01*
X169358463Y-125352732D01*
X169469477Y-125348564D01*
X169585822Y-125344197D01*
X169690005Y-125322337D01*
X169808486Y-125297477D01*
X169808489Y-125297476D01*
X169813713Y-125296380D01*
X170030290Y-125210850D01*
X170229359Y-125090051D01*
X170233855Y-125086150D01*
X170401197Y-124940939D01*
X170401199Y-124940937D01*
X170405230Y-124937439D01*
X170408613Y-124933313D01*
X170408617Y-124933309D01*
X170507776Y-124812374D01*
X170552872Y-124757376D01*
X170555672Y-124752458D01*
X170578845Y-124711748D01*
X170629927Y-124662442D01*
X170699558Y-124648580D01*
X170765629Y-124674563D01*
X170792867Y-124703713D01*
X170884804Y-124840272D01*
X171045532Y-125008758D01*
X171232350Y-125147754D01*
X171237102Y-125150170D01*
X171434244Y-125250402D01*
X171439916Y-125253286D01*
X171551106Y-125287811D01*
X171657193Y-125320753D01*
X171657199Y-125320754D01*
X171662296Y-125322337D01*
X171786660Y-125338820D01*
X171887848Y-125352232D01*
X171887852Y-125352232D01*
X171893132Y-125352932D01*
X171898462Y-125352732D01*
X171898463Y-125352732D01*
X172009477Y-125348564D01*
X172125822Y-125344197D01*
X172230005Y-125322337D01*
X172348486Y-125297477D01*
X172348489Y-125297476D01*
X172353713Y-125296380D01*
X172570290Y-125210850D01*
X172769359Y-125090051D01*
X172773855Y-125086150D01*
X172941197Y-124940939D01*
X172941199Y-124940937D01*
X172945230Y-124937439D01*
X172948613Y-124933313D01*
X172948617Y-124933309D01*
X173047776Y-124812374D01*
X173092872Y-124757376D01*
X173095672Y-124752458D01*
X173118845Y-124711748D01*
X173169927Y-124662442D01*
X173239558Y-124648580D01*
X173305629Y-124674563D01*
X173332867Y-124703713D01*
X173424804Y-124840272D01*
X173585532Y-125008758D01*
X173772350Y-125147754D01*
X173777102Y-125150170D01*
X173974244Y-125250402D01*
X173979916Y-125253286D01*
X174091106Y-125287811D01*
X174197193Y-125320753D01*
X174197199Y-125320754D01*
X174202296Y-125322337D01*
X174326660Y-125338820D01*
X174427848Y-125352232D01*
X174427852Y-125352232D01*
X174433132Y-125352932D01*
X174438462Y-125352732D01*
X174438463Y-125352732D01*
X174549477Y-125348564D01*
X174665822Y-125344197D01*
X174770005Y-125322337D01*
X174888486Y-125297477D01*
X174888489Y-125297476D01*
X174893713Y-125296380D01*
X175110290Y-125210850D01*
X175309359Y-125090051D01*
X175313855Y-125086150D01*
X175481197Y-124940939D01*
X175481199Y-124940937D01*
X175485230Y-124937439D01*
X175488613Y-124933313D01*
X175488617Y-124933309D01*
X175587776Y-124812374D01*
X175632872Y-124757376D01*
X175635672Y-124752458D01*
X175745422Y-124559654D01*
X175748065Y-124555011D01*
X175768239Y-124499435D01*
X175825695Y-124341146D01*
X175825696Y-124341142D01*
X175827515Y-124336131D01*
X175868950Y-124106993D01*
X175869632Y-124092548D01*
X175870030Y-124084095D01*
X175870030Y-124084086D01*
X175870100Y-124082606D01*
X175870100Y-123614132D01*
X175859702Y-123491583D01*
X175855825Y-123445891D01*
X175855824Y-123445887D01*
X175855374Y-123440580D01*
X175853708Y-123434160D01*
X175798217Y-123220363D01*
X175798216Y-123220359D01*
X175796875Y-123215194D01*
X175788164Y-123195855D01*
X175703433Y-123007760D01*
X175701238Y-123002887D01*
X175571196Y-122809728D01*
X175410468Y-122641242D01*
X175223650Y-122502246D01*
X175096574Y-122437637D01*
X175020842Y-122399133D01*
X175020841Y-122399133D01*
X175016084Y-122396714D01*
X174877299Y-122353620D01*
X174798807Y-122329247D01*
X174798801Y-122329246D01*
X174793704Y-122327663D01*
X174669340Y-122311180D01*
X174568152Y-122297768D01*
X174568148Y-122297768D01*
X174562868Y-122297068D01*
X174557538Y-122297268D01*
X174557537Y-122297268D01*
X174446523Y-122301435D01*
X174330178Y-122305803D01*
X174247474Y-122323156D01*
X174107514Y-122352523D01*
X174107511Y-122352524D01*
X174102287Y-122353620D01*
X173885710Y-122439150D01*
X173686641Y-122559949D01*
X173682611Y-122563446D01*
X173588075Y-122645480D01*
X173510770Y-122712561D01*
X173507387Y-122716687D01*
X173507383Y-122716691D01*
X173434262Y-122805869D01*
X173363128Y-122892624D01*
X173360490Y-122897259D01*
X173360487Y-122897263D01*
X173337155Y-122938252D01*
X173286073Y-122987558D01*
X173216442Y-123001420D01*
X173150371Y-122975437D01*
X173123133Y-122946287D01*
X173034388Y-122814470D01*
X173031196Y-122809728D01*
X172870468Y-122641242D01*
X172683650Y-122502246D01*
X172556574Y-122437637D01*
X172480842Y-122399133D01*
X172480841Y-122399133D01*
X172476084Y-122396714D01*
X172337299Y-122353620D01*
X172258807Y-122329247D01*
X172258801Y-122329246D01*
X172253704Y-122327663D01*
X172129340Y-122311180D01*
X172028152Y-122297768D01*
X172028148Y-122297768D01*
X172022868Y-122297068D01*
X172017538Y-122297268D01*
X172017537Y-122297268D01*
X171906523Y-122301435D01*
X171790178Y-122305803D01*
X171707474Y-122323156D01*
X171567514Y-122352523D01*
X171567511Y-122352524D01*
X171562287Y-122353620D01*
X171345710Y-122439150D01*
X171146641Y-122559949D01*
X171142611Y-122563446D01*
X171048075Y-122645480D01*
X170970770Y-122712561D01*
X170967387Y-122716687D01*
X170967383Y-122716691D01*
X170894262Y-122805869D01*
X170823128Y-122892624D01*
X170820490Y-122897259D01*
X170820487Y-122897263D01*
X170797155Y-122938252D01*
X170746073Y-122987558D01*
X170676442Y-123001420D01*
X170610371Y-122975437D01*
X170583133Y-122946287D01*
X170494388Y-122814470D01*
X170491196Y-122809728D01*
X170330468Y-122641242D01*
X170143650Y-122502246D01*
X170016574Y-122437637D01*
X169940842Y-122399133D01*
X169940841Y-122399133D01*
X169936084Y-122396714D01*
X169797299Y-122353620D01*
X169718807Y-122329247D01*
X169718801Y-122329246D01*
X169713704Y-122327663D01*
X169589340Y-122311180D01*
X169488152Y-122297768D01*
X169488148Y-122297768D01*
X169482868Y-122297068D01*
X169477538Y-122297268D01*
X169477537Y-122297268D01*
X169366523Y-122301435D01*
X169250178Y-122305803D01*
X169167474Y-122323156D01*
X169027514Y-122352523D01*
X169027511Y-122352524D01*
X169022287Y-122353620D01*
X168805710Y-122439150D01*
X168606641Y-122559949D01*
X168602611Y-122563446D01*
X168508075Y-122645480D01*
X168430770Y-122712561D01*
X168427387Y-122716687D01*
X168427383Y-122716691D01*
X168354262Y-122805869D01*
X168283128Y-122892624D01*
X168280490Y-122897259D01*
X168280487Y-122897263D01*
X168257155Y-122938252D01*
X168206073Y-122987558D01*
X168136442Y-123001420D01*
X168070371Y-122975437D01*
X168043133Y-122946287D01*
X167954388Y-122814470D01*
X167951196Y-122809728D01*
X167790468Y-122641242D01*
X167603650Y-122502246D01*
X167476574Y-122437637D01*
X167400842Y-122399133D01*
X167400841Y-122399133D01*
X167396084Y-122396714D01*
X167257299Y-122353620D01*
X167178807Y-122329247D01*
X167178801Y-122329246D01*
X167173704Y-122327663D01*
X167049340Y-122311180D01*
X166948152Y-122297768D01*
X166948148Y-122297768D01*
X166942868Y-122297068D01*
X166937538Y-122297268D01*
X166937537Y-122297268D01*
X166826523Y-122301435D01*
X166710178Y-122305803D01*
X166627474Y-122323156D01*
X166487514Y-122352523D01*
X166487511Y-122352524D01*
X166482287Y-122353620D01*
X166265710Y-122439150D01*
X166066641Y-122559949D01*
X166062611Y-122563446D01*
X165968075Y-122645480D01*
X165890770Y-122712561D01*
X165887387Y-122716687D01*
X165887383Y-122716691D01*
X165814262Y-122805869D01*
X165743128Y-122892624D01*
X165740490Y-122897259D01*
X165740487Y-122897263D01*
X165717155Y-122938252D01*
X165666073Y-122987558D01*
X165596442Y-123001420D01*
X165530371Y-122975437D01*
X165503133Y-122946287D01*
X165414388Y-122814470D01*
X165411196Y-122809728D01*
X165250468Y-122641242D01*
X165063650Y-122502246D01*
X164936574Y-122437637D01*
X164860842Y-122399133D01*
X164860841Y-122399133D01*
X164856084Y-122396714D01*
X164717299Y-122353620D01*
X164638807Y-122329247D01*
X164638801Y-122329246D01*
X164633704Y-122327663D01*
X164509340Y-122311180D01*
X164408152Y-122297768D01*
X164408148Y-122297768D01*
X164402868Y-122297068D01*
X164397538Y-122297268D01*
X164397537Y-122297268D01*
X164286523Y-122301435D01*
X164170178Y-122305803D01*
X164087474Y-122323156D01*
X163947514Y-122352523D01*
X163947511Y-122352524D01*
X163942287Y-122353620D01*
X163725710Y-122439150D01*
X163526641Y-122559949D01*
X163522611Y-122563446D01*
X163428075Y-122645480D01*
X163350770Y-122712561D01*
X163347387Y-122716687D01*
X163347383Y-122716691D01*
X163274262Y-122805869D01*
X163203128Y-122892624D01*
X163200490Y-122897259D01*
X163200487Y-122897263D01*
X163177155Y-122938252D01*
X163126073Y-122987558D01*
X163056442Y-123001420D01*
X162990371Y-122975437D01*
X162963133Y-122946287D01*
X162874388Y-122814470D01*
X162871196Y-122809728D01*
X162710468Y-122641242D01*
X162523650Y-122502246D01*
X162396574Y-122437637D01*
X162320842Y-122399133D01*
X162320841Y-122399133D01*
X162316084Y-122396714D01*
X162177299Y-122353620D01*
X162098807Y-122329247D01*
X162098801Y-122329246D01*
X162093704Y-122327663D01*
X161969340Y-122311180D01*
X161868152Y-122297768D01*
X161868148Y-122297768D01*
X161862868Y-122297068D01*
X161857538Y-122297268D01*
X161857537Y-122297268D01*
X161746523Y-122301435D01*
X161630178Y-122305803D01*
X161547474Y-122323156D01*
X161407514Y-122352523D01*
X161407511Y-122352524D01*
X161402287Y-122353620D01*
X161185710Y-122439150D01*
X160986641Y-122559949D01*
X160982611Y-122563446D01*
X160888075Y-122645480D01*
X160810770Y-122712561D01*
X160807387Y-122716687D01*
X160807383Y-122716691D01*
X160734262Y-122805869D01*
X160663128Y-122892624D01*
X160660490Y-122897259D01*
X160660487Y-122897263D01*
X160597589Y-123007760D01*
X160547935Y-123094989D01*
X160546114Y-123100005D01*
X160546112Y-123100010D01*
X160504302Y-123215194D01*
X160468485Y-123313869D01*
X160427050Y-123543007D01*
X160426855Y-123547146D01*
X160426854Y-123547153D01*
X160425970Y-123565905D01*
X160425900Y-123567394D01*
X160425900Y-124035868D01*
X158090100Y-124035868D01*
X158090100Y-123614132D01*
X158079702Y-123491583D01*
X158075825Y-123445891D01*
X158075824Y-123445887D01*
X158075374Y-123440580D01*
X158073708Y-123434160D01*
X158018217Y-123220363D01*
X158018216Y-123220359D01*
X158016875Y-123215194D01*
X158008164Y-123195855D01*
X157923433Y-123007760D01*
X157921238Y-123002887D01*
X157791196Y-122809728D01*
X157630468Y-122641242D01*
X157443650Y-122502246D01*
X157316574Y-122437637D01*
X157240842Y-122399133D01*
X157240841Y-122399133D01*
X157236084Y-122396714D01*
X157097299Y-122353620D01*
X157018807Y-122329247D01*
X157018801Y-122329246D01*
X157013704Y-122327663D01*
X156889340Y-122311180D01*
X156788152Y-122297768D01*
X156788148Y-122297768D01*
X156782868Y-122297068D01*
X156777538Y-122297268D01*
X156777537Y-122297268D01*
X156666523Y-122301435D01*
X156550178Y-122305803D01*
X156467474Y-122323156D01*
X156327514Y-122352523D01*
X156327511Y-122352524D01*
X156322287Y-122353620D01*
X156105710Y-122439150D01*
X155906641Y-122559949D01*
X155902611Y-122563446D01*
X155808075Y-122645480D01*
X155730770Y-122712561D01*
X155727387Y-122716687D01*
X155727383Y-122716691D01*
X155654262Y-122805869D01*
X155583128Y-122892624D01*
X155556878Y-122938739D01*
X155505798Y-122988044D01*
X155436168Y-123001906D01*
X155370096Y-122975923D01*
X155342857Y-122946773D01*
X155253785Y-122814470D01*
X155247124Y-122806184D01*
X155093820Y-122645480D01*
X155085852Y-122638431D01*
X154907664Y-122505856D01*
X154898634Y-122500257D01*
X154700653Y-122399598D01*
X154690792Y-122395595D01*
X154478699Y-122329737D01*
X154468304Y-122327452D01*
X154449959Y-122325020D01*
X154435792Y-122327217D01*
X154432000Y-122340401D01*
X154432000Y-125307488D01*
X153924000Y-125307488D01*
X153924000Y-124097115D01*
X153919525Y-124081876D01*
X153918135Y-124080671D01*
X153910452Y-124079000D01*
X151910115Y-124079000D01*
X151894876Y-124083475D01*
X151893671Y-124084865D01*
X151892000Y-124092548D01*
X151892000Y-125307488D01*
X151384000Y-125307488D01*
X151384000Y-123552885D01*
X151892000Y-123552885D01*
X151896475Y-123568124D01*
X151897865Y-123569329D01*
X151905548Y-123571000D01*
X153905885Y-123571000D01*
X153921124Y-123566525D01*
X153922329Y-123565135D01*
X153924000Y-123557452D01*
X153924000Y-122342512D01*
X153920027Y-122328981D01*
X153909420Y-122327456D01*
X153787657Y-122353004D01*
X153777461Y-122356064D01*
X153570903Y-122437637D01*
X153561366Y-122442371D01*
X153371497Y-122557586D01*
X153362907Y-122563850D01*
X153195163Y-122709411D01*
X153187743Y-122717041D01*
X153046927Y-122888780D01*
X153040905Y-122897542D01*
X153017190Y-122939202D01*
X152966107Y-122988508D01*
X152896476Y-123002369D01*
X152830406Y-122976385D01*
X152803168Y-122947236D01*
X152713785Y-122814469D01*
X152707124Y-122806184D01*
X152553820Y-122645480D01*
X152545852Y-122638431D01*
X152367664Y-122505856D01*
X152358634Y-122500257D01*
X152160653Y-122399598D01*
X152150792Y-122395595D01*
X151938699Y-122329737D01*
X151928304Y-122327452D01*
X151909959Y-122325020D01*
X151895792Y-122327217D01*
X151892000Y-122340401D01*
X151892000Y-123552885D01*
X151384000Y-123552885D01*
X151384000Y-122342512D01*
X151380027Y-122328981D01*
X151369420Y-122327456D01*
X151247657Y-122353004D01*
X151237461Y-122356064D01*
X151030903Y-122437637D01*
X151021366Y-122442371D01*
X150831497Y-122557586D01*
X150822907Y-122563850D01*
X150655163Y-122709411D01*
X150647743Y-122717041D01*
X150506927Y-122888780D01*
X150500898Y-122897551D01*
X150477467Y-122938715D01*
X150426385Y-122988022D01*
X150356755Y-123001884D01*
X150290684Y-122975901D01*
X150263445Y-122946751D01*
X150227005Y-122892624D01*
X150171196Y-122809728D01*
X150010468Y-122641242D01*
X149823650Y-122502246D01*
X149696574Y-122437637D01*
X149620842Y-122399133D01*
X149620841Y-122399133D01*
X149616084Y-122396714D01*
X149477299Y-122353620D01*
X149398807Y-122329247D01*
X149398801Y-122329246D01*
X149393704Y-122327663D01*
X149269340Y-122311180D01*
X149168152Y-122297768D01*
X149168148Y-122297768D01*
X149162868Y-122297068D01*
X149157538Y-122297268D01*
X149157537Y-122297268D01*
X149046523Y-122301435D01*
X148930178Y-122305803D01*
X148847474Y-122323156D01*
X148707514Y-122352523D01*
X148707511Y-122352524D01*
X148702287Y-122353620D01*
X148485710Y-122439150D01*
X148286641Y-122559949D01*
X148282611Y-122563446D01*
X148188075Y-122645480D01*
X148110770Y-122712561D01*
X148107387Y-122716687D01*
X148107383Y-122716691D01*
X148034262Y-122805869D01*
X147963128Y-122892624D01*
X147960490Y-122897259D01*
X147960487Y-122897263D01*
X147937155Y-122938252D01*
X147886073Y-122987558D01*
X147816442Y-123001420D01*
X147750371Y-122975437D01*
X147723133Y-122946287D01*
X147634388Y-122814470D01*
X147631196Y-122809728D01*
X147470468Y-122641242D01*
X147283650Y-122502246D01*
X147156574Y-122437637D01*
X147080842Y-122399133D01*
X147080841Y-122399133D01*
X147076084Y-122396714D01*
X146937299Y-122353620D01*
X146858807Y-122329247D01*
X146858801Y-122329246D01*
X146853704Y-122327663D01*
X146729340Y-122311180D01*
X146628152Y-122297768D01*
X146628148Y-122297768D01*
X146622868Y-122297068D01*
X146617538Y-122297268D01*
X146617537Y-122297268D01*
X146506523Y-122301435D01*
X146390178Y-122305803D01*
X146307474Y-122323156D01*
X146167514Y-122352523D01*
X146167511Y-122352524D01*
X146162287Y-122353620D01*
X145945710Y-122439150D01*
X145746641Y-122559949D01*
X145742611Y-122563446D01*
X145648075Y-122645480D01*
X145570770Y-122712561D01*
X145567387Y-122716687D01*
X145567383Y-122716691D01*
X145494262Y-122805869D01*
X145423128Y-122892624D01*
X145420490Y-122897259D01*
X145420487Y-122897263D01*
X145397155Y-122938252D01*
X145346073Y-122987558D01*
X145276442Y-123001420D01*
X145210371Y-122975437D01*
X145183133Y-122946287D01*
X145094388Y-122814470D01*
X145091196Y-122809728D01*
X144930468Y-122641242D01*
X144743650Y-122502246D01*
X144616574Y-122437637D01*
X144540842Y-122399133D01*
X144540841Y-122399133D01*
X144536084Y-122396714D01*
X144397299Y-122353620D01*
X144318807Y-122329247D01*
X144318801Y-122329246D01*
X144313704Y-122327663D01*
X144189340Y-122311180D01*
X144088152Y-122297768D01*
X144088148Y-122297768D01*
X144082868Y-122297068D01*
X144077538Y-122297268D01*
X144077537Y-122297268D01*
X143966523Y-122301435D01*
X143850178Y-122305803D01*
X143767474Y-122323156D01*
X143627514Y-122352523D01*
X143627511Y-122352524D01*
X143622287Y-122353620D01*
X143405710Y-122439150D01*
X143206641Y-122559949D01*
X143202611Y-122563446D01*
X143108075Y-122645480D01*
X143030770Y-122712561D01*
X143027387Y-122716687D01*
X143027383Y-122716691D01*
X142954262Y-122805869D01*
X142883128Y-122892624D01*
X142880490Y-122897259D01*
X142880487Y-122897263D01*
X142857155Y-122938252D01*
X142806073Y-122987558D01*
X142736442Y-123001420D01*
X142670371Y-122975437D01*
X142643133Y-122946287D01*
X142554388Y-122814470D01*
X142551196Y-122809728D01*
X142390468Y-122641242D01*
X142203650Y-122502246D01*
X142076574Y-122437637D01*
X142000842Y-122399133D01*
X142000841Y-122399133D01*
X141996084Y-122396714D01*
X141857299Y-122353620D01*
X141778807Y-122329247D01*
X141778801Y-122329246D01*
X141773704Y-122327663D01*
X141649340Y-122311180D01*
X141548152Y-122297768D01*
X141548148Y-122297768D01*
X141542868Y-122297068D01*
X141537538Y-122297268D01*
X141537537Y-122297268D01*
X141426523Y-122301435D01*
X141310178Y-122305803D01*
X141227474Y-122323156D01*
X141087514Y-122352523D01*
X141087511Y-122352524D01*
X141082287Y-122353620D01*
X140865710Y-122439150D01*
X140666641Y-122559949D01*
X140662611Y-122563446D01*
X140568075Y-122645480D01*
X140490770Y-122712561D01*
X140487387Y-122716687D01*
X140487383Y-122716691D01*
X140414262Y-122805869D01*
X140343128Y-122892624D01*
X140340490Y-122897259D01*
X140340487Y-122897263D01*
X140317155Y-122938252D01*
X140266073Y-122987558D01*
X140196442Y-123001420D01*
X140130371Y-122975437D01*
X140103133Y-122946287D01*
X140014388Y-122814470D01*
X140011196Y-122809728D01*
X139850468Y-122641242D01*
X139663650Y-122502246D01*
X139536574Y-122437637D01*
X139460842Y-122399133D01*
X139460841Y-122399133D01*
X139456084Y-122396714D01*
X139317299Y-122353620D01*
X139238807Y-122329247D01*
X139238801Y-122329246D01*
X139233704Y-122327663D01*
X139109340Y-122311180D01*
X139008152Y-122297768D01*
X139008148Y-122297768D01*
X139002868Y-122297068D01*
X138997538Y-122297268D01*
X138997537Y-122297268D01*
X138886523Y-122301435D01*
X138770178Y-122305803D01*
X138687474Y-122323156D01*
X138547514Y-122352523D01*
X138547511Y-122352524D01*
X138542287Y-122353620D01*
X138325710Y-122439150D01*
X138126641Y-122559949D01*
X138122611Y-122563446D01*
X138028075Y-122645480D01*
X137950770Y-122712561D01*
X137947387Y-122716687D01*
X137947383Y-122716691D01*
X137874262Y-122805869D01*
X137803128Y-122892624D01*
X137800490Y-122897259D01*
X137800487Y-122897263D01*
X137737589Y-123007760D01*
X137687935Y-123094989D01*
X137686114Y-123100005D01*
X137686112Y-123100010D01*
X137644302Y-123215194D01*
X137608485Y-123313869D01*
X137567050Y-123543007D01*
X137566855Y-123547146D01*
X137566854Y-123547153D01*
X137565970Y-123565905D01*
X137565900Y-123567394D01*
X137565900Y-124035868D01*
X127500256Y-124035868D01*
X127513523Y-123825000D01*
X127493451Y-123505961D01*
X127433551Y-123191954D01*
X127337890Y-122897542D01*
X127335993Y-122891703D01*
X127335993Y-122891702D01*
X127334767Y-122887930D01*
X127333078Y-122884340D01*
X127200347Y-122602271D01*
X127200343Y-122602264D01*
X127198659Y-122598685D01*
X127096170Y-122437188D01*
X127029498Y-122332130D01*
X127029495Y-122332126D01*
X127027371Y-122328779D01*
X126823606Y-122082470D01*
X126590577Y-121863641D01*
X126331959Y-121675744D01*
X126328487Y-121673835D01*
X126055293Y-121523645D01*
X126055290Y-121523643D01*
X126051831Y-121521742D01*
X125832877Y-121435052D01*
X125758293Y-121405522D01*
X125758290Y-121405521D01*
X125754610Y-121404064D01*
X125750776Y-121403080D01*
X125750768Y-121403077D01*
X125558847Y-121353800D01*
X125444983Y-121324565D01*
X125441055Y-121324069D01*
X125441051Y-121324068D01*
X125285344Y-121304398D01*
X125127835Y-121284500D01*
X124808165Y-121284500D01*
X124650656Y-121304398D01*
X124494949Y-121324068D01*
X124494945Y-121324069D01*
X124491017Y-121324565D01*
X124377153Y-121353800D01*
X124185232Y-121403077D01*
X124185224Y-121403080D01*
X124181390Y-121404064D01*
X124177710Y-121405521D01*
X124177707Y-121405522D01*
X124103123Y-121435052D01*
X123884169Y-121521742D01*
X123880710Y-121523643D01*
X123880707Y-121523645D01*
X123607513Y-121673835D01*
X123604041Y-121675744D01*
X123345423Y-121863641D01*
X123112394Y-122082470D01*
X122908629Y-122328779D01*
X122906505Y-122332126D01*
X122906502Y-122332130D01*
X122839830Y-122437188D01*
X122737341Y-122598685D01*
X122735657Y-122602264D01*
X122735653Y-122602271D01*
X122602922Y-122884340D01*
X122601233Y-122887930D01*
X122600007Y-122891702D01*
X122600007Y-122891703D01*
X122598110Y-122897542D01*
X122502449Y-123191954D01*
X122442549Y-123505961D01*
X122422477Y-123825000D01*
X122442549Y-124144039D01*
X122502449Y-124458046D01*
X122503676Y-124461822D01*
X122598201Y-124752737D01*
X122601233Y-124762070D01*
X122602920Y-124765656D01*
X122602922Y-124765660D01*
X122735653Y-125047729D01*
X122735657Y-125047736D01*
X122737341Y-125051315D01*
X122739465Y-125054661D01*
X122739465Y-125054662D01*
X122899914Y-125307488D01*
X122908629Y-125321221D01*
X123112394Y-125567530D01*
X123115284Y-125570244D01*
X123115285Y-125570245D01*
X123188661Y-125639150D01*
X123224627Y-125700363D01*
X123221788Y-125771303D01*
X123181048Y-125829447D01*
X123115340Y-125856335D01*
X123102408Y-125857000D01*
X111632000Y-125857000D01*
X111563879Y-125836998D01*
X111517386Y-125783342D01*
X111506000Y-125731000D01*
X111506000Y-116690859D01*
X150577132Y-116690859D01*
X150590457Y-116894151D01*
X150640605Y-117091610D01*
X150725898Y-117276624D01*
X150843479Y-117442997D01*
X150989410Y-117585157D01*
X150994206Y-117588362D01*
X150994209Y-117588364D01*
X151119227Y-117671898D01*
X151158803Y-117698342D01*
X151164106Y-117700620D01*
X151164109Y-117700622D01*
X151340680Y-117776483D01*
X151345987Y-117778763D01*
X151418817Y-117795243D01*
X151539055Y-117822450D01*
X151539060Y-117822451D01*
X151544692Y-117823725D01*
X151550463Y-117823952D01*
X151550465Y-117823952D01*
X151613470Y-117826427D01*
X151748263Y-117831723D01*
X151949883Y-117802490D01*
X151955347Y-117800635D01*
X151955352Y-117800634D01*
X152137327Y-117738862D01*
X152137332Y-117738860D01*
X152142799Y-117737004D01*
X152148653Y-117733726D01*
X152259054Y-117671898D01*
X152277989Y-117661294D01*
X153613066Y-117661294D01*
X153622948Y-117673783D01*
X153654239Y-117694691D01*
X153664349Y-117700181D01*
X153840835Y-117776005D01*
X153851778Y-117779560D01*
X154039120Y-117821952D01*
X154050530Y-117823454D01*
X154242469Y-117830995D01*
X154253951Y-117830393D01*
X154444045Y-117802832D01*
X154455240Y-117800144D01*
X154637131Y-117738400D01*
X154647628Y-117733726D01*
X154758032Y-117671898D01*
X154767895Y-117661821D01*
X154764940Y-117654151D01*
X154202811Y-117092021D01*
X154188868Y-117084408D01*
X154187034Y-117084539D01*
X154180420Y-117088790D01*
X153619259Y-117649952D01*
X153613066Y-117661294D01*
X152277989Y-117661294D01*
X152320551Y-117637458D01*
X152477186Y-117507186D01*
X152607458Y-117350551D01*
X152707004Y-117172799D01*
X152708860Y-117167332D01*
X152708862Y-117167327D01*
X152770634Y-116985352D01*
X152770635Y-116985347D01*
X152772490Y-116979883D01*
X152801723Y-116778263D01*
X152803249Y-116720000D01*
X152801102Y-116696638D01*
X153078012Y-116696638D01*
X153090575Y-116888304D01*
X153092376Y-116899674D01*
X153139657Y-117085843D01*
X153143498Y-117096690D01*
X153223916Y-117271130D01*
X153229664Y-117281086D01*
X153235788Y-117289751D01*
X153246377Y-117298140D01*
X153259676Y-117291113D01*
X153817979Y-116732811D01*
X153824356Y-116721132D01*
X154554408Y-116721132D01*
X154554539Y-116722966D01*
X154558790Y-116729580D01*
X155120239Y-117291028D01*
X155132614Y-117297785D01*
X155139194Y-117292859D01*
X155203726Y-117177628D01*
X155208400Y-117167131D01*
X155270144Y-116985240D01*
X155272832Y-116974045D01*
X155300689Y-116781911D01*
X155301319Y-116774528D01*
X155302650Y-116723704D01*
X155302407Y-116716305D01*
X155284643Y-116522975D01*
X155282545Y-116511654D01*
X155230408Y-116326791D01*
X155226283Y-116316044D01*
X155142163Y-116145465D01*
X155134869Y-116139990D01*
X155122449Y-116146762D01*
X154562021Y-116707189D01*
X154554408Y-116721132D01*
X153824356Y-116721132D01*
X153825592Y-116718868D01*
X153825461Y-116717034D01*
X153821210Y-116710420D01*
X153258538Y-116147749D01*
X153246163Y-116140992D01*
X153240197Y-116145458D01*
X153164645Y-116289058D01*
X153160242Y-116299691D01*
X153103281Y-116483132D01*
X153100891Y-116494376D01*
X153078313Y-116685137D01*
X153078012Y-116696638D01*
X152801102Y-116696638D01*
X152791656Y-116593835D01*
X152785137Y-116522880D01*
X152785136Y-116522877D01*
X152784608Y-116517126D01*
X152729307Y-116321047D01*
X152718776Y-116299691D01*
X152641756Y-116143510D01*
X152639201Y-116138329D01*
X152620796Y-116113681D01*
X152520758Y-115979715D01*
X152520758Y-115979714D01*
X152517305Y-115975091D01*
X152367703Y-115836800D01*
X152275580Y-115778675D01*
X153612788Y-115778675D01*
X153616275Y-115787064D01*
X154177189Y-116347979D01*
X154191132Y-116355592D01*
X154192966Y-116355461D01*
X154199580Y-116351210D01*
X154760285Y-115790504D01*
X154767042Y-115778129D01*
X154761012Y-115770073D01*
X154700061Y-115731616D01*
X154689813Y-115726395D01*
X154511401Y-115655216D01*
X154500373Y-115651949D01*
X154311982Y-115614476D01*
X154300535Y-115613273D01*
X154108477Y-115610759D01*
X154096997Y-115611662D01*
X153907697Y-115644190D01*
X153896577Y-115647170D01*
X153716365Y-115713653D01*
X153705991Y-115718601D01*
X153622385Y-115768342D01*
X153612788Y-115778675D01*
X152275580Y-115778675D01*
X152261947Y-115770073D01*
X152200288Y-115731169D01*
X152200283Y-115731167D01*
X152195404Y-115728088D01*
X152006180Y-115652595D01*
X151831663Y-115617881D01*
X151812032Y-115613976D01*
X151812031Y-115613976D01*
X151806366Y-115612849D01*
X151800592Y-115612773D01*
X151800588Y-115612773D01*
X151697452Y-115611424D01*
X151602655Y-115610183D01*
X151596958Y-115611162D01*
X151596957Y-115611162D01*
X151577671Y-115614476D01*
X151401870Y-115644684D01*
X151210734Y-115715198D01*
X151205773Y-115718150D01*
X151205772Y-115718150D01*
X151089939Y-115787064D01*
X151035649Y-115819363D01*
X150882478Y-115953690D01*
X150878911Y-115958215D01*
X150878906Y-115958220D01*
X150792331Y-116068040D01*
X150756351Y-116113681D01*
X150753662Y-116118792D01*
X150753660Y-116118795D01*
X150738946Y-116146762D01*
X150661492Y-116293978D01*
X150601078Y-116488543D01*
X150577132Y-116690859D01*
X111506000Y-116690859D01*
X111506000Y-110795150D01*
X137926482Y-110795150D01*
X137943852Y-111002004D01*
X138001069Y-111201545D01*
X138003887Y-111207027D01*
X138003888Y-111207031D01*
X138073449Y-111342381D01*
X138095955Y-111386173D01*
X138224894Y-111548854D01*
X138229581Y-111552843D01*
X138229584Y-111552846D01*
X138261778Y-111580245D01*
X138382976Y-111683392D01*
X138564180Y-111784664D01*
X138761603Y-111848810D01*
X138967725Y-111873389D01*
X138973860Y-111872917D01*
X138973862Y-111872917D01*
X139168555Y-111857936D01*
X139168560Y-111857935D01*
X139174696Y-111857463D01*
X139180626Y-111855807D01*
X139180628Y-111855807D01*
X139274664Y-111829552D01*
X139374632Y-111801640D01*
X139404470Y-111786568D01*
X139554416Y-111710825D01*
X139554418Y-111710824D01*
X139559917Y-111708046D01*
X139723495Y-111580245D01*
X139859133Y-111423106D01*
X139961667Y-111242614D01*
X140027190Y-111045644D01*
X140053207Y-110839698D01*
X140053622Y-110810000D01*
X140052166Y-110795150D01*
X140466482Y-110795150D01*
X140483852Y-111002004D01*
X140541069Y-111201545D01*
X140543887Y-111207027D01*
X140543888Y-111207031D01*
X140613449Y-111342381D01*
X140635955Y-111386173D01*
X140764894Y-111548854D01*
X140769581Y-111552843D01*
X140769584Y-111552846D01*
X140801778Y-111580245D01*
X140922976Y-111683392D01*
X141104180Y-111784664D01*
X141301603Y-111848810D01*
X141507725Y-111873389D01*
X141513860Y-111872917D01*
X141513862Y-111872917D01*
X141708555Y-111857936D01*
X141708560Y-111857935D01*
X141714696Y-111857463D01*
X141720626Y-111855807D01*
X141720628Y-111855807D01*
X141814664Y-111829552D01*
X141914632Y-111801640D01*
X141944470Y-111786568D01*
X142094416Y-111710825D01*
X142094418Y-111710824D01*
X142099917Y-111708046D01*
X142263495Y-111580245D01*
X142399133Y-111423106D01*
X142501667Y-111242614D01*
X142567190Y-111045644D01*
X142593207Y-110839698D01*
X142593622Y-110810000D01*
X142592166Y-110795150D01*
X143006482Y-110795150D01*
X143023852Y-111002004D01*
X143081069Y-111201545D01*
X143083887Y-111207027D01*
X143083888Y-111207031D01*
X143153449Y-111342381D01*
X143175955Y-111386173D01*
X143304894Y-111548854D01*
X143309581Y-111552843D01*
X143309584Y-111552846D01*
X143341778Y-111580245D01*
X143462976Y-111683392D01*
X143644180Y-111784664D01*
X143841603Y-111848810D01*
X144047725Y-111873389D01*
X144053860Y-111872917D01*
X144053862Y-111872917D01*
X144248555Y-111857936D01*
X144248560Y-111857935D01*
X144254696Y-111857463D01*
X144260626Y-111855807D01*
X144260628Y-111855807D01*
X144354664Y-111829552D01*
X144454632Y-111801640D01*
X144484470Y-111786568D01*
X144634416Y-111710825D01*
X144634418Y-111710824D01*
X144639917Y-111708046D01*
X144803495Y-111580245D01*
X144939133Y-111423106D01*
X145041667Y-111242614D01*
X145107190Y-111045644D01*
X145133207Y-110839698D01*
X145133622Y-110810000D01*
X145132166Y-110795150D01*
X145546482Y-110795150D01*
X145563852Y-111002004D01*
X145621069Y-111201545D01*
X145623887Y-111207027D01*
X145623888Y-111207031D01*
X145693449Y-111342381D01*
X145715955Y-111386173D01*
X145844894Y-111548854D01*
X145849581Y-111552843D01*
X145849584Y-111552846D01*
X145881778Y-111580245D01*
X146002976Y-111683392D01*
X146184180Y-111784664D01*
X146381603Y-111848810D01*
X146587725Y-111873389D01*
X146593860Y-111872917D01*
X146593862Y-111872917D01*
X146788555Y-111857936D01*
X146788560Y-111857935D01*
X146794696Y-111857463D01*
X146800626Y-111855807D01*
X146800628Y-111855807D01*
X146894664Y-111829552D01*
X146994632Y-111801640D01*
X147024470Y-111786568D01*
X147174416Y-111710825D01*
X147174418Y-111710824D01*
X147179917Y-111708046D01*
X147343495Y-111580245D01*
X147479133Y-111423106D01*
X147581667Y-111242614D01*
X147647190Y-111045644D01*
X147673207Y-110839698D01*
X147673622Y-110810000D01*
X147672166Y-110795150D01*
X148086482Y-110795150D01*
X148103852Y-111002004D01*
X148161069Y-111201545D01*
X148163887Y-111207027D01*
X148163888Y-111207031D01*
X148233449Y-111342381D01*
X148255955Y-111386173D01*
X148384894Y-111548854D01*
X148389581Y-111552843D01*
X148389584Y-111552846D01*
X148421778Y-111580245D01*
X148542976Y-111683392D01*
X148724180Y-111784664D01*
X148921603Y-111848810D01*
X149127725Y-111873389D01*
X149133860Y-111872917D01*
X149133862Y-111872917D01*
X149328555Y-111857936D01*
X149328560Y-111857935D01*
X149334696Y-111857463D01*
X149340626Y-111855807D01*
X149340628Y-111855807D01*
X149434664Y-111829552D01*
X149534632Y-111801640D01*
X149564470Y-111786568D01*
X149714416Y-111710825D01*
X149714418Y-111710824D01*
X149719917Y-111708046D01*
X149883495Y-111580245D01*
X150019133Y-111423106D01*
X150121667Y-111242614D01*
X150187190Y-111045644D01*
X150213207Y-110839698D01*
X150213622Y-110810000D01*
X150212166Y-110795150D01*
X150626482Y-110795150D01*
X150643852Y-111002004D01*
X150701069Y-111201545D01*
X150703887Y-111207027D01*
X150703888Y-111207031D01*
X150773449Y-111342381D01*
X150795955Y-111386173D01*
X150924894Y-111548854D01*
X150929581Y-111552843D01*
X150929584Y-111552846D01*
X150961778Y-111580245D01*
X151082976Y-111683392D01*
X151264180Y-111784664D01*
X151461603Y-111848810D01*
X151667725Y-111873389D01*
X151673860Y-111872917D01*
X151673862Y-111872917D01*
X151868555Y-111857936D01*
X151868560Y-111857935D01*
X151874696Y-111857463D01*
X151880626Y-111855807D01*
X151880628Y-111855807D01*
X151974664Y-111829552D01*
X152074632Y-111801640D01*
X152104470Y-111786568D01*
X152254416Y-111710825D01*
X152254418Y-111710824D01*
X152259917Y-111708046D01*
X152423495Y-111580245D01*
X152559133Y-111423106D01*
X152661667Y-111242614D01*
X152727190Y-111045644D01*
X152753207Y-110839698D01*
X152753622Y-110810000D01*
X152752166Y-110795150D01*
X153166482Y-110795150D01*
X153183852Y-111002004D01*
X153241069Y-111201545D01*
X153243887Y-111207027D01*
X153243888Y-111207031D01*
X153313449Y-111342381D01*
X153335955Y-111386173D01*
X153464894Y-111548854D01*
X153469581Y-111552843D01*
X153469584Y-111552846D01*
X153501778Y-111580245D01*
X153622976Y-111683392D01*
X153804180Y-111784664D01*
X154001603Y-111848810D01*
X154207725Y-111873389D01*
X154213860Y-111872917D01*
X154213862Y-111872917D01*
X154408555Y-111857936D01*
X154408560Y-111857935D01*
X154414696Y-111857463D01*
X154420626Y-111855807D01*
X154420628Y-111855807D01*
X154514664Y-111829552D01*
X154614632Y-111801640D01*
X154644470Y-111786568D01*
X154784415Y-111715877D01*
X156228953Y-111715877D01*
X156233863Y-111722435D01*
X156339004Y-111781198D01*
X156350242Y-111786107D01*
X156535852Y-111846415D01*
X156547826Y-111849048D01*
X156741624Y-111872157D01*
X156753873Y-111872414D01*
X156948467Y-111857441D01*
X156960547Y-111855310D01*
X157148514Y-111802828D01*
X157159947Y-111798394D01*
X157302726Y-111726271D01*
X157313010Y-111716626D01*
X157310772Y-111709982D01*
X156782812Y-111182022D01*
X156768868Y-111174408D01*
X156767035Y-111174539D01*
X156760420Y-111178790D01*
X156235713Y-111703497D01*
X156228953Y-111715877D01*
X154784415Y-111715877D01*
X154794416Y-111710825D01*
X154794418Y-111710824D01*
X154799917Y-111708046D01*
X154963495Y-111580245D01*
X155099133Y-111423106D01*
X155201667Y-111242614D01*
X155267190Y-111045644D01*
X155293207Y-110839698D01*
X155293622Y-110810000D01*
X155292769Y-110801301D01*
X155707501Y-110801301D01*
X155723831Y-110995774D01*
X155726044Y-111007833D01*
X155779839Y-111195438D01*
X155784355Y-111206843D01*
X155854012Y-111342381D01*
X155863733Y-111352602D01*
X155870532Y-111350258D01*
X156397978Y-110822812D01*
X156404356Y-110811132D01*
X157134408Y-110811132D01*
X157134539Y-110812965D01*
X157138790Y-110819580D01*
X157663335Y-111344125D01*
X157675715Y-111350885D01*
X157682449Y-111345844D01*
X157738161Y-111247772D01*
X157743155Y-111236556D01*
X157804753Y-111051384D01*
X157807473Y-111039412D01*
X157832263Y-110843186D01*
X157832754Y-110836161D01*
X157833070Y-110813506D01*
X157832777Y-110806511D01*
X157831663Y-110795150D01*
X158246482Y-110795150D01*
X158263852Y-111002004D01*
X158321069Y-111201545D01*
X158323887Y-111207027D01*
X158323888Y-111207031D01*
X158393449Y-111342381D01*
X158415955Y-111386173D01*
X158544894Y-111548854D01*
X158549581Y-111552843D01*
X158549584Y-111552846D01*
X158581778Y-111580245D01*
X158702976Y-111683392D01*
X158884180Y-111784664D01*
X159081603Y-111848810D01*
X159287725Y-111873389D01*
X159293860Y-111872917D01*
X159293862Y-111872917D01*
X159488555Y-111857936D01*
X159488560Y-111857935D01*
X159494696Y-111857463D01*
X159500626Y-111855807D01*
X159500628Y-111855807D01*
X159594664Y-111829552D01*
X159694632Y-111801640D01*
X159724470Y-111786568D01*
X159874416Y-111710825D01*
X159874418Y-111710824D01*
X159879917Y-111708046D01*
X160043495Y-111580245D01*
X160179133Y-111423106D01*
X160281667Y-111242614D01*
X160347190Y-111045644D01*
X160373207Y-110839698D01*
X160373622Y-110810000D01*
X160372166Y-110795150D01*
X160786482Y-110795150D01*
X160803852Y-111002004D01*
X160861069Y-111201545D01*
X160863887Y-111207027D01*
X160863888Y-111207031D01*
X160933449Y-111342381D01*
X160955955Y-111386173D01*
X161084894Y-111548854D01*
X161089581Y-111552843D01*
X161089584Y-111552846D01*
X161121778Y-111580245D01*
X161242976Y-111683392D01*
X161424180Y-111784664D01*
X161621603Y-111848810D01*
X161827725Y-111873389D01*
X161833860Y-111872917D01*
X161833862Y-111872917D01*
X162028555Y-111857936D01*
X162028560Y-111857935D01*
X162034696Y-111857463D01*
X162040626Y-111855807D01*
X162040628Y-111855807D01*
X162134664Y-111829552D01*
X162234632Y-111801640D01*
X162264470Y-111786568D01*
X162414416Y-111710825D01*
X162414418Y-111710824D01*
X162419917Y-111708046D01*
X162583495Y-111580245D01*
X162719133Y-111423106D01*
X162821667Y-111242614D01*
X162887190Y-111045644D01*
X162913207Y-110839698D01*
X162913622Y-110810000D01*
X162912166Y-110795150D01*
X163326482Y-110795150D01*
X163343852Y-111002004D01*
X163401069Y-111201545D01*
X163403887Y-111207027D01*
X163403888Y-111207031D01*
X163473449Y-111342381D01*
X163495955Y-111386173D01*
X163624894Y-111548854D01*
X163629581Y-111552843D01*
X163629584Y-111552846D01*
X163661778Y-111580245D01*
X163782976Y-111683392D01*
X163964180Y-111784664D01*
X164161603Y-111848810D01*
X164367725Y-111873389D01*
X164373860Y-111872917D01*
X164373862Y-111872917D01*
X164568555Y-111857936D01*
X164568560Y-111857935D01*
X164574696Y-111857463D01*
X164580626Y-111855807D01*
X164580628Y-111855807D01*
X164674664Y-111829552D01*
X164774632Y-111801640D01*
X164804470Y-111786568D01*
X164954416Y-111710825D01*
X164954418Y-111710824D01*
X164959917Y-111708046D01*
X165123495Y-111580245D01*
X165259133Y-111423106D01*
X165361667Y-111242614D01*
X165427190Y-111045644D01*
X165453207Y-110839698D01*
X165453622Y-110810000D01*
X165452166Y-110795150D01*
X165866482Y-110795150D01*
X165883852Y-111002004D01*
X165941069Y-111201545D01*
X165943887Y-111207027D01*
X165943888Y-111207031D01*
X166013449Y-111342381D01*
X166035955Y-111386173D01*
X166164894Y-111548854D01*
X166169581Y-111552843D01*
X166169584Y-111552846D01*
X166201778Y-111580245D01*
X166322976Y-111683392D01*
X166504180Y-111784664D01*
X166701603Y-111848810D01*
X166907725Y-111873389D01*
X166913860Y-111872917D01*
X166913862Y-111872917D01*
X167108555Y-111857936D01*
X167108560Y-111857935D01*
X167114696Y-111857463D01*
X167120626Y-111855807D01*
X167120628Y-111855807D01*
X167214664Y-111829552D01*
X167314632Y-111801640D01*
X167344470Y-111786568D01*
X167494416Y-111710825D01*
X167494418Y-111710824D01*
X167499917Y-111708046D01*
X167663495Y-111580245D01*
X167799133Y-111423106D01*
X167901667Y-111242614D01*
X167967190Y-111045644D01*
X167993207Y-110839698D01*
X167993622Y-110810000D01*
X167992166Y-110795150D01*
X168406482Y-110795150D01*
X168423852Y-111002004D01*
X168481069Y-111201545D01*
X168483887Y-111207027D01*
X168483888Y-111207031D01*
X168553449Y-111342381D01*
X168575955Y-111386173D01*
X168704894Y-111548854D01*
X168709581Y-111552843D01*
X168709584Y-111552846D01*
X168741778Y-111580245D01*
X168862976Y-111683392D01*
X169044180Y-111784664D01*
X169241603Y-111848810D01*
X169447725Y-111873389D01*
X169453860Y-111872917D01*
X169453862Y-111872917D01*
X169648555Y-111857936D01*
X169648560Y-111857935D01*
X169654696Y-111857463D01*
X169660626Y-111855807D01*
X169660628Y-111855807D01*
X169754664Y-111829552D01*
X169854632Y-111801640D01*
X169884470Y-111786568D01*
X170034416Y-111710825D01*
X170034418Y-111710824D01*
X170039917Y-111708046D01*
X170203495Y-111580245D01*
X170339133Y-111423106D01*
X170441667Y-111242614D01*
X170507190Y-111045644D01*
X170533207Y-110839698D01*
X170533622Y-110810000D01*
X170532166Y-110795150D01*
X170946482Y-110795150D01*
X170963852Y-111002004D01*
X171021069Y-111201545D01*
X171023887Y-111207027D01*
X171023888Y-111207031D01*
X171093449Y-111342381D01*
X171115955Y-111386173D01*
X171244894Y-111548854D01*
X171249581Y-111552843D01*
X171249584Y-111552846D01*
X171281778Y-111580245D01*
X171402976Y-111683392D01*
X171584180Y-111784664D01*
X171781603Y-111848810D01*
X171987725Y-111873389D01*
X171993860Y-111872917D01*
X171993862Y-111872917D01*
X172188555Y-111857936D01*
X172188560Y-111857935D01*
X172194696Y-111857463D01*
X172200626Y-111855807D01*
X172200628Y-111855807D01*
X172294664Y-111829552D01*
X172394632Y-111801640D01*
X172424470Y-111786568D01*
X172574416Y-111710825D01*
X172574418Y-111710824D01*
X172579917Y-111708046D01*
X172743495Y-111580245D01*
X172879133Y-111423106D01*
X172981667Y-111242614D01*
X173047190Y-111045644D01*
X173073207Y-110839698D01*
X173073622Y-110810000D01*
X173053365Y-110603408D01*
X173005679Y-110445461D01*
X172995152Y-110410593D01*
X172995151Y-110410590D01*
X172993368Y-110404685D01*
X172986089Y-110390995D01*
X172898809Y-110226847D01*
X172898808Y-110226845D01*
X172895913Y-110221401D01*
X172847083Y-110161529D01*
X172768610Y-110065311D01*
X172768607Y-110065308D01*
X172764715Y-110060536D01*
X172757770Y-110054790D01*
X172609518Y-109932145D01*
X172609519Y-109932145D01*
X172604770Y-109928217D01*
X172599353Y-109925288D01*
X172599350Y-109925286D01*
X172427590Y-109832416D01*
X172427585Y-109832414D01*
X172422170Y-109829486D01*
X172223871Y-109768102D01*
X172217746Y-109767458D01*
X172217745Y-109767458D01*
X172023554Y-109747048D01*
X172023552Y-109747048D01*
X172017425Y-109746404D01*
X171931515Y-109754223D01*
X171816836Y-109764659D01*
X171816833Y-109764660D01*
X171810697Y-109765218D01*
X171804791Y-109766956D01*
X171804787Y-109766957D01*
X171656932Y-109810473D01*
X171611560Y-109823827D01*
X171427600Y-109919999D01*
X171265823Y-110050071D01*
X171261865Y-110054788D01*
X171261863Y-110054790D01*
X171257042Y-110060536D01*
X171132391Y-110209089D01*
X171129427Y-110214481D01*
X171129424Y-110214485D01*
X171094410Y-110278176D01*
X171032387Y-110390995D01*
X170969621Y-110588861D01*
X170968935Y-110594978D01*
X170968934Y-110594982D01*
X170968640Y-110597604D01*
X170946482Y-110795150D01*
X170532166Y-110795150D01*
X170513365Y-110603408D01*
X170465679Y-110445461D01*
X170455152Y-110410593D01*
X170455151Y-110410590D01*
X170453368Y-110404685D01*
X170446089Y-110390995D01*
X170358809Y-110226847D01*
X170358808Y-110226845D01*
X170355913Y-110221401D01*
X170307083Y-110161529D01*
X170228610Y-110065311D01*
X170228607Y-110065308D01*
X170224715Y-110060536D01*
X170217770Y-110054790D01*
X170069518Y-109932145D01*
X170069519Y-109932145D01*
X170064770Y-109928217D01*
X170059353Y-109925288D01*
X170059350Y-109925286D01*
X169887590Y-109832416D01*
X169887585Y-109832414D01*
X169882170Y-109829486D01*
X169683871Y-109768102D01*
X169677746Y-109767458D01*
X169677745Y-109767458D01*
X169483554Y-109747048D01*
X169483552Y-109747048D01*
X169477425Y-109746404D01*
X169391515Y-109754223D01*
X169276836Y-109764659D01*
X169276833Y-109764660D01*
X169270697Y-109765218D01*
X169264791Y-109766956D01*
X169264787Y-109766957D01*
X169116932Y-109810473D01*
X169071560Y-109823827D01*
X168887600Y-109919999D01*
X168725823Y-110050071D01*
X168721865Y-110054788D01*
X168721863Y-110054790D01*
X168717042Y-110060536D01*
X168592391Y-110209089D01*
X168589427Y-110214481D01*
X168589424Y-110214485D01*
X168554410Y-110278176D01*
X168492387Y-110390995D01*
X168429621Y-110588861D01*
X168428935Y-110594978D01*
X168428934Y-110594982D01*
X168428640Y-110597604D01*
X168406482Y-110795150D01*
X167992166Y-110795150D01*
X167973365Y-110603408D01*
X167925679Y-110445461D01*
X167915152Y-110410593D01*
X167915151Y-110410590D01*
X167913368Y-110404685D01*
X167906089Y-110390995D01*
X167818809Y-110226847D01*
X167818808Y-110226845D01*
X167815913Y-110221401D01*
X167767083Y-110161529D01*
X167688610Y-110065311D01*
X167688607Y-110065308D01*
X167684715Y-110060536D01*
X167677770Y-110054790D01*
X167529518Y-109932145D01*
X167529519Y-109932145D01*
X167524770Y-109928217D01*
X167519353Y-109925288D01*
X167519350Y-109925286D01*
X167347590Y-109832416D01*
X167347585Y-109832414D01*
X167342170Y-109829486D01*
X167143871Y-109768102D01*
X167137746Y-109767458D01*
X167137745Y-109767458D01*
X166943554Y-109747048D01*
X166943552Y-109747048D01*
X166937425Y-109746404D01*
X166851515Y-109754223D01*
X166736836Y-109764659D01*
X166736833Y-109764660D01*
X166730697Y-109765218D01*
X166724791Y-109766956D01*
X166724787Y-109766957D01*
X166576932Y-109810473D01*
X166531560Y-109823827D01*
X166347600Y-109919999D01*
X166185823Y-110050071D01*
X166181865Y-110054788D01*
X166181863Y-110054790D01*
X166177042Y-110060536D01*
X166052391Y-110209089D01*
X166049427Y-110214481D01*
X166049424Y-110214485D01*
X166014410Y-110278176D01*
X165952387Y-110390995D01*
X165889621Y-110588861D01*
X165888935Y-110594978D01*
X165888934Y-110594982D01*
X165888640Y-110597604D01*
X165866482Y-110795150D01*
X165452166Y-110795150D01*
X165433365Y-110603408D01*
X165385679Y-110445461D01*
X165375152Y-110410593D01*
X165375151Y-110410590D01*
X165373368Y-110404685D01*
X165366089Y-110390995D01*
X165278809Y-110226847D01*
X165278808Y-110226845D01*
X165275913Y-110221401D01*
X165227083Y-110161529D01*
X165148610Y-110065311D01*
X165148607Y-110065308D01*
X165144715Y-110060536D01*
X165137770Y-110054790D01*
X164989518Y-109932145D01*
X164989519Y-109932145D01*
X164984770Y-109928217D01*
X164979353Y-109925288D01*
X164979350Y-109925286D01*
X164807590Y-109832416D01*
X164807585Y-109832414D01*
X164802170Y-109829486D01*
X164603871Y-109768102D01*
X164597746Y-109767458D01*
X164597745Y-109767458D01*
X164403554Y-109747048D01*
X164403552Y-109747048D01*
X164397425Y-109746404D01*
X164311515Y-109754223D01*
X164196836Y-109764659D01*
X164196833Y-109764660D01*
X164190697Y-109765218D01*
X164184791Y-109766956D01*
X164184787Y-109766957D01*
X164036932Y-109810473D01*
X163991560Y-109823827D01*
X163807600Y-109919999D01*
X163645823Y-110050071D01*
X163641865Y-110054788D01*
X163641863Y-110054790D01*
X163637042Y-110060536D01*
X163512391Y-110209089D01*
X163509427Y-110214481D01*
X163509424Y-110214485D01*
X163474410Y-110278176D01*
X163412387Y-110390995D01*
X163349621Y-110588861D01*
X163348935Y-110594978D01*
X163348934Y-110594982D01*
X163348640Y-110597604D01*
X163326482Y-110795150D01*
X162912166Y-110795150D01*
X162893365Y-110603408D01*
X162845679Y-110445461D01*
X162835152Y-110410593D01*
X162835151Y-110410590D01*
X162833368Y-110404685D01*
X162826089Y-110390995D01*
X162738809Y-110226847D01*
X162738808Y-110226845D01*
X162735913Y-110221401D01*
X162687083Y-110161529D01*
X162608610Y-110065311D01*
X162608607Y-110065308D01*
X162604715Y-110060536D01*
X162597770Y-110054790D01*
X162449518Y-109932145D01*
X162449519Y-109932145D01*
X162444770Y-109928217D01*
X162439353Y-109925288D01*
X162439350Y-109925286D01*
X162267590Y-109832416D01*
X162267585Y-109832414D01*
X162262170Y-109829486D01*
X162063871Y-109768102D01*
X162057746Y-109767458D01*
X162057745Y-109767458D01*
X161863554Y-109747048D01*
X161863552Y-109747048D01*
X161857425Y-109746404D01*
X161771515Y-109754223D01*
X161656836Y-109764659D01*
X161656833Y-109764660D01*
X161650697Y-109765218D01*
X161644791Y-109766956D01*
X161644787Y-109766957D01*
X161496932Y-109810473D01*
X161451560Y-109823827D01*
X161267600Y-109919999D01*
X161105823Y-110050071D01*
X161101865Y-110054788D01*
X161101863Y-110054790D01*
X161097042Y-110060536D01*
X160972391Y-110209089D01*
X160969427Y-110214481D01*
X160969424Y-110214485D01*
X160934410Y-110278176D01*
X160872387Y-110390995D01*
X160809621Y-110588861D01*
X160808935Y-110594978D01*
X160808934Y-110594982D01*
X160808640Y-110597604D01*
X160786482Y-110795150D01*
X160372166Y-110795150D01*
X160353365Y-110603408D01*
X160305679Y-110445461D01*
X160295152Y-110410593D01*
X160295151Y-110410590D01*
X160293368Y-110404685D01*
X160286089Y-110390995D01*
X160198809Y-110226847D01*
X160198808Y-110226845D01*
X160195913Y-110221401D01*
X160147083Y-110161529D01*
X160068610Y-110065311D01*
X160068607Y-110065308D01*
X160064715Y-110060536D01*
X160057770Y-110054790D01*
X159909518Y-109932145D01*
X159909519Y-109932145D01*
X159904770Y-109928217D01*
X159899353Y-109925288D01*
X159899350Y-109925286D01*
X159727590Y-109832416D01*
X159727585Y-109832414D01*
X159722170Y-109829486D01*
X159523871Y-109768102D01*
X159517746Y-109767458D01*
X159517745Y-109767458D01*
X159323554Y-109747048D01*
X159323552Y-109747048D01*
X159317425Y-109746404D01*
X159231515Y-109754223D01*
X159116836Y-109764659D01*
X159116833Y-109764660D01*
X159110697Y-109765218D01*
X159104791Y-109766956D01*
X159104787Y-109766957D01*
X158956932Y-109810473D01*
X158911560Y-109823827D01*
X158727600Y-109919999D01*
X158565823Y-110050071D01*
X158561865Y-110054788D01*
X158561863Y-110054790D01*
X158557042Y-110060536D01*
X158432391Y-110209089D01*
X158429427Y-110214481D01*
X158429424Y-110214485D01*
X158394410Y-110278176D01*
X158332387Y-110390995D01*
X158269621Y-110588861D01*
X158268935Y-110594978D01*
X158268934Y-110594982D01*
X158268640Y-110597604D01*
X158246482Y-110795150D01*
X157831663Y-110795150D01*
X157813473Y-110609639D01*
X157811090Y-110597604D01*
X157754683Y-110410777D01*
X157750009Y-110399436D01*
X157685534Y-110278176D01*
X157675674Y-110268095D01*
X157668547Y-110270663D01*
X157142022Y-110797188D01*
X157134408Y-110811132D01*
X156404356Y-110811132D01*
X156405592Y-110808868D01*
X156405461Y-110807035D01*
X156401210Y-110800420D01*
X155876302Y-110275512D01*
X155863922Y-110268752D01*
X155857534Y-110273534D01*
X155795816Y-110385798D01*
X155790988Y-110397062D01*
X155731975Y-110583095D01*
X155729427Y-110595084D01*
X155707672Y-110789032D01*
X155707501Y-110801301D01*
X155292769Y-110801301D01*
X155273365Y-110603408D01*
X155225679Y-110445461D01*
X155215152Y-110410593D01*
X155215151Y-110410590D01*
X155213368Y-110404685D01*
X155206089Y-110390995D01*
X155118809Y-110226847D01*
X155118808Y-110226845D01*
X155115913Y-110221401D01*
X155067083Y-110161529D01*
X154988610Y-110065311D01*
X154988607Y-110065308D01*
X154984715Y-110060536D01*
X154977770Y-110054790D01*
X154829518Y-109932145D01*
X154829519Y-109932145D01*
X154824770Y-109928217D01*
X154819353Y-109925288D01*
X154819350Y-109925286D01*
X154780069Y-109904047D01*
X156227766Y-109904047D01*
X156230221Y-109911011D01*
X156757188Y-110437978D01*
X156771132Y-110445592D01*
X156772965Y-110445461D01*
X156779580Y-110441210D01*
X157304729Y-109916061D01*
X157311489Y-109903681D01*
X157306830Y-109897458D01*
X157187395Y-109832881D01*
X157176088Y-109828128D01*
X156989656Y-109770417D01*
X156977644Y-109767951D01*
X156783550Y-109747551D01*
X156771282Y-109747466D01*
X156576930Y-109765153D01*
X156564881Y-109767451D01*
X156377658Y-109822554D01*
X156366290Y-109827147D01*
X156237915Y-109894260D01*
X156227766Y-109904047D01*
X154780069Y-109904047D01*
X154647590Y-109832416D01*
X154647585Y-109832414D01*
X154642170Y-109829486D01*
X154443871Y-109768102D01*
X154437746Y-109767458D01*
X154437745Y-109767458D01*
X154243554Y-109747048D01*
X154243552Y-109747048D01*
X154237425Y-109746404D01*
X154151515Y-109754223D01*
X154036836Y-109764659D01*
X154036833Y-109764660D01*
X154030697Y-109765218D01*
X154024791Y-109766956D01*
X154024787Y-109766957D01*
X153876932Y-109810473D01*
X153831560Y-109823827D01*
X153647600Y-109919999D01*
X153485823Y-110050071D01*
X153481865Y-110054788D01*
X153481863Y-110054790D01*
X153477042Y-110060536D01*
X153352391Y-110209089D01*
X153349427Y-110214481D01*
X153349424Y-110214485D01*
X153314410Y-110278176D01*
X153252387Y-110390995D01*
X153189621Y-110588861D01*
X153188935Y-110594978D01*
X153188934Y-110594982D01*
X153188640Y-110597604D01*
X153166482Y-110795150D01*
X152752166Y-110795150D01*
X152733365Y-110603408D01*
X152685679Y-110445461D01*
X152675152Y-110410593D01*
X152675151Y-110410590D01*
X152673368Y-110404685D01*
X152666089Y-110390995D01*
X152578809Y-110226847D01*
X152578808Y-110226845D01*
X152575913Y-110221401D01*
X152527083Y-110161529D01*
X152448610Y-110065311D01*
X152448607Y-110065308D01*
X152444715Y-110060536D01*
X152437770Y-110054790D01*
X152289518Y-109932145D01*
X152289519Y-109932145D01*
X152284770Y-109928217D01*
X152279353Y-109925288D01*
X152279350Y-109925286D01*
X152107590Y-109832416D01*
X152107585Y-109832414D01*
X152102170Y-109829486D01*
X151903871Y-109768102D01*
X151897746Y-109767458D01*
X151897745Y-109767458D01*
X151703554Y-109747048D01*
X151703552Y-109747048D01*
X151697425Y-109746404D01*
X151611515Y-109754223D01*
X151496836Y-109764659D01*
X151496833Y-109764660D01*
X151490697Y-109765218D01*
X151484791Y-109766956D01*
X151484787Y-109766957D01*
X151336932Y-109810473D01*
X151291560Y-109823827D01*
X151107600Y-109919999D01*
X150945823Y-110050071D01*
X150941865Y-110054788D01*
X150941863Y-110054790D01*
X150937042Y-110060536D01*
X150812391Y-110209089D01*
X150809427Y-110214481D01*
X150809424Y-110214485D01*
X150774410Y-110278176D01*
X150712387Y-110390995D01*
X150649621Y-110588861D01*
X150648935Y-110594978D01*
X150648934Y-110594982D01*
X150648640Y-110597604D01*
X150626482Y-110795150D01*
X150212166Y-110795150D01*
X150193365Y-110603408D01*
X150145679Y-110445461D01*
X150135152Y-110410593D01*
X150135151Y-110410590D01*
X150133368Y-110404685D01*
X150126089Y-110390995D01*
X150038809Y-110226847D01*
X150038808Y-110226845D01*
X150035913Y-110221401D01*
X149987083Y-110161529D01*
X149908610Y-110065311D01*
X149908607Y-110065308D01*
X149904715Y-110060536D01*
X149897770Y-110054790D01*
X149749518Y-109932145D01*
X149749519Y-109932145D01*
X149744770Y-109928217D01*
X149739353Y-109925288D01*
X149739350Y-109925286D01*
X149567590Y-109832416D01*
X149567585Y-109832414D01*
X149562170Y-109829486D01*
X149363871Y-109768102D01*
X149357746Y-109767458D01*
X149357745Y-109767458D01*
X149163554Y-109747048D01*
X149163552Y-109747048D01*
X149157425Y-109746404D01*
X149071515Y-109754223D01*
X148956836Y-109764659D01*
X148956833Y-109764660D01*
X148950697Y-109765218D01*
X148944791Y-109766956D01*
X148944787Y-109766957D01*
X148796932Y-109810473D01*
X148751560Y-109823827D01*
X148567600Y-109919999D01*
X148405823Y-110050071D01*
X148401865Y-110054788D01*
X148401863Y-110054790D01*
X148397042Y-110060536D01*
X148272391Y-110209089D01*
X148269427Y-110214481D01*
X148269424Y-110214485D01*
X148234410Y-110278176D01*
X148172387Y-110390995D01*
X148109621Y-110588861D01*
X148108935Y-110594978D01*
X148108934Y-110594982D01*
X148108640Y-110597604D01*
X148086482Y-110795150D01*
X147672166Y-110795150D01*
X147653365Y-110603408D01*
X147605679Y-110445461D01*
X147595152Y-110410593D01*
X147595151Y-110410590D01*
X147593368Y-110404685D01*
X147586089Y-110390995D01*
X147498809Y-110226847D01*
X147498808Y-110226845D01*
X147495913Y-110221401D01*
X147447083Y-110161529D01*
X147368610Y-110065311D01*
X147368607Y-110065308D01*
X147364715Y-110060536D01*
X147357770Y-110054790D01*
X147209518Y-109932145D01*
X147209519Y-109932145D01*
X147204770Y-109928217D01*
X147199353Y-109925288D01*
X147199350Y-109925286D01*
X147027590Y-109832416D01*
X147027585Y-109832414D01*
X147022170Y-109829486D01*
X146823871Y-109768102D01*
X146817746Y-109767458D01*
X146817745Y-109767458D01*
X146623554Y-109747048D01*
X146623552Y-109747048D01*
X146617425Y-109746404D01*
X146531515Y-109754223D01*
X146416836Y-109764659D01*
X146416833Y-109764660D01*
X146410697Y-109765218D01*
X146404791Y-109766956D01*
X146404787Y-109766957D01*
X146256932Y-109810473D01*
X146211560Y-109823827D01*
X146027600Y-109919999D01*
X145865823Y-110050071D01*
X145861865Y-110054788D01*
X145861863Y-110054790D01*
X145857042Y-110060536D01*
X145732391Y-110209089D01*
X145729427Y-110214481D01*
X145729424Y-110214485D01*
X145694410Y-110278176D01*
X145632387Y-110390995D01*
X145569621Y-110588861D01*
X145568935Y-110594978D01*
X145568934Y-110594982D01*
X145568640Y-110597604D01*
X145546482Y-110795150D01*
X145132166Y-110795150D01*
X145113365Y-110603408D01*
X145065679Y-110445461D01*
X145055152Y-110410593D01*
X145055151Y-110410590D01*
X145053368Y-110404685D01*
X145046089Y-110390995D01*
X144958809Y-110226847D01*
X144958808Y-110226845D01*
X144955913Y-110221401D01*
X144907083Y-110161529D01*
X144828610Y-110065311D01*
X144828607Y-110065308D01*
X144824715Y-110060536D01*
X144817770Y-110054790D01*
X144669518Y-109932145D01*
X144669519Y-109932145D01*
X144664770Y-109928217D01*
X144659353Y-109925288D01*
X144659350Y-109925286D01*
X144487590Y-109832416D01*
X144487585Y-109832414D01*
X144482170Y-109829486D01*
X144283871Y-109768102D01*
X144277746Y-109767458D01*
X144277745Y-109767458D01*
X144083554Y-109747048D01*
X144083552Y-109747048D01*
X144077425Y-109746404D01*
X143991515Y-109754223D01*
X143876836Y-109764659D01*
X143876833Y-109764660D01*
X143870697Y-109765218D01*
X143864791Y-109766956D01*
X143864787Y-109766957D01*
X143716932Y-109810473D01*
X143671560Y-109823827D01*
X143487600Y-109919999D01*
X143325823Y-110050071D01*
X143321865Y-110054788D01*
X143321863Y-110054790D01*
X143317042Y-110060536D01*
X143192391Y-110209089D01*
X143189427Y-110214481D01*
X143189424Y-110214485D01*
X143154410Y-110278176D01*
X143092387Y-110390995D01*
X143029621Y-110588861D01*
X143028935Y-110594978D01*
X143028934Y-110594982D01*
X143028640Y-110597604D01*
X143006482Y-110795150D01*
X142592166Y-110795150D01*
X142573365Y-110603408D01*
X142525679Y-110445461D01*
X142515152Y-110410593D01*
X142515151Y-110410590D01*
X142513368Y-110404685D01*
X142506089Y-110390995D01*
X142418809Y-110226847D01*
X142418808Y-110226845D01*
X142415913Y-110221401D01*
X142367083Y-110161529D01*
X142288610Y-110065311D01*
X142288607Y-110065308D01*
X142284715Y-110060536D01*
X142277770Y-110054790D01*
X142129518Y-109932145D01*
X142129519Y-109932145D01*
X142124770Y-109928217D01*
X142119353Y-109925288D01*
X142119350Y-109925286D01*
X141947590Y-109832416D01*
X141947585Y-109832414D01*
X141942170Y-109829486D01*
X141743871Y-109768102D01*
X141737746Y-109767458D01*
X141737745Y-109767458D01*
X141543554Y-109747048D01*
X141543552Y-109747048D01*
X141537425Y-109746404D01*
X141451515Y-109754223D01*
X141336836Y-109764659D01*
X141336833Y-109764660D01*
X141330697Y-109765218D01*
X141324791Y-109766956D01*
X141324787Y-109766957D01*
X141176932Y-109810473D01*
X141131560Y-109823827D01*
X140947600Y-109919999D01*
X140785823Y-110050071D01*
X140781865Y-110054788D01*
X140781863Y-110054790D01*
X140777042Y-110060536D01*
X140652391Y-110209089D01*
X140649427Y-110214481D01*
X140649424Y-110214485D01*
X140614410Y-110278176D01*
X140552387Y-110390995D01*
X140489621Y-110588861D01*
X140488935Y-110594978D01*
X140488934Y-110594982D01*
X140488640Y-110597604D01*
X140466482Y-110795150D01*
X140052166Y-110795150D01*
X140033365Y-110603408D01*
X139985679Y-110445461D01*
X139975152Y-110410593D01*
X139975151Y-110410590D01*
X139973368Y-110404685D01*
X139966089Y-110390995D01*
X139878809Y-110226847D01*
X139878808Y-110226845D01*
X139875913Y-110221401D01*
X139827083Y-110161529D01*
X139748610Y-110065311D01*
X139748607Y-110065308D01*
X139744715Y-110060536D01*
X139737770Y-110054790D01*
X139589518Y-109932145D01*
X139589519Y-109932145D01*
X139584770Y-109928217D01*
X139579353Y-109925288D01*
X139579350Y-109925286D01*
X139407590Y-109832416D01*
X139407585Y-109832414D01*
X139402170Y-109829486D01*
X139203871Y-109768102D01*
X139197746Y-109767458D01*
X139197745Y-109767458D01*
X139003554Y-109747048D01*
X139003552Y-109747048D01*
X138997425Y-109746404D01*
X138911515Y-109754223D01*
X138796836Y-109764659D01*
X138796833Y-109764660D01*
X138790697Y-109765218D01*
X138784791Y-109766956D01*
X138784787Y-109766957D01*
X138636932Y-109810473D01*
X138591560Y-109823827D01*
X138407600Y-109919999D01*
X138245823Y-110050071D01*
X138241865Y-110054788D01*
X138241863Y-110054790D01*
X138237042Y-110060536D01*
X138112391Y-110209089D01*
X138109427Y-110214481D01*
X138109424Y-110214485D01*
X138074410Y-110278176D01*
X138012387Y-110390995D01*
X137949621Y-110588861D01*
X137948935Y-110594978D01*
X137948934Y-110594982D01*
X137948640Y-110597604D01*
X137926482Y-110795150D01*
X111506000Y-110795150D01*
X111506000Y-103175150D01*
X137926482Y-103175150D01*
X137943852Y-103382004D01*
X138001069Y-103581545D01*
X138003887Y-103587027D01*
X138003888Y-103587031D01*
X138073449Y-103722381D01*
X138095955Y-103766173D01*
X138224894Y-103928854D01*
X138229581Y-103932843D01*
X138229584Y-103932846D01*
X138301312Y-103993891D01*
X138382976Y-104063392D01*
X138564180Y-104164664D01*
X138761603Y-104228810D01*
X138967725Y-104253389D01*
X138973860Y-104252917D01*
X138973862Y-104252917D01*
X139168555Y-104237936D01*
X139168560Y-104237935D01*
X139174696Y-104237463D01*
X139180626Y-104235807D01*
X139180628Y-104235807D01*
X139274664Y-104209552D01*
X139374632Y-104181640D01*
X139404470Y-104166568D01*
X139554416Y-104090825D01*
X139554418Y-104090824D01*
X139559917Y-104088046D01*
X139689628Y-103986705D01*
X139718634Y-103964043D01*
X139718635Y-103964042D01*
X139723495Y-103960245D01*
X139859133Y-103803106D01*
X139869580Y-103784717D01*
X139958620Y-103627977D01*
X139961667Y-103622614D01*
X140027190Y-103425644D01*
X140053207Y-103219698D01*
X140053622Y-103190000D01*
X140052166Y-103175150D01*
X140466482Y-103175150D01*
X140483852Y-103382004D01*
X140541069Y-103581545D01*
X140543887Y-103587027D01*
X140543888Y-103587031D01*
X140613449Y-103722381D01*
X140635955Y-103766173D01*
X140764894Y-103928854D01*
X140769581Y-103932843D01*
X140769584Y-103932846D01*
X140841312Y-103993891D01*
X140922976Y-104063392D01*
X141104180Y-104164664D01*
X141301603Y-104228810D01*
X141507725Y-104253389D01*
X141513860Y-104252917D01*
X141513862Y-104252917D01*
X141708555Y-104237936D01*
X141708560Y-104237935D01*
X141714696Y-104237463D01*
X141720626Y-104235807D01*
X141720628Y-104235807D01*
X141814664Y-104209552D01*
X141914632Y-104181640D01*
X141944470Y-104166568D01*
X142094416Y-104090825D01*
X142094418Y-104090824D01*
X142099917Y-104088046D01*
X142229628Y-103986705D01*
X142258634Y-103964043D01*
X142258635Y-103964042D01*
X142263495Y-103960245D01*
X142399133Y-103803106D01*
X142409580Y-103784717D01*
X142498620Y-103627977D01*
X142501667Y-103622614D01*
X142567190Y-103425644D01*
X142593207Y-103219698D01*
X142593622Y-103190000D01*
X142592166Y-103175150D01*
X143006482Y-103175150D01*
X143023852Y-103382004D01*
X143081069Y-103581545D01*
X143083887Y-103587027D01*
X143083888Y-103587031D01*
X143153449Y-103722381D01*
X143175955Y-103766173D01*
X143304894Y-103928854D01*
X143309581Y-103932843D01*
X143309584Y-103932846D01*
X143381312Y-103993891D01*
X143462976Y-104063392D01*
X143644180Y-104164664D01*
X143841603Y-104228810D01*
X144047725Y-104253389D01*
X144053860Y-104252917D01*
X144053862Y-104252917D01*
X144248555Y-104237936D01*
X144248560Y-104237935D01*
X144254696Y-104237463D01*
X144260626Y-104235807D01*
X144260628Y-104235807D01*
X144354664Y-104209552D01*
X144454632Y-104181640D01*
X144484470Y-104166568D01*
X144634416Y-104090825D01*
X144634418Y-104090824D01*
X144639917Y-104088046D01*
X144769628Y-103986705D01*
X144798634Y-103964043D01*
X144798635Y-103964042D01*
X144803495Y-103960245D01*
X144939133Y-103803106D01*
X144949580Y-103784717D01*
X145038620Y-103627977D01*
X145041667Y-103622614D01*
X145107190Y-103425644D01*
X145133207Y-103219698D01*
X145133622Y-103190000D01*
X145132166Y-103175150D01*
X145546482Y-103175150D01*
X145563852Y-103382004D01*
X145621069Y-103581545D01*
X145623887Y-103587027D01*
X145623888Y-103587031D01*
X145693449Y-103722381D01*
X145715955Y-103766173D01*
X145844894Y-103928854D01*
X145849581Y-103932843D01*
X145849584Y-103932846D01*
X145921312Y-103993891D01*
X146002976Y-104063392D01*
X146184180Y-104164664D01*
X146381603Y-104228810D01*
X146587725Y-104253389D01*
X146593860Y-104252917D01*
X146593862Y-104252917D01*
X146788555Y-104237936D01*
X146788560Y-104237935D01*
X146794696Y-104237463D01*
X146800626Y-104235807D01*
X146800628Y-104235807D01*
X146894664Y-104209552D01*
X146994632Y-104181640D01*
X147024470Y-104166568D01*
X147174416Y-104090825D01*
X147174418Y-104090824D01*
X147179917Y-104088046D01*
X147309628Y-103986705D01*
X147338634Y-103964043D01*
X147338635Y-103964042D01*
X147343495Y-103960245D01*
X147479133Y-103803106D01*
X147489580Y-103784717D01*
X147578620Y-103627977D01*
X147581667Y-103622614D01*
X147647190Y-103425644D01*
X147673207Y-103219698D01*
X147673622Y-103190000D01*
X147672166Y-103175150D01*
X148086482Y-103175150D01*
X148103852Y-103382004D01*
X148161069Y-103581545D01*
X148163887Y-103587027D01*
X148163888Y-103587031D01*
X148233449Y-103722381D01*
X148255955Y-103766173D01*
X148384894Y-103928854D01*
X148389581Y-103932843D01*
X148389584Y-103932846D01*
X148461312Y-103993891D01*
X148542976Y-104063392D01*
X148724180Y-104164664D01*
X148921603Y-104228810D01*
X149127725Y-104253389D01*
X149133860Y-104252917D01*
X149133862Y-104252917D01*
X149328555Y-104237936D01*
X149328560Y-104237935D01*
X149334696Y-104237463D01*
X149340626Y-104235807D01*
X149340628Y-104235807D01*
X149434664Y-104209552D01*
X149534632Y-104181640D01*
X149564470Y-104166568D01*
X149714416Y-104090825D01*
X149714418Y-104090824D01*
X149719917Y-104088046D01*
X149849628Y-103986705D01*
X149878634Y-103964043D01*
X149878635Y-103964042D01*
X149883495Y-103960245D01*
X150019133Y-103803106D01*
X150029580Y-103784717D01*
X150118620Y-103627977D01*
X150121667Y-103622614D01*
X150187190Y-103425644D01*
X150213207Y-103219698D01*
X150213622Y-103190000D01*
X150212166Y-103175150D01*
X150626482Y-103175150D01*
X150643852Y-103382004D01*
X150701069Y-103581545D01*
X150703887Y-103587027D01*
X150703888Y-103587031D01*
X150773449Y-103722381D01*
X150795955Y-103766173D01*
X150924894Y-103928854D01*
X150929581Y-103932843D01*
X150929584Y-103932846D01*
X151001312Y-103993891D01*
X151082976Y-104063392D01*
X151264180Y-104164664D01*
X151461603Y-104228810D01*
X151667725Y-104253389D01*
X151673860Y-104252917D01*
X151673862Y-104252917D01*
X151868555Y-104237936D01*
X151868560Y-104237935D01*
X151874696Y-104237463D01*
X151880626Y-104235807D01*
X151880628Y-104235807D01*
X151974664Y-104209552D01*
X152074632Y-104181640D01*
X152104470Y-104166568D01*
X152244415Y-104095877D01*
X153688953Y-104095877D01*
X153693863Y-104102435D01*
X153799004Y-104161198D01*
X153810242Y-104166107D01*
X153995852Y-104226415D01*
X154007826Y-104229048D01*
X154201624Y-104252157D01*
X154213873Y-104252414D01*
X154408467Y-104237441D01*
X154420547Y-104235310D01*
X154608514Y-104182828D01*
X154619947Y-104178394D01*
X154762726Y-104106271D01*
X154773010Y-104096626D01*
X154770772Y-104089982D01*
X154242812Y-103562022D01*
X154228868Y-103554408D01*
X154227035Y-103554539D01*
X154220420Y-103558790D01*
X153695713Y-104083497D01*
X153688953Y-104095877D01*
X152244415Y-104095877D01*
X152254416Y-104090825D01*
X152254418Y-104090824D01*
X152259917Y-104088046D01*
X152389628Y-103986705D01*
X152418634Y-103964043D01*
X152418635Y-103964042D01*
X152423495Y-103960245D01*
X152559133Y-103803106D01*
X152569580Y-103784717D01*
X152658620Y-103627977D01*
X152661667Y-103622614D01*
X152727190Y-103425644D01*
X152753207Y-103219698D01*
X152753622Y-103190000D01*
X152752769Y-103181301D01*
X153167501Y-103181301D01*
X153183831Y-103375774D01*
X153186044Y-103387833D01*
X153239839Y-103575438D01*
X153244355Y-103586843D01*
X153314012Y-103722381D01*
X153323733Y-103732602D01*
X153330532Y-103730258D01*
X153857978Y-103202812D01*
X153864356Y-103191132D01*
X154594408Y-103191132D01*
X154594539Y-103192965D01*
X154598790Y-103199580D01*
X155123335Y-103724125D01*
X155135715Y-103730885D01*
X155142449Y-103725844D01*
X155198161Y-103627772D01*
X155203155Y-103616556D01*
X155264753Y-103431384D01*
X155267473Y-103419412D01*
X155292263Y-103223186D01*
X155292754Y-103216161D01*
X155293070Y-103193506D01*
X155292777Y-103186511D01*
X155291663Y-103175150D01*
X155706482Y-103175150D01*
X155723852Y-103382004D01*
X155781069Y-103581545D01*
X155783887Y-103587027D01*
X155783888Y-103587031D01*
X155853449Y-103722381D01*
X155875955Y-103766173D01*
X156004894Y-103928854D01*
X156009581Y-103932843D01*
X156009584Y-103932846D01*
X156081312Y-103993891D01*
X156162976Y-104063392D01*
X156344180Y-104164664D01*
X156541603Y-104228810D01*
X156747725Y-104253389D01*
X156753860Y-104252917D01*
X156753862Y-104252917D01*
X156948555Y-104237936D01*
X156948560Y-104237935D01*
X156954696Y-104237463D01*
X156960626Y-104235807D01*
X156960628Y-104235807D01*
X157054664Y-104209552D01*
X157154632Y-104181640D01*
X157184470Y-104166568D01*
X157334416Y-104090825D01*
X157334418Y-104090824D01*
X157339917Y-104088046D01*
X157469628Y-103986705D01*
X157498634Y-103964043D01*
X157498635Y-103964042D01*
X157503495Y-103960245D01*
X157639133Y-103803106D01*
X157649580Y-103784717D01*
X157738620Y-103627977D01*
X157741667Y-103622614D01*
X157807190Y-103425644D01*
X157833207Y-103219698D01*
X157833622Y-103190000D01*
X157832166Y-103175150D01*
X158246482Y-103175150D01*
X158263852Y-103382004D01*
X158321069Y-103581545D01*
X158323887Y-103587027D01*
X158323888Y-103587031D01*
X158393449Y-103722381D01*
X158415955Y-103766173D01*
X158544894Y-103928854D01*
X158549581Y-103932843D01*
X158549584Y-103932846D01*
X158621312Y-103993891D01*
X158702976Y-104063392D01*
X158884180Y-104164664D01*
X159081603Y-104228810D01*
X159287725Y-104253389D01*
X159293860Y-104252917D01*
X159293862Y-104252917D01*
X159488555Y-104237936D01*
X159488560Y-104237935D01*
X159494696Y-104237463D01*
X159500626Y-104235807D01*
X159500628Y-104235807D01*
X159594664Y-104209552D01*
X159694632Y-104181640D01*
X159724470Y-104166568D01*
X159874416Y-104090825D01*
X159874418Y-104090824D01*
X159879917Y-104088046D01*
X160009628Y-103986705D01*
X160038634Y-103964043D01*
X160038635Y-103964042D01*
X160043495Y-103960245D01*
X160179133Y-103803106D01*
X160189580Y-103784717D01*
X160278620Y-103627977D01*
X160281667Y-103622614D01*
X160347190Y-103425644D01*
X160373207Y-103219698D01*
X160373622Y-103190000D01*
X160372166Y-103175150D01*
X160786482Y-103175150D01*
X160803852Y-103382004D01*
X160861069Y-103581545D01*
X160863887Y-103587027D01*
X160863888Y-103587031D01*
X160933449Y-103722381D01*
X160955955Y-103766173D01*
X161084894Y-103928854D01*
X161089581Y-103932843D01*
X161089584Y-103932846D01*
X161161312Y-103993891D01*
X161242976Y-104063392D01*
X161424180Y-104164664D01*
X161621603Y-104228810D01*
X161827725Y-104253389D01*
X161833860Y-104252917D01*
X161833862Y-104252917D01*
X162028555Y-104237936D01*
X162028560Y-104237935D01*
X162034696Y-104237463D01*
X162040626Y-104235807D01*
X162040628Y-104235807D01*
X162134664Y-104209552D01*
X162234632Y-104181640D01*
X162264470Y-104166568D01*
X162414416Y-104090825D01*
X162414418Y-104090824D01*
X162419917Y-104088046D01*
X162549628Y-103986705D01*
X162578634Y-103964043D01*
X162578635Y-103964042D01*
X162583495Y-103960245D01*
X162719133Y-103803106D01*
X162729580Y-103784717D01*
X162818620Y-103627977D01*
X162821667Y-103622614D01*
X162887190Y-103425644D01*
X162913207Y-103219698D01*
X162913622Y-103190000D01*
X162912166Y-103175150D01*
X163326482Y-103175150D01*
X163343852Y-103382004D01*
X163401069Y-103581545D01*
X163403887Y-103587027D01*
X163403888Y-103587031D01*
X163473449Y-103722381D01*
X163495955Y-103766173D01*
X163624894Y-103928854D01*
X163629581Y-103932843D01*
X163629584Y-103932846D01*
X163701312Y-103993891D01*
X163782976Y-104063392D01*
X163964180Y-104164664D01*
X164161603Y-104228810D01*
X164367725Y-104253389D01*
X164373860Y-104252917D01*
X164373862Y-104252917D01*
X164568555Y-104237936D01*
X164568560Y-104237935D01*
X164574696Y-104237463D01*
X164580626Y-104235807D01*
X164580628Y-104235807D01*
X164674664Y-104209552D01*
X164774632Y-104181640D01*
X164804470Y-104166568D01*
X164954416Y-104090825D01*
X164954418Y-104090824D01*
X164959917Y-104088046D01*
X165089628Y-103986705D01*
X165118634Y-103964043D01*
X165118635Y-103964042D01*
X165123495Y-103960245D01*
X165259133Y-103803106D01*
X165269580Y-103784717D01*
X165358620Y-103627977D01*
X165361667Y-103622614D01*
X165427190Y-103425644D01*
X165453207Y-103219698D01*
X165453622Y-103190000D01*
X165452166Y-103175150D01*
X165866482Y-103175150D01*
X165883852Y-103382004D01*
X165941069Y-103581545D01*
X165943887Y-103587027D01*
X165943888Y-103587031D01*
X166013449Y-103722381D01*
X166035955Y-103766173D01*
X166164894Y-103928854D01*
X166169581Y-103932843D01*
X166169584Y-103932846D01*
X166241312Y-103993891D01*
X166322976Y-104063392D01*
X166504180Y-104164664D01*
X166701603Y-104228810D01*
X166907725Y-104253389D01*
X166913860Y-104252917D01*
X166913862Y-104252917D01*
X167108555Y-104237936D01*
X167108560Y-104237935D01*
X167114696Y-104237463D01*
X167120626Y-104235807D01*
X167120628Y-104235807D01*
X167214664Y-104209552D01*
X167314632Y-104181640D01*
X167344470Y-104166568D01*
X167494416Y-104090825D01*
X167494418Y-104090824D01*
X167499917Y-104088046D01*
X167629628Y-103986705D01*
X167658634Y-103964043D01*
X167658635Y-103964042D01*
X167663495Y-103960245D01*
X167799133Y-103803106D01*
X167809580Y-103784717D01*
X167898620Y-103627977D01*
X167901667Y-103622614D01*
X167967190Y-103425644D01*
X167993207Y-103219698D01*
X167993622Y-103190000D01*
X167992166Y-103175150D01*
X168406482Y-103175150D01*
X168423852Y-103382004D01*
X168481069Y-103581545D01*
X168483887Y-103587027D01*
X168483888Y-103587031D01*
X168553449Y-103722381D01*
X168575955Y-103766173D01*
X168704894Y-103928854D01*
X168709581Y-103932843D01*
X168709584Y-103932846D01*
X168781312Y-103993891D01*
X168862976Y-104063392D01*
X169044180Y-104164664D01*
X169241603Y-104228810D01*
X169447725Y-104253389D01*
X169453860Y-104252917D01*
X169453862Y-104252917D01*
X169648555Y-104237936D01*
X169648560Y-104237935D01*
X169654696Y-104237463D01*
X169660626Y-104235807D01*
X169660628Y-104235807D01*
X169754664Y-104209552D01*
X169854632Y-104181640D01*
X169884470Y-104166568D01*
X170034416Y-104090825D01*
X170034418Y-104090824D01*
X170039917Y-104088046D01*
X170169628Y-103986705D01*
X170198634Y-103964043D01*
X170198635Y-103964042D01*
X170203495Y-103960245D01*
X170339133Y-103803106D01*
X170347639Y-103788134D01*
X170951500Y-103788134D01*
X170958255Y-103850316D01*
X171009385Y-103986705D01*
X171096739Y-104103261D01*
X171213295Y-104190615D01*
X171349684Y-104241745D01*
X171411866Y-104248500D01*
X172608134Y-104248500D01*
X172670316Y-104241745D01*
X172806705Y-104190615D01*
X172923261Y-104103261D01*
X173010615Y-103986705D01*
X173061745Y-103850316D01*
X173068500Y-103788134D01*
X173068500Y-102591866D01*
X173061745Y-102529684D01*
X173010615Y-102393295D01*
X172923261Y-102276739D01*
X172806705Y-102189385D01*
X172670316Y-102138255D01*
X172608134Y-102131500D01*
X171411866Y-102131500D01*
X171349684Y-102138255D01*
X171213295Y-102189385D01*
X171096739Y-102276739D01*
X171009385Y-102393295D01*
X170958255Y-102529684D01*
X170951500Y-102591866D01*
X170951500Y-103788134D01*
X170347639Y-103788134D01*
X170349580Y-103784717D01*
X170438620Y-103627977D01*
X170441667Y-103622614D01*
X170507190Y-103425644D01*
X170533207Y-103219698D01*
X170533622Y-103190000D01*
X170513365Y-102983408D01*
X170465679Y-102825461D01*
X170455152Y-102790593D01*
X170455151Y-102790590D01*
X170453368Y-102784685D01*
X170446089Y-102770995D01*
X170358809Y-102606847D01*
X170358808Y-102606845D01*
X170355913Y-102601401D01*
X170291388Y-102522285D01*
X170228610Y-102445311D01*
X170228607Y-102445308D01*
X170224715Y-102440536D01*
X170217770Y-102434790D01*
X170069518Y-102312145D01*
X170069519Y-102312145D01*
X170064770Y-102308217D01*
X170059353Y-102305288D01*
X170059350Y-102305286D01*
X169887590Y-102212416D01*
X169887585Y-102212414D01*
X169882170Y-102209486D01*
X169683871Y-102148102D01*
X169677746Y-102147458D01*
X169677745Y-102147458D01*
X169483554Y-102127048D01*
X169483552Y-102127048D01*
X169477425Y-102126404D01*
X169417376Y-102131869D01*
X169276836Y-102144659D01*
X169276833Y-102144660D01*
X169270697Y-102145218D01*
X169264791Y-102146956D01*
X169264787Y-102146957D01*
X169131339Y-102186233D01*
X169071560Y-102203827D01*
X168887600Y-102299999D01*
X168725823Y-102430071D01*
X168721865Y-102434788D01*
X168721863Y-102434790D01*
X168717042Y-102440536D01*
X168592391Y-102589089D01*
X168589427Y-102594481D01*
X168589424Y-102594485D01*
X168554410Y-102658176D01*
X168492387Y-102770995D01*
X168429621Y-102968861D01*
X168428935Y-102974978D01*
X168428934Y-102974982D01*
X168428640Y-102977604D01*
X168406482Y-103175150D01*
X167992166Y-103175150D01*
X167973365Y-102983408D01*
X167925679Y-102825461D01*
X167915152Y-102790593D01*
X167915151Y-102790590D01*
X167913368Y-102784685D01*
X167906089Y-102770995D01*
X167818809Y-102606847D01*
X167818808Y-102606845D01*
X167815913Y-102601401D01*
X167751388Y-102522285D01*
X167688610Y-102445311D01*
X167688607Y-102445308D01*
X167684715Y-102440536D01*
X167677770Y-102434790D01*
X167529518Y-102312145D01*
X167529519Y-102312145D01*
X167524770Y-102308217D01*
X167519353Y-102305288D01*
X167519350Y-102305286D01*
X167347590Y-102212416D01*
X167347585Y-102212414D01*
X167342170Y-102209486D01*
X167143871Y-102148102D01*
X167137746Y-102147458D01*
X167137745Y-102147458D01*
X166943554Y-102127048D01*
X166943552Y-102127048D01*
X166937425Y-102126404D01*
X166877376Y-102131869D01*
X166736836Y-102144659D01*
X166736833Y-102144660D01*
X166730697Y-102145218D01*
X166724791Y-102146956D01*
X166724787Y-102146957D01*
X166591339Y-102186233D01*
X166531560Y-102203827D01*
X166347600Y-102299999D01*
X166185823Y-102430071D01*
X166181865Y-102434788D01*
X166181863Y-102434790D01*
X166177042Y-102440536D01*
X166052391Y-102589089D01*
X166049427Y-102594481D01*
X166049424Y-102594485D01*
X166014410Y-102658176D01*
X165952387Y-102770995D01*
X165889621Y-102968861D01*
X165888935Y-102974978D01*
X165888934Y-102974982D01*
X165888640Y-102977604D01*
X165866482Y-103175150D01*
X165452166Y-103175150D01*
X165433365Y-102983408D01*
X165385679Y-102825461D01*
X165375152Y-102790593D01*
X165375151Y-102790590D01*
X165373368Y-102784685D01*
X165366089Y-102770995D01*
X165278809Y-102606847D01*
X165278808Y-102606845D01*
X165275913Y-102601401D01*
X165211388Y-102522285D01*
X165148610Y-102445311D01*
X165148607Y-102445308D01*
X165144715Y-102440536D01*
X165137770Y-102434790D01*
X164989518Y-102312145D01*
X164989519Y-102312145D01*
X164984770Y-102308217D01*
X164979353Y-102305288D01*
X164979350Y-102305286D01*
X164807590Y-102212416D01*
X164807585Y-102212414D01*
X164802170Y-102209486D01*
X164603871Y-102148102D01*
X164597746Y-102147458D01*
X164597745Y-102147458D01*
X164403554Y-102127048D01*
X164403552Y-102127048D01*
X164397425Y-102126404D01*
X164337376Y-102131869D01*
X164196836Y-102144659D01*
X164196833Y-102144660D01*
X164190697Y-102145218D01*
X164184791Y-102146956D01*
X164184787Y-102146957D01*
X164051339Y-102186233D01*
X163991560Y-102203827D01*
X163807600Y-102299999D01*
X163645823Y-102430071D01*
X163641865Y-102434788D01*
X163641863Y-102434790D01*
X163637042Y-102440536D01*
X163512391Y-102589089D01*
X163509427Y-102594481D01*
X163509424Y-102594485D01*
X163474410Y-102658176D01*
X163412387Y-102770995D01*
X163349621Y-102968861D01*
X163348935Y-102974978D01*
X163348934Y-102974982D01*
X163348640Y-102977604D01*
X163326482Y-103175150D01*
X162912166Y-103175150D01*
X162893365Y-102983408D01*
X162845679Y-102825461D01*
X162835152Y-102790593D01*
X162835151Y-102790590D01*
X162833368Y-102784685D01*
X162826089Y-102770995D01*
X162738809Y-102606847D01*
X162738808Y-102606845D01*
X162735913Y-102601401D01*
X162671388Y-102522285D01*
X162608610Y-102445311D01*
X162608607Y-102445308D01*
X162604715Y-102440536D01*
X162597770Y-102434790D01*
X162449518Y-102312145D01*
X162449519Y-102312145D01*
X162444770Y-102308217D01*
X162439353Y-102305288D01*
X162439350Y-102305286D01*
X162267590Y-102212416D01*
X162267585Y-102212414D01*
X162262170Y-102209486D01*
X162063871Y-102148102D01*
X162057746Y-102147458D01*
X162057745Y-102147458D01*
X161863554Y-102127048D01*
X161863552Y-102127048D01*
X161857425Y-102126404D01*
X161797376Y-102131869D01*
X161656836Y-102144659D01*
X161656833Y-102144660D01*
X161650697Y-102145218D01*
X161644791Y-102146956D01*
X161644787Y-102146957D01*
X161511339Y-102186233D01*
X161451560Y-102203827D01*
X161267600Y-102299999D01*
X161105823Y-102430071D01*
X161101865Y-102434788D01*
X161101863Y-102434790D01*
X161097042Y-102440536D01*
X160972391Y-102589089D01*
X160969427Y-102594481D01*
X160969424Y-102594485D01*
X160934410Y-102658176D01*
X160872387Y-102770995D01*
X160809621Y-102968861D01*
X160808935Y-102974978D01*
X160808934Y-102974982D01*
X160808640Y-102977604D01*
X160786482Y-103175150D01*
X160372166Y-103175150D01*
X160353365Y-102983408D01*
X160305679Y-102825461D01*
X160295152Y-102790593D01*
X160295151Y-102790590D01*
X160293368Y-102784685D01*
X160286089Y-102770995D01*
X160198809Y-102606847D01*
X160198808Y-102606845D01*
X160195913Y-102601401D01*
X160131388Y-102522285D01*
X160068610Y-102445311D01*
X160068607Y-102445308D01*
X160064715Y-102440536D01*
X160057770Y-102434790D01*
X159909518Y-102312145D01*
X159909519Y-102312145D01*
X159904770Y-102308217D01*
X159899353Y-102305288D01*
X159899350Y-102305286D01*
X159727590Y-102212416D01*
X159727585Y-102212414D01*
X159722170Y-102209486D01*
X159523871Y-102148102D01*
X159517746Y-102147458D01*
X159517745Y-102147458D01*
X159323554Y-102127048D01*
X159323552Y-102127048D01*
X159317425Y-102126404D01*
X159257376Y-102131869D01*
X159116836Y-102144659D01*
X159116833Y-102144660D01*
X159110697Y-102145218D01*
X159104791Y-102146956D01*
X159104787Y-102146957D01*
X158971339Y-102186233D01*
X158911560Y-102203827D01*
X158727600Y-102299999D01*
X158565823Y-102430071D01*
X158561865Y-102434788D01*
X158561863Y-102434790D01*
X158557042Y-102440536D01*
X158432391Y-102589089D01*
X158429427Y-102594481D01*
X158429424Y-102594485D01*
X158394410Y-102658176D01*
X158332387Y-102770995D01*
X158269621Y-102968861D01*
X158268935Y-102974978D01*
X158268934Y-102974982D01*
X158268640Y-102977604D01*
X158246482Y-103175150D01*
X157832166Y-103175150D01*
X157813365Y-102983408D01*
X157765679Y-102825461D01*
X157755152Y-102790593D01*
X157755151Y-102790590D01*
X157753368Y-102784685D01*
X157746089Y-102770995D01*
X157658809Y-102606847D01*
X157658808Y-102606845D01*
X157655913Y-102601401D01*
X157591388Y-102522285D01*
X157528610Y-102445311D01*
X157528607Y-102445308D01*
X157524715Y-102440536D01*
X157517770Y-102434790D01*
X157369518Y-102312145D01*
X157369519Y-102312145D01*
X157364770Y-102308217D01*
X157359353Y-102305288D01*
X157359350Y-102305286D01*
X157187590Y-102212416D01*
X157187585Y-102212414D01*
X157182170Y-102209486D01*
X156983871Y-102148102D01*
X156977746Y-102147458D01*
X156977745Y-102147458D01*
X156783554Y-102127048D01*
X156783552Y-102127048D01*
X156777425Y-102126404D01*
X156717376Y-102131869D01*
X156576836Y-102144659D01*
X156576833Y-102144660D01*
X156570697Y-102145218D01*
X156564791Y-102146956D01*
X156564787Y-102146957D01*
X156431339Y-102186233D01*
X156371560Y-102203827D01*
X156187600Y-102299999D01*
X156025823Y-102430071D01*
X156021865Y-102434788D01*
X156021863Y-102434790D01*
X156017042Y-102440536D01*
X155892391Y-102589089D01*
X155889427Y-102594481D01*
X155889424Y-102594485D01*
X155854410Y-102658176D01*
X155792387Y-102770995D01*
X155729621Y-102968861D01*
X155728935Y-102974978D01*
X155728934Y-102974982D01*
X155728640Y-102977604D01*
X155706482Y-103175150D01*
X155291663Y-103175150D01*
X155273473Y-102989639D01*
X155271090Y-102977604D01*
X155214683Y-102790777D01*
X155210009Y-102779436D01*
X155145534Y-102658176D01*
X155135674Y-102648095D01*
X155128547Y-102650663D01*
X154602022Y-103177188D01*
X154594408Y-103191132D01*
X153864356Y-103191132D01*
X153865592Y-103188868D01*
X153865461Y-103187035D01*
X153861210Y-103180420D01*
X153336302Y-102655512D01*
X153323922Y-102648752D01*
X153317534Y-102653534D01*
X153255816Y-102765798D01*
X153250988Y-102777062D01*
X153191975Y-102963095D01*
X153189427Y-102975084D01*
X153167672Y-103169032D01*
X153167501Y-103181301D01*
X152752769Y-103181301D01*
X152733365Y-102983408D01*
X152685679Y-102825461D01*
X152675152Y-102790593D01*
X152675151Y-102790590D01*
X152673368Y-102784685D01*
X152666089Y-102770995D01*
X152578809Y-102606847D01*
X152578808Y-102606845D01*
X152575913Y-102601401D01*
X152511388Y-102522285D01*
X152448610Y-102445311D01*
X152448607Y-102445308D01*
X152444715Y-102440536D01*
X152437770Y-102434790D01*
X152289518Y-102312145D01*
X152289519Y-102312145D01*
X152284770Y-102308217D01*
X152279353Y-102305288D01*
X152279350Y-102305286D01*
X152240069Y-102284047D01*
X153687766Y-102284047D01*
X153690221Y-102291011D01*
X154217188Y-102817978D01*
X154231132Y-102825592D01*
X154232965Y-102825461D01*
X154239580Y-102821210D01*
X154764729Y-102296061D01*
X154771489Y-102283681D01*
X154766830Y-102277458D01*
X154647395Y-102212881D01*
X154636088Y-102208128D01*
X154449656Y-102150417D01*
X154437644Y-102147951D01*
X154243550Y-102127551D01*
X154231282Y-102127466D01*
X154036930Y-102145153D01*
X154024881Y-102147451D01*
X153837658Y-102202554D01*
X153826290Y-102207147D01*
X153697915Y-102274260D01*
X153687766Y-102284047D01*
X152240069Y-102284047D01*
X152107590Y-102212416D01*
X152107585Y-102212414D01*
X152102170Y-102209486D01*
X151903871Y-102148102D01*
X151897746Y-102147458D01*
X151897745Y-102147458D01*
X151703554Y-102127048D01*
X151703552Y-102127048D01*
X151697425Y-102126404D01*
X151637376Y-102131869D01*
X151496836Y-102144659D01*
X151496833Y-102144660D01*
X151490697Y-102145218D01*
X151484791Y-102146956D01*
X151484787Y-102146957D01*
X151351339Y-102186233D01*
X151291560Y-102203827D01*
X151107600Y-102299999D01*
X150945823Y-102430071D01*
X150941865Y-102434788D01*
X150941863Y-102434790D01*
X150937042Y-102440536D01*
X150812391Y-102589089D01*
X150809427Y-102594481D01*
X150809424Y-102594485D01*
X150774410Y-102658176D01*
X150712387Y-102770995D01*
X150649621Y-102968861D01*
X150648935Y-102974978D01*
X150648934Y-102974982D01*
X150648640Y-102977604D01*
X150626482Y-103175150D01*
X150212166Y-103175150D01*
X150193365Y-102983408D01*
X150145679Y-102825461D01*
X150135152Y-102790593D01*
X150135151Y-102790590D01*
X150133368Y-102784685D01*
X150126089Y-102770995D01*
X150038809Y-102606847D01*
X150038808Y-102606845D01*
X150035913Y-102601401D01*
X149971388Y-102522285D01*
X149908610Y-102445311D01*
X149908607Y-102445308D01*
X149904715Y-102440536D01*
X149897770Y-102434790D01*
X149749518Y-102312145D01*
X149749519Y-102312145D01*
X149744770Y-102308217D01*
X149739353Y-102305288D01*
X149739350Y-102305286D01*
X149567590Y-102212416D01*
X149567585Y-102212414D01*
X149562170Y-102209486D01*
X149363871Y-102148102D01*
X149357746Y-102147458D01*
X149357745Y-102147458D01*
X149163554Y-102127048D01*
X149163552Y-102127048D01*
X149157425Y-102126404D01*
X149097376Y-102131869D01*
X148956836Y-102144659D01*
X148956833Y-102144660D01*
X148950697Y-102145218D01*
X148944791Y-102146956D01*
X148944787Y-102146957D01*
X148811339Y-102186233D01*
X148751560Y-102203827D01*
X148567600Y-102299999D01*
X148405823Y-102430071D01*
X148401865Y-102434788D01*
X148401863Y-102434790D01*
X148397042Y-102440536D01*
X148272391Y-102589089D01*
X148269427Y-102594481D01*
X148269424Y-102594485D01*
X148234410Y-102658176D01*
X148172387Y-102770995D01*
X148109621Y-102968861D01*
X148108935Y-102974978D01*
X148108934Y-102974982D01*
X148108640Y-102977604D01*
X148086482Y-103175150D01*
X147672166Y-103175150D01*
X147653365Y-102983408D01*
X147605679Y-102825461D01*
X147595152Y-102790593D01*
X147595151Y-102790590D01*
X147593368Y-102784685D01*
X147586089Y-102770995D01*
X147498809Y-102606847D01*
X147498808Y-102606845D01*
X147495913Y-102601401D01*
X147431388Y-102522285D01*
X147368610Y-102445311D01*
X147368607Y-102445308D01*
X147364715Y-102440536D01*
X147357770Y-102434790D01*
X147209518Y-102312145D01*
X147209519Y-102312145D01*
X147204770Y-102308217D01*
X147199353Y-102305288D01*
X147199350Y-102305286D01*
X147027590Y-102212416D01*
X147027585Y-102212414D01*
X147022170Y-102209486D01*
X146823871Y-102148102D01*
X146817746Y-102147458D01*
X146817745Y-102147458D01*
X146623554Y-102127048D01*
X146623552Y-102127048D01*
X146617425Y-102126404D01*
X146557376Y-102131869D01*
X146416836Y-102144659D01*
X146416833Y-102144660D01*
X146410697Y-102145218D01*
X146404791Y-102146956D01*
X146404787Y-102146957D01*
X146271339Y-102186233D01*
X146211560Y-102203827D01*
X146027600Y-102299999D01*
X145865823Y-102430071D01*
X145861865Y-102434788D01*
X145861863Y-102434790D01*
X145857042Y-102440536D01*
X145732391Y-102589089D01*
X145729427Y-102594481D01*
X145729424Y-102594485D01*
X145694410Y-102658176D01*
X145632387Y-102770995D01*
X145569621Y-102968861D01*
X145568935Y-102974978D01*
X145568934Y-102974982D01*
X145568640Y-102977604D01*
X145546482Y-103175150D01*
X145132166Y-103175150D01*
X145113365Y-102983408D01*
X145065679Y-102825461D01*
X145055152Y-102790593D01*
X145055151Y-102790590D01*
X145053368Y-102784685D01*
X145046089Y-102770995D01*
X144958809Y-102606847D01*
X144958808Y-102606845D01*
X144955913Y-102601401D01*
X144891388Y-102522285D01*
X144828610Y-102445311D01*
X144828607Y-102445308D01*
X144824715Y-102440536D01*
X144817770Y-102434790D01*
X144669518Y-102312145D01*
X144669519Y-102312145D01*
X144664770Y-102308217D01*
X144659353Y-102305288D01*
X144659350Y-102305286D01*
X144487590Y-102212416D01*
X144487585Y-102212414D01*
X144482170Y-102209486D01*
X144283871Y-102148102D01*
X144277746Y-102147458D01*
X144277745Y-102147458D01*
X144083554Y-102127048D01*
X144083552Y-102127048D01*
X144077425Y-102126404D01*
X144017376Y-102131869D01*
X143876836Y-102144659D01*
X143876833Y-102144660D01*
X143870697Y-102145218D01*
X143864791Y-102146956D01*
X143864787Y-102146957D01*
X143731339Y-102186233D01*
X143671560Y-102203827D01*
X143487600Y-102299999D01*
X143325823Y-102430071D01*
X143321865Y-102434788D01*
X143321863Y-102434790D01*
X143317042Y-102440536D01*
X143192391Y-102589089D01*
X143189427Y-102594481D01*
X143189424Y-102594485D01*
X143154410Y-102658176D01*
X143092387Y-102770995D01*
X143029621Y-102968861D01*
X143028935Y-102974978D01*
X143028934Y-102974982D01*
X143028640Y-102977604D01*
X143006482Y-103175150D01*
X142592166Y-103175150D01*
X142573365Y-102983408D01*
X142525679Y-102825461D01*
X142515152Y-102790593D01*
X142515151Y-102790590D01*
X142513368Y-102784685D01*
X142506089Y-102770995D01*
X142418809Y-102606847D01*
X142418808Y-102606845D01*
X142415913Y-102601401D01*
X142351388Y-102522285D01*
X142288610Y-102445311D01*
X142288607Y-102445308D01*
X142284715Y-102440536D01*
X142277770Y-102434790D01*
X142129518Y-102312145D01*
X142129519Y-102312145D01*
X142124770Y-102308217D01*
X142119353Y-102305288D01*
X142119350Y-102305286D01*
X141947590Y-102212416D01*
X141947585Y-102212414D01*
X141942170Y-102209486D01*
X141743871Y-102148102D01*
X141737746Y-102147458D01*
X141737745Y-102147458D01*
X141543554Y-102127048D01*
X141543552Y-102127048D01*
X141537425Y-102126404D01*
X141477376Y-102131869D01*
X141336836Y-102144659D01*
X141336833Y-102144660D01*
X141330697Y-102145218D01*
X141324791Y-102146956D01*
X141324787Y-102146957D01*
X141191339Y-102186233D01*
X141131560Y-102203827D01*
X140947600Y-102299999D01*
X140785823Y-102430071D01*
X140781865Y-102434788D01*
X140781863Y-102434790D01*
X140777042Y-102440536D01*
X140652391Y-102589089D01*
X140649427Y-102594481D01*
X140649424Y-102594485D01*
X140614410Y-102658176D01*
X140552387Y-102770995D01*
X140489621Y-102968861D01*
X140488935Y-102974978D01*
X140488934Y-102974982D01*
X140488640Y-102977604D01*
X140466482Y-103175150D01*
X140052166Y-103175150D01*
X140033365Y-102983408D01*
X139985679Y-102825461D01*
X139975152Y-102790593D01*
X139975151Y-102790590D01*
X139973368Y-102784685D01*
X139966089Y-102770995D01*
X139878809Y-102606847D01*
X139878808Y-102606845D01*
X139875913Y-102601401D01*
X139811388Y-102522285D01*
X139748610Y-102445311D01*
X139748607Y-102445308D01*
X139744715Y-102440536D01*
X139737770Y-102434790D01*
X139589518Y-102312145D01*
X139589519Y-102312145D01*
X139584770Y-102308217D01*
X139579353Y-102305288D01*
X139579350Y-102305286D01*
X139407590Y-102212416D01*
X139407585Y-102212414D01*
X139402170Y-102209486D01*
X139203871Y-102148102D01*
X139197746Y-102147458D01*
X139197745Y-102147458D01*
X139003554Y-102127048D01*
X139003552Y-102127048D01*
X138997425Y-102126404D01*
X138937376Y-102131869D01*
X138796836Y-102144659D01*
X138796833Y-102144660D01*
X138790697Y-102145218D01*
X138784791Y-102146956D01*
X138784787Y-102146957D01*
X138651339Y-102186233D01*
X138591560Y-102203827D01*
X138407600Y-102299999D01*
X138245823Y-102430071D01*
X138241865Y-102434788D01*
X138241863Y-102434790D01*
X138237042Y-102440536D01*
X138112391Y-102589089D01*
X138109427Y-102594481D01*
X138109424Y-102594485D01*
X138074410Y-102658176D01*
X138012387Y-102770995D01*
X137949621Y-102968861D01*
X137948935Y-102974978D01*
X137948934Y-102974982D01*
X137948640Y-102977604D01*
X137926482Y-103175150D01*
X111506000Y-103175150D01*
X111506000Y-98341294D01*
X145173066Y-98341294D01*
X145182948Y-98353783D01*
X145214239Y-98374691D01*
X145224349Y-98380181D01*
X145400835Y-98456005D01*
X145411778Y-98459560D01*
X145599120Y-98501952D01*
X145610530Y-98503454D01*
X145802469Y-98510995D01*
X145813951Y-98510393D01*
X146004045Y-98482832D01*
X146015240Y-98480144D01*
X146197131Y-98418400D01*
X146207628Y-98413726D01*
X146318032Y-98351898D01*
X146327895Y-98341821D01*
X146324940Y-98334151D01*
X145762811Y-97772021D01*
X145748868Y-97764408D01*
X145747034Y-97764539D01*
X145740420Y-97768790D01*
X145179259Y-98329952D01*
X145173066Y-98341294D01*
X111506000Y-98341294D01*
X111506000Y-97376638D01*
X144638012Y-97376638D01*
X144650575Y-97568304D01*
X144652376Y-97579674D01*
X144699657Y-97765843D01*
X144703498Y-97776690D01*
X144783916Y-97951130D01*
X144789664Y-97961086D01*
X144795788Y-97969751D01*
X144806377Y-97978140D01*
X144819676Y-97971113D01*
X145377979Y-97412811D01*
X145384356Y-97401132D01*
X146114408Y-97401132D01*
X146114539Y-97402966D01*
X146118790Y-97409580D01*
X146680239Y-97971028D01*
X146692614Y-97977785D01*
X146699194Y-97972859D01*
X146763726Y-97857628D01*
X146768400Y-97847131D01*
X146830144Y-97665240D01*
X146832832Y-97654045D01*
X146860689Y-97461911D01*
X146861319Y-97454528D01*
X146862650Y-97403704D01*
X146862407Y-97396305D01*
X146860069Y-97370859D01*
X147137132Y-97370859D01*
X147150457Y-97574151D01*
X147200605Y-97771610D01*
X147285898Y-97956624D01*
X147403479Y-98122997D01*
X147549410Y-98265157D01*
X147554206Y-98268362D01*
X147554209Y-98268364D01*
X147679227Y-98351898D01*
X147718803Y-98378342D01*
X147724106Y-98380620D01*
X147724109Y-98380622D01*
X147900680Y-98456483D01*
X147905987Y-98458763D01*
X147978817Y-98475243D01*
X148099055Y-98502450D01*
X148099060Y-98502451D01*
X148104692Y-98503725D01*
X148110463Y-98503952D01*
X148110465Y-98503952D01*
X148173470Y-98506427D01*
X148308263Y-98511723D01*
X148509883Y-98482490D01*
X148515347Y-98480635D01*
X148515352Y-98480634D01*
X148697327Y-98418862D01*
X148697332Y-98418860D01*
X148702799Y-98417004D01*
X148708653Y-98413726D01*
X148819054Y-98351898D01*
X148880551Y-98317458D01*
X149037186Y-98187186D01*
X149167458Y-98030551D01*
X149267004Y-97852799D01*
X149268860Y-97847332D01*
X149268862Y-97847327D01*
X149330634Y-97665352D01*
X149330635Y-97665347D01*
X149332490Y-97659883D01*
X149361723Y-97458263D01*
X149363249Y-97400000D01*
X149360571Y-97370859D01*
X151337132Y-97370859D01*
X151350457Y-97574151D01*
X151400605Y-97771610D01*
X151485898Y-97956624D01*
X151603479Y-98122997D01*
X151749410Y-98265157D01*
X151754206Y-98268362D01*
X151754209Y-98268364D01*
X151879227Y-98351898D01*
X151918803Y-98378342D01*
X151924106Y-98380620D01*
X151924109Y-98380622D01*
X152100680Y-98456483D01*
X152105987Y-98458763D01*
X152178817Y-98475243D01*
X152299055Y-98502450D01*
X152299060Y-98502451D01*
X152304692Y-98503725D01*
X152310463Y-98503952D01*
X152310465Y-98503952D01*
X152373470Y-98506427D01*
X152508263Y-98511723D01*
X152709883Y-98482490D01*
X152715347Y-98480635D01*
X152715352Y-98480634D01*
X152897327Y-98418862D01*
X152897332Y-98418860D01*
X152902799Y-98417004D01*
X152908653Y-98413726D01*
X153019054Y-98351898D01*
X153037989Y-98341294D01*
X154373066Y-98341294D01*
X154382948Y-98353783D01*
X154414239Y-98374691D01*
X154424349Y-98380181D01*
X154600835Y-98456005D01*
X154611778Y-98459560D01*
X154799120Y-98501952D01*
X154810530Y-98503454D01*
X155002469Y-98510995D01*
X155013951Y-98510393D01*
X155204045Y-98482832D01*
X155215240Y-98480144D01*
X155397131Y-98418400D01*
X155407628Y-98413726D01*
X155518032Y-98351898D01*
X155527895Y-98341821D01*
X155524940Y-98334151D01*
X154962811Y-97772021D01*
X154948868Y-97764408D01*
X154947034Y-97764539D01*
X154940420Y-97768790D01*
X154379259Y-98329952D01*
X154373066Y-98341294D01*
X153037989Y-98341294D01*
X153080551Y-98317458D01*
X153237186Y-98187186D01*
X153367458Y-98030551D01*
X153467004Y-97852799D01*
X153468860Y-97847332D01*
X153468862Y-97847327D01*
X153530634Y-97665352D01*
X153530635Y-97665347D01*
X153532490Y-97659883D01*
X153561723Y-97458263D01*
X153563249Y-97400000D01*
X153561102Y-97376638D01*
X153838012Y-97376638D01*
X153850575Y-97568304D01*
X153852376Y-97579674D01*
X153899657Y-97765843D01*
X153903498Y-97776690D01*
X153983916Y-97951130D01*
X153989664Y-97961086D01*
X153995788Y-97969751D01*
X154006377Y-97978140D01*
X154019676Y-97971113D01*
X154577979Y-97412811D01*
X154584356Y-97401132D01*
X155314408Y-97401132D01*
X155314539Y-97402966D01*
X155318790Y-97409580D01*
X155880239Y-97971028D01*
X155892614Y-97977785D01*
X155899194Y-97972859D01*
X155963726Y-97857628D01*
X155968400Y-97847131D01*
X156030144Y-97665240D01*
X156032832Y-97654045D01*
X156060689Y-97461911D01*
X156061319Y-97454528D01*
X156062650Y-97403704D01*
X156062407Y-97396305D01*
X156060069Y-97370859D01*
X163277132Y-97370859D01*
X163290457Y-97574151D01*
X163340605Y-97771610D01*
X163425898Y-97956624D01*
X163543479Y-98122997D01*
X163689410Y-98265157D01*
X163694206Y-98268362D01*
X163694209Y-98268364D01*
X163819227Y-98351898D01*
X163858803Y-98378342D01*
X163864106Y-98380620D01*
X163864109Y-98380622D01*
X164040680Y-98456483D01*
X164045987Y-98458763D01*
X164118817Y-98475243D01*
X164239055Y-98502450D01*
X164239060Y-98502451D01*
X164244692Y-98503725D01*
X164250463Y-98503952D01*
X164250465Y-98503952D01*
X164313470Y-98506427D01*
X164448263Y-98511723D01*
X164649883Y-98482490D01*
X164655347Y-98480635D01*
X164655352Y-98480634D01*
X164837327Y-98418862D01*
X164837332Y-98418860D01*
X164842799Y-98417004D01*
X164848653Y-98413726D01*
X164959054Y-98351898D01*
X165020551Y-98317458D01*
X165177186Y-98187186D01*
X165307458Y-98030551D01*
X165407004Y-97852799D01*
X165408860Y-97847332D01*
X165408862Y-97847327D01*
X165470634Y-97665352D01*
X165470635Y-97665347D01*
X165472490Y-97659883D01*
X165501723Y-97458263D01*
X165503249Y-97400000D01*
X165500571Y-97370859D01*
X170897132Y-97370859D01*
X170910457Y-97574151D01*
X170960605Y-97771610D01*
X171045898Y-97956624D01*
X171163479Y-98122997D01*
X171309410Y-98265157D01*
X171314206Y-98268362D01*
X171314209Y-98268364D01*
X171439227Y-98351898D01*
X171478803Y-98378342D01*
X171484106Y-98380620D01*
X171484109Y-98380622D01*
X171660680Y-98456483D01*
X171665987Y-98458763D01*
X171738817Y-98475243D01*
X171859055Y-98502450D01*
X171859060Y-98502451D01*
X171864692Y-98503725D01*
X171870463Y-98503952D01*
X171870465Y-98503952D01*
X171933470Y-98506427D01*
X172068263Y-98511723D01*
X172269883Y-98482490D01*
X172275347Y-98480635D01*
X172275352Y-98480634D01*
X172457327Y-98418862D01*
X172457332Y-98418860D01*
X172462799Y-98417004D01*
X172468653Y-98413726D01*
X172579054Y-98351898D01*
X172640551Y-98317458D01*
X172797186Y-98187186D01*
X172927458Y-98030551D01*
X173027004Y-97852799D01*
X173028860Y-97847332D01*
X173028862Y-97847327D01*
X173090634Y-97665352D01*
X173090635Y-97665347D01*
X173092490Y-97659883D01*
X173121723Y-97458263D01*
X173123249Y-97400000D01*
X173111860Y-97276049D01*
X173105137Y-97202880D01*
X173105136Y-97202877D01*
X173104608Y-97197126D01*
X173049307Y-97001047D01*
X173038776Y-96979691D01*
X172961756Y-96823510D01*
X172959201Y-96818329D01*
X172940796Y-96793681D01*
X172840758Y-96659715D01*
X172840758Y-96659714D01*
X172837305Y-96655091D01*
X172687703Y-96516800D01*
X172581947Y-96450073D01*
X172520288Y-96411169D01*
X172520283Y-96411167D01*
X172515404Y-96408088D01*
X172326180Y-96332595D01*
X172151663Y-96297881D01*
X172132032Y-96293976D01*
X172132031Y-96293976D01*
X172126366Y-96292849D01*
X172120592Y-96292773D01*
X172120588Y-96292773D01*
X172017452Y-96291424D01*
X171922655Y-96290183D01*
X171916958Y-96291162D01*
X171916957Y-96291162D01*
X171897671Y-96294476D01*
X171721870Y-96324684D01*
X171530734Y-96395198D01*
X171525773Y-96398150D01*
X171525772Y-96398150D01*
X171409939Y-96467064D01*
X171355649Y-96499363D01*
X171202478Y-96633690D01*
X171198911Y-96638215D01*
X171198906Y-96638220D01*
X171112331Y-96748040D01*
X171076351Y-96793681D01*
X171073662Y-96798792D01*
X171073660Y-96798795D01*
X171058946Y-96826762D01*
X170981492Y-96973978D01*
X170921078Y-97168543D01*
X170897132Y-97370859D01*
X165500571Y-97370859D01*
X165491860Y-97276049D01*
X165485137Y-97202880D01*
X165485136Y-97202877D01*
X165484608Y-97197126D01*
X165429307Y-97001047D01*
X165418776Y-96979691D01*
X165341756Y-96823510D01*
X165339201Y-96818329D01*
X165320796Y-96793681D01*
X165220758Y-96659715D01*
X165220758Y-96659714D01*
X165217305Y-96655091D01*
X165067703Y-96516800D01*
X164961947Y-96450073D01*
X164900288Y-96411169D01*
X164900283Y-96411167D01*
X164895404Y-96408088D01*
X164706180Y-96332595D01*
X164531663Y-96297881D01*
X164512032Y-96293976D01*
X164512031Y-96293976D01*
X164506366Y-96292849D01*
X164500592Y-96292773D01*
X164500588Y-96292773D01*
X164397452Y-96291424D01*
X164302655Y-96290183D01*
X164296958Y-96291162D01*
X164296957Y-96291162D01*
X164277671Y-96294476D01*
X164101870Y-96324684D01*
X163910734Y-96395198D01*
X163905773Y-96398150D01*
X163905772Y-96398150D01*
X163789939Y-96467064D01*
X163735649Y-96499363D01*
X163582478Y-96633690D01*
X163578911Y-96638215D01*
X163578906Y-96638220D01*
X163492331Y-96748040D01*
X163456351Y-96793681D01*
X163453662Y-96798792D01*
X163453660Y-96798795D01*
X163438946Y-96826762D01*
X163361492Y-96973978D01*
X163301078Y-97168543D01*
X163277132Y-97370859D01*
X156060069Y-97370859D01*
X156044643Y-97202975D01*
X156042545Y-97191654D01*
X155990408Y-97006791D01*
X155986283Y-96996044D01*
X155902163Y-96825465D01*
X155894869Y-96819990D01*
X155882449Y-96826762D01*
X155322021Y-97387189D01*
X155314408Y-97401132D01*
X154584356Y-97401132D01*
X154585592Y-97398868D01*
X154585461Y-97397034D01*
X154581210Y-97390420D01*
X154018538Y-96827749D01*
X154006163Y-96820992D01*
X154000197Y-96825458D01*
X153924645Y-96969058D01*
X153920242Y-96979691D01*
X153863281Y-97163132D01*
X153860891Y-97174376D01*
X153838313Y-97365137D01*
X153838012Y-97376638D01*
X153561102Y-97376638D01*
X153551860Y-97276049D01*
X153545137Y-97202880D01*
X153545136Y-97202877D01*
X153544608Y-97197126D01*
X153489307Y-97001047D01*
X153478776Y-96979691D01*
X153401756Y-96823510D01*
X153399201Y-96818329D01*
X153380796Y-96793681D01*
X153280758Y-96659715D01*
X153280758Y-96659714D01*
X153277305Y-96655091D01*
X153127703Y-96516800D01*
X153035580Y-96458675D01*
X154372788Y-96458675D01*
X154376275Y-96467064D01*
X154937189Y-97027979D01*
X154951132Y-97035592D01*
X154952966Y-97035461D01*
X154959580Y-97031210D01*
X155520285Y-96470504D01*
X155527042Y-96458129D01*
X155521012Y-96450073D01*
X155460061Y-96411616D01*
X155449813Y-96406395D01*
X155271401Y-96335216D01*
X155260373Y-96331949D01*
X155071982Y-96294476D01*
X155060535Y-96293273D01*
X154868477Y-96290759D01*
X154856997Y-96291662D01*
X154667697Y-96324190D01*
X154656577Y-96327170D01*
X154476365Y-96393653D01*
X154465991Y-96398601D01*
X154382385Y-96448342D01*
X154372788Y-96458675D01*
X153035580Y-96458675D01*
X153021947Y-96450073D01*
X152960288Y-96411169D01*
X152960283Y-96411167D01*
X152955404Y-96408088D01*
X152766180Y-96332595D01*
X152591663Y-96297881D01*
X152572032Y-96293976D01*
X152572031Y-96293976D01*
X152566366Y-96292849D01*
X152560592Y-96292773D01*
X152560588Y-96292773D01*
X152457452Y-96291424D01*
X152362655Y-96290183D01*
X152356958Y-96291162D01*
X152356957Y-96291162D01*
X152337671Y-96294476D01*
X152161870Y-96324684D01*
X151970734Y-96395198D01*
X151965773Y-96398150D01*
X151965772Y-96398150D01*
X151849939Y-96467064D01*
X151795649Y-96499363D01*
X151642478Y-96633690D01*
X151638911Y-96638215D01*
X151638906Y-96638220D01*
X151552331Y-96748040D01*
X151516351Y-96793681D01*
X151513662Y-96798792D01*
X151513660Y-96798795D01*
X151498946Y-96826762D01*
X151421492Y-96973978D01*
X151361078Y-97168543D01*
X151337132Y-97370859D01*
X149360571Y-97370859D01*
X149351860Y-97276049D01*
X149345137Y-97202880D01*
X149345136Y-97202877D01*
X149344608Y-97197126D01*
X149289307Y-97001047D01*
X149278776Y-96979691D01*
X149201756Y-96823510D01*
X149199201Y-96818329D01*
X149180796Y-96793681D01*
X149080758Y-96659715D01*
X149080758Y-96659714D01*
X149077305Y-96655091D01*
X148927703Y-96516800D01*
X148821947Y-96450073D01*
X148760288Y-96411169D01*
X148760283Y-96411167D01*
X148755404Y-96408088D01*
X148566180Y-96332595D01*
X148391663Y-96297881D01*
X148372032Y-96293976D01*
X148372031Y-96293976D01*
X148366366Y-96292849D01*
X148360592Y-96292773D01*
X148360588Y-96292773D01*
X148257452Y-96291424D01*
X148162655Y-96290183D01*
X148156958Y-96291162D01*
X148156957Y-96291162D01*
X148137671Y-96294476D01*
X147961870Y-96324684D01*
X147770734Y-96395198D01*
X147765773Y-96398150D01*
X147765772Y-96398150D01*
X147649939Y-96467064D01*
X147595649Y-96499363D01*
X147442478Y-96633690D01*
X147438911Y-96638215D01*
X147438906Y-96638220D01*
X147352331Y-96748040D01*
X147316351Y-96793681D01*
X147313662Y-96798792D01*
X147313660Y-96798795D01*
X147298946Y-96826762D01*
X147221492Y-96973978D01*
X147161078Y-97168543D01*
X147137132Y-97370859D01*
X146860069Y-97370859D01*
X146844643Y-97202975D01*
X146842545Y-97191654D01*
X146790408Y-97006791D01*
X146786283Y-96996044D01*
X146702163Y-96825465D01*
X146694869Y-96819990D01*
X146682449Y-96826762D01*
X146122021Y-97387189D01*
X146114408Y-97401132D01*
X145384356Y-97401132D01*
X145385592Y-97398868D01*
X145385461Y-97397034D01*
X145381210Y-97390420D01*
X144818538Y-96827749D01*
X144806163Y-96820992D01*
X144800197Y-96825458D01*
X144724645Y-96969058D01*
X144720242Y-96979691D01*
X144663281Y-97163132D01*
X144660891Y-97174376D01*
X144638313Y-97365137D01*
X144638012Y-97376638D01*
X111506000Y-97376638D01*
X111506000Y-96458675D01*
X145172788Y-96458675D01*
X145176275Y-96467064D01*
X145737189Y-97027979D01*
X145751132Y-97035592D01*
X145752966Y-97035461D01*
X145759580Y-97031210D01*
X146320285Y-96470504D01*
X146327042Y-96458129D01*
X146321012Y-96450073D01*
X146260061Y-96411616D01*
X146249813Y-96406395D01*
X146071401Y-96335216D01*
X146060373Y-96331949D01*
X145871982Y-96294476D01*
X145860535Y-96293273D01*
X145668477Y-96290759D01*
X145656997Y-96291662D01*
X145467697Y-96324190D01*
X145456577Y-96327170D01*
X145276365Y-96393653D01*
X145265991Y-96398601D01*
X145182385Y-96448342D01*
X145172788Y-96458675D01*
X111506000Y-96458675D01*
X111506000Y-89670793D01*
X146794622Y-89670793D01*
X146807977Y-89874543D01*
X146858238Y-90072448D01*
X146943723Y-90257880D01*
X147061569Y-90424628D01*
X147207829Y-90567108D01*
X147212625Y-90570313D01*
X147212628Y-90570315D01*
X147280755Y-90615836D01*
X147377605Y-90680549D01*
X147382908Y-90682827D01*
X147382911Y-90682829D01*
X147467793Y-90719297D01*
X147565211Y-90761151D01*
X147662101Y-90783075D01*
X147758728Y-90804940D01*
X147758731Y-90804940D01*
X147764364Y-90806215D01*
X147770135Y-90806442D01*
X147770137Y-90806442D01*
X147833401Y-90808927D01*
X147968394Y-90814231D01*
X148069432Y-90799581D01*
X148164755Y-90785760D01*
X148164760Y-90785759D01*
X148170469Y-90784931D01*
X148236767Y-90762426D01*
X148358352Y-90721153D01*
X148363820Y-90719297D01*
X148541973Y-90619527D01*
X148698961Y-90488961D01*
X148829527Y-90331973D01*
X148929297Y-90153820D01*
X148994931Y-89960469D01*
X149024231Y-89758394D01*
X149025760Y-89700000D01*
X149023077Y-89670793D01*
X151674622Y-89670793D01*
X151687977Y-89874543D01*
X151738238Y-90072448D01*
X151823723Y-90257880D01*
X151941569Y-90424628D01*
X152087829Y-90567108D01*
X152092625Y-90570313D01*
X152092628Y-90570315D01*
X152160755Y-90615836D01*
X152257605Y-90680549D01*
X152262908Y-90682827D01*
X152262911Y-90682829D01*
X152347793Y-90719297D01*
X152445211Y-90761151D01*
X152542101Y-90783075D01*
X152638728Y-90804940D01*
X152638731Y-90804940D01*
X152644364Y-90806215D01*
X152650135Y-90806442D01*
X152650137Y-90806442D01*
X152713401Y-90808927D01*
X152848394Y-90814231D01*
X152949432Y-90799581D01*
X153044755Y-90785760D01*
X153044760Y-90785759D01*
X153050469Y-90784931D01*
X153116767Y-90762426D01*
X153238352Y-90721153D01*
X153243820Y-90719297D01*
X153421973Y-90619527D01*
X153578961Y-90488961D01*
X153709527Y-90331973D01*
X153809297Y-90153820D01*
X153874931Y-89960469D01*
X153904231Y-89758394D01*
X153905760Y-89700000D01*
X153903077Y-89670793D01*
X153887605Y-89502423D01*
X153887604Y-89502420D01*
X153887076Y-89496669D01*
X153831652Y-89300147D01*
X153741342Y-89117017D01*
X153619171Y-88953411D01*
X153469232Y-88814808D01*
X153296544Y-88705851D01*
X153263118Y-88692515D01*
X153166166Y-88653835D01*
X153106893Y-88630187D01*
X153101225Y-88629060D01*
X153101223Y-88629059D01*
X152912296Y-88591479D01*
X152912293Y-88591479D01*
X152906629Y-88590352D01*
X152900854Y-88590276D01*
X152900850Y-88590276D01*
X152799147Y-88588945D01*
X152702458Y-88587680D01*
X152696761Y-88588659D01*
X152696760Y-88588659D01*
X152506910Y-88621281D01*
X152506907Y-88621282D01*
X152501220Y-88622259D01*
X152309653Y-88692931D01*
X152291532Y-88703712D01*
X152160598Y-88781610D01*
X152134173Y-88797331D01*
X151980656Y-88931961D01*
X151854245Y-89092314D01*
X151759172Y-89273017D01*
X151698622Y-89468020D01*
X151674622Y-89670793D01*
X149023077Y-89670793D01*
X149007605Y-89502423D01*
X149007604Y-89502420D01*
X149007076Y-89496669D01*
X148951652Y-89300147D01*
X148861342Y-89117017D01*
X148739171Y-88953411D01*
X148589232Y-88814808D01*
X148416544Y-88705851D01*
X148383118Y-88692515D01*
X148286166Y-88653835D01*
X148226893Y-88630187D01*
X148221225Y-88629060D01*
X148221223Y-88629059D01*
X148032296Y-88591479D01*
X148032293Y-88591479D01*
X148026629Y-88590352D01*
X148020854Y-88590276D01*
X148020850Y-88590276D01*
X147919147Y-88588945D01*
X147822458Y-88587680D01*
X147816761Y-88588659D01*
X147816760Y-88588659D01*
X147626910Y-88621281D01*
X147626907Y-88621282D01*
X147621220Y-88622259D01*
X147429653Y-88692931D01*
X147411532Y-88703712D01*
X147280598Y-88781610D01*
X147254173Y-88797331D01*
X147100656Y-88931961D01*
X146974245Y-89092314D01*
X146879172Y-89273017D01*
X146818622Y-89468020D01*
X146794622Y-89670793D01*
X111506000Y-89670793D01*
X111506000Y-81470859D01*
X163277132Y-81470859D01*
X163290457Y-81674151D01*
X163340605Y-81871610D01*
X163425898Y-82056624D01*
X163543479Y-82222997D01*
X163689410Y-82365157D01*
X163694206Y-82368362D01*
X163694209Y-82368364D01*
X163762149Y-82413760D01*
X163858803Y-82478342D01*
X163864106Y-82480620D01*
X163864109Y-82480622D01*
X163953115Y-82518862D01*
X164045987Y-82558763D01*
X164118817Y-82575243D01*
X164239055Y-82602450D01*
X164239060Y-82602451D01*
X164244692Y-82603725D01*
X164250463Y-82603952D01*
X164250465Y-82603952D01*
X164313470Y-82606427D01*
X164448263Y-82611723D01*
X164649883Y-82582490D01*
X164655347Y-82580635D01*
X164655352Y-82580634D01*
X164837327Y-82518862D01*
X164837332Y-82518860D01*
X164842799Y-82517004D01*
X165020551Y-82417458D01*
X165177186Y-82287186D01*
X165307458Y-82130551D01*
X165407004Y-81952799D01*
X165408860Y-81947332D01*
X165408862Y-81947327D01*
X165470634Y-81765352D01*
X165470635Y-81765347D01*
X165472490Y-81759883D01*
X165501723Y-81558263D01*
X165503249Y-81500000D01*
X165500571Y-81470859D01*
X170897132Y-81470859D01*
X170910457Y-81674151D01*
X170960605Y-81871610D01*
X171045898Y-82056624D01*
X171163479Y-82222997D01*
X171309410Y-82365157D01*
X171314206Y-82368362D01*
X171314209Y-82368364D01*
X171382149Y-82413760D01*
X171478803Y-82478342D01*
X171484106Y-82480620D01*
X171484109Y-82480622D01*
X171573115Y-82518862D01*
X171665987Y-82558763D01*
X171738817Y-82575243D01*
X171859055Y-82602450D01*
X171859060Y-82602451D01*
X171864692Y-82603725D01*
X171870463Y-82603952D01*
X171870465Y-82603952D01*
X171933470Y-82606427D01*
X172068263Y-82611723D01*
X172269883Y-82582490D01*
X172275347Y-82580635D01*
X172275352Y-82580634D01*
X172457327Y-82518862D01*
X172457332Y-82518860D01*
X172462799Y-82517004D01*
X172640551Y-82417458D01*
X172797186Y-82287186D01*
X172927458Y-82130551D01*
X173027004Y-81952799D01*
X173028860Y-81947332D01*
X173028862Y-81947327D01*
X173090634Y-81765352D01*
X173090635Y-81765347D01*
X173092490Y-81759883D01*
X173121723Y-81558263D01*
X173123249Y-81500000D01*
X173104608Y-81297126D01*
X173049307Y-81101047D01*
X173038680Y-81079496D01*
X172961756Y-80923510D01*
X172959201Y-80918329D01*
X172940796Y-80893681D01*
X172840758Y-80759715D01*
X172840758Y-80759714D01*
X172837305Y-80755091D01*
X172687703Y-80616800D01*
X172641675Y-80587759D01*
X172520288Y-80511169D01*
X172520283Y-80511167D01*
X172515404Y-80508088D01*
X172326180Y-80432595D01*
X172126366Y-80392849D01*
X172120592Y-80392773D01*
X172120588Y-80392773D01*
X172017452Y-80391424D01*
X171922655Y-80390183D01*
X171916958Y-80391162D01*
X171916957Y-80391162D01*
X171727567Y-80423705D01*
X171721870Y-80424684D01*
X171530734Y-80495198D01*
X171355649Y-80599363D01*
X171202478Y-80733690D01*
X171198911Y-80738215D01*
X171198906Y-80738220D01*
X171112331Y-80848040D01*
X171076351Y-80893681D01*
X170981492Y-81073978D01*
X170921078Y-81268543D01*
X170897132Y-81470859D01*
X165500571Y-81470859D01*
X165484608Y-81297126D01*
X165429307Y-81101047D01*
X165418680Y-81079496D01*
X165341756Y-80923510D01*
X165339201Y-80918329D01*
X165320796Y-80893681D01*
X165220758Y-80759715D01*
X165220758Y-80759714D01*
X165217305Y-80755091D01*
X165067703Y-80616800D01*
X165021675Y-80587759D01*
X164900288Y-80511169D01*
X164900283Y-80511167D01*
X164895404Y-80508088D01*
X164706180Y-80432595D01*
X164506366Y-80392849D01*
X164500592Y-80392773D01*
X164500588Y-80392773D01*
X164397452Y-80391424D01*
X164302655Y-80390183D01*
X164296958Y-80391162D01*
X164296957Y-80391162D01*
X164107567Y-80423705D01*
X164101870Y-80424684D01*
X163910734Y-80495198D01*
X163735649Y-80599363D01*
X163582478Y-80733690D01*
X163578911Y-80738215D01*
X163578906Y-80738220D01*
X163492331Y-80848040D01*
X163456351Y-80893681D01*
X163361492Y-81073978D01*
X163301078Y-81268543D01*
X163277132Y-81470859D01*
X111506000Y-81470859D01*
X111506000Y-73659000D01*
X111526002Y-73590879D01*
X111579658Y-73544386D01*
X111632000Y-73533000D01*
X124372408Y-73533000D01*
X124440529Y-73553002D01*
G37*
%TD.AperFunction*%
%TD*%
M02*
