%TF.GenerationSoftware,KiCad,Pcbnew,6.0.0-d3dd2cf0fa~116~ubuntu21.10.1*%
%TF.CreationDate,2022-01-12T20:56:24-05:00*%
%TF.ProjectId,ardustack-mcu,61726475-7374-4616-936b-2d6d63752e6b,rev?*%
%TF.SameCoordinates,Original*%
%TF.FileFunction,Copper,L1,Top*%
%TF.FilePolarity,Positive*%
%FSLAX46Y46*%
G04 Gerber Fmt 4.6, Leading zero omitted, Abs format (unit mm)*
G04 Created by KiCad (PCBNEW 6.0.0-d3dd2cf0fa~116~ubuntu21.10.1) date 2022-01-12 20:56:24*
%MOMM*%
%LPD*%
G01*
G04 APERTURE LIST*
%TA.AperFunction,ComponentPad*%
%ADD10O,1.727200X2.032000*%
%TD*%
%TA.AperFunction,ComponentPad*%
%ADD11C,4.064000*%
%TD*%
%TA.AperFunction,ComponentPad*%
%ADD12C,1.200000*%
%TD*%
%TA.AperFunction,ComponentPad*%
%ADD13R,1.100000X1.100000*%
%TD*%
%TA.AperFunction,ComponentPad*%
%ADD14C,1.100000*%
%TD*%
%TA.AperFunction,ComponentPad*%
%ADD15C,1.205000*%
%TD*%
%TA.AperFunction,Conductor*%
%ADD16C,0.250000*%
%TD*%
G04 APERTURE END LIST*
D10*
%TO.P,P1,1,Pin_1*%
%TO.N,unconnected-(P1-Pad1)*%
X138938000Y-123825000D03*
%TO.P,P1,2,Pin_2*%
%TO.N,+5V*%
X141478000Y-123825000D03*
%TO.P,P1,3,Pin_3*%
%TO.N,/Reset*%
X144018000Y-123825000D03*
%TO.P,P1,4,Pin_4*%
%TO.N,+3V3*%
X146558000Y-123825000D03*
%TO.P,P1,5,Pin_5*%
%TO.N,+5V*%
X149098000Y-123825000D03*
%TO.P,P1,6,Pin_6*%
%TO.N,GND*%
X151638000Y-123825000D03*
%TO.P,P1,7,Pin_7*%
X154178000Y-123825000D03*
%TO.P,P1,8,Pin_8*%
%TO.N,/Vin*%
X156718000Y-123825000D03*
%TD*%
%TO.P,P2,1,Pin_1*%
%TO.N,/A0*%
X161798000Y-123825000D03*
%TO.P,P2,2,Pin_2*%
%TO.N,/A1*%
X164338000Y-123825000D03*
%TO.P,P2,3,Pin_3*%
%TO.N,/A2*%
X166878000Y-123825000D03*
%TO.P,P2,4,Pin_4*%
%TO.N,/A3*%
X169418000Y-123825000D03*
%TO.P,P2,5,Pin_5*%
%TO.N,/A4(SDA)*%
X171958000Y-123825000D03*
%TO.P,P2,6,Pin_6*%
%TO.N,/A5(SCL)*%
X174498000Y-123825000D03*
%TD*%
%TO.P,P3,1,Pin_1*%
%TO.N,unconnected-(P3-Pad1)*%
X129794000Y-75565000D03*
%TO.P,P3,2,Pin_2*%
%TO.N,unconnected-(P3-Pad2)*%
X132334000Y-75565000D03*
%TO.P,P3,3,Pin_3*%
%TO.N,/AREF*%
X134874000Y-75565000D03*
%TO.P,P3,4,Pin_4*%
%TO.N,GND*%
X137414000Y-75565000D03*
%TO.P,P3,5,Pin_5*%
%TO.N,/13(SCK)*%
X139954000Y-75565000D03*
%TO.P,P3,6,Pin_6*%
%TO.N,/12(MISO)*%
X142494000Y-75565000D03*
%TO.P,P3,7,Pin_7*%
%TO.N,/11(\u002A\u002A{slash}MOSI)*%
X145034000Y-75565000D03*
%TO.P,P3,8,Pin_8*%
%TO.N,/10(\u002A\u002A{slash}SS)*%
X147574000Y-75565000D03*
%TO.P,P3,9,Pin_9*%
%TO.N,/9(\u002A\u002A)*%
X150114000Y-75565000D03*
%TO.P,P3,10,Pin_10*%
%TO.N,/8*%
X152654000Y-75565000D03*
%TD*%
%TO.P,P4,1,Pin_1*%
%TO.N,/7*%
X156718000Y-75565000D03*
%TO.P,P4,2,Pin_2*%
%TO.N,/6(\u002A\u002A)*%
X159258000Y-75565000D03*
%TO.P,P4,3,Pin_3*%
%TO.N,/5(\u002A\u002A)*%
X161798000Y-75565000D03*
%TO.P,P4,4,Pin_4*%
%TO.N,/4*%
X164338000Y-75565000D03*
%TO.P,P4,5,Pin_5*%
%TO.N,/3(\u002A\u002A)*%
X166878000Y-75565000D03*
%TO.P,P4,6,Pin_6*%
%TO.N,/2*%
X169418000Y-75565000D03*
%TO.P,P4,7,Pin_7*%
%TO.N,/1(Tx)*%
X171958000Y-75565000D03*
%TO.P,P4,8,Pin_8*%
%TO.N,/0(Rx)*%
X174498000Y-75565000D03*
%TD*%
D11*
%TO.P,P5,1,Pin_1*%
%TO.N,unconnected-(P5-Pad1)*%
X124968000Y-123825000D03*
%TD*%
%TO.P,P6,1,Pin_1*%
%TO.N,unconnected-(P6-Pad1)*%
X177038000Y-118745000D03*
%TD*%
%TO.P,P7,1,Pin_1*%
%TO.N,unconnected-(P7-Pad1)*%
X126238000Y-75565000D03*
%TD*%
%TO.P,P8,1,Pin_1*%
%TO.N,unconnected-(P8-Pad1)*%
X177038000Y-90805000D03*
%TD*%
D12*
%TO.P,R1,1*%
%TO.N,Net-(J1-Pad2)*%
X172010000Y-97400000D03*
%TO.P,R1,2*%
%TO.N,/0(Rx)*%
X172010000Y-81500000D03*
%TD*%
%TO.P,R2,1*%
%TO.N,Net-(J1-Pad3)*%
X164390000Y-97400000D03*
%TO.P,R2,2*%
%TO.N,/1(Tx)*%
X164390000Y-81500000D03*
%TD*%
D13*
%TO.P,J1,1,1*%
%TO.N,/Reset*%
X172010000Y-103190000D03*
D14*
%TO.P,J1,2,2*%
%TO.N,Net-(J1-Pad2)*%
X169470000Y-103190000D03*
%TO.P,J1,3,3*%
%TO.N,Net-(J1-Pad3)*%
X166930000Y-103190000D03*
%TO.P,J1,4,4*%
%TO.N,/2*%
X164390000Y-103190000D03*
%TO.P,J1,5,5*%
%TO.N,/3(\u002A\u002A)*%
X161850000Y-103190000D03*
%TO.P,J1,6,6*%
%TO.N,/4*%
X159310000Y-103190000D03*
%TO.P,J1,7,7*%
%TO.N,+5V*%
X156770000Y-103190000D03*
%TO.P,J1,8,8*%
%TO.N,GND*%
X154230000Y-103190000D03*
%TO.P,J1,9,9*%
%TO.N,/CLK1*%
X151690000Y-103190000D03*
%TO.P,J1,10,10*%
%TO.N,/CLK2*%
X149150000Y-103190000D03*
%TO.P,J1,11,11*%
%TO.N,/5(\u002A\u002A)*%
X146610000Y-103190000D03*
%TO.P,J1,12,12*%
%TO.N,/6(\u002A\u002A)*%
X144070000Y-103190000D03*
%TO.P,J1,13,13*%
%TO.N,/7*%
X141530000Y-103190000D03*
%TO.P,J1,14,14*%
%TO.N,/8*%
X138990000Y-103190000D03*
%TO.P,J1,15,15*%
%TO.N,/9(\u002A\u002A)*%
X138990000Y-110810000D03*
%TO.P,J1,16,16*%
%TO.N,/10(\u002A\u002A{slash}SS)*%
X141530000Y-110810000D03*
%TO.P,J1,17,17*%
%TO.N,/11(\u002A\u002A{slash}MOSI)*%
X144070000Y-110810000D03*
%TO.P,J1,18,18*%
%TO.N,/12(MISO)*%
X146610000Y-110810000D03*
%TO.P,J1,19,19*%
%TO.N,/13(SCK)*%
X149150000Y-110810000D03*
%TO.P,J1,20,20*%
%TO.N,+5V*%
X151690000Y-110810000D03*
%TO.P,J1,21,21*%
%TO.N,/AREF*%
X154230000Y-110810000D03*
%TO.P,J1,22,22*%
%TO.N,GND*%
X156770000Y-110810000D03*
%TO.P,J1,23,23*%
%TO.N,/A0*%
X159310000Y-110810000D03*
%TO.P,J1,24,24*%
%TO.N,/A1*%
X161850000Y-110810000D03*
%TO.P,J1,25,25*%
%TO.N,/A2*%
X164390000Y-110810000D03*
%TO.P,J1,26,26*%
%TO.N,/A3*%
X166930000Y-110810000D03*
%TO.P,J1,27,27*%
%TO.N,/A4(SDA)*%
X169470000Y-110810000D03*
%TO.P,J1,28,28*%
%TO.N,/A5(SCL)*%
X172010000Y-110810000D03*
%TD*%
D12*
%TO.P,C3,1*%
%TO.N,/CLK2*%
X148250000Y-97400000D03*
%TO.P,C3,2*%
%TO.N,GND*%
X145750000Y-97400000D03*
%TD*%
%TO.P,C2,1*%
%TO.N,/CLK1*%
X152450000Y-97400000D03*
%TO.P,C2,2*%
%TO.N,GND*%
X154950000Y-97400000D03*
%TD*%
D15*
%TO.P,Y1,1,X1*%
%TO.N,/CLK1*%
X152790000Y-89700000D03*
%TO.P,Y1,2,X2*%
%TO.N,/CLK2*%
X147910000Y-89700000D03*
%TD*%
D12*
%TO.P,C1,1*%
%TO.N,+5V*%
X151690000Y-116720000D03*
%TO.P,C1,2*%
%TO.N,GND*%
X154190000Y-116720000D03*
%TD*%
D16*
%TO.N,/Reset*%
X158242000Y-124133655D02*
X157210135Y-125165520D01*
X157210135Y-125165520D02*
X145358520Y-125165520D01*
X145358520Y-125165520D02*
X144018000Y-123825000D01*
X164286489Y-104064511D02*
X158242000Y-110109000D01*
X158242000Y-110109000D02*
X158242000Y-124133655D01*
X172010000Y-103190000D02*
X171135489Y-104064511D01*
X171135489Y-104064511D02*
X164286489Y-104064511D01*
%TO.N,+5V*%
X149098000Y-123825000D02*
X149098000Y-119312000D01*
X142818520Y-122484480D02*
X147757480Y-122484480D01*
X147757480Y-122484480D02*
X149098000Y-123825000D01*
X154592235Y-111684511D02*
X152564511Y-111684511D01*
X149098000Y-119312000D02*
X151690000Y-116720000D01*
X151690000Y-110810000D02*
X151690000Y-116720000D01*
X156770000Y-103190000D02*
X156770000Y-109506746D01*
X141478000Y-123825000D02*
X142818520Y-122484480D01*
X156770000Y-109506746D02*
X154592235Y-111684511D01*
X152564511Y-111684511D02*
X151690000Y-110810000D01*
%TO.N,/A0*%
X159310000Y-121337000D02*
X161798000Y-123825000D01*
X159310000Y-110810000D02*
X159310000Y-121337000D01*
%TO.N,/A1*%
X161850000Y-110810000D02*
X161850000Y-121337000D01*
X161850000Y-121337000D02*
X164338000Y-123825000D01*
%TO.N,/A2*%
X164390000Y-110810000D02*
X164390000Y-121337000D01*
X164390000Y-121337000D02*
X166878000Y-123825000D01*
%TO.N,/A3*%
X166930000Y-110810000D02*
X166930000Y-121337000D01*
X166930000Y-121337000D02*
X169418000Y-123825000D01*
%TO.N,/AREF*%
X147257666Y-113939080D02*
X151261257Y-109935489D01*
X134874000Y-75565000D02*
X134874000Y-111888434D01*
X134874000Y-111888434D02*
X136924646Y-113939080D01*
X153355489Y-109935489D02*
X154230000Y-110810000D01*
X151261257Y-109935489D02*
X153355489Y-109935489D01*
X136924646Y-113939080D02*
X147257666Y-113939080D01*
%TO.N,/A4(SDA)*%
X169470000Y-121337000D02*
X171958000Y-123825000D01*
X169470000Y-110810000D02*
X169470000Y-121337000D01*
%TO.N,/A5(SCL)*%
X172010000Y-121337000D02*
X174498000Y-123825000D01*
X172010000Y-110810000D02*
X172010000Y-121337000D01*
%TO.N,/9(\u002A\u002A)*%
X138115489Y-109935489D02*
X138990000Y-110810000D01*
X138115489Y-87563511D02*
X138115489Y-109935489D01*
X150114000Y-75565000D02*
X138115489Y-87563511D01*
%TO.N,/8*%
X138990000Y-89229000D02*
X138990000Y-103190000D01*
X152654000Y-75565000D02*
X138990000Y-89229000D01*
%TO.N,/7*%
X156718000Y-75565000D02*
X141530000Y-90753000D01*
X141530000Y-90753000D02*
X141530000Y-103190000D01*
%TO.N,/6(\u002A\u002A)*%
X159258000Y-75565000D02*
X144070000Y-90753000D01*
X144070000Y-90753000D02*
X144070000Y-103190000D01*
%TO.N,/5(\u002A\u002A)*%
X146674511Y-89624496D02*
X146674511Y-103125489D01*
X148590011Y-88772989D02*
X147526018Y-88772989D01*
X147526018Y-88772989D02*
X146674511Y-89624496D01*
X161798000Y-75565000D02*
X148590011Y-88772989D01*
X146674511Y-103125489D02*
X146610000Y-103190000D01*
%TO.N,/4*%
X159310000Y-80593000D02*
X159310000Y-103190000D01*
X164338000Y-75565000D02*
X159310000Y-80593000D01*
%TO.N,/3(\u002A\u002A)*%
X166878000Y-75565000D02*
X161850000Y-80593000D01*
X161850000Y-80593000D02*
X161850000Y-103190000D01*
%TO.N,/2*%
X169418000Y-75565000D02*
X169017543Y-75565000D01*
X169017543Y-75565000D02*
X163465489Y-81117054D01*
X163465489Y-81117054D02*
X163465489Y-102265489D01*
X163465489Y-102265489D02*
X164390000Y-103190000D01*
%TO.N,/1(Tx)*%
X166023000Y-81500000D02*
X171958000Y-75565000D01*
X164390000Y-81500000D02*
X166023000Y-81500000D01*
%TO.N,/0(Rx)*%
X174498000Y-79012000D02*
X174498000Y-75565000D01*
X172010000Y-81500000D02*
X174498000Y-79012000D01*
%TO.N,Net-(J1-Pad2)*%
X169470000Y-99940000D02*
X169470000Y-103190000D01*
X172010000Y-97400000D02*
X169470000Y-99940000D01*
%TO.N,Net-(J1-Pad3)*%
X164390000Y-97400000D02*
X166930000Y-99940000D01*
X166930000Y-99940000D02*
X166930000Y-103190000D01*
%TO.N,/CLK1*%
X152450000Y-97400000D02*
X151690000Y-98160000D01*
X152450000Y-97400000D02*
X152450000Y-90040000D01*
X151690000Y-98160000D02*
X151690000Y-103190000D01*
X152450000Y-90040000D02*
X152790000Y-89700000D01*
%TO.N,/CLK2*%
X148250000Y-97400000D02*
X148250000Y-90040000D01*
X148250000Y-97400000D02*
X149150000Y-98300000D01*
X148250000Y-90040000D02*
X147910000Y-89700000D01*
X149150000Y-98300000D02*
X149150000Y-103190000D01*
%TO.N,/13(SCK)*%
X137110843Y-113489560D02*
X146470440Y-113489560D01*
X136317409Y-112696127D02*
X137110843Y-113489560D01*
X136317409Y-79201591D02*
X136317409Y-112696127D01*
X146470440Y-113489560D02*
X149150000Y-110810000D01*
X139954000Y-75565000D02*
X136317409Y-79201591D01*
%TO.N,/10(\u002A\u002A{slash}SS)*%
X140199000Y-112141000D02*
X141530000Y-110810000D01*
X137665969Y-110722715D02*
X139084254Y-112141000D01*
X147574000Y-75565000D02*
X137665969Y-85473031D01*
X139084254Y-112141000D02*
X140199000Y-112141000D01*
X137665969Y-85473031D02*
X137665969Y-110722715D01*
%TO.N,/11(\u002A\u002A{slash}MOSI)*%
X137216449Y-111435449D02*
X138371520Y-112590520D01*
X145034000Y-75565000D02*
X137216449Y-83382551D01*
X142289480Y-112590520D02*
X144070000Y-110810000D01*
X138371520Y-112590520D02*
X142289480Y-112590520D01*
X137216449Y-83382551D02*
X137216449Y-111435449D01*
%TO.N,/12(MISO)*%
X136766929Y-81292071D02*
X136766929Y-112509929D01*
X136766929Y-112509929D02*
X137297040Y-113040040D01*
X137297040Y-113040040D02*
X144379960Y-113040040D01*
X144379960Y-113040040D02*
X146610000Y-110810000D01*
X142494000Y-75565000D02*
X136766929Y-81292071D01*
%TD*%
M02*
