%TF.GenerationSoftware,KiCad,Pcbnew,6.0.0-d3dd2cf0fa~116~ubuntu21.10.1*%
%TF.CreationDate,2022-01-02T17:44:59-05:00*%
%TF.ProjectId,ardustack-io,61726475-7374-4616-936b-2d696f2e6b69,rev?*%
%TF.SameCoordinates,Original*%
%TF.FileFunction,Legend,Top*%
%TF.FilePolarity,Positive*%
%FSLAX46Y46*%
G04 Gerber Fmt 4.6, Leading zero omitted, Abs format (unit mm)*
G04 Created by KiCad (PCBNEW 6.0.0-d3dd2cf0fa~116~ubuntu21.10.1) date 2022-01-02 17:44:59*
%MOMM*%
%LPD*%
G01*
G04 APERTURE LIST*
%ADD10C,0.150000*%
%ADD11C,0.254000*%
%ADD12C,0.200000*%
%ADD13O,1.727200X2.032000*%
%ADD14C,4.064000*%
G04 APERTURE END LIST*
D10*
X144470380Y-121238095D02*
X143994190Y-121571428D01*
X144470380Y-121809523D02*
X143470380Y-121809523D01*
X143470380Y-121428571D01*
X143518000Y-121333333D01*
X143565619Y-121285714D01*
X143660857Y-121238095D01*
X143803714Y-121238095D01*
X143898952Y-121285714D01*
X143946571Y-121333333D01*
X143994190Y-121428571D01*
X143994190Y-121809523D01*
X144422761Y-120428571D02*
X144470380Y-120523809D01*
X144470380Y-120714285D01*
X144422761Y-120809523D01*
X144327523Y-120857142D01*
X143946571Y-120857142D01*
X143851333Y-120809523D01*
X143803714Y-120714285D01*
X143803714Y-120523809D01*
X143851333Y-120428571D01*
X143946571Y-120380952D01*
X144041809Y-120380952D01*
X144137047Y-120857142D01*
X144422761Y-120000000D02*
X144470380Y-119904761D01*
X144470380Y-119714285D01*
X144422761Y-119619047D01*
X144327523Y-119571428D01*
X144279904Y-119571428D01*
X144184666Y-119619047D01*
X144137047Y-119714285D01*
X144137047Y-119857142D01*
X144089428Y-119952380D01*
X143994190Y-120000000D01*
X143946571Y-120000000D01*
X143851333Y-119952380D01*
X143803714Y-119857142D01*
X143803714Y-119714285D01*
X143851333Y-119619047D01*
X144422761Y-118761904D02*
X144470380Y-118857142D01*
X144470380Y-119047619D01*
X144422761Y-119142857D01*
X144327523Y-119190476D01*
X143946571Y-119190476D01*
X143851333Y-119142857D01*
X143803714Y-119047619D01*
X143803714Y-118857142D01*
X143851333Y-118761904D01*
X143946571Y-118714285D01*
X144041809Y-118714285D01*
X144137047Y-119190476D01*
X143803714Y-118428571D02*
X143803714Y-118047619D01*
X143470380Y-118285714D02*
X144327523Y-118285714D01*
X144422761Y-118238095D01*
X144470380Y-118142857D01*
X144470380Y-118047619D01*
X149169428Y-121285714D02*
X149169428Y-120523809D01*
X149550380Y-120904761D02*
X148788476Y-120904761D01*
X148550380Y-119571428D02*
X148550380Y-120047619D01*
X149026571Y-120095238D01*
X148978952Y-120047619D01*
X148931333Y-119952380D01*
X148931333Y-119714285D01*
X148978952Y-119619047D01*
X149026571Y-119571428D01*
X149121809Y-119523809D01*
X149359904Y-119523809D01*
X149455142Y-119571428D01*
X149502761Y-119619047D01*
X149550380Y-119714285D01*
X149550380Y-119952380D01*
X149502761Y-120047619D01*
X149455142Y-120095238D01*
X148550380Y-119238095D02*
X149550380Y-118904761D01*
X148550380Y-118571428D01*
X174950380Y-79295238D02*
X174474190Y-79628571D01*
X174950380Y-79866666D02*
X173950380Y-79866666D01*
X173950380Y-79485714D01*
X173998000Y-79390476D01*
X174045619Y-79342857D01*
X174140857Y-79295238D01*
X174283714Y-79295238D01*
X174378952Y-79342857D01*
X174426571Y-79390476D01*
X174474190Y-79485714D01*
X174474190Y-79866666D01*
X174950380Y-78961904D02*
X174283714Y-78438095D01*
X174283714Y-78961904D02*
X174950380Y-78438095D01*
X140406380Y-79390476D02*
X140406380Y-79961904D01*
X140406380Y-79676190D02*
X139406380Y-79676190D01*
X139549238Y-79771428D01*
X139644476Y-79866666D01*
X139692095Y-79961904D01*
X139406380Y-79057142D02*
X139406380Y-78438095D01*
X139787333Y-78771428D01*
X139787333Y-78628571D01*
X139834952Y-78533333D01*
X139882571Y-78485714D01*
X139977809Y-78438095D01*
X140215904Y-78438095D01*
X140311142Y-78485714D01*
X140358761Y-78533333D01*
X140406380Y-78628571D01*
X140406380Y-78914285D01*
X140358761Y-79009523D01*
X140311142Y-79057142D01*
X171410380Y-79890476D02*
X171410380Y-79319047D01*
X172410380Y-79604761D02*
X171410380Y-79604761D01*
X172410380Y-79080952D02*
X171743714Y-78557142D01*
X171743714Y-79080952D02*
X172410380Y-78557142D01*
D11*
%TO.C,R2*%
X144802333Y-81767523D02*
X144379000Y-81162761D01*
X144076619Y-81767523D02*
X144076619Y-80497523D01*
X144560428Y-80497523D01*
X144681380Y-80558000D01*
X144741857Y-80618476D01*
X144802333Y-80739428D01*
X144802333Y-80920857D01*
X144741857Y-81041809D01*
X144681380Y-81102285D01*
X144560428Y-81162761D01*
X144076619Y-81162761D01*
X145286142Y-80618476D02*
X145346619Y-80558000D01*
X145467571Y-80497523D01*
X145769952Y-80497523D01*
X145890904Y-80558000D01*
X145951380Y-80618476D01*
X146011857Y-80739428D01*
X146011857Y-80860380D01*
X145951380Y-81041809D01*
X145225666Y-81767523D01*
X146011857Y-81767523D01*
%TO.C,C1*%
X127988333Y-82003571D02*
X127927857Y-82064047D01*
X127746428Y-82124523D01*
X127625476Y-82124523D01*
X127444047Y-82064047D01*
X127323095Y-81943095D01*
X127262619Y-81822142D01*
X127202142Y-81580238D01*
X127202142Y-81398809D01*
X127262619Y-81156904D01*
X127323095Y-81035952D01*
X127444047Y-80915000D01*
X127625476Y-80854523D01*
X127746428Y-80854523D01*
X127927857Y-80915000D01*
X127988333Y-80975476D01*
X129197857Y-82124523D02*
X128472142Y-82124523D01*
X128835000Y-82124523D02*
X128835000Y-80854523D01*
X128714047Y-81035952D01*
X128593095Y-81156904D01*
X128472142Y-81217380D01*
%TO.C,S1*%
X116432380Y-83114047D02*
X116613809Y-83174523D01*
X116916190Y-83174523D01*
X117037142Y-83114047D01*
X117097619Y-83053571D01*
X117158095Y-82932619D01*
X117158095Y-82811666D01*
X117097619Y-82690714D01*
X117037142Y-82630238D01*
X116916190Y-82569761D01*
X116674285Y-82509285D01*
X116553333Y-82448809D01*
X116492857Y-82388333D01*
X116432380Y-82267380D01*
X116432380Y-82146428D01*
X116492857Y-82025476D01*
X116553333Y-81965000D01*
X116674285Y-81904523D01*
X116976666Y-81904523D01*
X117158095Y-81965000D01*
X118367619Y-83174523D02*
X117641904Y-83174523D01*
X118004761Y-83174523D02*
X118004761Y-81904523D01*
X117883809Y-82085952D01*
X117762857Y-82206904D01*
X117641904Y-82267380D01*
%TO.C,LED1*%
X147422809Y-93674523D02*
X146818047Y-93674523D01*
X146818047Y-92404523D01*
X147846142Y-93009285D02*
X148269476Y-93009285D01*
X148450904Y-93674523D02*
X147846142Y-93674523D01*
X147846142Y-92404523D01*
X148450904Y-92404523D01*
X148995190Y-93674523D02*
X148995190Y-92404523D01*
X149297571Y-92404523D01*
X149479000Y-92465000D01*
X149599952Y-92585952D01*
X149660428Y-92706904D01*
X149720904Y-92948809D01*
X149720904Y-93130238D01*
X149660428Y-93372142D01*
X149599952Y-93493095D01*
X149479000Y-93614047D01*
X149297571Y-93674523D01*
X148995190Y-93674523D01*
X150930428Y-93674523D02*
X150204714Y-93674523D01*
X150567571Y-93674523D02*
X150567571Y-92404523D01*
X150446619Y-92585952D01*
X150325666Y-92706904D01*
X150204714Y-92767380D01*
%TO.C,J1*%
X124704523Y-91823333D02*
X125611666Y-91823333D01*
X125793095Y-91883809D01*
X125914047Y-92004761D01*
X125974523Y-92186190D01*
X125974523Y-92307142D01*
X125974523Y-90553333D02*
X125974523Y-91279047D01*
X125974523Y-90916190D02*
X124704523Y-90916190D01*
X124885952Y-91037142D01*
X125006904Y-91158095D01*
X125067380Y-91279047D01*
%TO.C,R1*%
X127524523Y-96761666D02*
X126919761Y-97185000D01*
X127524523Y-97487380D02*
X126254523Y-97487380D01*
X126254523Y-97003571D01*
X126315000Y-96882619D01*
X126375476Y-96822142D01*
X126496428Y-96761666D01*
X126677857Y-96761666D01*
X126798809Y-96822142D01*
X126859285Y-96882619D01*
X126919761Y-97003571D01*
X126919761Y-97487380D01*
X127524523Y-95552142D02*
X127524523Y-96277857D01*
X127524523Y-95915000D02*
X126254523Y-95915000D01*
X126435952Y-96035952D01*
X126556904Y-96156904D01*
X126617380Y-96277857D01*
D12*
%TO.C,R2*%
X140789000Y-83693000D02*
X143414000Y-83693000D01*
X143414000Y-82818000D02*
X146614000Y-82818000D01*
X143414000Y-84568000D02*
X143414000Y-82818000D01*
X146614000Y-83693000D02*
X149239000Y-83693000D01*
X146614000Y-82818000D02*
X146614000Y-84568000D01*
X146614000Y-84568000D02*
X143414000Y-84568000D01*
%TO.C,S1*%
X112650000Y-75350000D02*
X112650000Y-75350000D01*
X112650000Y-75350000D02*
X112650000Y-75350000D01*
X112750000Y-75350000D02*
X112750000Y-75350000D01*
X112650000Y-75350000D02*
G75*
G03*
X112750000Y-75350000I50000J0D01*
G01*
X112650000Y-75350000D02*
G75*
G03*
X112750000Y-75350000I50000J0D01*
G01*
X112750000Y-75350000D02*
G75*
G03*
X112650000Y-75350000I-50000J0D01*
G01*
%TO.C,LED1*%
X146344000Y-88600000D02*
X146344000Y-88600000D01*
X151914000Y-88600000D02*
X151914000Y-88600000D01*
X151344000Y-88600000D02*
X151344000Y-88600000D01*
X152014000Y-88600000D02*
X152014000Y-88600000D01*
X146714000Y-89900000D02*
X146714000Y-87300000D01*
X152014000Y-88600000D02*
X152014000Y-88600000D01*
X146344000Y-88600000D02*
G75*
G03*
X151344000Y-88600000I2500000J0D01*
G01*
X151914000Y-88600000D02*
G75*
G03*
X152014000Y-88600000I50000J0D01*
G01*
X152014000Y-88600000D02*
G75*
G03*
X151914000Y-88600000I-50000J0D01*
G01*
X151344000Y-88600000D02*
G75*
G03*
X146344000Y-88600000I-2500000J0D01*
G01*
X152014000Y-88600000D02*
G75*
G03*
X151914000Y-88600000I-50000J0D01*
G01*
D11*
%TO.C,J1*%
X118100000Y-87590000D02*
X111400000Y-87590000D01*
X118100000Y-90130000D02*
X111400000Y-90130000D01*
X118100000Y-97750000D02*
X111400000Y-97750000D01*
X120900000Y-99020000D02*
X120900000Y-83780000D01*
X120900000Y-83780000D02*
X118100000Y-83780000D01*
X118100000Y-92670000D02*
X111400000Y-92670000D01*
X118100000Y-95210000D02*
X111400000Y-95210000D01*
X118100000Y-85050000D02*
X111400000Y-85050000D01*
X118100000Y-83780000D02*
X118100000Y-99020000D01*
X118100000Y-99020000D02*
X120900000Y-99020000D01*
D12*
%TO.C,R1*%
X130650000Y-99700000D02*
X128250000Y-99700000D01*
X130650000Y-93400000D02*
X130650000Y-99700000D01*
X128250000Y-99700000D02*
X128250000Y-93400000D01*
X129450000Y-103550000D02*
X129450000Y-99700000D01*
X128250000Y-93400000D02*
X130650000Y-93400000D01*
X129450000Y-93400000D02*
X129450000Y-89550000D01*
%TD*%
D13*
%TO.C,P1*%
X138938000Y-123825000D03*
X141478000Y-123825000D03*
X144018000Y-123825000D03*
X146558000Y-123825000D03*
X149098000Y-123825000D03*
X151638000Y-123825000D03*
X154178000Y-123825000D03*
X156718000Y-123825000D03*
%TD*%
%TO.C,P2*%
X161798000Y-123825000D03*
X164338000Y-123825000D03*
X166878000Y-123825000D03*
X169418000Y-123825000D03*
X171958000Y-123825000D03*
X174498000Y-123825000D03*
%TD*%
%TO.C,P3*%
X129794000Y-75565000D03*
X132334000Y-75565000D03*
X134874000Y-75565000D03*
X137414000Y-75565000D03*
X139954000Y-75565000D03*
X142494000Y-75565000D03*
X145034000Y-75565000D03*
X147574000Y-75565000D03*
X150114000Y-75565000D03*
X152654000Y-75565000D03*
%TD*%
%TO.C,P4*%
X156718000Y-75565000D03*
X159258000Y-75565000D03*
X161798000Y-75565000D03*
X164338000Y-75565000D03*
X166878000Y-75565000D03*
X169418000Y-75565000D03*
X171958000Y-75565000D03*
X174498000Y-75565000D03*
%TD*%
D14*
%TO.C,P5*%
X124968000Y-123825000D03*
%TD*%
%TO.C,P6*%
X177038000Y-118745000D03*
%TD*%
%TO.C,P7*%
X126238000Y-75565000D03*
%TD*%
%TO.C,P8*%
X177038000Y-90805000D03*
%TD*%
M02*
