%TF.GenerationSoftware,KiCad,Pcbnew,6.0.0-d3dd2cf0fa~116~ubuntu21.10.1*%
%TF.CreationDate,2022-01-12T20:58:04-05:00*%
%TF.ProjectId,ardustack-io,61726475-7374-4616-936b-2d696f2e6b69,rev?*%
%TF.SameCoordinates,Original*%
%TF.FileFunction,Copper,L2,Bot*%
%TF.FilePolarity,Positive*%
%FSLAX46Y46*%
G04 Gerber Fmt 4.6, Leading zero omitted, Abs format (unit mm)*
G04 Created by KiCad (PCBNEW 6.0.0-d3dd2cf0fa~116~ubuntu21.10.1) date 2022-01-12 20:58:04*
%MOMM*%
%LPD*%
G01*
G04 APERTURE LIST*
%TA.AperFunction,ComponentPad*%
%ADD10O,1.727200X2.032000*%
%TD*%
%TA.AperFunction,ComponentPad*%
%ADD11C,4.064000*%
%TD*%
%TA.AperFunction,ComponentPad*%
%ADD12C,1.050000*%
%TD*%
%TA.AperFunction,ComponentPad*%
%ADD13C,1.200000*%
%TD*%
%TA.AperFunction,ComponentPad*%
%ADD14C,1.500000*%
%TD*%
%TA.AperFunction,ComponentPad*%
%ADD15C,1.590000*%
%TD*%
G04 APERTURE END LIST*
D10*
%TO.P,P1,1,Pin_1*%
%TO.N,unconnected-(P1-Pad1)*%
X138938000Y-123825000D03*
%TO.P,P1,2,Pin_2*%
%TO.N,/IOREF*%
X141478000Y-123825000D03*
%TO.P,P1,3,Pin_3*%
%TO.N,/Reset*%
X144018000Y-123825000D03*
%TO.P,P1,4,Pin_4*%
%TO.N,+3V3*%
X146558000Y-123825000D03*
%TO.P,P1,5,Pin_5*%
%TO.N,+5V*%
X149098000Y-123825000D03*
%TO.P,P1,6,Pin_6*%
%TO.N,GND*%
X151638000Y-123825000D03*
%TO.P,P1,7,Pin_7*%
X154178000Y-123825000D03*
%TO.P,P1,8,Pin_8*%
%TO.N,/Vin*%
X156718000Y-123825000D03*
%TD*%
%TO.P,P2,1,Pin_1*%
%TO.N,/A0*%
X161798000Y-123825000D03*
%TO.P,P2,2,Pin_2*%
%TO.N,/A1*%
X164338000Y-123825000D03*
%TO.P,P2,3,Pin_3*%
%TO.N,/A2*%
X166878000Y-123825000D03*
%TO.P,P2,4,Pin_4*%
%TO.N,/A3*%
X169418000Y-123825000D03*
%TO.P,P2,5,Pin_5*%
%TO.N,/A4(SDA)*%
X171958000Y-123825000D03*
%TO.P,P2,6,Pin_6*%
%TO.N,/A5(SCL)*%
X174498000Y-123825000D03*
%TD*%
%TO.P,P3,1,Pin_1*%
%TO.N,unconnected-(P3-Pad1)*%
X129794000Y-75565000D03*
%TO.P,P3,2,Pin_2*%
%TO.N,unconnected-(P3-Pad2)*%
X132334000Y-75565000D03*
%TO.P,P3,3,Pin_3*%
%TO.N,/AREF*%
X134874000Y-75565000D03*
%TO.P,P3,4,Pin_4*%
%TO.N,GND*%
X137414000Y-75565000D03*
%TO.P,P3,5,Pin_5*%
%TO.N,/13(SCK)*%
X139954000Y-75565000D03*
%TO.P,P3,6,Pin_6*%
%TO.N,/12(MISO)*%
X142494000Y-75565000D03*
%TO.P,P3,7,Pin_7*%
%TO.N,/11(\u002A\u002A{slash}MOSI)*%
X145034000Y-75565000D03*
%TO.P,P3,8,Pin_8*%
%TO.N,/10(\u002A\u002A{slash}SS)*%
X147574000Y-75565000D03*
%TO.P,P3,9,Pin_9*%
%TO.N,/9(\u002A\u002A)*%
X150114000Y-75565000D03*
%TO.P,P3,10,Pin_10*%
%TO.N,/8*%
X152654000Y-75565000D03*
%TD*%
%TO.P,P4,1,Pin_1*%
%TO.N,/7*%
X156718000Y-75565000D03*
%TO.P,P4,2,Pin_2*%
%TO.N,/6(\u002A\u002A)*%
X159258000Y-75565000D03*
%TO.P,P4,3,Pin_3*%
%TO.N,/5(\u002A\u002A)*%
X161798000Y-75565000D03*
%TO.P,P4,4,Pin_4*%
%TO.N,/4*%
X164338000Y-75565000D03*
%TO.P,P4,5,Pin_5*%
%TO.N,/3(\u002A\u002A)*%
X166878000Y-75565000D03*
%TO.P,P4,6,Pin_6*%
%TO.N,/2*%
X169418000Y-75565000D03*
%TO.P,P4,7,Pin_7*%
%TO.N,/1(Tx)*%
X171958000Y-75565000D03*
%TO.P,P4,8,Pin_8*%
%TO.N,/0(Rx)*%
X174498000Y-75565000D03*
%TD*%
D11*
%TO.P,P5,1,Pin_1*%
%TO.N,unconnected-(P5-Pad1)*%
X124968000Y-123825000D03*
%TD*%
%TO.P,P6,1,Pin_1*%
%TO.N,unconnected-(P6-Pad1)*%
X177038000Y-118745000D03*
%TD*%
%TO.P,P7,1,Pin_1*%
%TO.N,unconnected-(P7-Pad1)*%
X126238000Y-75565000D03*
%TD*%
%TO.P,P8,1,Pin_1*%
%TO.N,unconnected-(P8-Pad1)*%
X177038000Y-90805000D03*
%TD*%
D12*
%TO.P,R2,1*%
%TO.N,/13(SCK)*%
X139914000Y-83693000D03*
%TO.P,R2,2*%
%TO.N,Net-(LED1-Pad1)*%
X150114000Y-83693000D03*
%TD*%
D13*
%TO.P,C1,1*%
%TO.N,/Reset*%
X129450000Y-85050000D03*
%TO.P,C1,2*%
%TO.N,Net-(C1-Pad2)*%
X126950000Y-85050000D03*
%TD*%
D14*
%TO.P,S1,1,NO_1*%
%TO.N,/Reset*%
X114150000Y-75350000D03*
%TO.P,S1,2,NO_2*%
X120650000Y-75350000D03*
%TO.P,S1,3,COM_1*%
%TO.N,GND*%
X114150000Y-79850000D03*
%TO.P,S1,4,COM_2*%
X120650000Y-79850000D03*
%TD*%
D13*
%TO.P,LED1,1*%
%TO.N,Net-(LED1-Pad1)*%
X150114000Y-88600000D03*
%TO.P,LED1,2*%
%TO.N,GND*%
X147574000Y-88600000D03*
%TD*%
D15*
%TO.P,J1,1,1*%
%TO.N,GND*%
X122400000Y-97750000D03*
%TO.P,J1,2,2*%
X122400000Y-95210000D03*
%TO.P,J1,3,3*%
%TO.N,/Vin*%
X122400000Y-92670000D03*
%TO.P,J1,4,4*%
%TO.N,/0(Rx)*%
X122400000Y-90130000D03*
%TO.P,J1,5,5*%
%TO.N,/1(Tx)*%
X122400000Y-87590000D03*
%TO.P,J1,6,6*%
%TO.N,Net-(C1-Pad2)*%
X122400000Y-85050000D03*
%TD*%
D13*
%TO.P,R1,1*%
%TO.N,+5V*%
X129450000Y-104500000D03*
%TO.P,R1,2*%
%TO.N,/Reset*%
X129450000Y-88600000D03*
%TD*%
%TA.AperFunction,Conductor*%
%TO.N,GND*%
G36*
X124440529Y-73553002D02*
G01*
X124487022Y-73606658D01*
X124497126Y-73676932D01*
X124467632Y-73741512D01*
X124458661Y-73750850D01*
X124382394Y-73822470D01*
X124178629Y-74068779D01*
X124176505Y-74072126D01*
X124176502Y-74072130D01*
X124059850Y-74255944D01*
X124007341Y-74338685D01*
X124005657Y-74342264D01*
X124005653Y-74342271D01*
X123902875Y-74560687D01*
X123871233Y-74627930D01*
X123870007Y-74631702D01*
X123870007Y-74631703D01*
X123868107Y-74637551D01*
X123772449Y-74931954D01*
X123712549Y-75245961D01*
X123692477Y-75565000D01*
X123712549Y-75884039D01*
X123772449Y-76198046D01*
X123773676Y-76201822D01*
X123868201Y-76492737D01*
X123871233Y-76502070D01*
X123872920Y-76505656D01*
X123872922Y-76505660D01*
X124005653Y-76787729D01*
X124005657Y-76787736D01*
X124007341Y-76791315D01*
X124009465Y-76794661D01*
X124009465Y-76794662D01*
X124169914Y-77047488D01*
X124178629Y-77061221D01*
X124382394Y-77307530D01*
X124615423Y-77526359D01*
X124874041Y-77714256D01*
X125154169Y-77868258D01*
X125316083Y-77932364D01*
X125447707Y-77984478D01*
X125447710Y-77984479D01*
X125451390Y-77985936D01*
X125455224Y-77986920D01*
X125455232Y-77986923D01*
X125647153Y-78036200D01*
X125761017Y-78065435D01*
X125764945Y-78065931D01*
X125764949Y-78065932D01*
X125890642Y-78081810D01*
X126078165Y-78105500D01*
X126397835Y-78105500D01*
X126585358Y-78081810D01*
X126711051Y-78065932D01*
X126711055Y-78065931D01*
X126714983Y-78065435D01*
X126828847Y-78036200D01*
X127020768Y-77986923D01*
X127020776Y-77986920D01*
X127024610Y-77985936D01*
X127028290Y-77984479D01*
X127028293Y-77984478D01*
X127159917Y-77932364D01*
X127321831Y-77868258D01*
X127601959Y-77714256D01*
X127860577Y-77526359D01*
X128093606Y-77307530D01*
X128297371Y-77061221D01*
X128306087Y-77047488D01*
X128466535Y-76794662D01*
X128466535Y-76794661D01*
X128468659Y-76791315D01*
X128470343Y-76787736D01*
X128470347Y-76787729D01*
X128540177Y-76639332D01*
X128587280Y-76586211D01*
X128655625Y-76566988D01*
X128723512Y-76587767D01*
X128745355Y-76606008D01*
X128881532Y-76748758D01*
X129068350Y-76887754D01*
X129073102Y-76890170D01*
X129270244Y-76990402D01*
X129275916Y-76993286D01*
X129387106Y-77027811D01*
X129493193Y-77060753D01*
X129493199Y-77060754D01*
X129498296Y-77062337D01*
X129622660Y-77078820D01*
X129723848Y-77092232D01*
X129723852Y-77092232D01*
X129729132Y-77092932D01*
X129734462Y-77092732D01*
X129734463Y-77092732D01*
X129845477Y-77088564D01*
X129961822Y-77084197D01*
X130066005Y-77062337D01*
X130184486Y-77037477D01*
X130184489Y-77037476D01*
X130189713Y-77036380D01*
X130406290Y-76950850D01*
X130605359Y-76830051D01*
X130609855Y-76826150D01*
X130777197Y-76680939D01*
X130777199Y-76680937D01*
X130781230Y-76677439D01*
X130784613Y-76673313D01*
X130784617Y-76673309D01*
X130898190Y-76534795D01*
X130928872Y-76497376D01*
X130954845Y-76451748D01*
X131005927Y-76402442D01*
X131075558Y-76388580D01*
X131141629Y-76414563D01*
X131168867Y-76443713D01*
X131260804Y-76580272D01*
X131264483Y-76584129D01*
X131264485Y-76584131D01*
X131349223Y-76672959D01*
X131421532Y-76748758D01*
X131608350Y-76887754D01*
X131613102Y-76890170D01*
X131810244Y-76990402D01*
X131815916Y-76993286D01*
X131927106Y-77027811D01*
X132033193Y-77060753D01*
X132033199Y-77060754D01*
X132038296Y-77062337D01*
X132162660Y-77078820D01*
X132263848Y-77092232D01*
X132263852Y-77092232D01*
X132269132Y-77092932D01*
X132274462Y-77092732D01*
X132274463Y-77092732D01*
X132385477Y-77088564D01*
X132501822Y-77084197D01*
X132606005Y-77062337D01*
X132724486Y-77037477D01*
X132724489Y-77037476D01*
X132729713Y-77036380D01*
X132946290Y-76950850D01*
X133145359Y-76830051D01*
X133149855Y-76826150D01*
X133317197Y-76680939D01*
X133317199Y-76680937D01*
X133321230Y-76677439D01*
X133324613Y-76673313D01*
X133324617Y-76673309D01*
X133438190Y-76534795D01*
X133468872Y-76497376D01*
X133494845Y-76451748D01*
X133545927Y-76402442D01*
X133615558Y-76388580D01*
X133681629Y-76414563D01*
X133708867Y-76443713D01*
X133800804Y-76580272D01*
X133804483Y-76584129D01*
X133804485Y-76584131D01*
X133889223Y-76672959D01*
X133961532Y-76748758D01*
X134148350Y-76887754D01*
X134153102Y-76890170D01*
X134350244Y-76990402D01*
X134355916Y-76993286D01*
X134467106Y-77027811D01*
X134573193Y-77060753D01*
X134573199Y-77060754D01*
X134578296Y-77062337D01*
X134702660Y-77078820D01*
X134803848Y-77092232D01*
X134803852Y-77092232D01*
X134809132Y-77092932D01*
X134814462Y-77092732D01*
X134814463Y-77092732D01*
X134925477Y-77088564D01*
X135041822Y-77084197D01*
X135146005Y-77062337D01*
X135264486Y-77037477D01*
X135264489Y-77037476D01*
X135269713Y-77036380D01*
X135486290Y-76950850D01*
X135685359Y-76830051D01*
X135689855Y-76826150D01*
X135857197Y-76680939D01*
X135857199Y-76680937D01*
X135861230Y-76677439D01*
X135864613Y-76673313D01*
X135864617Y-76673309D01*
X135978190Y-76534795D01*
X136008872Y-76497376D01*
X136035122Y-76451261D01*
X136086202Y-76401956D01*
X136155832Y-76388094D01*
X136221904Y-76414077D01*
X136249143Y-76443227D01*
X136338215Y-76575530D01*
X136344876Y-76583816D01*
X136498180Y-76744520D01*
X136506148Y-76751569D01*
X136684336Y-76884144D01*
X136693366Y-76889743D01*
X136891347Y-76990402D01*
X136901208Y-76994405D01*
X137113301Y-77060263D01*
X137123696Y-77062548D01*
X137142041Y-77064980D01*
X137156208Y-77062783D01*
X137160000Y-77049599D01*
X137160000Y-77047488D01*
X137668000Y-77047488D01*
X137671973Y-77061019D01*
X137682580Y-77062544D01*
X137804343Y-77036996D01*
X137814539Y-77033936D01*
X138021097Y-76952363D01*
X138030634Y-76947629D01*
X138220503Y-76832414D01*
X138229093Y-76826150D01*
X138396837Y-76680589D01*
X138404257Y-76672959D01*
X138545073Y-76501220D01*
X138551102Y-76492449D01*
X138574533Y-76451285D01*
X138625615Y-76401978D01*
X138695245Y-76388116D01*
X138761316Y-76414099D01*
X138788555Y-76443249D01*
X138880804Y-76580272D01*
X138884483Y-76584129D01*
X138884485Y-76584131D01*
X138969223Y-76672959D01*
X139041532Y-76748758D01*
X139228350Y-76887754D01*
X139233102Y-76890170D01*
X139430244Y-76990402D01*
X139435916Y-76993286D01*
X139547106Y-77027811D01*
X139653193Y-77060753D01*
X139653199Y-77060754D01*
X139658296Y-77062337D01*
X139782660Y-77078820D01*
X139883848Y-77092232D01*
X139883852Y-77092232D01*
X139889132Y-77092932D01*
X139894462Y-77092732D01*
X139894463Y-77092732D01*
X140005477Y-77088564D01*
X140121822Y-77084197D01*
X140226005Y-77062337D01*
X140344486Y-77037477D01*
X140344489Y-77037476D01*
X140349713Y-77036380D01*
X140566290Y-76950850D01*
X140765359Y-76830051D01*
X140769855Y-76826150D01*
X140937197Y-76680939D01*
X140937199Y-76680937D01*
X140941230Y-76677439D01*
X140944613Y-76673313D01*
X140944617Y-76673309D01*
X141058190Y-76534795D01*
X141088872Y-76497376D01*
X141114845Y-76451748D01*
X141165927Y-76402442D01*
X141235558Y-76388580D01*
X141301629Y-76414563D01*
X141328867Y-76443713D01*
X141420804Y-76580272D01*
X141424483Y-76584129D01*
X141424485Y-76584131D01*
X141509223Y-76672959D01*
X141581532Y-76748758D01*
X141768350Y-76887754D01*
X141773102Y-76890170D01*
X141970244Y-76990402D01*
X141975916Y-76993286D01*
X142087106Y-77027811D01*
X142193193Y-77060753D01*
X142193199Y-77060754D01*
X142198296Y-77062337D01*
X142322660Y-77078820D01*
X142423848Y-77092232D01*
X142423852Y-77092232D01*
X142429132Y-77092932D01*
X142434462Y-77092732D01*
X142434463Y-77092732D01*
X142545477Y-77088564D01*
X142661822Y-77084197D01*
X142766005Y-77062337D01*
X142884486Y-77037477D01*
X142884489Y-77037476D01*
X142889713Y-77036380D01*
X143106290Y-76950850D01*
X143305359Y-76830051D01*
X143309855Y-76826150D01*
X143477197Y-76680939D01*
X143477199Y-76680937D01*
X143481230Y-76677439D01*
X143484613Y-76673313D01*
X143484617Y-76673309D01*
X143598190Y-76534795D01*
X143628872Y-76497376D01*
X143654845Y-76451748D01*
X143705927Y-76402442D01*
X143775558Y-76388580D01*
X143841629Y-76414563D01*
X143868867Y-76443713D01*
X143960804Y-76580272D01*
X143964483Y-76584129D01*
X143964485Y-76584131D01*
X144049223Y-76672959D01*
X144121532Y-76748758D01*
X144308350Y-76887754D01*
X144313102Y-76890170D01*
X144510244Y-76990402D01*
X144515916Y-76993286D01*
X144627106Y-77027811D01*
X144733193Y-77060753D01*
X144733199Y-77060754D01*
X144738296Y-77062337D01*
X144862660Y-77078820D01*
X144963848Y-77092232D01*
X144963852Y-77092232D01*
X144969132Y-77092932D01*
X144974462Y-77092732D01*
X144974463Y-77092732D01*
X145085477Y-77088564D01*
X145201822Y-77084197D01*
X145306005Y-77062337D01*
X145424486Y-77037477D01*
X145424489Y-77037476D01*
X145429713Y-77036380D01*
X145646290Y-76950850D01*
X145845359Y-76830051D01*
X145849855Y-76826150D01*
X146017197Y-76680939D01*
X146017199Y-76680937D01*
X146021230Y-76677439D01*
X146024613Y-76673313D01*
X146024617Y-76673309D01*
X146138190Y-76534795D01*
X146168872Y-76497376D01*
X146194845Y-76451748D01*
X146245927Y-76402442D01*
X146315558Y-76388580D01*
X146381629Y-76414563D01*
X146408867Y-76443713D01*
X146500804Y-76580272D01*
X146504483Y-76584129D01*
X146504485Y-76584131D01*
X146589223Y-76672959D01*
X146661532Y-76748758D01*
X146848350Y-76887754D01*
X146853102Y-76890170D01*
X147050244Y-76990402D01*
X147055916Y-76993286D01*
X147167106Y-77027811D01*
X147273193Y-77060753D01*
X147273199Y-77060754D01*
X147278296Y-77062337D01*
X147402660Y-77078820D01*
X147503848Y-77092232D01*
X147503852Y-77092232D01*
X147509132Y-77092932D01*
X147514462Y-77092732D01*
X147514463Y-77092732D01*
X147625477Y-77088564D01*
X147741822Y-77084197D01*
X147846005Y-77062337D01*
X147964486Y-77037477D01*
X147964489Y-77037476D01*
X147969713Y-77036380D01*
X148186290Y-76950850D01*
X148385359Y-76830051D01*
X148389855Y-76826150D01*
X148557197Y-76680939D01*
X148557199Y-76680937D01*
X148561230Y-76677439D01*
X148564613Y-76673313D01*
X148564617Y-76673309D01*
X148678190Y-76534795D01*
X148708872Y-76497376D01*
X148734845Y-76451748D01*
X148785927Y-76402442D01*
X148855558Y-76388580D01*
X148921629Y-76414563D01*
X148948867Y-76443713D01*
X149040804Y-76580272D01*
X149044483Y-76584129D01*
X149044485Y-76584131D01*
X149129223Y-76672959D01*
X149201532Y-76748758D01*
X149388350Y-76887754D01*
X149393102Y-76890170D01*
X149590244Y-76990402D01*
X149595916Y-76993286D01*
X149707106Y-77027811D01*
X149813193Y-77060753D01*
X149813199Y-77060754D01*
X149818296Y-77062337D01*
X149942660Y-77078820D01*
X150043848Y-77092232D01*
X150043852Y-77092232D01*
X150049132Y-77092932D01*
X150054462Y-77092732D01*
X150054463Y-77092732D01*
X150165477Y-77088564D01*
X150281822Y-77084197D01*
X150386005Y-77062337D01*
X150504486Y-77037477D01*
X150504489Y-77037476D01*
X150509713Y-77036380D01*
X150726290Y-76950850D01*
X150925359Y-76830051D01*
X150929855Y-76826150D01*
X151097197Y-76680939D01*
X151097199Y-76680937D01*
X151101230Y-76677439D01*
X151104613Y-76673313D01*
X151104617Y-76673309D01*
X151218190Y-76534795D01*
X151248872Y-76497376D01*
X151274845Y-76451748D01*
X151325927Y-76402442D01*
X151395558Y-76388580D01*
X151461629Y-76414563D01*
X151488867Y-76443713D01*
X151580804Y-76580272D01*
X151584483Y-76584129D01*
X151584485Y-76584131D01*
X151669223Y-76672959D01*
X151741532Y-76748758D01*
X151928350Y-76887754D01*
X151933102Y-76890170D01*
X152130244Y-76990402D01*
X152135916Y-76993286D01*
X152247106Y-77027811D01*
X152353193Y-77060753D01*
X152353199Y-77060754D01*
X152358296Y-77062337D01*
X152482660Y-77078820D01*
X152583848Y-77092232D01*
X152583852Y-77092232D01*
X152589132Y-77092932D01*
X152594462Y-77092732D01*
X152594463Y-77092732D01*
X152705477Y-77088564D01*
X152821822Y-77084197D01*
X152926005Y-77062337D01*
X153044486Y-77037477D01*
X153044489Y-77037476D01*
X153049713Y-77036380D01*
X153266290Y-76950850D01*
X153465359Y-76830051D01*
X153469855Y-76826150D01*
X153637197Y-76680939D01*
X153637199Y-76680937D01*
X153641230Y-76677439D01*
X153644613Y-76673313D01*
X153644617Y-76673309D01*
X153758190Y-76534795D01*
X153788872Y-76497376D01*
X153819696Y-76443227D01*
X153901422Y-76299654D01*
X153904065Y-76295011D01*
X153924239Y-76239435D01*
X153981695Y-76081146D01*
X153981696Y-76081142D01*
X153983515Y-76076131D01*
X154024950Y-75846993D01*
X154026100Y-75822606D01*
X154026100Y-75775868D01*
X155345900Y-75775868D01*
X155360626Y-75949420D01*
X155361964Y-75954577D01*
X155361965Y-75954580D01*
X155416823Y-76165935D01*
X155419125Y-76174806D01*
X155421317Y-76179672D01*
X155421318Y-76179675D01*
X155429594Y-76198046D01*
X155514762Y-76387113D01*
X155644804Y-76580272D01*
X155648483Y-76584129D01*
X155648485Y-76584131D01*
X155733223Y-76672959D01*
X155805532Y-76748758D01*
X155992350Y-76887754D01*
X155997102Y-76890170D01*
X156194244Y-76990402D01*
X156199916Y-76993286D01*
X156311106Y-77027811D01*
X156417193Y-77060753D01*
X156417199Y-77060754D01*
X156422296Y-77062337D01*
X156546660Y-77078820D01*
X156647848Y-77092232D01*
X156647852Y-77092232D01*
X156653132Y-77092932D01*
X156658462Y-77092732D01*
X156658463Y-77092732D01*
X156769477Y-77088564D01*
X156885822Y-77084197D01*
X156990005Y-77062337D01*
X157108486Y-77037477D01*
X157108489Y-77037476D01*
X157113713Y-77036380D01*
X157330290Y-76950850D01*
X157529359Y-76830051D01*
X157533855Y-76826150D01*
X157701197Y-76680939D01*
X157701199Y-76680937D01*
X157705230Y-76677439D01*
X157708613Y-76673313D01*
X157708617Y-76673309D01*
X157822190Y-76534795D01*
X157852872Y-76497376D01*
X157878845Y-76451748D01*
X157929927Y-76402442D01*
X157999558Y-76388580D01*
X158065629Y-76414563D01*
X158092867Y-76443713D01*
X158184804Y-76580272D01*
X158188483Y-76584129D01*
X158188485Y-76584131D01*
X158273223Y-76672959D01*
X158345532Y-76748758D01*
X158532350Y-76887754D01*
X158537102Y-76890170D01*
X158734244Y-76990402D01*
X158739916Y-76993286D01*
X158851106Y-77027811D01*
X158957193Y-77060753D01*
X158957199Y-77060754D01*
X158962296Y-77062337D01*
X159086660Y-77078820D01*
X159187848Y-77092232D01*
X159187852Y-77092232D01*
X159193132Y-77092932D01*
X159198462Y-77092732D01*
X159198463Y-77092732D01*
X159309477Y-77088564D01*
X159425822Y-77084197D01*
X159530005Y-77062337D01*
X159648486Y-77037477D01*
X159648489Y-77037476D01*
X159653713Y-77036380D01*
X159870290Y-76950850D01*
X160069359Y-76830051D01*
X160073855Y-76826150D01*
X160241197Y-76680939D01*
X160241199Y-76680937D01*
X160245230Y-76677439D01*
X160248613Y-76673313D01*
X160248617Y-76673309D01*
X160362190Y-76534795D01*
X160392872Y-76497376D01*
X160418845Y-76451748D01*
X160469927Y-76402442D01*
X160539558Y-76388580D01*
X160605629Y-76414563D01*
X160632867Y-76443713D01*
X160724804Y-76580272D01*
X160728483Y-76584129D01*
X160728485Y-76584131D01*
X160813223Y-76672959D01*
X160885532Y-76748758D01*
X161072350Y-76887754D01*
X161077102Y-76890170D01*
X161274244Y-76990402D01*
X161279916Y-76993286D01*
X161391106Y-77027811D01*
X161497193Y-77060753D01*
X161497199Y-77060754D01*
X161502296Y-77062337D01*
X161626660Y-77078820D01*
X161727848Y-77092232D01*
X161727852Y-77092232D01*
X161733132Y-77092932D01*
X161738462Y-77092732D01*
X161738463Y-77092732D01*
X161849477Y-77088564D01*
X161965822Y-77084197D01*
X162070005Y-77062337D01*
X162188486Y-77037477D01*
X162188489Y-77037476D01*
X162193713Y-77036380D01*
X162410290Y-76950850D01*
X162609359Y-76830051D01*
X162613855Y-76826150D01*
X162781197Y-76680939D01*
X162781199Y-76680937D01*
X162785230Y-76677439D01*
X162788613Y-76673313D01*
X162788617Y-76673309D01*
X162902190Y-76534795D01*
X162932872Y-76497376D01*
X162958845Y-76451748D01*
X163009927Y-76402442D01*
X163079558Y-76388580D01*
X163145629Y-76414563D01*
X163172867Y-76443713D01*
X163264804Y-76580272D01*
X163268483Y-76584129D01*
X163268485Y-76584131D01*
X163353223Y-76672959D01*
X163425532Y-76748758D01*
X163612350Y-76887754D01*
X163617102Y-76890170D01*
X163814244Y-76990402D01*
X163819916Y-76993286D01*
X163931106Y-77027811D01*
X164037193Y-77060753D01*
X164037199Y-77060754D01*
X164042296Y-77062337D01*
X164166660Y-77078820D01*
X164267848Y-77092232D01*
X164267852Y-77092232D01*
X164273132Y-77092932D01*
X164278462Y-77092732D01*
X164278463Y-77092732D01*
X164389477Y-77088564D01*
X164505822Y-77084197D01*
X164610005Y-77062337D01*
X164728486Y-77037477D01*
X164728489Y-77037476D01*
X164733713Y-77036380D01*
X164950290Y-76950850D01*
X165149359Y-76830051D01*
X165153855Y-76826150D01*
X165321197Y-76680939D01*
X165321199Y-76680937D01*
X165325230Y-76677439D01*
X165328613Y-76673313D01*
X165328617Y-76673309D01*
X165442190Y-76534795D01*
X165472872Y-76497376D01*
X165498845Y-76451748D01*
X165549927Y-76402442D01*
X165619558Y-76388580D01*
X165685629Y-76414563D01*
X165712867Y-76443713D01*
X165804804Y-76580272D01*
X165808483Y-76584129D01*
X165808485Y-76584131D01*
X165893223Y-76672959D01*
X165965532Y-76748758D01*
X166152350Y-76887754D01*
X166157102Y-76890170D01*
X166354244Y-76990402D01*
X166359916Y-76993286D01*
X166471106Y-77027811D01*
X166577193Y-77060753D01*
X166577199Y-77060754D01*
X166582296Y-77062337D01*
X166706660Y-77078820D01*
X166807848Y-77092232D01*
X166807852Y-77092232D01*
X166813132Y-77092932D01*
X166818462Y-77092732D01*
X166818463Y-77092732D01*
X166929477Y-77088564D01*
X167045822Y-77084197D01*
X167150005Y-77062337D01*
X167268486Y-77037477D01*
X167268489Y-77037476D01*
X167273713Y-77036380D01*
X167490290Y-76950850D01*
X167689359Y-76830051D01*
X167693855Y-76826150D01*
X167861197Y-76680939D01*
X167861199Y-76680937D01*
X167865230Y-76677439D01*
X167868613Y-76673313D01*
X167868617Y-76673309D01*
X167982190Y-76534795D01*
X168012872Y-76497376D01*
X168038845Y-76451748D01*
X168089927Y-76402442D01*
X168159558Y-76388580D01*
X168225629Y-76414563D01*
X168252867Y-76443713D01*
X168344804Y-76580272D01*
X168348483Y-76584129D01*
X168348485Y-76584131D01*
X168433223Y-76672959D01*
X168505532Y-76748758D01*
X168692350Y-76887754D01*
X168697102Y-76890170D01*
X168894244Y-76990402D01*
X168899916Y-76993286D01*
X169011106Y-77027811D01*
X169117193Y-77060753D01*
X169117199Y-77060754D01*
X169122296Y-77062337D01*
X169246660Y-77078820D01*
X169347848Y-77092232D01*
X169347852Y-77092232D01*
X169353132Y-77092932D01*
X169358462Y-77092732D01*
X169358463Y-77092732D01*
X169469477Y-77088564D01*
X169585822Y-77084197D01*
X169690005Y-77062337D01*
X169808486Y-77037477D01*
X169808489Y-77037476D01*
X169813713Y-77036380D01*
X170030290Y-76950850D01*
X170229359Y-76830051D01*
X170233855Y-76826150D01*
X170401197Y-76680939D01*
X170401199Y-76680937D01*
X170405230Y-76677439D01*
X170408613Y-76673313D01*
X170408617Y-76673309D01*
X170522190Y-76534795D01*
X170552872Y-76497376D01*
X170578845Y-76451748D01*
X170629927Y-76402442D01*
X170699558Y-76388580D01*
X170765629Y-76414563D01*
X170792867Y-76443713D01*
X170884804Y-76580272D01*
X170888483Y-76584129D01*
X170888485Y-76584131D01*
X170973223Y-76672959D01*
X171045532Y-76748758D01*
X171232350Y-76887754D01*
X171237102Y-76890170D01*
X171434244Y-76990402D01*
X171439916Y-76993286D01*
X171551106Y-77027811D01*
X171657193Y-77060753D01*
X171657199Y-77060754D01*
X171662296Y-77062337D01*
X171786660Y-77078820D01*
X171887848Y-77092232D01*
X171887852Y-77092232D01*
X171893132Y-77092932D01*
X171898462Y-77092732D01*
X171898463Y-77092732D01*
X172009477Y-77088564D01*
X172125822Y-77084197D01*
X172230005Y-77062337D01*
X172348486Y-77037477D01*
X172348489Y-77037476D01*
X172353713Y-77036380D01*
X172570290Y-76950850D01*
X172769359Y-76830051D01*
X172773855Y-76826150D01*
X172941197Y-76680939D01*
X172941199Y-76680937D01*
X172945230Y-76677439D01*
X172948613Y-76673313D01*
X172948617Y-76673309D01*
X173062190Y-76534795D01*
X173092872Y-76497376D01*
X173118845Y-76451748D01*
X173169927Y-76402442D01*
X173239558Y-76388580D01*
X173305629Y-76414563D01*
X173332867Y-76443713D01*
X173424804Y-76580272D01*
X173428483Y-76584129D01*
X173428485Y-76584131D01*
X173513223Y-76672959D01*
X173585532Y-76748758D01*
X173772350Y-76887754D01*
X173777102Y-76890170D01*
X173974244Y-76990402D01*
X173979916Y-76993286D01*
X174091106Y-77027811D01*
X174197193Y-77060753D01*
X174197199Y-77060754D01*
X174202296Y-77062337D01*
X174326660Y-77078820D01*
X174427848Y-77092232D01*
X174427852Y-77092232D01*
X174433132Y-77092932D01*
X174438462Y-77092732D01*
X174438463Y-77092732D01*
X174549477Y-77088564D01*
X174665822Y-77084197D01*
X174770005Y-77062337D01*
X174888486Y-77037477D01*
X174888489Y-77037476D01*
X174893713Y-77036380D01*
X175110290Y-76950850D01*
X175309359Y-76830051D01*
X175313855Y-76826150D01*
X175481197Y-76680939D01*
X175481199Y-76680937D01*
X175485230Y-76677439D01*
X175488613Y-76673313D01*
X175488617Y-76673309D01*
X175602190Y-76534795D01*
X175632872Y-76497376D01*
X175663696Y-76443227D01*
X175745422Y-76299654D01*
X175748065Y-76295011D01*
X175768239Y-76239435D01*
X175825695Y-76081146D01*
X175825696Y-76081142D01*
X175827515Y-76076131D01*
X175868950Y-75846993D01*
X175870100Y-75822606D01*
X175870100Y-75354132D01*
X175855374Y-75180580D01*
X175843831Y-75136106D01*
X175798217Y-74960363D01*
X175798216Y-74960359D01*
X175796875Y-74955194D01*
X175788164Y-74935855D01*
X175728317Y-74803001D01*
X175701238Y-74742887D01*
X175571196Y-74549728D01*
X175554861Y-74532604D01*
X175414152Y-74385104D01*
X175410468Y-74381242D01*
X175223650Y-74242246D01*
X175096574Y-74177637D01*
X175020842Y-74139133D01*
X175020841Y-74139133D01*
X175016084Y-74136714D01*
X174877299Y-74093620D01*
X174798807Y-74069247D01*
X174798801Y-74069246D01*
X174793704Y-74067663D01*
X174669340Y-74051180D01*
X174568152Y-74037768D01*
X174568148Y-74037768D01*
X174562868Y-74037068D01*
X174557538Y-74037268D01*
X174557537Y-74037268D01*
X174446523Y-74041436D01*
X174330178Y-74045803D01*
X174247474Y-74063156D01*
X174107514Y-74092523D01*
X174107511Y-74092524D01*
X174102287Y-74093620D01*
X173885710Y-74179150D01*
X173686641Y-74299949D01*
X173682611Y-74303446D01*
X173519570Y-74444925D01*
X173510770Y-74452561D01*
X173507387Y-74456687D01*
X173507383Y-74456691D01*
X173452241Y-74523942D01*
X173363128Y-74632624D01*
X173360490Y-74637259D01*
X173360487Y-74637263D01*
X173337155Y-74678252D01*
X173286073Y-74727558D01*
X173216442Y-74741420D01*
X173150371Y-74715437D01*
X173123133Y-74686287D01*
X173034176Y-74554155D01*
X173031196Y-74549728D01*
X173014861Y-74532604D01*
X172874152Y-74385104D01*
X172870468Y-74381242D01*
X172683650Y-74242246D01*
X172556574Y-74177637D01*
X172480842Y-74139133D01*
X172480841Y-74139133D01*
X172476084Y-74136714D01*
X172337299Y-74093620D01*
X172258807Y-74069247D01*
X172258801Y-74069246D01*
X172253704Y-74067663D01*
X172129340Y-74051180D01*
X172028152Y-74037768D01*
X172028148Y-74037768D01*
X172022868Y-74037068D01*
X172017538Y-74037268D01*
X172017537Y-74037268D01*
X171906523Y-74041436D01*
X171790178Y-74045803D01*
X171707474Y-74063156D01*
X171567514Y-74092523D01*
X171567511Y-74092524D01*
X171562287Y-74093620D01*
X171345710Y-74179150D01*
X171146641Y-74299949D01*
X171142611Y-74303446D01*
X170979570Y-74444925D01*
X170970770Y-74452561D01*
X170967387Y-74456687D01*
X170967383Y-74456691D01*
X170912241Y-74523942D01*
X170823128Y-74632624D01*
X170820490Y-74637259D01*
X170820487Y-74637263D01*
X170797155Y-74678252D01*
X170746073Y-74727558D01*
X170676442Y-74741420D01*
X170610371Y-74715437D01*
X170583133Y-74686287D01*
X170494176Y-74554155D01*
X170491196Y-74549728D01*
X170474861Y-74532604D01*
X170334152Y-74385104D01*
X170330468Y-74381242D01*
X170143650Y-74242246D01*
X170016574Y-74177637D01*
X169940842Y-74139133D01*
X169940841Y-74139133D01*
X169936084Y-74136714D01*
X169797299Y-74093620D01*
X169718807Y-74069247D01*
X169718801Y-74069246D01*
X169713704Y-74067663D01*
X169589340Y-74051180D01*
X169488152Y-74037768D01*
X169488148Y-74037768D01*
X169482868Y-74037068D01*
X169477538Y-74037268D01*
X169477537Y-74037268D01*
X169366523Y-74041436D01*
X169250178Y-74045803D01*
X169167474Y-74063156D01*
X169027514Y-74092523D01*
X169027511Y-74092524D01*
X169022287Y-74093620D01*
X168805710Y-74179150D01*
X168606641Y-74299949D01*
X168602611Y-74303446D01*
X168439570Y-74444925D01*
X168430770Y-74452561D01*
X168427387Y-74456687D01*
X168427383Y-74456691D01*
X168372241Y-74523942D01*
X168283128Y-74632624D01*
X168280490Y-74637259D01*
X168280487Y-74637263D01*
X168257155Y-74678252D01*
X168206073Y-74727558D01*
X168136442Y-74741420D01*
X168070371Y-74715437D01*
X168043133Y-74686287D01*
X167954176Y-74554155D01*
X167951196Y-74549728D01*
X167934861Y-74532604D01*
X167794152Y-74385104D01*
X167790468Y-74381242D01*
X167603650Y-74242246D01*
X167476574Y-74177637D01*
X167400842Y-74139133D01*
X167400841Y-74139133D01*
X167396084Y-74136714D01*
X167257299Y-74093620D01*
X167178807Y-74069247D01*
X167178801Y-74069246D01*
X167173704Y-74067663D01*
X167049340Y-74051180D01*
X166948152Y-74037768D01*
X166948148Y-74037768D01*
X166942868Y-74037068D01*
X166937538Y-74037268D01*
X166937537Y-74037268D01*
X166826523Y-74041436D01*
X166710178Y-74045803D01*
X166627474Y-74063156D01*
X166487514Y-74092523D01*
X166487511Y-74092524D01*
X166482287Y-74093620D01*
X166265710Y-74179150D01*
X166066641Y-74299949D01*
X166062611Y-74303446D01*
X165899570Y-74444925D01*
X165890770Y-74452561D01*
X165887387Y-74456687D01*
X165887383Y-74456691D01*
X165832241Y-74523942D01*
X165743128Y-74632624D01*
X165740490Y-74637259D01*
X165740487Y-74637263D01*
X165717155Y-74678252D01*
X165666073Y-74727558D01*
X165596442Y-74741420D01*
X165530371Y-74715437D01*
X165503133Y-74686287D01*
X165414176Y-74554155D01*
X165411196Y-74549728D01*
X165394861Y-74532604D01*
X165254152Y-74385104D01*
X165250468Y-74381242D01*
X165063650Y-74242246D01*
X164936574Y-74177637D01*
X164860842Y-74139133D01*
X164860841Y-74139133D01*
X164856084Y-74136714D01*
X164717299Y-74093620D01*
X164638807Y-74069247D01*
X164638801Y-74069246D01*
X164633704Y-74067663D01*
X164509340Y-74051180D01*
X164408152Y-74037768D01*
X164408148Y-74037768D01*
X164402868Y-74037068D01*
X164397538Y-74037268D01*
X164397537Y-74037268D01*
X164286523Y-74041436D01*
X164170178Y-74045803D01*
X164087474Y-74063156D01*
X163947514Y-74092523D01*
X163947511Y-74092524D01*
X163942287Y-74093620D01*
X163725710Y-74179150D01*
X163526641Y-74299949D01*
X163522611Y-74303446D01*
X163359570Y-74444925D01*
X163350770Y-74452561D01*
X163347387Y-74456687D01*
X163347383Y-74456691D01*
X163292241Y-74523942D01*
X163203128Y-74632624D01*
X163200490Y-74637259D01*
X163200487Y-74637263D01*
X163177155Y-74678252D01*
X163126073Y-74727558D01*
X163056442Y-74741420D01*
X162990371Y-74715437D01*
X162963133Y-74686287D01*
X162874176Y-74554155D01*
X162871196Y-74549728D01*
X162854861Y-74532604D01*
X162714152Y-74385104D01*
X162710468Y-74381242D01*
X162523650Y-74242246D01*
X162396574Y-74177637D01*
X162320842Y-74139133D01*
X162320841Y-74139133D01*
X162316084Y-74136714D01*
X162177299Y-74093620D01*
X162098807Y-74069247D01*
X162098801Y-74069246D01*
X162093704Y-74067663D01*
X161969340Y-74051180D01*
X161868152Y-74037768D01*
X161868148Y-74037768D01*
X161862868Y-74037068D01*
X161857538Y-74037268D01*
X161857537Y-74037268D01*
X161746523Y-74041436D01*
X161630178Y-74045803D01*
X161547474Y-74063156D01*
X161407514Y-74092523D01*
X161407511Y-74092524D01*
X161402287Y-74093620D01*
X161185710Y-74179150D01*
X160986641Y-74299949D01*
X160982611Y-74303446D01*
X160819570Y-74444925D01*
X160810770Y-74452561D01*
X160807387Y-74456687D01*
X160807383Y-74456691D01*
X160752241Y-74523942D01*
X160663128Y-74632624D01*
X160660490Y-74637259D01*
X160660487Y-74637263D01*
X160637155Y-74678252D01*
X160586073Y-74727558D01*
X160516442Y-74741420D01*
X160450371Y-74715437D01*
X160423133Y-74686287D01*
X160334176Y-74554155D01*
X160331196Y-74549728D01*
X160314861Y-74532604D01*
X160174152Y-74385104D01*
X160170468Y-74381242D01*
X159983650Y-74242246D01*
X159856574Y-74177637D01*
X159780842Y-74139133D01*
X159780841Y-74139133D01*
X159776084Y-74136714D01*
X159637299Y-74093620D01*
X159558807Y-74069247D01*
X159558801Y-74069246D01*
X159553704Y-74067663D01*
X159429340Y-74051180D01*
X159328152Y-74037768D01*
X159328148Y-74037768D01*
X159322868Y-74037068D01*
X159317538Y-74037268D01*
X159317537Y-74037268D01*
X159206523Y-74041436D01*
X159090178Y-74045803D01*
X159007474Y-74063156D01*
X158867514Y-74092523D01*
X158867511Y-74092524D01*
X158862287Y-74093620D01*
X158645710Y-74179150D01*
X158446641Y-74299949D01*
X158442611Y-74303446D01*
X158279570Y-74444925D01*
X158270770Y-74452561D01*
X158267387Y-74456687D01*
X158267383Y-74456691D01*
X158212241Y-74523942D01*
X158123128Y-74632624D01*
X158120490Y-74637259D01*
X158120487Y-74637263D01*
X158097155Y-74678252D01*
X158046073Y-74727558D01*
X157976442Y-74741420D01*
X157910371Y-74715437D01*
X157883133Y-74686287D01*
X157794176Y-74554155D01*
X157791196Y-74549728D01*
X157774861Y-74532604D01*
X157634152Y-74385104D01*
X157630468Y-74381242D01*
X157443650Y-74242246D01*
X157316574Y-74177637D01*
X157240842Y-74139133D01*
X157240841Y-74139133D01*
X157236084Y-74136714D01*
X157097299Y-74093620D01*
X157018807Y-74069247D01*
X157018801Y-74069246D01*
X157013704Y-74067663D01*
X156889340Y-74051180D01*
X156788152Y-74037768D01*
X156788148Y-74037768D01*
X156782868Y-74037068D01*
X156777538Y-74037268D01*
X156777537Y-74037268D01*
X156666523Y-74041436D01*
X156550178Y-74045803D01*
X156467474Y-74063156D01*
X156327514Y-74092523D01*
X156327511Y-74092524D01*
X156322287Y-74093620D01*
X156105710Y-74179150D01*
X155906641Y-74299949D01*
X155902611Y-74303446D01*
X155739570Y-74444925D01*
X155730770Y-74452561D01*
X155727387Y-74456687D01*
X155727383Y-74456691D01*
X155672241Y-74523942D01*
X155583128Y-74632624D01*
X155580490Y-74637259D01*
X155580487Y-74637263D01*
X155517589Y-74747760D01*
X155467935Y-74834989D01*
X155466114Y-74840005D01*
X155466112Y-74840010D01*
X155424302Y-74955194D01*
X155388485Y-75053869D01*
X155347050Y-75283007D01*
X155345900Y-75307394D01*
X155345900Y-75775868D01*
X154026100Y-75775868D01*
X154026100Y-75354132D01*
X154011374Y-75180580D01*
X153999831Y-75136106D01*
X153954217Y-74960363D01*
X153954216Y-74960359D01*
X153952875Y-74955194D01*
X153944164Y-74935855D01*
X153884317Y-74803001D01*
X153857238Y-74742887D01*
X153727196Y-74549728D01*
X153710861Y-74532604D01*
X153570152Y-74385104D01*
X153566468Y-74381242D01*
X153379650Y-74242246D01*
X153252574Y-74177637D01*
X153176842Y-74139133D01*
X153176841Y-74139133D01*
X153172084Y-74136714D01*
X153033299Y-74093620D01*
X152954807Y-74069247D01*
X152954801Y-74069246D01*
X152949704Y-74067663D01*
X152825340Y-74051180D01*
X152724152Y-74037768D01*
X152724148Y-74037768D01*
X152718868Y-74037068D01*
X152713538Y-74037268D01*
X152713537Y-74037268D01*
X152602523Y-74041436D01*
X152486178Y-74045803D01*
X152403474Y-74063156D01*
X152263514Y-74092523D01*
X152263511Y-74092524D01*
X152258287Y-74093620D01*
X152041710Y-74179150D01*
X151842641Y-74299949D01*
X151838611Y-74303446D01*
X151675570Y-74444925D01*
X151666770Y-74452561D01*
X151663387Y-74456687D01*
X151663383Y-74456691D01*
X151608241Y-74523942D01*
X151519128Y-74632624D01*
X151516490Y-74637259D01*
X151516487Y-74637263D01*
X151493155Y-74678252D01*
X151442073Y-74727558D01*
X151372442Y-74741420D01*
X151306371Y-74715437D01*
X151279133Y-74686287D01*
X151190176Y-74554155D01*
X151187196Y-74549728D01*
X151170861Y-74532604D01*
X151030152Y-74385104D01*
X151026468Y-74381242D01*
X150839650Y-74242246D01*
X150712574Y-74177637D01*
X150636842Y-74139133D01*
X150636841Y-74139133D01*
X150632084Y-74136714D01*
X150493299Y-74093620D01*
X150414807Y-74069247D01*
X150414801Y-74069246D01*
X150409704Y-74067663D01*
X150285340Y-74051180D01*
X150184152Y-74037768D01*
X150184148Y-74037768D01*
X150178868Y-74037068D01*
X150173538Y-74037268D01*
X150173537Y-74037268D01*
X150062523Y-74041436D01*
X149946178Y-74045803D01*
X149863474Y-74063156D01*
X149723514Y-74092523D01*
X149723511Y-74092524D01*
X149718287Y-74093620D01*
X149501710Y-74179150D01*
X149302641Y-74299949D01*
X149298611Y-74303446D01*
X149135570Y-74444925D01*
X149126770Y-74452561D01*
X149123387Y-74456687D01*
X149123383Y-74456691D01*
X149068241Y-74523942D01*
X148979128Y-74632624D01*
X148976490Y-74637259D01*
X148976487Y-74637263D01*
X148953155Y-74678252D01*
X148902073Y-74727558D01*
X148832442Y-74741420D01*
X148766371Y-74715437D01*
X148739133Y-74686287D01*
X148650176Y-74554155D01*
X148647196Y-74549728D01*
X148630861Y-74532604D01*
X148490152Y-74385104D01*
X148486468Y-74381242D01*
X148299650Y-74242246D01*
X148172574Y-74177637D01*
X148096842Y-74139133D01*
X148096841Y-74139133D01*
X148092084Y-74136714D01*
X147953299Y-74093620D01*
X147874807Y-74069247D01*
X147874801Y-74069246D01*
X147869704Y-74067663D01*
X147745340Y-74051180D01*
X147644152Y-74037768D01*
X147644148Y-74037768D01*
X147638868Y-74037068D01*
X147633538Y-74037268D01*
X147633537Y-74037268D01*
X147522523Y-74041436D01*
X147406178Y-74045803D01*
X147323474Y-74063156D01*
X147183514Y-74092523D01*
X147183511Y-74092524D01*
X147178287Y-74093620D01*
X146961710Y-74179150D01*
X146762641Y-74299949D01*
X146758611Y-74303446D01*
X146595570Y-74444925D01*
X146586770Y-74452561D01*
X146583387Y-74456687D01*
X146583383Y-74456691D01*
X146528241Y-74523942D01*
X146439128Y-74632624D01*
X146436490Y-74637259D01*
X146436487Y-74637263D01*
X146413155Y-74678252D01*
X146362073Y-74727558D01*
X146292442Y-74741420D01*
X146226371Y-74715437D01*
X146199133Y-74686287D01*
X146110176Y-74554155D01*
X146107196Y-74549728D01*
X146090861Y-74532604D01*
X145950152Y-74385104D01*
X145946468Y-74381242D01*
X145759650Y-74242246D01*
X145632574Y-74177637D01*
X145556842Y-74139133D01*
X145556841Y-74139133D01*
X145552084Y-74136714D01*
X145413299Y-74093620D01*
X145334807Y-74069247D01*
X145334801Y-74069246D01*
X145329704Y-74067663D01*
X145205340Y-74051180D01*
X145104152Y-74037768D01*
X145104148Y-74037768D01*
X145098868Y-74037068D01*
X145093538Y-74037268D01*
X145093537Y-74037268D01*
X144982523Y-74041436D01*
X144866178Y-74045803D01*
X144783474Y-74063156D01*
X144643514Y-74092523D01*
X144643511Y-74092524D01*
X144638287Y-74093620D01*
X144421710Y-74179150D01*
X144222641Y-74299949D01*
X144218611Y-74303446D01*
X144055570Y-74444925D01*
X144046770Y-74452561D01*
X144043387Y-74456687D01*
X144043383Y-74456691D01*
X143988241Y-74523942D01*
X143899128Y-74632624D01*
X143896490Y-74637259D01*
X143896487Y-74637263D01*
X143873155Y-74678252D01*
X143822073Y-74727558D01*
X143752442Y-74741420D01*
X143686371Y-74715437D01*
X143659133Y-74686287D01*
X143570176Y-74554155D01*
X143567196Y-74549728D01*
X143550861Y-74532604D01*
X143410152Y-74385104D01*
X143406468Y-74381242D01*
X143219650Y-74242246D01*
X143092574Y-74177637D01*
X143016842Y-74139133D01*
X143016841Y-74139133D01*
X143012084Y-74136714D01*
X142873299Y-74093620D01*
X142794807Y-74069247D01*
X142794801Y-74069246D01*
X142789704Y-74067663D01*
X142665340Y-74051180D01*
X142564152Y-74037768D01*
X142564148Y-74037768D01*
X142558868Y-74037068D01*
X142553538Y-74037268D01*
X142553537Y-74037268D01*
X142442523Y-74041436D01*
X142326178Y-74045803D01*
X142243474Y-74063156D01*
X142103514Y-74092523D01*
X142103511Y-74092524D01*
X142098287Y-74093620D01*
X141881710Y-74179150D01*
X141682641Y-74299949D01*
X141678611Y-74303446D01*
X141515570Y-74444925D01*
X141506770Y-74452561D01*
X141503387Y-74456687D01*
X141503383Y-74456691D01*
X141448241Y-74523942D01*
X141359128Y-74632624D01*
X141356490Y-74637259D01*
X141356487Y-74637263D01*
X141333155Y-74678252D01*
X141282073Y-74727558D01*
X141212442Y-74741420D01*
X141146371Y-74715437D01*
X141119133Y-74686287D01*
X141030176Y-74554155D01*
X141027196Y-74549728D01*
X141010861Y-74532604D01*
X140870152Y-74385104D01*
X140866468Y-74381242D01*
X140679650Y-74242246D01*
X140552574Y-74177637D01*
X140476842Y-74139133D01*
X140476841Y-74139133D01*
X140472084Y-74136714D01*
X140333299Y-74093620D01*
X140254807Y-74069247D01*
X140254801Y-74069246D01*
X140249704Y-74067663D01*
X140125340Y-74051180D01*
X140024152Y-74037768D01*
X140024148Y-74037768D01*
X140018868Y-74037068D01*
X140013538Y-74037268D01*
X140013537Y-74037268D01*
X139902523Y-74041436D01*
X139786178Y-74045803D01*
X139703474Y-74063156D01*
X139563514Y-74092523D01*
X139563511Y-74092524D01*
X139558287Y-74093620D01*
X139341710Y-74179150D01*
X139142641Y-74299949D01*
X139138611Y-74303446D01*
X138975570Y-74444925D01*
X138966770Y-74452561D01*
X138963387Y-74456687D01*
X138963383Y-74456691D01*
X138908241Y-74523942D01*
X138819128Y-74632624D01*
X138792878Y-74678739D01*
X138741798Y-74728044D01*
X138672168Y-74741906D01*
X138606096Y-74715923D01*
X138578857Y-74686773D01*
X138489785Y-74554470D01*
X138483124Y-74546184D01*
X138329820Y-74385480D01*
X138321852Y-74378431D01*
X138143664Y-74245856D01*
X138134634Y-74240257D01*
X137936653Y-74139598D01*
X137926792Y-74135595D01*
X137714699Y-74069737D01*
X137704304Y-74067452D01*
X137685959Y-74065020D01*
X137671792Y-74067217D01*
X137668000Y-74080401D01*
X137668000Y-77047488D01*
X137160000Y-77047488D01*
X137160000Y-74082512D01*
X137156027Y-74068981D01*
X137145420Y-74067456D01*
X137023657Y-74093004D01*
X137013461Y-74096064D01*
X136806903Y-74177637D01*
X136797366Y-74182371D01*
X136607497Y-74297586D01*
X136598907Y-74303850D01*
X136431163Y-74449411D01*
X136423743Y-74457041D01*
X136282927Y-74628780D01*
X136276898Y-74637551D01*
X136253467Y-74678715D01*
X136202385Y-74728022D01*
X136132755Y-74741884D01*
X136066684Y-74715901D01*
X136039445Y-74686751D01*
X136003005Y-74632624D01*
X135947196Y-74549728D01*
X135930861Y-74532604D01*
X135790152Y-74385104D01*
X135786468Y-74381242D01*
X135599650Y-74242246D01*
X135472574Y-74177637D01*
X135396842Y-74139133D01*
X135396841Y-74139133D01*
X135392084Y-74136714D01*
X135253299Y-74093620D01*
X135174807Y-74069247D01*
X135174801Y-74069246D01*
X135169704Y-74067663D01*
X135045340Y-74051180D01*
X134944152Y-74037768D01*
X134944148Y-74037768D01*
X134938868Y-74037068D01*
X134933538Y-74037268D01*
X134933537Y-74037268D01*
X134822523Y-74041436D01*
X134706178Y-74045803D01*
X134623474Y-74063156D01*
X134483514Y-74092523D01*
X134483511Y-74092524D01*
X134478287Y-74093620D01*
X134261710Y-74179150D01*
X134062641Y-74299949D01*
X134058611Y-74303446D01*
X133895570Y-74444925D01*
X133886770Y-74452561D01*
X133883387Y-74456687D01*
X133883383Y-74456691D01*
X133828241Y-74523942D01*
X133739128Y-74632624D01*
X133736490Y-74637259D01*
X133736487Y-74637263D01*
X133713155Y-74678252D01*
X133662073Y-74727558D01*
X133592442Y-74741420D01*
X133526371Y-74715437D01*
X133499133Y-74686287D01*
X133410176Y-74554155D01*
X133407196Y-74549728D01*
X133390861Y-74532604D01*
X133250152Y-74385104D01*
X133246468Y-74381242D01*
X133059650Y-74242246D01*
X132932574Y-74177637D01*
X132856842Y-74139133D01*
X132856841Y-74139133D01*
X132852084Y-74136714D01*
X132713299Y-74093620D01*
X132634807Y-74069247D01*
X132634801Y-74069246D01*
X132629704Y-74067663D01*
X132505340Y-74051180D01*
X132404152Y-74037768D01*
X132404148Y-74037768D01*
X132398868Y-74037068D01*
X132393538Y-74037268D01*
X132393537Y-74037268D01*
X132282523Y-74041436D01*
X132166178Y-74045803D01*
X132083474Y-74063156D01*
X131943514Y-74092523D01*
X131943511Y-74092524D01*
X131938287Y-74093620D01*
X131721710Y-74179150D01*
X131522641Y-74299949D01*
X131518611Y-74303446D01*
X131355570Y-74444925D01*
X131346770Y-74452561D01*
X131343387Y-74456687D01*
X131343383Y-74456691D01*
X131288241Y-74523942D01*
X131199128Y-74632624D01*
X131196490Y-74637259D01*
X131196487Y-74637263D01*
X131173155Y-74678252D01*
X131122073Y-74727558D01*
X131052442Y-74741420D01*
X130986371Y-74715437D01*
X130959133Y-74686287D01*
X130870176Y-74554155D01*
X130867196Y-74549728D01*
X130850861Y-74532604D01*
X130710152Y-74385104D01*
X130706468Y-74381242D01*
X130519650Y-74242246D01*
X130392574Y-74177637D01*
X130316842Y-74139133D01*
X130316841Y-74139133D01*
X130312084Y-74136714D01*
X130173299Y-74093620D01*
X130094807Y-74069247D01*
X130094801Y-74069246D01*
X130089704Y-74067663D01*
X129965340Y-74051180D01*
X129864152Y-74037768D01*
X129864148Y-74037768D01*
X129858868Y-74037068D01*
X129853538Y-74037268D01*
X129853537Y-74037268D01*
X129742523Y-74041436D01*
X129626178Y-74045803D01*
X129543474Y-74063156D01*
X129403514Y-74092523D01*
X129403511Y-74092524D01*
X129398287Y-74093620D01*
X129181710Y-74179150D01*
X128982641Y-74299949D01*
X128978611Y-74303446D01*
X128815570Y-74444925D01*
X128806770Y-74452561D01*
X128803384Y-74456691D01*
X128803383Y-74456692D01*
X128752489Y-74518761D01*
X128693829Y-74558756D01*
X128622859Y-74560687D01*
X128562111Y-74523942D01*
X128541047Y-74492518D01*
X128470347Y-74342271D01*
X128470343Y-74342264D01*
X128468659Y-74338685D01*
X128416150Y-74255944D01*
X128299498Y-74072130D01*
X128299495Y-74072126D01*
X128297371Y-74068779D01*
X128093606Y-73822470D01*
X128017339Y-73750850D01*
X127981373Y-73689637D01*
X127984212Y-73618697D01*
X128024952Y-73560553D01*
X128090660Y-73533665D01*
X128103592Y-73533000D01*
X175251390Y-73533000D01*
X175319511Y-73553002D01*
X175340485Y-73569905D01*
X176493095Y-74722515D01*
X176527121Y-74784827D01*
X176530000Y-74811610D01*
X176530000Y-85907980D01*
X176528646Y-85920096D01*
X176529130Y-85920135D01*
X176528410Y-85929086D01*
X176526429Y-85937840D01*
X176528442Y-85970284D01*
X176529758Y-85991501D01*
X176530000Y-85999303D01*
X176530000Y-86015477D01*
X176530636Y-86019918D01*
X176530636Y-86019919D01*
X176531480Y-86025813D01*
X176532510Y-86035872D01*
X176535439Y-86083075D01*
X176538485Y-86091513D01*
X176539088Y-86094424D01*
X176543294Y-86111292D01*
X176544132Y-86114159D01*
X176545405Y-86123045D01*
X176549120Y-86131216D01*
X176549121Y-86131219D01*
X176564977Y-86166092D01*
X176568791Y-86175461D01*
X176581801Y-86211501D01*
X176581803Y-86211505D01*
X176584850Y-86219945D01*
X176590146Y-86227194D01*
X176591547Y-86229829D01*
X176600303Y-86244814D01*
X176601918Y-86247339D01*
X176605633Y-86255510D01*
X176611491Y-86262309D01*
X176611492Y-86262310D01*
X176636502Y-86291335D01*
X176642791Y-86299256D01*
X176647927Y-86306286D01*
X176650805Y-86310225D01*
X176661757Y-86321177D01*
X176668115Y-86328025D01*
X176694756Y-86358944D01*
X176694761Y-86358948D01*
X176700619Y-86365747D01*
X176708153Y-86370630D01*
X176714428Y-86376104D01*
X176726248Y-86385668D01*
X179033095Y-88692515D01*
X179067121Y-88754827D01*
X179070000Y-88781610D01*
X179070000Y-88936946D01*
X179049998Y-89005067D01*
X178996342Y-89051560D01*
X178926068Y-89061664D01*
X178857747Y-89028796D01*
X178802436Y-88976856D01*
X178660577Y-88843641D01*
X178627444Y-88819568D01*
X178497975Y-88725504D01*
X178401959Y-88655744D01*
X178398487Y-88653835D01*
X178125293Y-88503645D01*
X178125290Y-88503643D01*
X178121831Y-88501742D01*
X177857601Y-88397126D01*
X177828293Y-88385522D01*
X177828290Y-88385521D01*
X177824610Y-88384064D01*
X177820776Y-88383080D01*
X177820768Y-88383077D01*
X177603522Y-88327298D01*
X177514983Y-88304565D01*
X177511055Y-88304069D01*
X177511051Y-88304068D01*
X177385358Y-88288190D01*
X177197835Y-88264500D01*
X176878165Y-88264500D01*
X176690642Y-88288190D01*
X176564949Y-88304068D01*
X176564945Y-88304069D01*
X176561017Y-88304565D01*
X176472478Y-88327298D01*
X176255232Y-88383077D01*
X176255224Y-88383080D01*
X176251390Y-88384064D01*
X176247710Y-88385521D01*
X176247707Y-88385522D01*
X176218399Y-88397126D01*
X175954169Y-88501742D01*
X175950710Y-88503643D01*
X175950707Y-88503645D01*
X175677513Y-88653835D01*
X175674041Y-88655744D01*
X175578025Y-88725504D01*
X175448557Y-88819568D01*
X175415423Y-88843641D01*
X175273564Y-88976856D01*
X175192693Y-89052799D01*
X175182394Y-89062470D01*
X174978629Y-89308779D01*
X174976505Y-89312126D01*
X174976502Y-89312130D01*
X174823144Y-89553783D01*
X174807341Y-89578685D01*
X174805657Y-89582264D01*
X174805653Y-89582271D01*
X174744845Y-89711496D01*
X174671233Y-89867930D01*
X174572449Y-90171954D01*
X174512549Y-90485961D01*
X174492477Y-90805000D01*
X174512549Y-91124039D01*
X174572449Y-91438046D01*
X174671233Y-91742070D01*
X174672920Y-91745656D01*
X174672922Y-91745660D01*
X174805653Y-92027729D01*
X174805657Y-92027736D01*
X174807341Y-92031315D01*
X174809465Y-92034661D01*
X174809465Y-92034662D01*
X174928655Y-92222474D01*
X174978629Y-92301221D01*
X175182394Y-92547530D01*
X175415423Y-92766359D01*
X175674041Y-92954256D01*
X175954169Y-93108258D01*
X176116083Y-93172364D01*
X176247707Y-93224478D01*
X176247710Y-93224479D01*
X176251390Y-93225936D01*
X176255224Y-93226920D01*
X176255232Y-93226923D01*
X176447153Y-93276200D01*
X176561017Y-93305435D01*
X176564945Y-93305931D01*
X176564949Y-93305932D01*
X176670390Y-93319252D01*
X176878165Y-93345500D01*
X177197835Y-93345500D01*
X177405610Y-93319252D01*
X177511051Y-93305932D01*
X177511055Y-93305931D01*
X177514983Y-93305435D01*
X177628847Y-93276200D01*
X177820768Y-93226923D01*
X177820776Y-93226920D01*
X177824610Y-93225936D01*
X177828290Y-93224479D01*
X177828293Y-93224478D01*
X177959917Y-93172364D01*
X178121831Y-93108258D01*
X178401959Y-92954256D01*
X178660577Y-92766359D01*
X178857747Y-92581204D01*
X178921097Y-92549153D01*
X178991719Y-92556440D01*
X179047190Y-92600751D01*
X179070000Y-92673054D01*
X179070000Y-116876946D01*
X179049998Y-116945067D01*
X178996342Y-116991560D01*
X178926068Y-117001664D01*
X178857747Y-116968796D01*
X178832478Y-116945067D01*
X178660577Y-116783641D01*
X178401959Y-116595744D01*
X178121831Y-116441742D01*
X177959917Y-116377636D01*
X177828293Y-116325522D01*
X177828290Y-116325521D01*
X177824610Y-116324064D01*
X177820776Y-116323080D01*
X177820768Y-116323077D01*
X177628847Y-116273800D01*
X177514983Y-116244565D01*
X177511055Y-116244069D01*
X177511051Y-116244068D01*
X177385358Y-116228190D01*
X177197835Y-116204500D01*
X176878165Y-116204500D01*
X176690642Y-116228190D01*
X176564949Y-116244068D01*
X176564945Y-116244069D01*
X176561017Y-116244565D01*
X176447153Y-116273800D01*
X176255232Y-116323077D01*
X176255224Y-116323080D01*
X176251390Y-116324064D01*
X176247710Y-116325521D01*
X176247707Y-116325522D01*
X176116083Y-116377636D01*
X175954169Y-116441742D01*
X175674041Y-116595744D01*
X175415423Y-116783641D01*
X175182394Y-117002470D01*
X174978629Y-117248779D01*
X174807341Y-117518685D01*
X174805657Y-117522264D01*
X174805653Y-117522271D01*
X174672922Y-117804340D01*
X174671233Y-117807930D01*
X174572449Y-118111954D01*
X174512549Y-118425961D01*
X174492477Y-118745000D01*
X174512549Y-119064039D01*
X174572449Y-119378046D01*
X174671233Y-119682070D01*
X174672920Y-119685656D01*
X174672922Y-119685660D01*
X174805653Y-119967729D01*
X174805657Y-119967736D01*
X174807341Y-119971315D01*
X174978629Y-120241221D01*
X175182394Y-120487530D01*
X175415423Y-120706359D01*
X175674041Y-120894256D01*
X175954169Y-121048258D01*
X176020651Y-121074580D01*
X176247707Y-121164478D01*
X176247710Y-121164479D01*
X176251390Y-121165936D01*
X176255224Y-121166920D01*
X176255232Y-121166923D01*
X176447153Y-121216200D01*
X176561017Y-121245435D01*
X176564945Y-121245931D01*
X176564949Y-121245932D01*
X176690642Y-121261810D01*
X176878165Y-121285500D01*
X177197835Y-121285500D01*
X177385358Y-121261810D01*
X177511051Y-121245932D01*
X177511055Y-121245931D01*
X177514983Y-121245435D01*
X177628847Y-121216200D01*
X177820768Y-121166923D01*
X177820776Y-121166920D01*
X177824610Y-121165936D01*
X177828290Y-121164479D01*
X177828293Y-121164478D01*
X178055349Y-121074580D01*
X178121831Y-121048258D01*
X178401959Y-120894256D01*
X178660577Y-120706359D01*
X178857747Y-120521204D01*
X178921097Y-120489153D01*
X178991719Y-120496440D01*
X179047190Y-120540751D01*
X179070000Y-120613054D01*
X179070000Y-121022390D01*
X179049998Y-121090511D01*
X179033095Y-121111485D01*
X176729010Y-123415570D01*
X176719481Y-123423183D01*
X176719796Y-123423553D01*
X176712961Y-123429370D01*
X176705369Y-123434160D01*
X176699428Y-123440887D01*
X176669766Y-123474473D01*
X176664419Y-123480161D01*
X176652997Y-123491583D01*
X176650311Y-123495167D01*
X176650309Y-123495169D01*
X176646732Y-123499942D01*
X176640361Y-123507768D01*
X176609044Y-123543228D01*
X176605228Y-123551357D01*
X176603588Y-123553853D01*
X176594652Y-123568723D01*
X176593210Y-123571357D01*
X176587828Y-123578538D01*
X176573487Y-123616792D01*
X176571232Y-123622808D01*
X176567304Y-123632129D01*
X176551016Y-123666820D01*
X176551014Y-123666827D01*
X176547201Y-123674948D01*
X176545820Y-123683815D01*
X176544942Y-123686689D01*
X176540544Y-123703452D01*
X176539898Y-123706390D01*
X176536748Y-123714792D01*
X176536083Y-123723742D01*
X176533243Y-123761960D01*
X176532091Y-123771996D01*
X176530000Y-123785423D01*
X176530000Y-123800915D01*
X176529654Y-123810253D01*
X176525964Y-123859907D01*
X176527839Y-123868689D01*
X176528406Y-123877003D01*
X176530000Y-123892110D01*
X176530000Y-125731000D01*
X176509998Y-125799121D01*
X176456342Y-125845614D01*
X176404000Y-125857000D01*
X126833592Y-125857000D01*
X126765471Y-125836998D01*
X126718978Y-125783342D01*
X126708874Y-125713068D01*
X126738368Y-125648488D01*
X126747339Y-125639150D01*
X126820715Y-125570245D01*
X126820716Y-125570244D01*
X126823606Y-125567530D01*
X127027371Y-125321221D01*
X127036087Y-125307488D01*
X127196535Y-125054662D01*
X127196535Y-125054661D01*
X127198659Y-125051315D01*
X127200343Y-125047736D01*
X127200347Y-125047729D01*
X127333078Y-124765660D01*
X127333080Y-124765656D01*
X127334767Y-124762070D01*
X127337800Y-124752737D01*
X127432324Y-124461822D01*
X127433551Y-124458046D01*
X127493451Y-124144039D01*
X127500256Y-124035868D01*
X137565900Y-124035868D01*
X137580626Y-124209420D01*
X137581964Y-124214577D01*
X137581965Y-124214580D01*
X137614816Y-124341146D01*
X137639125Y-124434806D01*
X137641317Y-124439672D01*
X137641318Y-124439675D01*
X137649594Y-124458046D01*
X137734762Y-124647113D01*
X137864804Y-124840272D01*
X138025532Y-125008758D01*
X138212350Y-125147754D01*
X138217102Y-125150170D01*
X138414244Y-125250402D01*
X138419916Y-125253286D01*
X138531106Y-125287811D01*
X138637193Y-125320753D01*
X138637199Y-125320754D01*
X138642296Y-125322337D01*
X138766660Y-125338820D01*
X138867848Y-125352232D01*
X138867852Y-125352232D01*
X138873132Y-125352932D01*
X138878462Y-125352732D01*
X138878463Y-125352732D01*
X138989477Y-125348564D01*
X139105822Y-125344197D01*
X139210005Y-125322337D01*
X139328486Y-125297477D01*
X139328489Y-125297476D01*
X139333713Y-125296380D01*
X139550290Y-125210850D01*
X139749359Y-125090051D01*
X139753855Y-125086150D01*
X139921197Y-124940939D01*
X139921199Y-124940937D01*
X139925230Y-124937439D01*
X139928613Y-124933313D01*
X139928617Y-124933309D01*
X140027776Y-124812374D01*
X140072872Y-124757376D01*
X140075672Y-124752458D01*
X140098845Y-124711748D01*
X140149927Y-124662442D01*
X140219558Y-124648580D01*
X140285629Y-124674563D01*
X140312867Y-124703713D01*
X140404804Y-124840272D01*
X140565532Y-125008758D01*
X140752350Y-125147754D01*
X140757102Y-125150170D01*
X140954244Y-125250402D01*
X140959916Y-125253286D01*
X141071106Y-125287811D01*
X141177193Y-125320753D01*
X141177199Y-125320754D01*
X141182296Y-125322337D01*
X141306660Y-125338820D01*
X141407848Y-125352232D01*
X141407852Y-125352232D01*
X141413132Y-125352932D01*
X141418462Y-125352732D01*
X141418463Y-125352732D01*
X141529477Y-125348564D01*
X141645822Y-125344197D01*
X141750005Y-125322337D01*
X141868486Y-125297477D01*
X141868489Y-125297476D01*
X141873713Y-125296380D01*
X142090290Y-125210850D01*
X142289359Y-125090051D01*
X142293855Y-125086150D01*
X142461197Y-124940939D01*
X142461199Y-124940937D01*
X142465230Y-124937439D01*
X142468613Y-124933313D01*
X142468617Y-124933309D01*
X142567776Y-124812374D01*
X142612872Y-124757376D01*
X142615672Y-124752458D01*
X142638845Y-124711748D01*
X142689927Y-124662442D01*
X142759558Y-124648580D01*
X142825629Y-124674563D01*
X142852867Y-124703713D01*
X142944804Y-124840272D01*
X143105532Y-125008758D01*
X143292350Y-125147754D01*
X143297102Y-125150170D01*
X143494244Y-125250402D01*
X143499916Y-125253286D01*
X143611106Y-125287811D01*
X143717193Y-125320753D01*
X143717199Y-125320754D01*
X143722296Y-125322337D01*
X143846660Y-125338820D01*
X143947848Y-125352232D01*
X143947852Y-125352232D01*
X143953132Y-125352932D01*
X143958462Y-125352732D01*
X143958463Y-125352732D01*
X144069477Y-125348564D01*
X144185822Y-125344197D01*
X144290005Y-125322337D01*
X144408486Y-125297477D01*
X144408489Y-125297476D01*
X144413713Y-125296380D01*
X144630290Y-125210850D01*
X144829359Y-125090051D01*
X144833855Y-125086150D01*
X145001197Y-124940939D01*
X145001199Y-124940937D01*
X145005230Y-124937439D01*
X145008613Y-124933313D01*
X145008617Y-124933309D01*
X145107776Y-124812374D01*
X145152872Y-124757376D01*
X145155672Y-124752458D01*
X145178845Y-124711748D01*
X145229927Y-124662442D01*
X145299558Y-124648580D01*
X145365629Y-124674563D01*
X145392867Y-124703713D01*
X145484804Y-124840272D01*
X145645532Y-125008758D01*
X145832350Y-125147754D01*
X145837102Y-125150170D01*
X146034244Y-125250402D01*
X146039916Y-125253286D01*
X146151106Y-125287811D01*
X146257193Y-125320753D01*
X146257199Y-125320754D01*
X146262296Y-125322337D01*
X146386660Y-125338820D01*
X146487848Y-125352232D01*
X146487852Y-125352232D01*
X146493132Y-125352932D01*
X146498462Y-125352732D01*
X146498463Y-125352732D01*
X146609477Y-125348564D01*
X146725822Y-125344197D01*
X146830005Y-125322337D01*
X146948486Y-125297477D01*
X146948489Y-125297476D01*
X146953713Y-125296380D01*
X147170290Y-125210850D01*
X147369359Y-125090051D01*
X147373855Y-125086150D01*
X147541197Y-124940939D01*
X147541199Y-124940937D01*
X147545230Y-124937439D01*
X147548613Y-124933313D01*
X147548617Y-124933309D01*
X147647776Y-124812374D01*
X147692872Y-124757376D01*
X147695672Y-124752458D01*
X147718845Y-124711748D01*
X147769927Y-124662442D01*
X147839558Y-124648580D01*
X147905629Y-124674563D01*
X147932867Y-124703713D01*
X148024804Y-124840272D01*
X148185532Y-125008758D01*
X148372350Y-125147754D01*
X148377102Y-125150170D01*
X148574244Y-125250402D01*
X148579916Y-125253286D01*
X148691106Y-125287811D01*
X148797193Y-125320753D01*
X148797199Y-125320754D01*
X148802296Y-125322337D01*
X148926660Y-125338820D01*
X149027848Y-125352232D01*
X149027852Y-125352232D01*
X149033132Y-125352932D01*
X149038462Y-125352732D01*
X149038463Y-125352732D01*
X149149477Y-125348564D01*
X149265822Y-125344197D01*
X149370005Y-125322337D01*
X149488486Y-125297477D01*
X149488489Y-125297476D01*
X149493713Y-125296380D01*
X149710290Y-125210850D01*
X149909359Y-125090051D01*
X149913855Y-125086150D01*
X150081197Y-124940939D01*
X150081199Y-124940937D01*
X150085230Y-124937439D01*
X150088613Y-124933313D01*
X150088617Y-124933309D01*
X150187776Y-124812374D01*
X150232872Y-124757376D01*
X150259122Y-124711261D01*
X150310202Y-124661956D01*
X150379832Y-124648094D01*
X150445904Y-124674077D01*
X150473143Y-124703227D01*
X150562215Y-124835530D01*
X150568876Y-124843816D01*
X150722180Y-125004520D01*
X150730148Y-125011569D01*
X150908336Y-125144144D01*
X150917366Y-125149743D01*
X151115347Y-125250402D01*
X151125208Y-125254405D01*
X151337301Y-125320263D01*
X151347696Y-125322548D01*
X151366041Y-125324980D01*
X151380208Y-125322783D01*
X151384000Y-125309599D01*
X151384000Y-125307488D01*
X151892000Y-125307488D01*
X151895973Y-125321019D01*
X151906580Y-125322544D01*
X152028343Y-125296996D01*
X152038539Y-125293936D01*
X152245097Y-125212363D01*
X152254634Y-125207629D01*
X152444503Y-125092414D01*
X152453093Y-125086150D01*
X152620837Y-124940589D01*
X152628257Y-124932959D01*
X152769073Y-124761220D01*
X152775095Y-124752458D01*
X152798810Y-124710798D01*
X152849893Y-124661492D01*
X152919524Y-124647631D01*
X152985594Y-124673615D01*
X153012832Y-124702764D01*
X153102215Y-124835531D01*
X153108876Y-124843816D01*
X153262180Y-125004520D01*
X153270148Y-125011569D01*
X153448336Y-125144144D01*
X153457366Y-125149743D01*
X153655347Y-125250402D01*
X153665208Y-125254405D01*
X153877301Y-125320263D01*
X153887696Y-125322548D01*
X153906041Y-125324980D01*
X153920208Y-125322783D01*
X153924000Y-125309599D01*
X153924000Y-125307488D01*
X154432000Y-125307488D01*
X154435973Y-125321019D01*
X154446580Y-125322544D01*
X154568343Y-125296996D01*
X154578539Y-125293936D01*
X154785097Y-125212363D01*
X154794634Y-125207629D01*
X154984503Y-125092414D01*
X154993093Y-125086150D01*
X155160837Y-124940589D01*
X155168257Y-124932959D01*
X155309073Y-124761220D01*
X155315102Y-124752449D01*
X155338533Y-124711285D01*
X155389615Y-124661978D01*
X155459245Y-124648116D01*
X155525316Y-124674099D01*
X155552555Y-124703249D01*
X155644804Y-124840272D01*
X155805532Y-125008758D01*
X155992350Y-125147754D01*
X155997102Y-125150170D01*
X156194244Y-125250402D01*
X156199916Y-125253286D01*
X156311106Y-125287811D01*
X156417193Y-125320753D01*
X156417199Y-125320754D01*
X156422296Y-125322337D01*
X156546660Y-125338820D01*
X156647848Y-125352232D01*
X156647852Y-125352232D01*
X156653132Y-125352932D01*
X156658462Y-125352732D01*
X156658463Y-125352732D01*
X156769477Y-125348564D01*
X156885822Y-125344197D01*
X156990005Y-125322337D01*
X157108486Y-125297477D01*
X157108489Y-125297476D01*
X157113713Y-125296380D01*
X157330290Y-125210850D01*
X157529359Y-125090051D01*
X157533855Y-125086150D01*
X157701197Y-124940939D01*
X157701199Y-124940937D01*
X157705230Y-124937439D01*
X157708613Y-124933313D01*
X157708617Y-124933309D01*
X157807776Y-124812374D01*
X157852872Y-124757376D01*
X157855672Y-124752458D01*
X157965422Y-124559654D01*
X157968065Y-124555011D01*
X157988239Y-124499435D01*
X158045695Y-124341146D01*
X158045696Y-124341142D01*
X158047515Y-124336131D01*
X158088950Y-124106993D01*
X158089632Y-124092548D01*
X158090030Y-124084095D01*
X158090030Y-124084086D01*
X158090100Y-124082606D01*
X158090100Y-124035868D01*
X160425900Y-124035868D01*
X160440626Y-124209420D01*
X160441964Y-124214577D01*
X160441965Y-124214580D01*
X160474816Y-124341146D01*
X160499125Y-124434806D01*
X160501317Y-124439672D01*
X160501318Y-124439675D01*
X160509594Y-124458046D01*
X160594762Y-124647113D01*
X160724804Y-124840272D01*
X160885532Y-125008758D01*
X161072350Y-125147754D01*
X161077102Y-125150170D01*
X161274244Y-125250402D01*
X161279916Y-125253286D01*
X161391106Y-125287811D01*
X161497193Y-125320753D01*
X161497199Y-125320754D01*
X161502296Y-125322337D01*
X161626660Y-125338820D01*
X161727848Y-125352232D01*
X161727852Y-125352232D01*
X161733132Y-125352932D01*
X161738462Y-125352732D01*
X161738463Y-125352732D01*
X161849477Y-125348564D01*
X161965822Y-125344197D01*
X162070005Y-125322337D01*
X162188486Y-125297477D01*
X162188489Y-125297476D01*
X162193713Y-125296380D01*
X162410290Y-125210850D01*
X162609359Y-125090051D01*
X162613855Y-125086150D01*
X162781197Y-124940939D01*
X162781199Y-124940937D01*
X162785230Y-124937439D01*
X162788613Y-124933313D01*
X162788617Y-124933309D01*
X162887776Y-124812374D01*
X162932872Y-124757376D01*
X162935672Y-124752458D01*
X162958845Y-124711748D01*
X163009927Y-124662442D01*
X163079558Y-124648580D01*
X163145629Y-124674563D01*
X163172867Y-124703713D01*
X163264804Y-124840272D01*
X163425532Y-125008758D01*
X163612350Y-125147754D01*
X163617102Y-125150170D01*
X163814244Y-125250402D01*
X163819916Y-125253286D01*
X163931106Y-125287811D01*
X164037193Y-125320753D01*
X164037199Y-125320754D01*
X164042296Y-125322337D01*
X164166660Y-125338820D01*
X164267848Y-125352232D01*
X164267852Y-125352232D01*
X164273132Y-125352932D01*
X164278462Y-125352732D01*
X164278463Y-125352732D01*
X164389477Y-125348564D01*
X164505822Y-125344197D01*
X164610005Y-125322337D01*
X164728486Y-125297477D01*
X164728489Y-125297476D01*
X164733713Y-125296380D01*
X164950290Y-125210850D01*
X165149359Y-125090051D01*
X165153855Y-125086150D01*
X165321197Y-124940939D01*
X165321199Y-124940937D01*
X165325230Y-124937439D01*
X165328613Y-124933313D01*
X165328617Y-124933309D01*
X165427776Y-124812374D01*
X165472872Y-124757376D01*
X165475672Y-124752458D01*
X165498845Y-124711748D01*
X165549927Y-124662442D01*
X165619558Y-124648580D01*
X165685629Y-124674563D01*
X165712867Y-124703713D01*
X165804804Y-124840272D01*
X165965532Y-125008758D01*
X166152350Y-125147754D01*
X166157102Y-125150170D01*
X166354244Y-125250402D01*
X166359916Y-125253286D01*
X166471106Y-125287811D01*
X166577193Y-125320753D01*
X166577199Y-125320754D01*
X166582296Y-125322337D01*
X166706660Y-125338820D01*
X166807848Y-125352232D01*
X166807852Y-125352232D01*
X166813132Y-125352932D01*
X166818462Y-125352732D01*
X166818463Y-125352732D01*
X166929477Y-125348564D01*
X167045822Y-125344197D01*
X167150005Y-125322337D01*
X167268486Y-125297477D01*
X167268489Y-125297476D01*
X167273713Y-125296380D01*
X167490290Y-125210850D01*
X167689359Y-125090051D01*
X167693855Y-125086150D01*
X167861197Y-124940939D01*
X167861199Y-124940937D01*
X167865230Y-124937439D01*
X167868613Y-124933313D01*
X167868617Y-124933309D01*
X167967776Y-124812374D01*
X168012872Y-124757376D01*
X168015672Y-124752458D01*
X168038845Y-124711748D01*
X168089927Y-124662442D01*
X168159558Y-124648580D01*
X168225629Y-124674563D01*
X168252867Y-124703713D01*
X168344804Y-124840272D01*
X168505532Y-125008758D01*
X168692350Y-125147754D01*
X168697102Y-125150170D01*
X168894244Y-125250402D01*
X168899916Y-125253286D01*
X169011106Y-125287811D01*
X169117193Y-125320753D01*
X169117199Y-125320754D01*
X169122296Y-125322337D01*
X169246660Y-125338820D01*
X169347848Y-125352232D01*
X169347852Y-125352232D01*
X169353132Y-125352932D01*
X169358462Y-125352732D01*
X169358463Y-125352732D01*
X169469477Y-125348564D01*
X169585822Y-125344197D01*
X169690005Y-125322337D01*
X169808486Y-125297477D01*
X169808489Y-125297476D01*
X169813713Y-125296380D01*
X170030290Y-125210850D01*
X170229359Y-125090051D01*
X170233855Y-125086150D01*
X170401197Y-124940939D01*
X170401199Y-124940937D01*
X170405230Y-124937439D01*
X170408613Y-124933313D01*
X170408617Y-124933309D01*
X170507776Y-124812374D01*
X170552872Y-124757376D01*
X170555672Y-124752458D01*
X170578845Y-124711748D01*
X170629927Y-124662442D01*
X170699558Y-124648580D01*
X170765629Y-124674563D01*
X170792867Y-124703713D01*
X170884804Y-124840272D01*
X171045532Y-125008758D01*
X171232350Y-125147754D01*
X171237102Y-125150170D01*
X171434244Y-125250402D01*
X171439916Y-125253286D01*
X171551106Y-125287811D01*
X171657193Y-125320753D01*
X171657199Y-125320754D01*
X171662296Y-125322337D01*
X171786660Y-125338820D01*
X171887848Y-125352232D01*
X171887852Y-125352232D01*
X171893132Y-125352932D01*
X171898462Y-125352732D01*
X171898463Y-125352732D01*
X172009477Y-125348564D01*
X172125822Y-125344197D01*
X172230005Y-125322337D01*
X172348486Y-125297477D01*
X172348489Y-125297476D01*
X172353713Y-125296380D01*
X172570290Y-125210850D01*
X172769359Y-125090051D01*
X172773855Y-125086150D01*
X172941197Y-124940939D01*
X172941199Y-124940937D01*
X172945230Y-124937439D01*
X172948613Y-124933313D01*
X172948617Y-124933309D01*
X173047776Y-124812374D01*
X173092872Y-124757376D01*
X173095672Y-124752458D01*
X173118845Y-124711748D01*
X173169927Y-124662442D01*
X173239558Y-124648580D01*
X173305629Y-124674563D01*
X173332867Y-124703713D01*
X173424804Y-124840272D01*
X173585532Y-125008758D01*
X173772350Y-125147754D01*
X173777102Y-125150170D01*
X173974244Y-125250402D01*
X173979916Y-125253286D01*
X174091106Y-125287811D01*
X174197193Y-125320753D01*
X174197199Y-125320754D01*
X174202296Y-125322337D01*
X174326660Y-125338820D01*
X174427848Y-125352232D01*
X174427852Y-125352232D01*
X174433132Y-125352932D01*
X174438462Y-125352732D01*
X174438463Y-125352732D01*
X174549477Y-125348564D01*
X174665822Y-125344197D01*
X174770005Y-125322337D01*
X174888486Y-125297477D01*
X174888489Y-125297476D01*
X174893713Y-125296380D01*
X175110290Y-125210850D01*
X175309359Y-125090051D01*
X175313855Y-125086150D01*
X175481197Y-124940939D01*
X175481199Y-124940937D01*
X175485230Y-124937439D01*
X175488613Y-124933313D01*
X175488617Y-124933309D01*
X175587776Y-124812374D01*
X175632872Y-124757376D01*
X175635672Y-124752458D01*
X175745422Y-124559654D01*
X175748065Y-124555011D01*
X175768239Y-124499435D01*
X175825695Y-124341146D01*
X175825696Y-124341142D01*
X175827515Y-124336131D01*
X175868950Y-124106993D01*
X175869632Y-124092548D01*
X175870030Y-124084095D01*
X175870030Y-124084086D01*
X175870100Y-124082606D01*
X175870100Y-123614132D01*
X175859702Y-123491583D01*
X175855825Y-123445891D01*
X175855824Y-123445887D01*
X175855374Y-123440580D01*
X175853708Y-123434160D01*
X175798217Y-123220363D01*
X175798216Y-123220359D01*
X175796875Y-123215194D01*
X175788164Y-123195855D01*
X175703433Y-123007760D01*
X175701238Y-123002887D01*
X175571196Y-122809728D01*
X175410468Y-122641242D01*
X175223650Y-122502246D01*
X175096574Y-122437637D01*
X175020842Y-122399133D01*
X175020841Y-122399133D01*
X175016084Y-122396714D01*
X174877299Y-122353620D01*
X174798807Y-122329247D01*
X174798801Y-122329246D01*
X174793704Y-122327663D01*
X174669340Y-122311180D01*
X174568152Y-122297768D01*
X174568148Y-122297768D01*
X174562868Y-122297068D01*
X174557538Y-122297268D01*
X174557537Y-122297268D01*
X174446523Y-122301435D01*
X174330178Y-122305803D01*
X174247474Y-122323156D01*
X174107514Y-122352523D01*
X174107511Y-122352524D01*
X174102287Y-122353620D01*
X173885710Y-122439150D01*
X173686641Y-122559949D01*
X173682611Y-122563446D01*
X173588075Y-122645480D01*
X173510770Y-122712561D01*
X173507387Y-122716687D01*
X173507383Y-122716691D01*
X173434262Y-122805869D01*
X173363128Y-122892624D01*
X173360490Y-122897259D01*
X173360487Y-122897263D01*
X173337155Y-122938252D01*
X173286073Y-122987558D01*
X173216442Y-123001420D01*
X173150371Y-122975437D01*
X173123133Y-122946287D01*
X173034388Y-122814470D01*
X173031196Y-122809728D01*
X172870468Y-122641242D01*
X172683650Y-122502246D01*
X172556574Y-122437637D01*
X172480842Y-122399133D01*
X172480841Y-122399133D01*
X172476084Y-122396714D01*
X172337299Y-122353620D01*
X172258807Y-122329247D01*
X172258801Y-122329246D01*
X172253704Y-122327663D01*
X172129340Y-122311180D01*
X172028152Y-122297768D01*
X172028148Y-122297768D01*
X172022868Y-122297068D01*
X172017538Y-122297268D01*
X172017537Y-122297268D01*
X171906523Y-122301435D01*
X171790178Y-122305803D01*
X171707474Y-122323156D01*
X171567514Y-122352523D01*
X171567511Y-122352524D01*
X171562287Y-122353620D01*
X171345710Y-122439150D01*
X171146641Y-122559949D01*
X171142611Y-122563446D01*
X171048075Y-122645480D01*
X170970770Y-122712561D01*
X170967387Y-122716687D01*
X170967383Y-122716691D01*
X170894262Y-122805869D01*
X170823128Y-122892624D01*
X170820490Y-122897259D01*
X170820487Y-122897263D01*
X170797155Y-122938252D01*
X170746073Y-122987558D01*
X170676442Y-123001420D01*
X170610371Y-122975437D01*
X170583133Y-122946287D01*
X170494388Y-122814470D01*
X170491196Y-122809728D01*
X170330468Y-122641242D01*
X170143650Y-122502246D01*
X170016574Y-122437637D01*
X169940842Y-122399133D01*
X169940841Y-122399133D01*
X169936084Y-122396714D01*
X169797299Y-122353620D01*
X169718807Y-122329247D01*
X169718801Y-122329246D01*
X169713704Y-122327663D01*
X169589340Y-122311180D01*
X169488152Y-122297768D01*
X169488148Y-122297768D01*
X169482868Y-122297068D01*
X169477538Y-122297268D01*
X169477537Y-122297268D01*
X169366523Y-122301435D01*
X169250178Y-122305803D01*
X169167474Y-122323156D01*
X169027514Y-122352523D01*
X169027511Y-122352524D01*
X169022287Y-122353620D01*
X168805710Y-122439150D01*
X168606641Y-122559949D01*
X168602611Y-122563446D01*
X168508075Y-122645480D01*
X168430770Y-122712561D01*
X168427387Y-122716687D01*
X168427383Y-122716691D01*
X168354262Y-122805869D01*
X168283128Y-122892624D01*
X168280490Y-122897259D01*
X168280487Y-122897263D01*
X168257155Y-122938252D01*
X168206073Y-122987558D01*
X168136442Y-123001420D01*
X168070371Y-122975437D01*
X168043133Y-122946287D01*
X167954388Y-122814470D01*
X167951196Y-122809728D01*
X167790468Y-122641242D01*
X167603650Y-122502246D01*
X167476574Y-122437637D01*
X167400842Y-122399133D01*
X167400841Y-122399133D01*
X167396084Y-122396714D01*
X167257299Y-122353620D01*
X167178807Y-122329247D01*
X167178801Y-122329246D01*
X167173704Y-122327663D01*
X167049340Y-122311180D01*
X166948152Y-122297768D01*
X166948148Y-122297768D01*
X166942868Y-122297068D01*
X166937538Y-122297268D01*
X166937537Y-122297268D01*
X166826523Y-122301435D01*
X166710178Y-122305803D01*
X166627474Y-122323156D01*
X166487514Y-122352523D01*
X166487511Y-122352524D01*
X166482287Y-122353620D01*
X166265710Y-122439150D01*
X166066641Y-122559949D01*
X166062611Y-122563446D01*
X165968075Y-122645480D01*
X165890770Y-122712561D01*
X165887387Y-122716687D01*
X165887383Y-122716691D01*
X165814262Y-122805869D01*
X165743128Y-122892624D01*
X165740490Y-122897259D01*
X165740487Y-122897263D01*
X165717155Y-122938252D01*
X165666073Y-122987558D01*
X165596442Y-123001420D01*
X165530371Y-122975437D01*
X165503133Y-122946287D01*
X165414388Y-122814470D01*
X165411196Y-122809728D01*
X165250468Y-122641242D01*
X165063650Y-122502246D01*
X164936574Y-122437637D01*
X164860842Y-122399133D01*
X164860841Y-122399133D01*
X164856084Y-122396714D01*
X164717299Y-122353620D01*
X164638807Y-122329247D01*
X164638801Y-122329246D01*
X164633704Y-122327663D01*
X164509340Y-122311180D01*
X164408152Y-122297768D01*
X164408148Y-122297768D01*
X164402868Y-122297068D01*
X164397538Y-122297268D01*
X164397537Y-122297268D01*
X164286523Y-122301435D01*
X164170178Y-122305803D01*
X164087474Y-122323156D01*
X163947514Y-122352523D01*
X163947511Y-122352524D01*
X163942287Y-122353620D01*
X163725710Y-122439150D01*
X163526641Y-122559949D01*
X163522611Y-122563446D01*
X163428075Y-122645480D01*
X163350770Y-122712561D01*
X163347387Y-122716687D01*
X163347383Y-122716691D01*
X163274262Y-122805869D01*
X163203128Y-122892624D01*
X163200490Y-122897259D01*
X163200487Y-122897263D01*
X163177155Y-122938252D01*
X163126073Y-122987558D01*
X163056442Y-123001420D01*
X162990371Y-122975437D01*
X162963133Y-122946287D01*
X162874388Y-122814470D01*
X162871196Y-122809728D01*
X162710468Y-122641242D01*
X162523650Y-122502246D01*
X162396574Y-122437637D01*
X162320842Y-122399133D01*
X162320841Y-122399133D01*
X162316084Y-122396714D01*
X162177299Y-122353620D01*
X162098807Y-122329247D01*
X162098801Y-122329246D01*
X162093704Y-122327663D01*
X161969340Y-122311180D01*
X161868152Y-122297768D01*
X161868148Y-122297768D01*
X161862868Y-122297068D01*
X161857538Y-122297268D01*
X161857537Y-122297268D01*
X161746523Y-122301435D01*
X161630178Y-122305803D01*
X161547474Y-122323156D01*
X161407514Y-122352523D01*
X161407511Y-122352524D01*
X161402287Y-122353620D01*
X161185710Y-122439150D01*
X160986641Y-122559949D01*
X160982611Y-122563446D01*
X160888075Y-122645480D01*
X160810770Y-122712561D01*
X160807387Y-122716687D01*
X160807383Y-122716691D01*
X160734262Y-122805869D01*
X160663128Y-122892624D01*
X160660490Y-122897259D01*
X160660487Y-122897263D01*
X160597589Y-123007760D01*
X160547935Y-123094989D01*
X160546114Y-123100005D01*
X160546112Y-123100010D01*
X160504302Y-123215194D01*
X160468485Y-123313869D01*
X160427050Y-123543007D01*
X160426855Y-123547146D01*
X160426854Y-123547153D01*
X160425970Y-123565905D01*
X160425900Y-123567394D01*
X160425900Y-124035868D01*
X158090100Y-124035868D01*
X158090100Y-123614132D01*
X158079702Y-123491583D01*
X158075825Y-123445891D01*
X158075824Y-123445887D01*
X158075374Y-123440580D01*
X158073708Y-123434160D01*
X158018217Y-123220363D01*
X158018216Y-123220359D01*
X158016875Y-123215194D01*
X158008164Y-123195855D01*
X157923433Y-123007760D01*
X157921238Y-123002887D01*
X157791196Y-122809728D01*
X157630468Y-122641242D01*
X157443650Y-122502246D01*
X157316574Y-122437637D01*
X157240842Y-122399133D01*
X157240841Y-122399133D01*
X157236084Y-122396714D01*
X157097299Y-122353620D01*
X157018807Y-122329247D01*
X157018801Y-122329246D01*
X157013704Y-122327663D01*
X156889340Y-122311180D01*
X156788152Y-122297768D01*
X156788148Y-122297768D01*
X156782868Y-122297068D01*
X156777538Y-122297268D01*
X156777537Y-122297268D01*
X156666523Y-122301435D01*
X156550178Y-122305803D01*
X156467474Y-122323156D01*
X156327514Y-122352523D01*
X156327511Y-122352524D01*
X156322287Y-122353620D01*
X156105710Y-122439150D01*
X155906641Y-122559949D01*
X155902611Y-122563446D01*
X155808075Y-122645480D01*
X155730770Y-122712561D01*
X155727387Y-122716687D01*
X155727383Y-122716691D01*
X155654262Y-122805869D01*
X155583128Y-122892624D01*
X155556878Y-122938739D01*
X155505798Y-122988044D01*
X155436168Y-123001906D01*
X155370096Y-122975923D01*
X155342857Y-122946773D01*
X155253785Y-122814470D01*
X155247124Y-122806184D01*
X155093820Y-122645480D01*
X155085852Y-122638431D01*
X154907664Y-122505856D01*
X154898634Y-122500257D01*
X154700653Y-122399598D01*
X154690792Y-122395595D01*
X154478699Y-122329737D01*
X154468304Y-122327452D01*
X154449959Y-122325020D01*
X154435792Y-122327217D01*
X154432000Y-122340401D01*
X154432000Y-125307488D01*
X153924000Y-125307488D01*
X153924000Y-124097115D01*
X153919525Y-124081876D01*
X153918135Y-124080671D01*
X153910452Y-124079000D01*
X151910115Y-124079000D01*
X151894876Y-124083475D01*
X151893671Y-124084865D01*
X151892000Y-124092548D01*
X151892000Y-125307488D01*
X151384000Y-125307488D01*
X151384000Y-123552885D01*
X151892000Y-123552885D01*
X151896475Y-123568124D01*
X151897865Y-123569329D01*
X151905548Y-123571000D01*
X153905885Y-123571000D01*
X153921124Y-123566525D01*
X153922329Y-123565135D01*
X153924000Y-123557452D01*
X153924000Y-122342512D01*
X153920027Y-122328981D01*
X153909420Y-122327456D01*
X153787657Y-122353004D01*
X153777461Y-122356064D01*
X153570903Y-122437637D01*
X153561366Y-122442371D01*
X153371497Y-122557586D01*
X153362907Y-122563850D01*
X153195163Y-122709411D01*
X153187743Y-122717041D01*
X153046927Y-122888780D01*
X153040905Y-122897542D01*
X153017190Y-122939202D01*
X152966107Y-122988508D01*
X152896476Y-123002369D01*
X152830406Y-122976385D01*
X152803168Y-122947236D01*
X152713785Y-122814469D01*
X152707124Y-122806184D01*
X152553820Y-122645480D01*
X152545852Y-122638431D01*
X152367664Y-122505856D01*
X152358634Y-122500257D01*
X152160653Y-122399598D01*
X152150792Y-122395595D01*
X151938699Y-122329737D01*
X151928304Y-122327452D01*
X151909959Y-122325020D01*
X151895792Y-122327217D01*
X151892000Y-122340401D01*
X151892000Y-123552885D01*
X151384000Y-123552885D01*
X151384000Y-122342512D01*
X151380027Y-122328981D01*
X151369420Y-122327456D01*
X151247657Y-122353004D01*
X151237461Y-122356064D01*
X151030903Y-122437637D01*
X151021366Y-122442371D01*
X150831497Y-122557586D01*
X150822907Y-122563850D01*
X150655163Y-122709411D01*
X150647743Y-122717041D01*
X150506927Y-122888780D01*
X150500898Y-122897551D01*
X150477467Y-122938715D01*
X150426385Y-122988022D01*
X150356755Y-123001884D01*
X150290684Y-122975901D01*
X150263445Y-122946751D01*
X150227005Y-122892624D01*
X150171196Y-122809728D01*
X150010468Y-122641242D01*
X149823650Y-122502246D01*
X149696574Y-122437637D01*
X149620842Y-122399133D01*
X149620841Y-122399133D01*
X149616084Y-122396714D01*
X149477299Y-122353620D01*
X149398807Y-122329247D01*
X149398801Y-122329246D01*
X149393704Y-122327663D01*
X149269340Y-122311180D01*
X149168152Y-122297768D01*
X149168148Y-122297768D01*
X149162868Y-122297068D01*
X149157538Y-122297268D01*
X149157537Y-122297268D01*
X149046523Y-122301435D01*
X148930178Y-122305803D01*
X148847474Y-122323156D01*
X148707514Y-122352523D01*
X148707511Y-122352524D01*
X148702287Y-122353620D01*
X148485710Y-122439150D01*
X148286641Y-122559949D01*
X148282611Y-122563446D01*
X148188075Y-122645480D01*
X148110770Y-122712561D01*
X148107387Y-122716687D01*
X148107383Y-122716691D01*
X148034262Y-122805869D01*
X147963128Y-122892624D01*
X147960490Y-122897259D01*
X147960487Y-122897263D01*
X147937155Y-122938252D01*
X147886073Y-122987558D01*
X147816442Y-123001420D01*
X147750371Y-122975437D01*
X147723133Y-122946287D01*
X147634388Y-122814470D01*
X147631196Y-122809728D01*
X147470468Y-122641242D01*
X147283650Y-122502246D01*
X147156574Y-122437637D01*
X147080842Y-122399133D01*
X147080841Y-122399133D01*
X147076084Y-122396714D01*
X146937299Y-122353620D01*
X146858807Y-122329247D01*
X146858801Y-122329246D01*
X146853704Y-122327663D01*
X146729340Y-122311180D01*
X146628152Y-122297768D01*
X146628148Y-122297768D01*
X146622868Y-122297068D01*
X146617538Y-122297268D01*
X146617537Y-122297268D01*
X146506523Y-122301435D01*
X146390178Y-122305803D01*
X146307474Y-122323156D01*
X146167514Y-122352523D01*
X146167511Y-122352524D01*
X146162287Y-122353620D01*
X145945710Y-122439150D01*
X145746641Y-122559949D01*
X145742611Y-122563446D01*
X145648075Y-122645480D01*
X145570770Y-122712561D01*
X145567387Y-122716687D01*
X145567383Y-122716691D01*
X145494262Y-122805869D01*
X145423128Y-122892624D01*
X145420490Y-122897259D01*
X145420487Y-122897263D01*
X145397155Y-122938252D01*
X145346073Y-122987558D01*
X145276442Y-123001420D01*
X145210371Y-122975437D01*
X145183133Y-122946287D01*
X145094388Y-122814470D01*
X145091196Y-122809728D01*
X144930468Y-122641242D01*
X144743650Y-122502246D01*
X144616574Y-122437637D01*
X144540842Y-122399133D01*
X144540841Y-122399133D01*
X144536084Y-122396714D01*
X144397299Y-122353620D01*
X144318807Y-122329247D01*
X144318801Y-122329246D01*
X144313704Y-122327663D01*
X144189340Y-122311180D01*
X144088152Y-122297768D01*
X144088148Y-122297768D01*
X144082868Y-122297068D01*
X144077538Y-122297268D01*
X144077537Y-122297268D01*
X143966523Y-122301435D01*
X143850178Y-122305803D01*
X143767474Y-122323156D01*
X143627514Y-122352523D01*
X143627511Y-122352524D01*
X143622287Y-122353620D01*
X143405710Y-122439150D01*
X143206641Y-122559949D01*
X143202611Y-122563446D01*
X143108075Y-122645480D01*
X143030770Y-122712561D01*
X143027387Y-122716687D01*
X143027383Y-122716691D01*
X142954262Y-122805869D01*
X142883128Y-122892624D01*
X142880490Y-122897259D01*
X142880487Y-122897263D01*
X142857155Y-122938252D01*
X142806073Y-122987558D01*
X142736442Y-123001420D01*
X142670371Y-122975437D01*
X142643133Y-122946287D01*
X142554388Y-122814470D01*
X142551196Y-122809728D01*
X142390468Y-122641242D01*
X142203650Y-122502246D01*
X142076574Y-122437637D01*
X142000842Y-122399133D01*
X142000841Y-122399133D01*
X141996084Y-122396714D01*
X141857299Y-122353620D01*
X141778807Y-122329247D01*
X141778801Y-122329246D01*
X141773704Y-122327663D01*
X141649340Y-122311180D01*
X141548152Y-122297768D01*
X141548148Y-122297768D01*
X141542868Y-122297068D01*
X141537538Y-122297268D01*
X141537537Y-122297268D01*
X141426523Y-122301435D01*
X141310178Y-122305803D01*
X141227474Y-122323156D01*
X141087514Y-122352523D01*
X141087511Y-122352524D01*
X141082287Y-122353620D01*
X140865710Y-122439150D01*
X140666641Y-122559949D01*
X140662611Y-122563446D01*
X140568075Y-122645480D01*
X140490770Y-122712561D01*
X140487387Y-122716687D01*
X140487383Y-122716691D01*
X140414262Y-122805869D01*
X140343128Y-122892624D01*
X140340490Y-122897259D01*
X140340487Y-122897263D01*
X140317155Y-122938252D01*
X140266073Y-122987558D01*
X140196442Y-123001420D01*
X140130371Y-122975437D01*
X140103133Y-122946287D01*
X140014388Y-122814470D01*
X140011196Y-122809728D01*
X139850468Y-122641242D01*
X139663650Y-122502246D01*
X139536574Y-122437637D01*
X139460842Y-122399133D01*
X139460841Y-122399133D01*
X139456084Y-122396714D01*
X139317299Y-122353620D01*
X139238807Y-122329247D01*
X139238801Y-122329246D01*
X139233704Y-122327663D01*
X139109340Y-122311180D01*
X139008152Y-122297768D01*
X139008148Y-122297768D01*
X139002868Y-122297068D01*
X138997538Y-122297268D01*
X138997537Y-122297268D01*
X138886523Y-122301435D01*
X138770178Y-122305803D01*
X138687474Y-122323156D01*
X138547514Y-122352523D01*
X138547511Y-122352524D01*
X138542287Y-122353620D01*
X138325710Y-122439150D01*
X138126641Y-122559949D01*
X138122611Y-122563446D01*
X138028075Y-122645480D01*
X137950770Y-122712561D01*
X137947387Y-122716687D01*
X137947383Y-122716691D01*
X137874262Y-122805869D01*
X137803128Y-122892624D01*
X137800490Y-122897259D01*
X137800487Y-122897263D01*
X137737589Y-123007760D01*
X137687935Y-123094989D01*
X137686114Y-123100005D01*
X137686112Y-123100010D01*
X137644302Y-123215194D01*
X137608485Y-123313869D01*
X137567050Y-123543007D01*
X137566855Y-123547146D01*
X137566854Y-123547153D01*
X137565970Y-123565905D01*
X137565900Y-123567394D01*
X137565900Y-124035868D01*
X127500256Y-124035868D01*
X127513523Y-123825000D01*
X127493451Y-123505961D01*
X127433551Y-123191954D01*
X127337890Y-122897542D01*
X127335993Y-122891703D01*
X127335993Y-122891702D01*
X127334767Y-122887930D01*
X127333078Y-122884340D01*
X127200347Y-122602271D01*
X127200343Y-122602264D01*
X127198659Y-122598685D01*
X127096170Y-122437188D01*
X127029498Y-122332130D01*
X127029495Y-122332126D01*
X127027371Y-122328779D01*
X126823606Y-122082470D01*
X126590577Y-121863641D01*
X126331959Y-121675744D01*
X126328487Y-121673835D01*
X126055293Y-121523645D01*
X126055290Y-121523643D01*
X126051831Y-121521742D01*
X125832877Y-121435052D01*
X125758293Y-121405522D01*
X125758290Y-121405521D01*
X125754610Y-121404064D01*
X125750776Y-121403080D01*
X125750768Y-121403077D01*
X125558847Y-121353800D01*
X125444983Y-121324565D01*
X125441055Y-121324069D01*
X125441051Y-121324068D01*
X125285344Y-121304398D01*
X125127835Y-121284500D01*
X124808165Y-121284500D01*
X124650656Y-121304398D01*
X124494949Y-121324068D01*
X124494945Y-121324069D01*
X124491017Y-121324565D01*
X124377153Y-121353800D01*
X124185232Y-121403077D01*
X124185224Y-121403080D01*
X124181390Y-121404064D01*
X124177710Y-121405521D01*
X124177707Y-121405522D01*
X124103123Y-121435052D01*
X123884169Y-121521742D01*
X123880710Y-121523643D01*
X123880707Y-121523645D01*
X123607513Y-121673835D01*
X123604041Y-121675744D01*
X123345423Y-121863641D01*
X123112394Y-122082470D01*
X122908629Y-122328779D01*
X122906505Y-122332126D01*
X122906502Y-122332130D01*
X122839830Y-122437188D01*
X122737341Y-122598685D01*
X122735657Y-122602264D01*
X122735653Y-122602271D01*
X122602922Y-122884340D01*
X122601233Y-122887930D01*
X122600007Y-122891702D01*
X122600007Y-122891703D01*
X122598110Y-122897542D01*
X122502449Y-123191954D01*
X122442549Y-123505961D01*
X122422477Y-123825000D01*
X122442549Y-124144039D01*
X122502449Y-124458046D01*
X122503676Y-124461822D01*
X122598201Y-124752737D01*
X122601233Y-124762070D01*
X122602920Y-124765656D01*
X122602922Y-124765660D01*
X122735653Y-125047729D01*
X122735657Y-125047736D01*
X122737341Y-125051315D01*
X122739465Y-125054661D01*
X122739465Y-125054662D01*
X122899914Y-125307488D01*
X122908629Y-125321221D01*
X123112394Y-125567530D01*
X123115284Y-125570244D01*
X123115285Y-125570245D01*
X123188661Y-125639150D01*
X123224627Y-125700363D01*
X123221788Y-125771303D01*
X123181048Y-125829447D01*
X123115340Y-125856335D01*
X123102408Y-125857000D01*
X111632000Y-125857000D01*
X111563879Y-125836998D01*
X111517386Y-125783342D01*
X111506000Y-125731000D01*
X111506000Y-104470859D01*
X128337132Y-104470859D01*
X128350457Y-104674151D01*
X128400605Y-104871610D01*
X128485898Y-105056624D01*
X128603479Y-105222997D01*
X128749410Y-105365157D01*
X128754206Y-105368362D01*
X128754209Y-105368364D01*
X128822149Y-105413760D01*
X128918803Y-105478342D01*
X128924106Y-105480620D01*
X128924109Y-105480622D01*
X129013115Y-105518862D01*
X129105987Y-105558763D01*
X129178817Y-105575243D01*
X129299055Y-105602450D01*
X129299060Y-105602451D01*
X129304692Y-105603725D01*
X129310463Y-105603952D01*
X129310465Y-105603952D01*
X129373470Y-105606427D01*
X129508263Y-105611723D01*
X129709883Y-105582490D01*
X129715347Y-105580635D01*
X129715352Y-105580634D01*
X129897327Y-105518862D01*
X129897332Y-105518860D01*
X129902799Y-105517004D01*
X130080551Y-105417458D01*
X130237186Y-105287186D01*
X130367458Y-105130551D01*
X130467004Y-104952799D01*
X130468860Y-104947332D01*
X130468862Y-104947327D01*
X130530634Y-104765352D01*
X130530635Y-104765347D01*
X130532490Y-104759883D01*
X130561723Y-104558263D01*
X130563249Y-104500000D01*
X130544608Y-104297126D01*
X130489307Y-104101047D01*
X130478680Y-104079496D01*
X130401756Y-103923510D01*
X130399201Y-103918329D01*
X130380796Y-103893681D01*
X130280758Y-103759715D01*
X130280758Y-103759714D01*
X130277305Y-103755091D01*
X130127703Y-103616800D01*
X130081675Y-103587759D01*
X129960288Y-103511169D01*
X129960283Y-103511167D01*
X129955404Y-103508088D01*
X129766180Y-103432595D01*
X129566366Y-103392849D01*
X129560592Y-103392773D01*
X129560588Y-103392773D01*
X129457452Y-103391424D01*
X129362655Y-103390183D01*
X129356958Y-103391162D01*
X129356957Y-103391162D01*
X129167567Y-103423705D01*
X129161870Y-103424684D01*
X128970734Y-103495198D01*
X128795649Y-103599363D01*
X128642478Y-103733690D01*
X128638911Y-103738215D01*
X128638906Y-103738220D01*
X128552331Y-103848040D01*
X128516351Y-103893681D01*
X128421492Y-104073978D01*
X128361078Y-104268543D01*
X128337132Y-104470859D01*
X111506000Y-104470859D01*
X111506000Y-98832472D01*
X121682082Y-98832472D01*
X121691378Y-98844487D01*
X121741506Y-98879587D01*
X121750996Y-98885065D01*
X121947661Y-98976771D01*
X121957957Y-98980519D01*
X122167561Y-99036683D01*
X122178350Y-99038585D01*
X122394525Y-99057498D01*
X122405475Y-99057498D01*
X122621650Y-99038585D01*
X122632439Y-99036683D01*
X122842043Y-98980519D01*
X122852339Y-98976771D01*
X123049004Y-98885065D01*
X123058494Y-98879587D01*
X123109460Y-98843900D01*
X123117834Y-98833424D01*
X123110768Y-98819979D01*
X122412811Y-98122021D01*
X122398868Y-98114408D01*
X122397034Y-98114539D01*
X122390420Y-98118790D01*
X121688509Y-98820702D01*
X121682082Y-98832472D01*
X111506000Y-98832472D01*
X111506000Y-97755475D01*
X121092502Y-97755475D01*
X121111415Y-97971650D01*
X121113317Y-97982439D01*
X121169481Y-98192043D01*
X121173229Y-98202339D01*
X121264933Y-98399001D01*
X121270416Y-98408496D01*
X121306100Y-98459458D01*
X121316577Y-98467833D01*
X121330023Y-98460766D01*
X122027979Y-97762811D01*
X122034356Y-97751132D01*
X122764408Y-97751132D01*
X122764539Y-97752966D01*
X122768790Y-97759580D01*
X123470701Y-98461490D01*
X123482471Y-98467917D01*
X123494485Y-98458623D01*
X123529584Y-98408496D01*
X123535067Y-98399001D01*
X123626771Y-98202339D01*
X123630519Y-98192043D01*
X123686683Y-97982439D01*
X123688585Y-97971650D01*
X123707498Y-97755475D01*
X123707498Y-97744525D01*
X123688585Y-97528350D01*
X123686683Y-97517561D01*
X123630519Y-97307957D01*
X123626771Y-97297661D01*
X123535067Y-97100999D01*
X123529584Y-97091504D01*
X123493900Y-97040542D01*
X123483423Y-97032167D01*
X123469977Y-97039234D01*
X122772021Y-97737189D01*
X122764408Y-97751132D01*
X122034356Y-97751132D01*
X122035592Y-97748868D01*
X122035461Y-97747034D01*
X122031210Y-97740420D01*
X121329299Y-97038510D01*
X121317529Y-97032083D01*
X121305515Y-97041377D01*
X121270416Y-97091504D01*
X121264933Y-97100999D01*
X121173229Y-97297661D01*
X121169481Y-97307957D01*
X121113317Y-97517561D01*
X121111415Y-97528350D01*
X121092502Y-97744525D01*
X121092502Y-97755475D01*
X111506000Y-97755475D01*
X111506000Y-96292472D01*
X121682082Y-96292472D01*
X121691378Y-96304487D01*
X121741506Y-96339587D01*
X121751000Y-96345068D01*
X121795472Y-96365805D01*
X121848757Y-96412721D01*
X121868219Y-96480999D01*
X121847678Y-96548959D01*
X121795473Y-96594195D01*
X121750999Y-96614933D01*
X121741504Y-96620416D01*
X121690542Y-96656100D01*
X121682167Y-96666577D01*
X121689234Y-96680023D01*
X122387189Y-97377979D01*
X122401132Y-97385592D01*
X122402966Y-97385461D01*
X122409580Y-97381210D01*
X123111491Y-96679298D01*
X123117918Y-96667528D01*
X123108622Y-96655513D01*
X123058494Y-96620413D01*
X123049004Y-96614935D01*
X123004528Y-96594195D01*
X122951243Y-96547278D01*
X122931782Y-96479001D01*
X122952324Y-96411041D01*
X123004528Y-96365805D01*
X123049004Y-96345065D01*
X123058494Y-96339587D01*
X123109460Y-96303900D01*
X123117834Y-96293424D01*
X123110768Y-96279979D01*
X122412811Y-95582021D01*
X122398868Y-95574408D01*
X122397034Y-95574539D01*
X122390420Y-95578790D01*
X121688509Y-96280702D01*
X121682082Y-96292472D01*
X111506000Y-96292472D01*
X111506000Y-95215475D01*
X121092502Y-95215475D01*
X121111415Y-95431650D01*
X121113317Y-95442439D01*
X121169481Y-95652043D01*
X121173229Y-95662339D01*
X121264933Y-95859001D01*
X121270416Y-95868496D01*
X121306100Y-95919458D01*
X121316577Y-95927833D01*
X121330023Y-95920766D01*
X122027979Y-95222811D01*
X122034356Y-95211132D01*
X122764408Y-95211132D01*
X122764539Y-95212966D01*
X122768790Y-95219580D01*
X123470701Y-95921490D01*
X123482471Y-95927917D01*
X123494485Y-95918623D01*
X123529584Y-95868496D01*
X123535067Y-95859001D01*
X123626771Y-95662339D01*
X123630519Y-95652043D01*
X123686683Y-95442439D01*
X123688585Y-95431650D01*
X123707498Y-95215475D01*
X123707498Y-95204525D01*
X123688585Y-94988350D01*
X123686683Y-94977561D01*
X123630519Y-94767957D01*
X123626771Y-94757661D01*
X123535067Y-94560999D01*
X123529584Y-94551504D01*
X123493900Y-94500542D01*
X123483423Y-94492167D01*
X123469977Y-94499234D01*
X122772021Y-95197189D01*
X122764408Y-95211132D01*
X122034356Y-95211132D01*
X122035592Y-95208868D01*
X122035461Y-95207034D01*
X122031210Y-95200420D01*
X121329299Y-94498510D01*
X121317529Y-94492083D01*
X121305515Y-94501377D01*
X121270416Y-94551504D01*
X121264933Y-94560999D01*
X121173229Y-94757661D01*
X121169481Y-94767957D01*
X121113317Y-94977561D01*
X121111415Y-94988350D01*
X121092502Y-95204525D01*
X121092502Y-95215475D01*
X111506000Y-95215475D01*
X111506000Y-92670000D01*
X121091521Y-92670000D01*
X121111400Y-92897215D01*
X121112824Y-92902528D01*
X121112824Y-92902530D01*
X121167949Y-93108258D01*
X121170432Y-93117526D01*
X121172754Y-93122507D01*
X121172755Y-93122508D01*
X121264498Y-93319252D01*
X121264501Y-93319257D01*
X121266824Y-93324239D01*
X121397647Y-93511074D01*
X121558926Y-93672353D01*
X121563434Y-93675510D01*
X121563437Y-93675512D01*
X121641268Y-93730010D01*
X121745760Y-93803176D01*
X121750745Y-93805501D01*
X121750751Y-93805504D01*
X121794880Y-93826081D01*
X121848165Y-93872997D01*
X121867627Y-93941275D01*
X121847086Y-94009235D01*
X121794881Y-94054471D01*
X121750999Y-94074933D01*
X121741504Y-94080416D01*
X121690542Y-94116100D01*
X121682167Y-94126577D01*
X121689234Y-94140023D01*
X122387189Y-94837979D01*
X122401132Y-94845592D01*
X122402966Y-94845461D01*
X122409580Y-94841210D01*
X123111491Y-94139298D01*
X123117918Y-94127528D01*
X123108622Y-94115513D01*
X123058494Y-94080413D01*
X123049004Y-94074934D01*
X123005120Y-94054471D01*
X122951835Y-94007554D01*
X122932374Y-93939276D01*
X122952916Y-93871316D01*
X123005120Y-93826081D01*
X123049253Y-93805502D01*
X123049258Y-93805499D01*
X123054240Y-93803176D01*
X123158732Y-93730010D01*
X123236563Y-93675512D01*
X123236566Y-93675510D01*
X123241074Y-93672353D01*
X123402353Y-93511074D01*
X123533176Y-93324239D01*
X123535499Y-93319257D01*
X123535502Y-93319252D01*
X123627245Y-93122508D01*
X123627246Y-93122507D01*
X123629568Y-93117526D01*
X123632052Y-93108258D01*
X123687176Y-92902530D01*
X123687176Y-92902528D01*
X123688600Y-92897215D01*
X123708479Y-92670000D01*
X123688600Y-92442785D01*
X123687176Y-92437470D01*
X123630991Y-92227784D01*
X123630990Y-92227782D01*
X123629568Y-92222474D01*
X123538757Y-92027729D01*
X123535502Y-92020748D01*
X123535499Y-92020743D01*
X123533176Y-92015761D01*
X123402353Y-91828926D01*
X123241074Y-91667647D01*
X123236566Y-91664490D01*
X123236563Y-91664488D01*
X123158732Y-91609990D01*
X123054240Y-91536824D01*
X123049258Y-91534501D01*
X123049253Y-91534498D01*
X123005712Y-91514195D01*
X122952427Y-91467278D01*
X122932966Y-91399000D01*
X122953508Y-91331040D01*
X123005712Y-91285805D01*
X123049253Y-91265502D01*
X123049258Y-91265499D01*
X123054240Y-91263176D01*
X123158732Y-91190010D01*
X123236563Y-91135512D01*
X123236566Y-91135510D01*
X123241074Y-91132353D01*
X123402353Y-90971074D01*
X123521411Y-90801042D01*
X123530019Y-90788748D01*
X123530020Y-90788746D01*
X123533176Y-90784239D01*
X123535499Y-90779257D01*
X123535502Y-90779252D01*
X123627245Y-90582508D01*
X123627246Y-90582507D01*
X123629568Y-90577526D01*
X123688600Y-90357215D01*
X123708479Y-90130000D01*
X123688600Y-89902785D01*
X123637405Y-89711723D01*
X123630991Y-89687784D01*
X123630990Y-89687782D01*
X123629568Y-89682474D01*
X123618883Y-89659560D01*
X123535502Y-89480748D01*
X123535499Y-89480743D01*
X123533176Y-89475761D01*
X123525751Y-89465157D01*
X123405512Y-89293437D01*
X123405510Y-89293434D01*
X123402353Y-89288926D01*
X123241074Y-89127647D01*
X123236566Y-89124490D01*
X123236563Y-89124488D01*
X123132411Y-89051560D01*
X123054240Y-88996824D01*
X123049258Y-88994501D01*
X123049253Y-88994498D01*
X123005712Y-88974195D01*
X122952427Y-88927278D01*
X122932966Y-88859000D01*
X122953508Y-88791040D01*
X123005712Y-88745805D01*
X123049253Y-88725502D01*
X123049258Y-88725499D01*
X123054240Y-88723176D01*
X123211857Y-88612811D01*
X123236563Y-88595512D01*
X123236566Y-88595510D01*
X123241074Y-88592353D01*
X123262568Y-88570859D01*
X128337132Y-88570859D01*
X128350457Y-88774151D01*
X128400605Y-88971610D01*
X128485898Y-89156624D01*
X128603479Y-89322997D01*
X128749410Y-89465157D01*
X128754206Y-89468362D01*
X128754209Y-89468364D01*
X128879227Y-89551898D01*
X128918803Y-89578342D01*
X128924106Y-89580620D01*
X128924109Y-89580622D01*
X129100680Y-89656483D01*
X129105987Y-89658763D01*
X129178817Y-89675243D01*
X129299055Y-89702450D01*
X129299060Y-89702451D01*
X129304692Y-89703725D01*
X129310463Y-89703952D01*
X129310465Y-89703952D01*
X129373470Y-89706427D01*
X129508263Y-89711723D01*
X129709883Y-89682490D01*
X129715347Y-89680635D01*
X129715352Y-89680634D01*
X129897327Y-89618862D01*
X129897332Y-89618860D01*
X129902799Y-89617004D01*
X129908653Y-89613726D01*
X130019054Y-89551898D01*
X130037989Y-89541294D01*
X146997066Y-89541294D01*
X147006948Y-89553783D01*
X147038239Y-89574691D01*
X147048349Y-89580181D01*
X147224835Y-89656005D01*
X147235778Y-89659560D01*
X147423120Y-89701952D01*
X147434530Y-89703454D01*
X147626469Y-89710995D01*
X147637951Y-89710393D01*
X147828045Y-89682832D01*
X147839240Y-89680144D01*
X148021131Y-89618400D01*
X148031628Y-89613726D01*
X148142032Y-89551898D01*
X148151895Y-89541821D01*
X148148940Y-89534151D01*
X147586811Y-88972021D01*
X147572868Y-88964408D01*
X147571034Y-88964539D01*
X147564420Y-88968790D01*
X147003259Y-89529952D01*
X146997066Y-89541294D01*
X130037989Y-89541294D01*
X130080551Y-89517458D01*
X130237186Y-89387186D01*
X130367458Y-89230551D01*
X130461588Y-89062470D01*
X130464180Y-89057842D01*
X130464181Y-89057840D01*
X130467004Y-89052799D01*
X130468860Y-89047332D01*
X130468862Y-89047327D01*
X130530634Y-88865352D01*
X130530635Y-88865347D01*
X130532490Y-88859883D01*
X130561723Y-88658263D01*
X130563249Y-88600000D01*
X130561102Y-88576638D01*
X146462012Y-88576638D01*
X146474575Y-88768304D01*
X146476376Y-88779674D01*
X146523657Y-88965843D01*
X146527498Y-88976690D01*
X146607916Y-89151130D01*
X146613664Y-89161086D01*
X146619788Y-89169751D01*
X146630377Y-89178140D01*
X146643676Y-89171113D01*
X147201979Y-88612811D01*
X147208356Y-88601132D01*
X147938408Y-88601132D01*
X147938539Y-88602966D01*
X147942790Y-88609580D01*
X148504239Y-89171028D01*
X148516614Y-89177785D01*
X148523194Y-89172859D01*
X148587726Y-89057628D01*
X148592400Y-89047131D01*
X148654144Y-88865240D01*
X148656832Y-88854045D01*
X148684689Y-88661911D01*
X148685319Y-88654528D01*
X148686650Y-88603704D01*
X148686407Y-88596305D01*
X148684069Y-88570859D01*
X149001132Y-88570859D01*
X149014457Y-88774151D01*
X149064605Y-88971610D01*
X149149898Y-89156624D01*
X149267479Y-89322997D01*
X149413410Y-89465157D01*
X149418206Y-89468362D01*
X149418209Y-89468364D01*
X149543227Y-89551898D01*
X149582803Y-89578342D01*
X149588106Y-89580620D01*
X149588109Y-89580622D01*
X149764680Y-89656483D01*
X149769987Y-89658763D01*
X149842817Y-89675243D01*
X149963055Y-89702450D01*
X149963060Y-89702451D01*
X149968692Y-89703725D01*
X149974463Y-89703952D01*
X149974465Y-89703952D01*
X150037470Y-89706427D01*
X150172263Y-89711723D01*
X150373883Y-89682490D01*
X150379347Y-89680635D01*
X150379352Y-89680634D01*
X150561327Y-89618862D01*
X150561332Y-89618860D01*
X150566799Y-89617004D01*
X150572653Y-89613726D01*
X150683054Y-89551898D01*
X150744551Y-89517458D01*
X150901186Y-89387186D01*
X151031458Y-89230551D01*
X151125588Y-89062470D01*
X151128180Y-89057842D01*
X151128181Y-89057840D01*
X151131004Y-89052799D01*
X151132860Y-89047332D01*
X151132862Y-89047327D01*
X151194634Y-88865352D01*
X151194635Y-88865347D01*
X151196490Y-88859883D01*
X151225723Y-88658263D01*
X151227249Y-88600000D01*
X151215044Y-88467173D01*
X151209137Y-88402880D01*
X151209136Y-88402877D01*
X151208608Y-88397126D01*
X151182503Y-88304565D01*
X151154875Y-88206606D01*
X151154874Y-88206604D01*
X151153307Y-88201047D01*
X151142776Y-88179691D01*
X151065756Y-88023510D01*
X151063201Y-88018329D01*
X151044796Y-87993681D01*
X150944758Y-87859715D01*
X150944758Y-87859714D01*
X150941305Y-87855091D01*
X150791703Y-87716800D01*
X150685947Y-87650073D01*
X150624288Y-87611169D01*
X150624283Y-87611167D01*
X150619404Y-87608088D01*
X150430180Y-87532595D01*
X150255663Y-87497881D01*
X150236032Y-87493976D01*
X150236031Y-87493976D01*
X150230366Y-87492849D01*
X150224592Y-87492773D01*
X150224588Y-87492773D01*
X150121452Y-87491424D01*
X150026655Y-87490183D01*
X150020958Y-87491162D01*
X150020957Y-87491162D01*
X150001671Y-87494476D01*
X149825870Y-87524684D01*
X149634734Y-87595198D01*
X149629773Y-87598150D01*
X149629772Y-87598150D01*
X149513939Y-87667064D01*
X149459649Y-87699363D01*
X149306478Y-87833690D01*
X149302911Y-87838215D01*
X149302906Y-87838220D01*
X149216331Y-87948040D01*
X149180351Y-87993681D01*
X149177662Y-87998792D01*
X149177660Y-87998795D01*
X149157283Y-88037526D01*
X149085492Y-88173978D01*
X149025078Y-88368543D01*
X149001132Y-88570859D01*
X148684069Y-88570859D01*
X148668643Y-88402975D01*
X148666545Y-88391654D01*
X148614408Y-88206791D01*
X148610283Y-88196044D01*
X148526163Y-88025465D01*
X148518869Y-88019990D01*
X148506449Y-88026762D01*
X147946021Y-88587189D01*
X147938408Y-88601132D01*
X147208356Y-88601132D01*
X147209592Y-88598868D01*
X147209461Y-88597034D01*
X147205210Y-88590420D01*
X146642538Y-88027749D01*
X146630163Y-88020992D01*
X146624197Y-88025458D01*
X146548645Y-88169058D01*
X146544242Y-88179691D01*
X146487281Y-88363132D01*
X146484891Y-88374376D01*
X146462313Y-88565137D01*
X146462012Y-88576638D01*
X130561102Y-88576638D01*
X130551044Y-88467173D01*
X130545137Y-88402880D01*
X130545136Y-88402877D01*
X130544608Y-88397126D01*
X130518503Y-88304565D01*
X130490875Y-88206606D01*
X130490874Y-88206604D01*
X130489307Y-88201047D01*
X130478776Y-88179691D01*
X130401756Y-88023510D01*
X130399201Y-88018329D01*
X130380796Y-87993681D01*
X130280758Y-87859715D01*
X130280758Y-87859714D01*
X130277305Y-87855091D01*
X130127703Y-87716800D01*
X130035580Y-87658675D01*
X146996788Y-87658675D01*
X147000275Y-87667064D01*
X147561189Y-88227979D01*
X147575132Y-88235592D01*
X147576966Y-88235461D01*
X147583580Y-88231210D01*
X148144285Y-87670504D01*
X148151042Y-87658129D01*
X148145012Y-87650073D01*
X148084061Y-87611616D01*
X148073813Y-87606395D01*
X147895401Y-87535216D01*
X147884373Y-87531949D01*
X147695982Y-87494476D01*
X147684535Y-87493273D01*
X147492477Y-87490759D01*
X147480997Y-87491662D01*
X147291697Y-87524190D01*
X147280577Y-87527170D01*
X147100365Y-87593653D01*
X147089991Y-87598601D01*
X147006385Y-87648342D01*
X146996788Y-87658675D01*
X130035580Y-87658675D01*
X130021947Y-87650073D01*
X129960288Y-87611169D01*
X129960283Y-87611167D01*
X129955404Y-87608088D01*
X129766180Y-87532595D01*
X129591663Y-87497881D01*
X129572032Y-87493976D01*
X129572031Y-87493976D01*
X129566366Y-87492849D01*
X129560592Y-87492773D01*
X129560588Y-87492773D01*
X129457452Y-87491424D01*
X129362655Y-87490183D01*
X129356958Y-87491162D01*
X129356957Y-87491162D01*
X129337671Y-87494476D01*
X129161870Y-87524684D01*
X128970734Y-87595198D01*
X128965773Y-87598150D01*
X128965772Y-87598150D01*
X128849939Y-87667064D01*
X128795649Y-87699363D01*
X128642478Y-87833690D01*
X128638911Y-87838215D01*
X128638906Y-87838220D01*
X128552331Y-87948040D01*
X128516351Y-87993681D01*
X128513662Y-87998792D01*
X128513660Y-87998795D01*
X128493283Y-88037526D01*
X128421492Y-88173978D01*
X128361078Y-88368543D01*
X128337132Y-88570859D01*
X123262568Y-88570859D01*
X123402353Y-88431074D01*
X123442054Y-88374376D01*
X123530019Y-88248748D01*
X123530020Y-88248746D01*
X123533176Y-88244239D01*
X123535499Y-88239257D01*
X123535502Y-88239252D01*
X123627245Y-88042508D01*
X123627246Y-88042507D01*
X123629568Y-88037526D01*
X123679501Y-87851175D01*
X123687176Y-87822530D01*
X123687176Y-87822528D01*
X123688600Y-87817215D01*
X123708479Y-87590000D01*
X123688600Y-87362785D01*
X123629568Y-87142474D01*
X123627245Y-87137492D01*
X123535502Y-86940748D01*
X123535499Y-86940743D01*
X123533176Y-86935761D01*
X123402353Y-86748926D01*
X123241074Y-86587647D01*
X123236566Y-86584490D01*
X123236563Y-86584488D01*
X123158732Y-86529990D01*
X123054240Y-86456824D01*
X123049258Y-86454501D01*
X123049253Y-86454498D01*
X123005712Y-86434195D01*
X122952427Y-86387278D01*
X122932966Y-86319000D01*
X122953508Y-86251040D01*
X123005712Y-86205805D01*
X123049253Y-86185502D01*
X123049258Y-86185499D01*
X123054240Y-86183176D01*
X123217497Y-86068862D01*
X123236563Y-86055512D01*
X123236566Y-86055510D01*
X123241074Y-86052353D01*
X123402353Y-85891074D01*
X123437502Y-85840877D01*
X123530019Y-85708748D01*
X123530020Y-85708746D01*
X123533176Y-85704239D01*
X123535499Y-85699257D01*
X123535502Y-85699252D01*
X123627245Y-85502508D01*
X123627246Y-85502507D01*
X123629568Y-85497526D01*
X123688600Y-85277215D01*
X123708479Y-85050000D01*
X123705929Y-85020859D01*
X125837132Y-85020859D01*
X125850457Y-85224151D01*
X125900605Y-85421610D01*
X125985898Y-85606624D01*
X126103479Y-85772997D01*
X126107613Y-85777024D01*
X126242043Y-85907980D01*
X126249410Y-85915157D01*
X126254206Y-85918362D01*
X126254209Y-85918364D01*
X126322149Y-85963760D01*
X126418803Y-86028342D01*
X126424106Y-86030620D01*
X126424109Y-86030622D01*
X126572612Y-86094424D01*
X126605987Y-86108763D01*
X126669105Y-86123045D01*
X126799055Y-86152450D01*
X126799060Y-86152451D01*
X126804692Y-86153725D01*
X126810463Y-86153952D01*
X126810465Y-86153952D01*
X126873470Y-86156427D01*
X127008263Y-86161723D01*
X127209883Y-86132490D01*
X127215347Y-86130635D01*
X127215352Y-86130634D01*
X127397327Y-86068862D01*
X127397332Y-86068860D01*
X127402799Y-86067004D01*
X127423320Y-86055512D01*
X127502817Y-86010991D01*
X127580551Y-85967458D01*
X127737186Y-85837186D01*
X127867458Y-85680551D01*
X127967004Y-85502799D01*
X127968860Y-85497332D01*
X127968862Y-85497327D01*
X128030634Y-85315352D01*
X128030635Y-85315347D01*
X128032490Y-85309883D01*
X128061723Y-85108263D01*
X128063249Y-85050000D01*
X128060571Y-85020859D01*
X128337132Y-85020859D01*
X128350457Y-85224151D01*
X128400605Y-85421610D01*
X128485898Y-85606624D01*
X128603479Y-85772997D01*
X128607613Y-85777024D01*
X128742043Y-85907980D01*
X128749410Y-85915157D01*
X128754206Y-85918362D01*
X128754209Y-85918364D01*
X128822149Y-85963760D01*
X128918803Y-86028342D01*
X128924106Y-86030620D01*
X128924109Y-86030622D01*
X129072612Y-86094424D01*
X129105987Y-86108763D01*
X129169105Y-86123045D01*
X129299055Y-86152450D01*
X129299060Y-86152451D01*
X129304692Y-86153725D01*
X129310463Y-86153952D01*
X129310465Y-86153952D01*
X129373470Y-86156427D01*
X129508263Y-86161723D01*
X129709883Y-86132490D01*
X129715347Y-86130635D01*
X129715352Y-86130634D01*
X129897327Y-86068862D01*
X129897332Y-86068860D01*
X129902799Y-86067004D01*
X129923320Y-86055512D01*
X130002817Y-86010991D01*
X130080551Y-85967458D01*
X130237186Y-85837186D01*
X130367458Y-85680551D01*
X130467004Y-85502799D01*
X130468860Y-85497332D01*
X130468862Y-85497327D01*
X130530634Y-85315352D01*
X130530635Y-85315347D01*
X130532490Y-85309883D01*
X130561723Y-85108263D01*
X130563249Y-85050000D01*
X130544608Y-84847126D01*
X130534991Y-84813026D01*
X130490875Y-84656606D01*
X130490874Y-84656604D01*
X130489307Y-84651047D01*
X130486150Y-84644644D01*
X130401756Y-84473510D01*
X130399201Y-84468329D01*
X130380796Y-84443681D01*
X130280758Y-84309715D01*
X130280758Y-84309714D01*
X130277305Y-84305091D01*
X130127703Y-84166800D01*
X129991374Y-84080783D01*
X129960288Y-84061169D01*
X129960283Y-84061167D01*
X129955404Y-84058088D01*
X129766180Y-83982595D01*
X129566366Y-83942849D01*
X129560592Y-83942773D01*
X129560588Y-83942773D01*
X129457452Y-83941424D01*
X129362655Y-83940183D01*
X129356958Y-83941162D01*
X129356957Y-83941162D01*
X129167567Y-83973705D01*
X129161870Y-83974684D01*
X128970734Y-84045198D01*
X128965773Y-84048150D01*
X128965772Y-84048150D01*
X128920141Y-84075298D01*
X128795649Y-84149363D01*
X128642478Y-84283690D01*
X128638911Y-84288215D01*
X128638906Y-84288220D01*
X128557683Y-84391252D01*
X128516351Y-84443681D01*
X128421492Y-84623978D01*
X128361078Y-84818543D01*
X128337132Y-85020859D01*
X128060571Y-85020859D01*
X128044608Y-84847126D01*
X128034991Y-84813026D01*
X127990875Y-84656606D01*
X127990874Y-84656604D01*
X127989307Y-84651047D01*
X127986150Y-84644644D01*
X127901756Y-84473510D01*
X127899201Y-84468329D01*
X127880796Y-84443681D01*
X127780758Y-84309715D01*
X127780758Y-84309714D01*
X127777305Y-84305091D01*
X127627703Y-84166800D01*
X127491374Y-84080783D01*
X127460288Y-84061169D01*
X127460283Y-84061167D01*
X127455404Y-84058088D01*
X127266180Y-83982595D01*
X127066366Y-83942849D01*
X127060592Y-83942773D01*
X127060588Y-83942773D01*
X126957452Y-83941424D01*
X126862655Y-83940183D01*
X126856958Y-83941162D01*
X126856957Y-83941162D01*
X126667567Y-83973705D01*
X126661870Y-83974684D01*
X126470734Y-84045198D01*
X126465773Y-84048150D01*
X126465772Y-84048150D01*
X126420141Y-84075298D01*
X126295649Y-84149363D01*
X126142478Y-84283690D01*
X126138911Y-84288215D01*
X126138906Y-84288220D01*
X126057683Y-84391252D01*
X126016351Y-84443681D01*
X125921492Y-84623978D01*
X125861078Y-84818543D01*
X125837132Y-85020859D01*
X123705929Y-85020859D01*
X123688600Y-84822785D01*
X123685985Y-84813026D01*
X123630991Y-84607784D01*
X123630990Y-84607782D01*
X123629568Y-84602474D01*
X123567015Y-84468329D01*
X123535502Y-84400748D01*
X123535499Y-84400743D01*
X123533176Y-84395761D01*
X123472926Y-84309715D01*
X123405512Y-84213437D01*
X123405510Y-84213434D01*
X123402353Y-84208926D01*
X123241074Y-84047647D01*
X123236566Y-84044490D01*
X123236563Y-84044488D01*
X123158732Y-83989990D01*
X123054240Y-83916824D01*
X123049258Y-83914501D01*
X123049253Y-83914498D01*
X122852508Y-83822755D01*
X122852507Y-83822755D01*
X122847526Y-83820432D01*
X122842218Y-83819010D01*
X122842216Y-83819009D01*
X122632530Y-83762824D01*
X122632528Y-83762824D01*
X122627215Y-83761400D01*
X122400000Y-83741521D01*
X122172785Y-83761400D01*
X122167472Y-83762824D01*
X122167470Y-83762824D01*
X121957784Y-83819009D01*
X121957782Y-83819010D01*
X121952474Y-83820432D01*
X121947493Y-83822754D01*
X121947492Y-83822755D01*
X121750748Y-83914498D01*
X121750743Y-83914501D01*
X121745761Y-83916824D01*
X121741254Y-83919980D01*
X121741252Y-83919981D01*
X121563437Y-84044488D01*
X121563434Y-84044490D01*
X121558926Y-84047647D01*
X121397647Y-84208926D01*
X121394490Y-84213434D01*
X121394488Y-84213437D01*
X121327074Y-84309715D01*
X121266824Y-84395761D01*
X121264501Y-84400743D01*
X121264498Y-84400748D01*
X121232985Y-84468329D01*
X121170432Y-84602474D01*
X121169010Y-84607782D01*
X121169009Y-84607784D01*
X121114015Y-84813026D01*
X121111400Y-84822785D01*
X121091521Y-85050000D01*
X121111400Y-85277215D01*
X121170432Y-85497526D01*
X121172754Y-85502507D01*
X121172755Y-85502508D01*
X121264498Y-85699252D01*
X121264501Y-85699257D01*
X121266824Y-85704239D01*
X121269980Y-85708746D01*
X121269981Y-85708748D01*
X121362499Y-85840877D01*
X121397647Y-85891074D01*
X121558926Y-86052353D01*
X121563434Y-86055510D01*
X121563437Y-86055512D01*
X121582503Y-86068862D01*
X121745760Y-86183176D01*
X121750745Y-86185501D01*
X121750751Y-86185504D01*
X121794288Y-86205805D01*
X121847574Y-86252722D01*
X121867035Y-86320999D01*
X121846494Y-86388959D01*
X121794289Y-86434195D01*
X121750748Y-86454498D01*
X121750743Y-86454501D01*
X121745761Y-86456824D01*
X121741254Y-86459980D01*
X121741252Y-86459981D01*
X121563437Y-86584488D01*
X121563434Y-86584490D01*
X121558926Y-86587647D01*
X121397647Y-86748926D01*
X121266824Y-86935761D01*
X121264501Y-86940743D01*
X121264498Y-86940748D01*
X121172755Y-87137492D01*
X121170432Y-87142474D01*
X121111400Y-87362785D01*
X121091521Y-87590000D01*
X121111400Y-87817215D01*
X121112824Y-87822528D01*
X121112824Y-87822530D01*
X121120500Y-87851175D01*
X121170432Y-88037526D01*
X121172754Y-88042507D01*
X121172755Y-88042508D01*
X121264498Y-88239252D01*
X121264501Y-88239257D01*
X121266824Y-88244239D01*
X121269980Y-88248746D01*
X121269981Y-88248748D01*
X121357947Y-88374376D01*
X121397647Y-88431074D01*
X121558926Y-88592353D01*
X121563434Y-88595510D01*
X121563437Y-88595512D01*
X121588143Y-88612811D01*
X121745760Y-88723176D01*
X121750745Y-88725501D01*
X121750751Y-88725504D01*
X121794288Y-88745805D01*
X121847574Y-88792722D01*
X121867035Y-88860999D01*
X121846494Y-88928959D01*
X121794289Y-88974195D01*
X121750748Y-88994498D01*
X121750743Y-88994501D01*
X121745761Y-88996824D01*
X121741254Y-88999980D01*
X121741252Y-88999981D01*
X121563437Y-89124488D01*
X121563434Y-89124490D01*
X121558926Y-89127647D01*
X121397647Y-89288926D01*
X121394490Y-89293434D01*
X121394488Y-89293437D01*
X121274249Y-89465157D01*
X121266824Y-89475761D01*
X121264501Y-89480743D01*
X121264498Y-89480748D01*
X121181117Y-89659560D01*
X121170432Y-89682474D01*
X121169010Y-89687782D01*
X121169009Y-89687784D01*
X121162595Y-89711723D01*
X121111400Y-89902785D01*
X121091521Y-90130000D01*
X121111400Y-90357215D01*
X121170432Y-90577526D01*
X121172754Y-90582507D01*
X121172755Y-90582508D01*
X121264498Y-90779252D01*
X121264501Y-90779257D01*
X121266824Y-90784239D01*
X121269980Y-90788746D01*
X121269981Y-90788748D01*
X121278590Y-90801042D01*
X121397647Y-90971074D01*
X121558926Y-91132353D01*
X121563434Y-91135510D01*
X121563437Y-91135512D01*
X121641268Y-91190010D01*
X121745760Y-91263176D01*
X121750745Y-91265501D01*
X121750751Y-91265504D01*
X121794288Y-91285805D01*
X121847574Y-91332722D01*
X121867035Y-91400999D01*
X121846494Y-91468959D01*
X121794289Y-91514195D01*
X121750748Y-91534498D01*
X121750743Y-91534501D01*
X121745761Y-91536824D01*
X121741254Y-91539980D01*
X121741252Y-91539981D01*
X121563437Y-91664488D01*
X121563434Y-91664490D01*
X121558926Y-91667647D01*
X121397647Y-91828926D01*
X121266824Y-92015761D01*
X121264501Y-92020743D01*
X121264498Y-92020748D01*
X121261243Y-92027729D01*
X121170432Y-92222474D01*
X121169010Y-92227782D01*
X121169009Y-92227784D01*
X121112824Y-92437470D01*
X121111400Y-92442785D01*
X121091521Y-92670000D01*
X111506000Y-92670000D01*
X111506000Y-83678500D01*
X138875600Y-83678500D01*
X138876116Y-83684644D01*
X138887714Y-83822755D01*
X138892560Y-83880469D01*
X138894259Y-83886394D01*
X138944375Y-84061169D01*
X138948426Y-84075298D01*
X138951245Y-84080783D01*
X139038253Y-84250083D01*
X139038256Y-84250088D01*
X139041071Y-84255565D01*
X139166965Y-84414403D01*
X139171659Y-84418398D01*
X139230328Y-84468329D01*
X139321313Y-84545764D01*
X139498237Y-84644644D01*
X139690997Y-84707275D01*
X139892251Y-84731273D01*
X139898386Y-84730801D01*
X139898388Y-84730801D01*
X140088192Y-84716197D01*
X140088196Y-84716196D01*
X140094334Y-84715724D01*
X140100266Y-84714068D01*
X140100270Y-84714067D01*
X140283603Y-84662879D01*
X140283607Y-84662878D01*
X140289547Y-84661219D01*
X140295051Y-84658439D01*
X140295053Y-84658438D01*
X140464956Y-84572614D01*
X140464958Y-84572613D01*
X140470457Y-84569835D01*
X140630171Y-84445053D01*
X140656628Y-84414403D01*
X140750983Y-84305091D01*
X140762606Y-84291626D01*
X140833517Y-84166800D01*
X140859675Y-84120753D01*
X140859676Y-84120752D01*
X140862718Y-84115396D01*
X140926694Y-83923078D01*
X140952096Y-83721997D01*
X140952501Y-83693000D01*
X140951079Y-83678500D01*
X149075600Y-83678500D01*
X149076116Y-83684644D01*
X149087714Y-83822755D01*
X149092560Y-83880469D01*
X149094259Y-83886394D01*
X149144375Y-84061169D01*
X149148426Y-84075298D01*
X149151245Y-84080783D01*
X149238253Y-84250083D01*
X149238256Y-84250088D01*
X149241071Y-84255565D01*
X149366965Y-84414403D01*
X149371659Y-84418398D01*
X149430328Y-84468329D01*
X149521313Y-84545764D01*
X149698237Y-84644644D01*
X149890997Y-84707275D01*
X150092251Y-84731273D01*
X150098386Y-84730801D01*
X150098388Y-84730801D01*
X150288192Y-84716197D01*
X150288196Y-84716196D01*
X150294334Y-84715724D01*
X150300266Y-84714068D01*
X150300270Y-84714067D01*
X150483603Y-84662879D01*
X150483607Y-84662878D01*
X150489547Y-84661219D01*
X150495051Y-84658439D01*
X150495053Y-84658438D01*
X150664956Y-84572614D01*
X150664958Y-84572613D01*
X150670457Y-84569835D01*
X150830171Y-84445053D01*
X150856628Y-84414403D01*
X150950983Y-84305091D01*
X150962606Y-84291626D01*
X151033517Y-84166800D01*
X151059675Y-84120753D01*
X151059676Y-84120752D01*
X151062718Y-84115396D01*
X151126694Y-83923078D01*
X151152096Y-83721997D01*
X151152501Y-83693000D01*
X151132723Y-83491287D01*
X151074142Y-83297258D01*
X150978990Y-83118302D01*
X150850890Y-82961237D01*
X150833874Y-82947160D01*
X150699472Y-82835973D01*
X150699469Y-82835971D01*
X150694722Y-82832044D01*
X150516435Y-82735644D01*
X150419627Y-82705677D01*
X150328707Y-82677532D01*
X150328704Y-82677531D01*
X150322820Y-82675710D01*
X150316695Y-82675066D01*
X150316694Y-82675066D01*
X150127378Y-82655168D01*
X150127377Y-82655168D01*
X150121250Y-82654524D01*
X150037986Y-82662102D01*
X149925543Y-82672335D01*
X149925540Y-82672336D01*
X149919404Y-82672894D01*
X149913498Y-82674632D01*
X149913494Y-82674633D01*
X149772091Y-82716251D01*
X149724971Y-82730119D01*
X149719514Y-82732972D01*
X149719511Y-82732973D01*
X149635163Y-82777069D01*
X149545355Y-82824019D01*
X149387399Y-82951019D01*
X149257119Y-83106281D01*
X149254155Y-83111673D01*
X149254152Y-83111677D01*
X149253136Y-83113526D01*
X149159477Y-83283891D01*
X149098193Y-83477084D01*
X149097507Y-83483201D01*
X149097506Y-83483205D01*
X149095912Y-83497420D01*
X149075600Y-83678500D01*
X140951079Y-83678500D01*
X140932723Y-83491287D01*
X140874142Y-83297258D01*
X140778990Y-83118302D01*
X140650890Y-82961237D01*
X140633874Y-82947160D01*
X140499472Y-82835973D01*
X140499469Y-82835971D01*
X140494722Y-82832044D01*
X140316435Y-82735644D01*
X140219627Y-82705677D01*
X140128707Y-82677532D01*
X140128704Y-82677531D01*
X140122820Y-82675710D01*
X140116695Y-82675066D01*
X140116694Y-82675066D01*
X139927378Y-82655168D01*
X139927377Y-82655168D01*
X139921250Y-82654524D01*
X139837986Y-82662102D01*
X139725543Y-82672335D01*
X139725540Y-82672336D01*
X139719404Y-82672894D01*
X139713498Y-82674632D01*
X139713494Y-82674633D01*
X139572091Y-82716251D01*
X139524971Y-82730119D01*
X139519514Y-82732972D01*
X139519511Y-82732973D01*
X139435163Y-82777069D01*
X139345355Y-82824019D01*
X139187399Y-82951019D01*
X139057119Y-83106281D01*
X139054155Y-83111673D01*
X139054152Y-83111677D01*
X139053136Y-83113526D01*
X138959477Y-83283891D01*
X138898193Y-83477084D01*
X138897507Y-83483201D01*
X138897506Y-83483205D01*
X138895912Y-83497420D01*
X138875600Y-83678500D01*
X111506000Y-83678500D01*
X111506000Y-80900161D01*
X113464393Y-80900161D01*
X113473687Y-80912175D01*
X113514088Y-80940464D01*
X113523584Y-80945947D01*
X113713113Y-81034326D01*
X113723405Y-81038072D01*
X113925401Y-81092196D01*
X113936196Y-81094099D01*
X114144525Y-81112326D01*
X114155475Y-81112326D01*
X114363804Y-81094099D01*
X114374599Y-81092196D01*
X114576595Y-81038072D01*
X114586887Y-81034326D01*
X114776416Y-80945947D01*
X114785912Y-80940464D01*
X114827148Y-80911590D01*
X114835523Y-80901112D01*
X114835023Y-80900161D01*
X119964393Y-80900161D01*
X119973687Y-80912175D01*
X120014088Y-80940464D01*
X120023584Y-80945947D01*
X120213113Y-81034326D01*
X120223405Y-81038072D01*
X120425401Y-81092196D01*
X120436196Y-81094099D01*
X120644525Y-81112326D01*
X120655475Y-81112326D01*
X120863804Y-81094099D01*
X120874599Y-81092196D01*
X121076595Y-81038072D01*
X121086887Y-81034326D01*
X121276416Y-80945947D01*
X121285912Y-80940464D01*
X121327148Y-80911590D01*
X121335523Y-80901112D01*
X121328457Y-80887668D01*
X120662811Y-80222021D01*
X120648868Y-80214408D01*
X120647034Y-80214539D01*
X120640420Y-80218790D01*
X119970820Y-80888391D01*
X119964393Y-80900161D01*
X114835023Y-80900161D01*
X114828457Y-80887668D01*
X114162811Y-80222021D01*
X114148868Y-80214408D01*
X114147034Y-80214539D01*
X114140420Y-80218790D01*
X113470820Y-80888391D01*
X113464393Y-80900161D01*
X111506000Y-80900161D01*
X111506000Y-79855475D01*
X112887674Y-79855475D01*
X112905901Y-80063804D01*
X112907804Y-80074599D01*
X112961928Y-80276595D01*
X112965674Y-80286887D01*
X113054054Y-80476417D01*
X113059534Y-80485907D01*
X113088411Y-80527149D01*
X113098887Y-80535523D01*
X113112334Y-80528455D01*
X113777979Y-79862811D01*
X113784356Y-79851132D01*
X114514408Y-79851132D01*
X114514539Y-79852966D01*
X114518790Y-79859580D01*
X115188391Y-80529180D01*
X115200161Y-80535607D01*
X115212176Y-80526311D01*
X115240466Y-80485907D01*
X115245946Y-80476417D01*
X115334326Y-80286887D01*
X115338072Y-80276595D01*
X115392196Y-80074599D01*
X115394099Y-80063804D01*
X115412326Y-79855475D01*
X119387674Y-79855475D01*
X119405901Y-80063804D01*
X119407804Y-80074599D01*
X119461928Y-80276595D01*
X119465674Y-80286887D01*
X119554054Y-80476417D01*
X119559534Y-80485907D01*
X119588411Y-80527149D01*
X119598887Y-80535523D01*
X119612334Y-80528455D01*
X120277979Y-79862811D01*
X120284356Y-79851132D01*
X121014408Y-79851132D01*
X121014539Y-79852966D01*
X121018790Y-79859580D01*
X121688391Y-80529180D01*
X121700161Y-80535607D01*
X121712176Y-80526311D01*
X121740466Y-80485907D01*
X121745946Y-80476417D01*
X121834326Y-80286887D01*
X121838072Y-80276595D01*
X121892196Y-80074599D01*
X121894099Y-80063804D01*
X121912326Y-79855475D01*
X121912326Y-79844525D01*
X121894099Y-79636196D01*
X121892196Y-79625401D01*
X121838072Y-79423405D01*
X121834326Y-79413113D01*
X121745946Y-79223583D01*
X121740466Y-79214093D01*
X121711589Y-79172851D01*
X121701113Y-79164477D01*
X121687666Y-79171545D01*
X121022021Y-79837189D01*
X121014408Y-79851132D01*
X120284356Y-79851132D01*
X120285592Y-79848868D01*
X120285461Y-79847034D01*
X120281210Y-79840420D01*
X119611609Y-79170820D01*
X119599839Y-79164393D01*
X119587824Y-79173689D01*
X119559534Y-79214093D01*
X119554054Y-79223583D01*
X119465674Y-79413113D01*
X119461928Y-79423405D01*
X119407804Y-79625401D01*
X119405901Y-79636196D01*
X119387674Y-79844525D01*
X119387674Y-79855475D01*
X115412326Y-79855475D01*
X115412326Y-79844525D01*
X115394099Y-79636196D01*
X115392196Y-79625401D01*
X115338072Y-79423405D01*
X115334326Y-79413113D01*
X115245946Y-79223583D01*
X115240466Y-79214093D01*
X115211589Y-79172851D01*
X115201113Y-79164477D01*
X115187666Y-79171545D01*
X114522021Y-79837189D01*
X114514408Y-79851132D01*
X113784356Y-79851132D01*
X113785592Y-79848868D01*
X113785461Y-79847034D01*
X113781210Y-79840420D01*
X113111609Y-79170820D01*
X113099839Y-79164393D01*
X113087824Y-79173689D01*
X113059534Y-79214093D01*
X113054054Y-79223583D01*
X112965674Y-79413113D01*
X112961928Y-79423405D01*
X112907804Y-79625401D01*
X112905901Y-79636196D01*
X112887674Y-79844525D01*
X112887674Y-79855475D01*
X111506000Y-79855475D01*
X111506000Y-78798887D01*
X113464477Y-78798887D01*
X113471545Y-78812334D01*
X114137189Y-79477979D01*
X114151132Y-79485592D01*
X114152966Y-79485461D01*
X114159580Y-79481210D01*
X114829180Y-78811609D01*
X114835607Y-78799839D01*
X114834871Y-78798887D01*
X119964477Y-78798887D01*
X119971545Y-78812334D01*
X120637189Y-79477979D01*
X120651132Y-79485592D01*
X120652966Y-79485461D01*
X120659580Y-79481210D01*
X121329180Y-78811609D01*
X121335607Y-78799839D01*
X121326313Y-78787825D01*
X121285912Y-78759536D01*
X121276416Y-78754053D01*
X121086887Y-78665674D01*
X121076595Y-78661928D01*
X120874599Y-78607804D01*
X120863804Y-78605901D01*
X120655475Y-78587674D01*
X120644525Y-78587674D01*
X120436196Y-78605901D01*
X120425401Y-78607804D01*
X120223405Y-78661928D01*
X120213113Y-78665674D01*
X120023583Y-78754054D01*
X120014093Y-78759534D01*
X119972851Y-78788411D01*
X119964477Y-78798887D01*
X114834871Y-78798887D01*
X114826313Y-78787825D01*
X114785912Y-78759536D01*
X114776416Y-78754053D01*
X114586887Y-78665674D01*
X114576595Y-78661928D01*
X114374599Y-78607804D01*
X114363804Y-78605901D01*
X114155475Y-78587674D01*
X114144525Y-78587674D01*
X113936196Y-78605901D01*
X113925401Y-78607804D01*
X113723405Y-78661928D01*
X113713113Y-78665674D01*
X113523583Y-78754054D01*
X113514093Y-78759534D01*
X113472851Y-78788411D01*
X113464477Y-78798887D01*
X111506000Y-78798887D01*
X111506000Y-75350000D01*
X112886693Y-75350000D01*
X112905885Y-75569371D01*
X112962880Y-75782076D01*
X112982474Y-75824095D01*
X113053618Y-75976666D01*
X113053621Y-75976671D01*
X113055944Y-75981653D01*
X113059100Y-75986160D01*
X113059101Y-75986162D01*
X113125610Y-76081146D01*
X113182251Y-76162038D01*
X113337962Y-76317749D01*
X113518346Y-76444056D01*
X113717924Y-76537120D01*
X113930629Y-76594115D01*
X114150000Y-76613307D01*
X114369371Y-76594115D01*
X114582076Y-76537120D01*
X114781654Y-76444056D01*
X114962038Y-76317749D01*
X115117749Y-76162038D01*
X115174391Y-76081146D01*
X115240899Y-75986162D01*
X115240900Y-75986160D01*
X115244056Y-75981653D01*
X115246379Y-75976671D01*
X115246382Y-75976666D01*
X115317526Y-75824095D01*
X115337120Y-75782076D01*
X115394115Y-75569371D01*
X115413307Y-75350000D01*
X119386693Y-75350000D01*
X119405885Y-75569371D01*
X119462880Y-75782076D01*
X119482474Y-75824095D01*
X119553618Y-75976666D01*
X119553621Y-75976671D01*
X119555944Y-75981653D01*
X119559100Y-75986160D01*
X119559101Y-75986162D01*
X119625610Y-76081146D01*
X119682251Y-76162038D01*
X119837962Y-76317749D01*
X120018346Y-76444056D01*
X120217924Y-76537120D01*
X120430629Y-76594115D01*
X120650000Y-76613307D01*
X120869371Y-76594115D01*
X121082076Y-76537120D01*
X121281654Y-76444056D01*
X121462038Y-76317749D01*
X121617749Y-76162038D01*
X121674391Y-76081146D01*
X121740899Y-75986162D01*
X121740900Y-75986160D01*
X121744056Y-75981653D01*
X121746379Y-75976671D01*
X121746382Y-75976666D01*
X121817526Y-75824095D01*
X121837120Y-75782076D01*
X121894115Y-75569371D01*
X121913307Y-75350000D01*
X121894115Y-75130629D01*
X121837120Y-74917924D01*
X121763209Y-74759420D01*
X121746382Y-74723334D01*
X121746379Y-74723329D01*
X121744056Y-74718347D01*
X121740899Y-74713838D01*
X121620908Y-74542473D01*
X121620906Y-74542470D01*
X121617749Y-74537962D01*
X121462038Y-74382251D01*
X121281654Y-74255944D01*
X121082076Y-74162880D01*
X120869371Y-74105885D01*
X120650000Y-74086693D01*
X120430629Y-74105885D01*
X120217924Y-74162880D01*
X120130790Y-74203511D01*
X120023334Y-74253618D01*
X120023329Y-74253621D01*
X120018347Y-74255944D01*
X120013840Y-74259100D01*
X120013838Y-74259101D01*
X119842473Y-74379092D01*
X119842470Y-74379094D01*
X119837962Y-74382251D01*
X119682251Y-74537962D01*
X119679094Y-74542470D01*
X119679092Y-74542473D01*
X119559101Y-74713838D01*
X119555944Y-74718347D01*
X119553621Y-74723329D01*
X119553618Y-74723334D01*
X119536791Y-74759420D01*
X119462880Y-74917924D01*
X119405885Y-75130629D01*
X119386693Y-75350000D01*
X115413307Y-75350000D01*
X115394115Y-75130629D01*
X115337120Y-74917924D01*
X115263209Y-74759420D01*
X115246382Y-74723334D01*
X115246379Y-74723329D01*
X115244056Y-74718347D01*
X115240899Y-74713838D01*
X115120908Y-74542473D01*
X115120906Y-74542470D01*
X115117749Y-74537962D01*
X114962038Y-74382251D01*
X114781654Y-74255944D01*
X114582076Y-74162880D01*
X114369371Y-74105885D01*
X114150000Y-74086693D01*
X113930629Y-74105885D01*
X113717924Y-74162880D01*
X113630790Y-74203511D01*
X113523334Y-74253618D01*
X113523329Y-74253621D01*
X113518347Y-74255944D01*
X113513840Y-74259100D01*
X113513838Y-74259101D01*
X113342473Y-74379092D01*
X113342470Y-74379094D01*
X113337962Y-74382251D01*
X113182251Y-74537962D01*
X113179094Y-74542470D01*
X113179092Y-74542473D01*
X113059101Y-74713838D01*
X113055944Y-74718347D01*
X113053621Y-74723329D01*
X113053618Y-74723334D01*
X113036791Y-74759420D01*
X112962880Y-74917924D01*
X112905885Y-75130629D01*
X112886693Y-75350000D01*
X111506000Y-75350000D01*
X111506000Y-73659000D01*
X111526002Y-73590879D01*
X111579658Y-73544386D01*
X111632000Y-73533000D01*
X124372408Y-73533000D01*
X124440529Y-73553002D01*
G37*
%TD.AperFunction*%
%TD*%
M02*
