%TF.GenerationSoftware,KiCad,Pcbnew,6.0.0-d3dd2cf0fa~116~ubuntu21.10.1*%
%TF.CreationDate,2022-01-12T20:58:07-05:00*%
%TF.ProjectId,ardustack-io,61726475-7374-4616-936b-2d696f2e6b69,rev?*%
%TF.SameCoordinates,Original*%
%TF.FileFunction,Soldermask,Top*%
%TF.FilePolarity,Negative*%
%FSLAX46Y46*%
G04 Gerber Fmt 4.6, Leading zero omitted, Abs format (unit mm)*
G04 Created by KiCad (PCBNEW 6.0.0-d3dd2cf0fa~116~ubuntu21.10.1) date 2022-01-12 20:58:07*
%MOMM*%
%LPD*%
G01*
G04 APERTURE LIST*
%ADD10O,1.727200X2.032000*%
%ADD11C,4.064000*%
%ADD12C,1.050000*%
%ADD13C,1.200000*%
%ADD14C,1.500000*%
%ADD15C,1.590000*%
G04 APERTURE END LIST*
D10*
%TO.C,P1*%
X138938000Y-123825000D03*
X141478000Y-123825000D03*
X144018000Y-123825000D03*
X146558000Y-123825000D03*
X149098000Y-123825000D03*
X151638000Y-123825000D03*
X154178000Y-123825000D03*
X156718000Y-123825000D03*
%TD*%
%TO.C,P2*%
X161798000Y-123825000D03*
X164338000Y-123825000D03*
X166878000Y-123825000D03*
X169418000Y-123825000D03*
X171958000Y-123825000D03*
X174498000Y-123825000D03*
%TD*%
%TO.C,P3*%
X129794000Y-75565000D03*
X132334000Y-75565000D03*
X134874000Y-75565000D03*
X137414000Y-75565000D03*
X139954000Y-75565000D03*
X142494000Y-75565000D03*
X145034000Y-75565000D03*
X147574000Y-75565000D03*
X150114000Y-75565000D03*
X152654000Y-75565000D03*
%TD*%
%TO.C,P4*%
X156718000Y-75565000D03*
X159258000Y-75565000D03*
X161798000Y-75565000D03*
X164338000Y-75565000D03*
X166878000Y-75565000D03*
X169418000Y-75565000D03*
X171958000Y-75565000D03*
X174498000Y-75565000D03*
%TD*%
D11*
%TO.C,P5*%
X124968000Y-123825000D03*
%TD*%
%TO.C,P6*%
X177038000Y-118745000D03*
%TD*%
%TO.C,P7*%
X126238000Y-75565000D03*
%TD*%
%TO.C,P8*%
X177038000Y-90805000D03*
%TD*%
D12*
%TO.C,R2*%
X139914000Y-83693000D03*
X150114000Y-83693000D03*
%TD*%
D13*
%TO.C,C1*%
X129450000Y-85050000D03*
X126950000Y-85050000D03*
%TD*%
D14*
%TO.C,S1*%
X114150000Y-75350000D03*
X120650000Y-75350000D03*
X114150000Y-79850000D03*
X120650000Y-79850000D03*
%TD*%
D13*
%TO.C,LED1*%
X150114000Y-88600000D03*
X147574000Y-88600000D03*
%TD*%
D15*
%TO.C,J1*%
X122400000Y-97750000D03*
X122400000Y-95210000D03*
X122400000Y-92670000D03*
X122400000Y-90130000D03*
X122400000Y-87590000D03*
X122400000Y-85050000D03*
%TD*%
D13*
%TO.C,R1*%
X129450000Y-104500000D03*
X129450000Y-88600000D03*
%TD*%
M02*
